<svg width="22" height="40" viewBox="0 0 22 40" fill="none" xmlns="http://www.w3.org/2000/svg">
<path fill-rule="evenodd" clip-rule="evenodd" d="M4.70113 20.0115L20.9811 36.9641C21.3074 37.262 21.4717 37.6262 21.4717 38.0578C21.4717 38.4893 21.3085 38.8683 20.9811 39.1946C20.8391 39.3397 20.6689 39.4541 20.481 39.5309C20.2931 39.6076 20.0914 39.6451 19.8885 39.6409C19.4569 39.6409 19.0927 39.4925 18.7959 39.1946L0.909549 21.1262C0.751452 20.9872 0.625638 20.8153 0.540909 20.6225C0.45618 20.4298 0.414581 20.2209 0.419023 20.0104C0.419023 19.5651 0.582181 19.1936 0.909549 18.8957L18.7959 0.827243C18.9379 0.682181 19.1081 0.567741 19.296 0.490981C19.4839 0.41422 19.6855 0.376766 19.8885 0.380928C20.3201 0.380928 20.6832 0.529349 20.9811 0.827243C21.3074 1.12409 21.4717 1.49672 21.4717 1.94303C21.4717 2.3883 21.3085 2.75988 20.9811 3.05777L4.70113 20.0115Z" fill="#023059"/>
</svg>
