<svg width="20" height="20" viewBox="0 0 20 20" fill="none" xmlns="http://www.w3.org/2000/svg">
<path d="M10.0001 14.4691C13.6434 14.4691 16.6076 11.4841 16.6076 7.81579C16.6076 4.14579 13.6434 1.16162 10.0001 1.16162C6.35674 1.16162 3.39258 4.14662 3.39258 7.81662C3.39258 11.485 6.35674 14.4691 10.0001 14.4691ZM10.0001 2.09995C13.1284 2.09995 15.6751 4.66329 15.6751 7.81495C15.6751 10.965 13.1301 13.53 10.0001 13.53C6.87174 13.53 4.32508 10.9666 4.32508 7.81495C4.32508 4.66329 6.87174 2.09995 10.0001 2.09995Z" fill="#F579BD"/>
<path d="M17.9017 18.839C18.1584 18.839 18.3684 18.6273 18.3684 18.3681V18.0248C18.3684 15.9398 17.16 14.0098 15.29 13.1098C15.2348 13.0832 15.1748 13.0678 15.1136 13.0646C15.0523 13.0614 14.9911 13.0703 14.9333 13.0909C14.8756 13.1116 14.8225 13.1434 14.7771 13.1847C14.7318 13.226 14.6951 13.2759 14.6692 13.3315C14.6158 13.4436 14.6089 13.5723 14.6499 13.6895C14.691 13.8067 14.7767 13.903 14.8884 13.9573C15.6508 14.329 16.2936 14.9072 16.7438 15.6261C17.194 16.345 17.4335 17.1757 17.435 18.024V18.3681C17.435 18.6273 17.6434 18.839 17.9017 18.839ZM1.63086 18.0248V18.3681C1.63086 18.6273 1.84086 18.839 2.09753 18.839C2.35586 18.839 2.56503 18.6273 2.56503 18.3681V18.0248C2.56503 16.2998 3.56503 14.7015 5.11169 13.9581C5.22374 13.904 5.30979 13.8076 5.35101 13.6902C5.39224 13.5728 5.38529 13.4438 5.33169 13.3315C5.3056 13.276 5.26882 13.2263 5.22345 13.1852C5.17808 13.144 5.12503 13.1122 5.06734 13.0916C5.00965 13.071 4.94846 13.062 4.88729 13.0651C4.82611 13.0683 4.76615 13.0834 4.71086 13.1098C3.78882 13.5585 3.01128 14.2571 2.46677 15.1261C1.92225 15.995 1.63262 16.9994 1.63086 18.0248Z" fill="#F579BD"/>
</svg>
