<svg width="20" height="19" viewBox="0 0 20 19" fill="none" xmlns="http://www.w3.org/2000/svg">
<path fill-rule="evenodd" clip-rule="evenodd" d="M6.61331 2.11483C5.68001 1.81364 4.66969 1.85675 3.76543 2.23634C2.86118 2.61592 2.12281 3.30688 1.68414 4.184C1.29849 4.95432 1.16516 5.82651 1.30307 6.67686C1.44098 7.52721 1.84313 8.31256 2.45248 8.9215L2.46164 8.93067L10.0008 16.794L17.5408 8.92817L17.5491 8.91984C18.3095 8.14863 18.7341 7.10803 18.7303 6.025C18.7265 4.94197 18.2946 3.90439 17.5287 3.13857C16.7629 2.37275 15.7253 1.94082 14.6423 1.937C13.5593 1.93318 12.5187 2.35777 11.7475 3.11817L10.4425 4.42233C10.3253 4.53938 10.1664 4.60512 10.0008 4.60512C9.83518 4.60512 9.67633 4.53938 9.55914 4.42233L8.25414 3.11817C7.79443 2.65843 7.23203 2.31454 6.61331 2.11483ZM0.56581 3.62484C0.0633694 4.62886 -0.110578 5.76548 0.068587 6.87382C0.247752 7.98216 0.770954 9.00608 1.56414 9.80067L9.54998 18.129C9.6083 18.1897 9.6783 18.2381 9.75578 18.2711C9.83325 18.3041 9.91659 18.3211 10.0008 18.3211C10.085 18.3211 10.1684 18.3041 10.2458 18.2711C10.3233 18.2381 10.3933 18.1897 10.4516 18.129L18.4383 9.79817C19.2307 9.00361 19.7533 7.9801 19.9323 6.87232C20.1113 5.76454 19.9376 4.62852 19.4358 3.62484C19.0566 2.86631 18.5025 2.20876 17.8193 1.70637C17.1361 1.20397 16.3432 0.871103 15.5062 0.735197C14.6691 0.59929 13.8117 0.664232 13.0046 0.924672C12.1975 1.18511 11.4639 1.6336 10.8641 2.23317L10.0008 3.0965L9.13748 2.234C8.53778 1.6344 7.8042 1.18587 6.99717 0.925366C6.19015 0.664864 5.33277 0.599846 4.49569 0.735671C3.6586 0.871495 2.86577 1.20427 2.18252 1.70659C1.49927 2.2089 0.945144 2.86638 0.56581 3.62484Z" fill="#F579BD"/>
</svg>
