<svg width="21" height="19" viewBox="0 0 21 19" fill="red" xmlns="http://www.w3.org/2000/svg">
<path d="M19.3167 2.48535C18.8383 1.99056 18.2662 1.61328 17.6002 1.35352C16.9343 1.09375 16.207 0.963867 15.4182 0.963867C14.4097 0.963867 13.5175 1.20508 12.7417 1.6875C11.9659 2.16992 11.3452 2.63997 10.8797 3.09766C10.4142 2.63997 9.79356 2.16992 9.01774 1.6875C8.24192 1.20508 7.34973 0.963867 6.34116 0.963867C5.55241 0.963867 4.82508 1.09375 4.15917 1.35352C3.49326 1.61328 2.92109 1.99056 2.44267 2.48535C1.96425 2.98014 1.59573 3.56462 1.33713 4.23877C1.07852 4.91292 0.949219 5.6582 0.949219 6.47461C0.949219 7.20443 1.08175 7.92497 1.34683 8.63623C1.6119 9.34749 1.95132 10.0371 2.36509 10.7051C2.83058 11.3854 3.31547 12.0286 3.81975 12.6348C4.32403 13.2409 4.86064 13.8161 5.42958 14.3604C6.12781 15.016 6.85191 15.6499 7.60187 16.2622C8.35183 16.8745 9.12765 17.459 9.92933 18.0156L10.0457 18.0898C10.0586 18.1022 10.0716 18.1146 10.0845 18.127C10.0974 18.1393 10.1104 18.1455 10.1233 18.1455L10.1427 18.1641L10.8797 18.5908L11.6167 18.1641L11.6361 18.1455C11.6491 18.1455 11.662 18.1393 11.6749 18.127C11.6879 18.1146 11.7072 18.1022 11.7331 18.0898C12.5736 17.4961 13.3753 16.89 14.1381 16.2715C14.901 15.653 15.6316 15.016 16.3298 14.3604C16.8988 13.8161 17.4354 13.244 17.9397 12.644C18.4439 12.0441 18.9094 11.4225 19.3361 10.7793L19.3943 10.7051C19.8081 10.0371 20.1475 9.34749 20.4126 8.63623C20.6777 7.92497 20.8102 7.20443 20.8102 6.47461C20.8102 5.6582 20.6841 4.91292 20.432 4.23877C20.1798 3.56462 19.8081 2.98014 19.3167 2.48535ZM11.0931 17.4219L10.8797 17.5332L10.6664 17.4219C10.6534 17.4095 10.6437 17.4002 10.6373 17.394C10.6308 17.3879 10.6146 17.3786 10.5888 17.3662C9.76123 16.7848 8.97895 16.1942 8.24192 15.5942C7.50489 14.9943 6.79372 14.3665 6.10842 13.7109C5.56534 13.2038 5.05136 12.6657 4.56648 12.0967C4.08159 11.5277 3.63226 10.9339 3.21849 10.3154L3.1797 10.2227C2.77886 9.60417 2.4653 8.97949 2.23902 8.34863C2.01274 7.71777 1.8996 7.0931 1.8996 6.47461C1.8996 5.75716 2.00951 5.11393 2.22932 4.54492C2.44914 3.97591 2.74653 3.49349 3.12151 3.09766C3.50942 2.71419 3.97491 2.41422 4.51799 2.19775C5.06106 1.98128 5.66879 1.87305 6.34116 1.87305C7.27215 1.87305 8.09645 2.12663 8.81409 2.63379C9.53172 3.14095 10.1039 3.61719 10.5306 4.0625L10.8797 4.45215L11.2288 4.0625C11.6555 3.61719 12.2277 3.14095 12.9453 2.63379C13.663 2.12663 14.4873 1.87305 15.4182 1.87305C16.0906 1.87305 16.6984 1.98128 17.2414 2.19775C17.7845 2.41422 18.25 2.71419 18.6379 3.09766C19.0129 3.49349 19.3103 3.97591 19.5301 4.54492C19.7499 5.11393 19.8598 5.75716 19.8598 6.47461C19.8598 7.0931 19.7467 7.71777 19.5204 8.34863C19.2941 8.97949 18.9806 9.60417 18.5797 10.2227C18.1401 10.8906 17.6778 11.5122 17.1929 12.0874C16.708 12.6626 16.1941 13.2038 15.651 13.7109C14.9657 14.3665 14.2578 14.9912 13.5272 15.585C12.7966 16.1787 12.0434 16.7477 11.2676 17.292L11.1706 17.3662C11.1448 17.3786 11.1286 17.3879 11.1221 17.394C11.1157 17.4002 11.106 17.4095 11.0931 17.4219Z" fill="red" />
</svg>
