<svg width="21" height="20" viewBox="0 0 21 20" fill="none" xmlns="http://www.w3.org/2000/svg">
<path d="M10.3797 14.4691C14.0231 14.4691 16.9872 11.4841 16.9872 7.81579C16.9872 4.14579 14.0231 1.16162 10.3797 1.16162C6.73638 1.16162 3.77222 4.14662 3.77222 7.81662C3.77222 11.485 6.73638 14.4691 10.3797 14.4691ZM10.3797 2.09995C13.508 2.09995 16.0547 4.66329 16.0547 7.81495C16.0547 10.965 13.5097 13.53 10.3797 13.53C7.25138 13.53 4.70472 10.9666 4.70472 7.81495C4.70472 4.66329 7.25138 2.09995 10.3797 2.09995Z" fill="#023059"/>
<path d="M18.2823 18.8392C18.539 18.8392 18.749 18.6275 18.749 18.3684V18.025C18.749 15.94 17.5406 14.01 15.6706 13.11C15.6154 13.0834 15.5554 13.0681 15.4942 13.0649C15.4329 13.0616 15.3717 13.0706 15.3139 13.0912C15.2562 13.1118 15.2031 13.1437 15.1578 13.185C15.1124 13.2263 15.0757 13.2761 15.0498 13.3317C14.9964 13.4438 14.9895 13.5725 15.0305 13.6897C15.0716 13.807 15.1573 13.9032 15.269 13.9575C16.0314 14.3293 16.6743 14.9074 17.1244 15.6263C17.5746 16.3452 17.8141 17.176 17.8156 18.0242V18.3684C17.8156 18.6275 18.024 18.8392 18.2823 18.8392ZM2.01147 18.025V18.3684C2.01147 18.6275 2.22147 18.8392 2.47814 18.8392C2.73647 18.8392 2.94564 18.6275 2.94564 18.3684V18.025C2.94564 16.3 3.94564 14.7017 5.49231 13.9584C5.60436 13.9042 5.6904 13.8079 5.73163 13.6904C5.77285 13.573 5.76591 13.444 5.71231 13.3317C5.68622 13.2763 5.64943 13.2266 5.60406 13.1854C5.5587 13.1442 5.50565 13.1124 5.44796 13.0918C5.39027 13.0713 5.32908 13.0623 5.2679 13.0654C5.20672 13.0685 5.14677 13.0837 5.09147 13.11C4.16943 13.5588 3.3919 14.2574 2.84738 15.1263C2.30286 15.9952 2.01324 16.9996 2.01147 18.025Z" fill="#023059"/>
</svg>
