<svg width="20" height="20" viewBox="0 0 20 20" fill="none" xmlns="http://www.w3.org/2000/svg">
<path d="M8.43993 16.9041C3.79993 16.9041 0.0239258 13.1281 0.0239258 8.48808C0.0319258 3.85608 3.79993 0.0800781 8.43993 0.0800781C13.0799 0.0800781 16.8559 3.85608 16.8559 8.49608C16.8559 13.1361 13.0799 16.9041 8.43993 16.9041ZM8.43993 1.68008C4.67993 1.68008 1.62393 4.73608 1.62393 8.49608C1.62393 12.2561 4.67993 15.3121 8.43993 15.3121C12.1999 15.3121 15.2559 12.2561 15.2559 8.49608C15.2559 4.73608 12.1999 1.68008 8.43993 1.68008Z" fill="#023059"/>
<path d="M19.1919 20.0001C18.9919 20.0001 18.7919 19.9281 18.6399 19.7761L13.2239 14.5841C12.9039 14.2801 12.8959 13.7681 13.1999 13.4561C13.5039 13.1361 14.0159 13.1281 14.3279 13.4321L19.7439 18.6241C20.0639 18.9281 20.0719 19.4401 19.7679 19.7521C19.6079 19.9201 19.3999 20.0001 19.1919 20.0001Z" fill="#023059"/>
</svg>
