<svg width="16" height="19" viewBox="0 0 16 19" fill="none" xmlns="http://www.w3.org/2000/svg">
<path d="M1.34778 0.24296C1.16578 0.24296 1.01178 0.30946 0.885777 0.442459C0.759777 0.575459 0.696777 0.73296 0.696777 0.914959C0.696777 1.09696 0.759777 1.25096 0.885777 1.37696C1.01178 1.50296 1.16578 1.56596 1.34778 1.56596H2.83878V10.764C2.83878 11.184 2.98928 11.5445 3.29028 11.8455C3.59128 12.1465 3.95178 12.297 4.37178 12.297H14.4728C14.6548 12.297 14.8088 12.234 14.9348 12.108C15.0608 11.982 15.1238 11.828 15.1238 11.646C15.1238 11.464 15.0608 11.31 14.9348 11.184C14.8088 11.058 14.6548 10.995 14.4728 10.995H4.37178C4.31578 10.995 4.26328 10.9705 4.21428 10.9215C4.16528 10.8725 4.14078 10.82 4.14078 10.764V9.50396H13.5278C13.7378 9.50396 13.9233 9.43746 14.0843 9.30446C14.2453 9.17146 14.3468 9.00696 14.3888 8.81096L15.4388 4.12796C15.4948 3.84796 15.4353 3.59946 15.2603 3.38246C15.0853 3.16546 14.8578 3.05696 14.5778 3.05696H4.14078V0.914959C4.14078 0.73296 4.07778 0.575459 3.95178 0.442459C3.82578 0.30946 3.67178 0.24296 3.48978 0.24296H1.34778ZM4.14078 4.35896H14.0318L13.1708 8.18096H4.14078V4.35896ZM4.41378 16.224C4.41378 15.986 4.49778 15.7795 4.66578 15.6045C4.83378 15.4295 5.04028 15.342 5.28528 15.342C5.53028 15.342 5.73678 15.4295 5.90478 15.6045C6.07278 15.7795 6.15678 15.986 6.15678 16.224C6.15678 16.462 6.07278 16.665 5.90478 16.833C5.73678 17.001 5.53028 17.085 5.28528 17.085C5.04028 17.085 4.83378 17.001 4.66578 16.833C4.49778 16.665 4.41378 16.462 4.41378 16.224ZM3.09078 16.224C3.09078 16.616 3.18878 16.98 3.38478 17.316C3.58078 17.652 3.84678 17.918 4.18278 18.114C4.51878 18.31 4.88278 18.408 5.27478 18.408C5.66678 18.408 6.03428 18.31 6.37728 18.114C6.72028 17.918 6.98978 17.652 7.18578 17.316C7.38178 16.98 7.47978 16.6125 7.47978 16.2135C7.47978 15.8145 7.38178 15.4505 7.18578 15.1215C6.98978 14.7925 6.72378 14.53 6.38778 14.334C6.05178 14.138 5.68428 14.04 5.28528 14.04C4.88628 14.04 4.51878 14.138 4.18278 14.334C3.84678 14.53 3.58078 14.796 3.38478 15.132C3.18878 15.468 3.09078 15.832 3.09078 16.224ZM13.1498 15.342C13.4018 15.342 13.6118 15.4295 13.7798 15.6045C13.9478 15.7795 14.0318 15.986 14.0318 16.224C14.0318 16.462 13.9478 16.665 13.7798 16.833C13.6118 17.001 13.4053 17.085 13.1603 17.085C12.9153 17.085 12.7088 17.001 12.5408 16.833C12.3728 16.665 12.2888 16.462 12.2888 16.224C12.2888 15.986 12.3728 15.7795 12.5408 15.6045C12.7088 15.4295 12.9118 15.342 13.1498 15.342ZM13.1498 14.04C12.7578 14.04 12.3938 14.138 12.0578 14.334C11.7218 14.53 11.4558 14.796 11.2598 15.132C11.0638 15.468 10.9658 15.832 10.9658 16.224C10.9658 16.616 11.0638 16.98 11.2598 17.316C11.4558 17.652 11.7218 17.918 12.0578 18.114C12.3938 18.31 12.7578 18.408 13.1498 18.408C13.5418 18.408 13.9093 18.31 14.2523 18.114C14.5953 17.918 14.8648 17.652 15.0608 17.316C15.2568 16.98 15.3548 16.6125 15.3548 16.2135C15.3548 15.8145 15.2568 15.4505 15.0608 15.1215C14.8648 14.7925 14.5988 14.53 14.2628 14.334C13.9268 14.138 13.5558 14.04 13.1498 14.04Z" fill="#023059"/>
</svg>
