<svg width="95" height="88" viewBox="0 0 95 88" fill="none" xmlns="http://www.w3.org/2000/svg">
<path d="M74.5005 18.8317C74.4108 18.6651 74.4781 18.7692 74.5005 18.8317V18.8317Z" fill="#023059"/>
<path d="M77.2649 20.7271C77.1061 18.8943 76.3576 17.1865 75.0874 15.7703C73.8852 14.4166 72.1614 13.4378 70.3241 12.9796C68.5096 12.5422 66.5362 12.5839 64.7897 13.167C62.8844 13.7918 61.2513 14.9373 60.0945 16.4784C57.917 19.3525 57.9397 23.3928 60.1399 26.2461C60.4348 26.6418 60.775 27.0167 61.1379 27.3499C62.4761 28.5995 64.2227 29.495 66.1053 29.8282C68.0559 30.1615 70.0066 29.9324 71.8212 29.2034C75.3142 27.7872 77.5824 24.2467 77.2649 20.7271ZM73.5904 25.3089L73.5677 25.3297C73.4543 25.4755 73.545 25.3505 73.5904 25.3089ZM61.274 18.7902C61.274 18.7694 61.2967 18.7694 61.2967 18.7485C61.3647 18.6027 61.2967 18.7485 61.274 18.7902ZM60.775 20.4147C60.775 20.4563 60.775 20.4771 60.7523 20.5188C60.775 20.4771 60.775 20.4147 60.775 20.4147ZM67.5796 27.9122C67.3755 27.9122 67.194 27.8914 66.9899 27.8705C66.9672 27.8705 66.9445 27.8705 66.9445 27.8705C66.8311 27.8497 66.7177 27.8289 66.6043 27.8081C66.2187 27.7456 65.8104 27.6415 65.4475 27.5165C65.3568 27.4957 65.266 27.454 65.198 27.4332C65.1753 27.4332 65.1526 27.4124 65.1299 27.4124C64.9939 27.3082 64.7443 27.2457 64.5629 27.1624C64.3814 27.0791 64.2227 26.975 64.0412 26.8917C63.9505 26.8292 63.8597 26.7876 63.769 26.7251C63.701 26.6834 63.5422 26.5376 63.4742 26.5376C63.4515 26.5168 63.4288 26.5168 63.4061 26.496C63.3381 26.4335 63.27 26.3919 63.1793 26.3294C63.0205 26.2044 62.8617 26.0586 62.703 25.9129C62.5669 25.7671 62.4308 25.6421 62.2947 25.4963C62.272 25.4755 62.2493 25.4547 62.2493 25.4338C62.2493 25.3714 62.0679 25.2048 62.0452 25.1631C61.8184 24.8507 61.5915 24.5175 61.4101 24.1843C61.3647 24.1009 61.3194 24.0385 61.2967 23.9552C61.2967 23.9343 61.2967 23.9343 61.274 23.9343C61.274 23.9135 61.2513 23.9135 61.2513 23.8719C61.1833 23.6844 61.1152 23.5178 61.0472 23.3304C60.9338 22.9763 60.843 22.6223 60.775 22.2474C60.775 22.2266 60.775 22.2266 60.775 22.2057C60.775 22.1224 60.7523 22.0391 60.7523 21.9558C60.7296 21.7684 60.7296 21.5809 60.7296 21.3935C60.7296 21.2061 60.7296 21.0395 60.7523 20.852C60.7523 20.7687 60.775 20.6854 60.775 20.6021C60.775 20.6021 60.775 20.5813 60.775 20.5604C60.775 20.5396 60.775 20.5188 60.7977 20.498C60.8657 20.1231 60.9564 19.769 61.0699 19.415C61.1379 19.2484 61.1833 19.0818 61.274 18.9151C61.274 18.8943 61.2967 18.8735 61.2967 18.8527C61.3647 18.7694 61.3874 18.6444 61.4328 18.5611C61.6142 18.2279 61.8184 17.8946 62.0679 17.5822C62.1132 17.5198 62.1813 17.4365 62.2266 17.374C62.2493 17.3532 62.272 17.3323 62.272 17.3115C62.4081 17.1657 62.5669 16.9991 62.703 16.8533C62.8391 16.7075 62.9978 16.5826 63.1566 16.4576C63.2473 16.3951 63.3154 16.3327 63.4061 16.2494C63.4288 16.2285 63.4742 16.2077 63.4968 16.1869C63.8371 15.9578 64.1773 15.7495 64.5402 15.5829C64.7217 15.4996 64.9031 15.4163 65.0846 15.333C65.1073 15.333 65.1073 15.333 65.1073 15.3122L65.1299 15.3122C65.2434 15.2705 65.3568 15.2289 65.4702 15.208C65.8558 15.0831 66.2414 14.9998 66.6496 14.9165C66.7404 14.8956 66.8311 14.8956 66.9218 14.8748L66.9445 14.8748C66.9672 14.8748 66.9672 14.8748 66.9899 14.8748C67.194 14.854 67.3982 14.8331 67.6023 14.8331C68.0106 14.8123 68.3962 14.8332 68.8044 14.8748L68.8271 14.8748L68.8498 14.8748C68.9405 14.8956 69.0313 14.8956 69.122 14.9165C69.3261 14.9581 69.5303 14.9998 69.7344 15.0414C69.9159 15.0831 70.12 15.1455 70.3015 15.208C70.3922 15.2289 70.4829 15.2705 70.551 15.2913C70.5963 15.3122 70.6417 15.3122 70.6871 15.333C71.05 15.4996 71.4129 15.6662 71.7758 15.8745C71.9346 15.9578 72.0707 16.0619 72.2294 16.1452C72.2521 16.166 72.3202 16.2077 72.3428 16.2285C72.4336 16.291 72.5243 16.3743 72.615 16.4576C72.9326 16.7284 73.2275 16.9991 73.4996 17.3115C73.5223 17.3323 73.545 17.3532 73.5677 17.374C73.613 17.4365 73.6811 17.4989 73.7265 17.5614C73.8399 17.728 73.976 17.8946 74.0667 18.0613C74.1574 18.2279 74.2708 18.3737 74.3616 18.5403C74.4069 18.6236 74.4523 18.7069 74.4976 18.811C74.5203 18.8527 74.5203 18.8735 74.543 18.9151C74.543 18.8943 74.543 18.8943 74.5203 18.8943C74.5203 18.8943 74.5203 18.8943 74.5203 18.9151C74.6564 19.2692 74.7925 19.6232 74.8832 19.9773C74.9286 20.1439 74.974 20.3313 74.9967 20.498L74.9967 20.5188C74.9967 20.5188 74.9967 20.5188 74.9967 20.5396C75.0193 20.6437 75.0193 20.7479 75.0193 20.852C75.042 21.2269 75.042 21.5809 75.0193 21.9558C75.0193 22.0391 74.9967 22.1224 74.9967 22.2057C74.9967 22.2266 74.9967 22.2474 74.9967 22.2474C74.9513 22.4348 74.9286 22.6431 74.8832 22.8305C74.7925 23.1846 74.6791 23.5386 74.5203 23.8927C74.5203 23.9135 74.4976 23.9343 74.4976 23.9343C74.4523 24.0176 74.4296 24.0801 74.3842 24.1634C74.2935 24.33 74.2028 24.5175 74.0894 24.6841C73.9986 24.8507 73.8852 24.9965 73.7718 25.1423C73.7265 25.2048 73.6811 25.2672 73.6357 25.3297C73.5904 25.3505 73.545 25.4338 73.5223 25.4755C73.2501 25.7879 72.9553 26.0586 72.6377 26.3294C72.5697 26.3919 72.5016 26.4543 72.4109 26.496C72.3655 26.5168 72.3428 26.5585 72.2975 26.5793C72.116 26.6834 71.9573 26.8084 71.7758 26.9125C71.4356 27.1208 71.0727 27.2874 70.6871 27.454C70.6644 27.454 70.6644 27.4748 70.619 27.4748C70.5283 27.4957 70.4376 27.5373 70.3695 27.5581C70.1654 27.6206 69.9612 27.6831 69.7798 27.7248C69.5983 27.7664 69.3942 27.8081 69.2127 27.8497C69.122 27.8705 69.0086 27.8914 68.8952 27.8914C68.8725 27.8914 68.8725 27.8914 68.8725 27.8914C68.8498 27.8914 68.8498 27.8914 68.8271 27.8914C68.3735 27.9122 67.9652 27.9122 67.5796 27.9122Z" fill="#023059"/>
<path d="M82.2335 50.0494C85.1595 48.8831 87.0648 45.9257 86.8153 43.01C86.6792 41.4689 86.0668 40.0735 85.0007 38.8864C84.0027 37.7409 82.551 36.9287 81.0313 36.5538C79.5343 36.1789 77.8785 36.2206 76.4269 36.7204C74.8391 37.2411 73.5009 38.1991 72.5256 39.4695C70.711 41.8437 70.7337 45.2176 72.5482 47.5919C72.7977 47.9251 73.0699 48.2375 73.3875 48.5291C74.4989 49.5704 75.9505 50.3201 77.5156 50.5909C79.126 50.8408 80.7138 50.6534 82.2335 50.0494ZM74.5896 46.6755C74.5443 46.6338 74.4989 46.5505 74.4535 46.5089C74.2494 46.2381 74.0679 45.9674 73.9318 45.6758C73.9092 45.6133 73.8638 45.5509 73.8411 45.4884L73.8411 45.4676C73.7957 45.3218 73.7277 45.1968 73.6823 45.051C73.637 44.9052 73.5916 44.7803 73.5689 44.6345C73.5462 44.5512 73.4102 44.1971 73.4555 44.1347C73.4555 44.1763 73.4782 44.218 73.4782 44.2804C73.4782 44.2388 73.4555 44.1763 73.4555 44.1347C73.4555 44.0722 73.4328 43.9889 73.4328 43.9264C73.4328 43.7806 73.4102 43.6348 73.4102 43.5099C73.4102 43.3641 73.4102 43.2183 73.4328 43.0933C73.4328 43.0309 73.4555 42.9475 73.4555 42.8851C73.4555 42.8642 73.4555 42.8642 73.4555 42.8434C73.4555 42.8434 73.4555 42.8226 73.4555 42.8018C73.5236 42.5102 73.5689 42.2394 73.6597 41.9687C73.705 41.8229 73.7504 41.698 73.8184 41.5522L73.8184 41.5313C73.8638 41.448 73.9092 41.3647 73.9545 41.2814C74.0906 41.0315 74.2267 40.8024 74.4082 40.5942C74.4535 40.5317 74.4989 40.4692 74.5443 40.4067C74.5443 40.4067 74.5443 40.4067 74.5443 40.3859C74.5443 40.3859 74.5443 40.3859 74.5443 40.3651C74.6577 40.2401 74.7938 40.0943 74.9299 39.9694C75.0433 39.8652 75.1567 39.7611 75.2928 39.657C75.3608 39.6153 75.4062 39.5528 75.4742 39.5112C75.4742 39.5112 75.4969 39.4903 75.5196 39.4695C75.7464 39.2613 76.1093 39.0946 76.3815 38.9697C76.5176 38.9072 76.6537 38.8447 76.8125 38.7822L76.8351 38.7822C76.9032 38.7614 76.9712 38.7406 77.062 38.6989C77.3795 38.5948 77.7198 38.5115 78.0373 38.4699C78.06 38.4699 78.2414 38.4282 78.2641 38.4282C78.2188 38.4282 78.1734 38.449 78.1053 38.449C78.1507 38.449 78.2188 38.4282 78.2641 38.4282C78.4229 38.4074 78.5817 38.4074 78.7178 38.4074C79.058 38.4074 79.3755 38.4074 79.7158 38.449C79.7158 38.449 79.7158 38.449 79.7385 38.449C79.7838 38.449 79.8292 38.4699 79.8972 38.4699C80.056 38.4907 80.1921 38.5323 80.3509 38.5532C80.5096 38.5948 80.6457 38.6365 80.8045 38.6781C80.8726 38.6989 80.9633 38.7198 81.0313 38.7406C81.0767 38.7614 81.0994 38.7614 81.1447 38.7822C81.4169 38.9072 81.7118 39.0322 81.9613 39.178C82.0974 39.2613 82.2335 39.3446 82.3696 39.4279C82.3696 39.4279 82.3696 39.4279 82.3923 39.4279C82.3923 39.4279 82.3923 39.4279 82.4149 39.4279C82.5057 39.4904 82.5737 39.5528 82.6644 39.6153C82.9139 39.8236 83.1408 40.0318 83.3449 40.2818C83.3449 40.2818 83.3676 40.3026 83.3676 40.3234C83.413 40.3651 83.4583 40.4484 83.5037 40.49C83.6171 40.6358 83.7078 40.7816 83.7985 40.9274C83.8893 41.0523 83.9573 41.1773 84.0254 41.3231C84.0481 41.3856 84.0934 41.448 84.1161 41.5105L84.1161 41.5313C84.2295 41.8229 84.3429 42.1145 84.411 42.4269C84.4336 42.4894 84.5471 42.8018 84.5017 42.8434C84.5017 42.8434 84.479 42.5727 84.5017 42.7809C84.5017 42.8434 84.5244 42.9267 84.5244 42.9892C84.5471 43.3016 84.5471 43.614 84.5244 43.9056C84.5244 43.968 84.5017 44.0514 84.5017 44.1138C84.5017 44.1347 84.5017 44.1555 84.5017 44.1763C84.479 44.3013 84.479 44.2804 84.5017 44.1138C84.5471 44.1555 84.4336 44.4679 84.411 44.5304C84.3429 44.8428 84.2295 45.1343 84.1161 45.4259L84.1161 45.4467C84.0934 45.5092 84.048 45.5717 84.0254 45.6342C83.9573 45.7591 83.8893 45.8841 83.7985 46.009C83.7078 46.134 83.6398 46.259 83.549 46.3839C83.5037 46.4464 83.4583 46.5089 83.413 46.5714C83.3903 46.5922 83.3676 46.613 83.3449 46.6547C83.1408 46.8838 82.9139 47.1129 82.6644 47.3003C82.5964 47.3419 82.551 47.4044 82.483 47.4461C82.483 47.4461 82.4603 47.4669 82.4376 47.4877C82.3015 47.5919 82.1201 47.696 81.984 47.7793C81.7118 47.9251 81.4169 48.0917 81.1221 48.1958C81.0994 48.1958 81.054 48.2167 81.0313 48.2167C80.9406 48.2583 80.8272 48.2791 80.7365 48.3208C80.555 48.3624 80.3962 48.4249 80.2148 48.4457C80.1241 48.4666 79.7385 48.5915 79.6704 48.5499C79.7158 48.5499 79.7611 48.5291 79.8292 48.5291C79.7838 48.5291 79.7158 48.5499 79.6704 48.5499C79.557 48.5499 79.4663 48.5707 79.3529 48.5707C78.9899 48.5915 78.627 48.5915 78.2641 48.5499C78.2414 48.5499 78.2188 48.5499 78.1961 48.5499C78.06 48.5291 78.0827 48.5291 78.2641 48.5499C78.2414 48.5707 77.9919 48.5082 77.9693 48.5082C77.7878 48.4666 77.6063 48.4457 77.4476 48.3833C77.2661 48.3416 77.1073 48.2791 76.9259 48.2167C76.9032 48.2167 76.8805 48.1958 76.8578 48.1958C76.7671 48.175 76.6991 48.1333 76.6083 48.0917C76.2681 47.9459 75.9505 47.7585 75.6557 47.571C75.6557 47.571 75.633 47.5502 75.6103 47.5502C75.5196 47.5086 75.4515 47.4252 75.3835 47.3628C75.2474 47.2378 75.0886 47.1129 74.9752 46.9879C74.8618 46.8838 74.7484 46.7588 74.635 46.6547C74.6123 46.6963 74.6123 46.6963 74.5896 46.6755Z" fill="#023059"/>
<path d="M64.726 56.6941C62.9115 59.0683 62.9341 62.4422 64.7487 64.8164C64.9982 65.1496 65.2704 65.462 65.5879 65.7536C66.6994 66.7949 68.151 67.5447 69.7161 67.8154C71.3492 68.0862 72.9596 67.8987 74.4793 67.2948C77.4053 66.1285 79.2879 63.1711 79.0384 60.2554C78.9023 58.7142 78.2899 57.3189 77.2239 56.1317C76.2258 54.9863 74.7742 54.174 73.2545 53.7992C71.7575 53.4243 70.1017 53.466 68.65 53.9658C67.0169 54.4656 65.6787 55.4236 64.726 56.6941ZM71.9616 55.6736C71.9843 55.6736 71.9843 55.6736 71.9616 55.6736C72.0297 55.6944 72.075 55.6944 72.1204 55.6944C72.2792 55.7152 72.4153 55.7569 72.574 55.7777C72.7328 55.8193 72.8689 55.861 73.0277 55.9027C73.0957 55.9235 73.1864 55.9443 73.2545 55.9651C73.2999 55.986 73.3225 55.986 73.3679 56.0068C73.6401 56.1317 73.935 56.2567 74.1845 56.4025C74.3206 56.4858 74.4566 56.5691 74.5927 56.6524C74.5927 56.6524 74.5927 56.6524 74.6154 56.6524C74.6154 56.6524 74.6154 56.6524 74.6381 56.6524C74.7288 56.7149 74.7969 56.7774 74.8876 56.8398C75.1371 57.0481 75.3639 57.2564 75.5681 57.5063C75.5681 57.5063 75.5907 57.5271 75.5907 57.5479C75.6361 57.5896 75.6815 57.6729 75.7268 57.7146C75.8403 57.8603 75.931 58.0061 76.0217 58.1519C76.1124 58.2769 76.1805 58.4018 76.2485 58.5476C76.2712 58.6101 76.3166 58.6726 76.3393 58.7351L76.3393 58.7559C76.4527 59.0475 76.5661 59.339 76.6341 59.6514C76.6568 59.7139 76.7702 60.0263 76.7249 60.068C76.7249 60.068 76.7022 59.7972 76.7249 60.0055C76.7249 60.068 76.7475 60.1513 76.7475 60.2137C76.7702 60.5261 76.7702 60.8385 76.7475 61.1301C76.7475 61.1926 76.7249 61.2759 76.7249 61.3384C76.7249 61.3592 76.7249 61.38 76.7249 61.4008C76.7022 61.5258 76.7022 61.505 76.7249 61.3384C76.7702 61.38 76.6568 61.6924 76.6341 61.7549C76.5661 62.0673 76.4527 62.3589 76.3393 62.6504L76.3393 62.6713C76.3166 62.7337 76.2712 62.7962 76.2485 62.8587C76.1805 62.9837 76.1124 63.1086 76.0217 63.2336C75.931 63.3585 75.8629 63.4835 75.7722 63.6085C75.7268 63.6709 75.6815 63.7334 75.6361 63.7959C75.6134 63.8167 75.5907 63.8376 75.5681 63.8792C75.3639 64.1083 75.1371 64.3374 74.8876 64.5248C74.8196 64.5665 74.7742 64.629 74.7061 64.6706C74.7061 64.6706 74.6835 64.6914 74.6608 64.7123C74.5247 64.8164 74.3432 64.9205 74.2071 65.0038C73.935 65.1496 73.6401 65.3162 73.3452 65.4204C73.3225 65.4204 73.2772 65.4412 73.2545 65.4412C73.1638 65.4829 73.0504 65.5037 72.9596 65.5453C72.7782 65.587 72.6194 65.6495 72.4379 65.6703C72.3472 65.6911 71.9616 65.8161 71.8936 65.7744C71.9389 65.7744 71.9843 65.7536 72.0523 65.7536C72.007 65.7536 71.9389 65.7744 71.8936 65.7744C71.7802 65.7744 71.6894 65.7952 71.576 65.7952C71.2131 65.8161 70.8502 65.8161 70.4873 65.7744C70.4646 65.7744 70.4419 65.7744 70.4192 65.7744C70.2831 65.7536 70.3058 65.7536 70.4873 65.7744C70.4646 65.7952 70.2151 65.7328 70.1924 65.7328C70.011 65.6911 69.8295 65.6703 69.6707 65.6078C69.4893 65.5662 69.3305 65.5037 69.149 65.4412C69.1264 65.4412 69.1037 65.4204 69.081 65.4204C68.9903 65.3995 68.9222 65.3579 68.8315 65.3162C68.4913 65.1705 68.1737 64.983 67.8788 64.7956C67.8788 64.7956 67.8562 64.7747 67.8335 64.7747C67.7427 64.7331 67.6747 64.6498 67.6067 64.5873C67.4706 64.4624 67.3118 64.3374 67.1984 64.2124C67.085 64.1083 66.9716 63.9833 66.8581 63.8792C66.8581 63.8792 66.8355 63.8584 66.8355 63.8376C66.7901 63.7959 66.7447 63.7126 66.6994 63.6709C66.4952 63.4002 66.3138 63.1295 66.1777 62.8379C66.155 62.7754 66.1096 62.7129 66.087 62.6504L66.087 62.6296C66.0416 62.4838 65.9735 62.3589 65.9282 62.2131C65.8828 62.0673 65.8375 61.9423 65.8148 61.7966C65.7921 61.7133 65.656 61.3592 65.7014 61.2967C65.7014 61.3384 65.724 61.38 65.724 61.4425C65.724 61.4009 65.7014 61.3384 65.7014 61.2967C65.7014 61.2342 65.6787 61.1509 65.6787 61.0885C65.6787 60.9427 65.656 60.7969 65.656 60.6719C65.656 60.5261 65.656 60.3804 65.6787 60.2554C65.6787 60.1929 65.7014 60.1096 65.7014 60.0471C65.7014 60.0263 65.7014 60.0263 65.7014 60.0055C65.7014 60.0055 65.7014 59.9846 65.7014 59.9638C65.7694 59.6722 65.8148 59.4015 65.9055 59.1308C65.9509 58.985 65.9962 58.86 66.0643 58.7142L66.0643 58.6934C66.1096 58.6101 66.155 58.5268 66.2004 58.4227C66.3365 58.1727 66.4726 57.9437 66.654 57.7354C66.6994 57.6729 66.7447 57.6104 66.7901 57.5479C66.7901 57.5479 66.7901 57.5479 66.7901 57.5271C66.7901 57.5271 66.7901 57.5271 66.7901 57.5063C66.9035 57.3813 67.0396 57.2356 67.1757 57.1106C67.2891 57.0065 67.4025 56.9023 67.5386 56.7982C67.6067 56.7565 67.652 56.6941 67.7201 56.6524C67.7201 56.6524 67.7427 56.6316 67.7654 56.6108C67.9923 56.4025 68.3552 56.2359 68.6273 56.1109C68.7634 56.0484 68.8995 55.986 69.0583 55.9235L69.081 55.9235C69.149 55.9027 69.2171 55.8818 69.3078 55.8402C69.6254 55.736 69.9656 55.6527 70.2831 55.6111C70.3058 55.6111 70.4873 55.5694 70.51 55.5694C70.4646 55.5694 70.4192 55.5903 70.3512 55.5903C70.3966 55.5903 70.4646 55.5694 70.51 55.5694C70.6687 55.5486 70.8275 55.5486 70.9636 55.5486C71.3038 55.6111 71.6441 55.6319 71.9616 55.6736Z" fill="#023059"/>
<path d="M55.7206 63.92C54.2236 63.5451 52.5678 63.5868 51.1161 64.0866C49.5284 64.6073 48.1901 65.5653 47.2148 66.8357C45.4002 69.21 45.4229 72.5839 47.2375 74.9581C47.487 75.2913 47.7592 75.6037 48.0767 75.8953C49.1881 76.9366 50.6398 77.6863 52.2049 77.9571C53.838 78.2278 55.4484 78.0404 56.9681 77.4364C59.8941 76.2701 61.7767 73.3128 61.5272 70.3971C61.3911 68.8559 60.7787 67.4605 59.7126 66.2734C58.6919 65.128 57.263 64.2949 55.7206 63.92ZM57.0815 66.8149C57.1042 66.8357 57.1042 66.8357 57.1042 66.8357C57.1949 66.8982 57.263 66.9607 57.3537 67.0232C57.6032 67.2314 57.83 67.4397 58.0342 67.6896C58.0342 67.6896 58.0568 67.7105 58.0568 67.7313C58.1022 67.7729 58.1476 67.8562 58.1929 67.8979C58.3063 68.0437 58.3971 68.1895 58.4878 68.3352C58.5785 68.4602 58.6466 68.5852 58.7146 68.7309C58.76 68.7934 58.7827 68.8559 58.8053 68.9184L58.8053 68.9392C58.9188 69.2308 59.0322 69.5224 59.1002 69.8347C59.1229 69.8972 59.2363 70.2096 59.1909 70.2513C59.1909 70.2513 59.1683 69.9805 59.1909 70.1888C59.1909 70.2513 59.2136 70.3346 59.2136 70.3971C59.2363 70.7095 59.2363 71.0219 59.2136 71.3134C59.2136 71.3759 59.1909 71.4592 59.1909 71.5217C59.1909 71.5425 59.1909 71.5634 59.1909 71.5842C59.1683 71.7091 59.1683 71.6883 59.1909 71.5217C59.2363 71.5634 59.1229 71.8757 59.1002 71.9382C59.0322 72.2506 58.9188 72.5422 58.8053 72.8338L58.8053 72.8546C58.7827 72.9171 58.7373 72.9796 58.7146 73.042C58.6466 73.167 58.5785 73.292 58.4878 73.4169C58.3971 73.5419 58.329 73.6668 58.2383 73.7918C58.1929 73.8543 58.1476 73.9168 58.1022 73.9792C58.0795 74.0001 58.0568 74.0209 58.0342 74.0625C57.83 74.2916 57.6032 74.5207 57.3537 74.7082C57.2856 74.7498 57.2403 74.8123 57.1722 74.8539C57.1722 74.8539 57.1496 74.8748 57.1269 74.8956C56.9908 74.9997 56.8093 75.1039 56.6732 75.1872C56.401 75.333 56.1062 75.4996 55.8113 75.6037C55.7886 75.6037 55.7433 75.6245 55.7206 75.6245C55.6299 75.6662 55.5164 75.687 55.4257 75.7287C55.2443 75.7703 55.0855 75.8328 54.904 75.8536C54.8133 75.8744 54.4277 75.9994 54.3597 75.9577C54.405 75.9577 54.4504 75.9369 54.5184 75.9369C54.4731 75.9369 54.405 75.9577 54.3597 75.9577C54.2462 75.9577 54.1555 75.9786 54.0421 75.9786C53.6792 75.9994 53.3163 75.9994 52.9534 75.9577C52.9307 75.9577 52.908 75.9577 52.8853 75.9577C52.7492 75.9369 52.7719 75.9369 52.9534 75.9577C52.9307 75.9786 52.6812 75.9161 52.6585 75.9161C52.477 75.8744 52.2956 75.8536 52.1368 75.7911C51.9554 75.7495 51.7966 75.687 51.6151 75.6245C51.5924 75.6245 51.5698 75.6037 51.5471 75.6037C51.4563 75.5829 51.3883 75.5412 51.2976 75.4996C50.9573 75.3538 50.6398 75.1663 50.3449 74.9789C50.3449 74.9789 50.3222 74.9581 50.2996 74.9581C50.2088 74.9164 50.1408 74.8331 50.0727 74.7706C49.9366 74.6457 49.7779 74.5207 49.6645 74.3958C49.5511 74.2916 49.4376 74.1667 49.3242 74.0625C49.3242 74.0625 49.3016 74.0417 49.3016 74.0209C49.2562 73.9792 49.2108 73.8959 49.1655 73.8543C48.9613 73.5835 48.7799 73.3128 48.6438 73.0212C48.6211 72.9587 48.5757 72.8963 48.553 72.8338L48.553 72.8129C48.5077 72.6672 48.4396 72.5422 48.3943 72.3964C48.3489 72.2506 48.3035 72.1257 48.2809 71.9799C48.2582 71.8966 48.1221 71.5425 48.1674 71.48C48.1674 71.5217 48.1901 71.5634 48.1901 71.6258C48.1901 71.5842 48.1674 71.5217 48.1674 71.48C48.1674 71.4176 48.1448 71.3343 48.1448 71.2718C48.1448 71.126 48.1221 70.9802 48.1221 70.8553C48.1221 70.7095 48.1221 70.5637 48.1448 70.4387C48.1448 70.3762 48.1674 70.2929 48.1674 70.2305C48.1674 70.2096 48.1674 70.2096 48.1674 70.1888C48.1674 70.1888 48.1674 70.168 48.1674 70.1471C48.2355 69.8556 48.2809 69.5848 48.3716 69.3141C48.4169 69.1683 48.4623 69.0433 48.5304 68.8976L48.5304 68.8767C48.5757 68.7934 48.6211 68.7101 48.6665 68.606C48.8025 68.3561 48.9386 68.127 49.1201 67.9187C49.1655 67.8562 49.2108 67.7938 49.2562 67.7313C49.2562 67.7313 49.2562 67.7313 49.2562 67.7104C49.2562 67.7104 49.2562 67.7104 49.2562 67.6896C49.3696 67.5647 49.5057 67.4189 49.6418 67.2939C49.7552 67.1898 49.8686 67.0857 50.0047 66.9815C50.0727 66.9399 50.1181 66.8774 50.1862 66.8357C50.1862 66.8357 50.2088 66.8149 50.2315 66.7941C50.4583 66.5858 50.8213 66.4192 51.0934 66.2942C51.2295 66.2318 51.3656 66.1693 51.5244 66.1068L51.5471 66.1068C51.6151 66.086 51.6832 66.0652 51.7739 66.0235C52.0914 65.9194 52.4317 65.8361 52.7492 65.7944C52.7719 65.7944 52.9534 65.7528 52.976 65.7528C52.9307 65.7528 52.8853 65.7736 52.8173 65.7736C52.8626 65.7736 52.9307 65.7528 52.976 65.7528C53.1348 65.7319 53.2936 65.7319 53.4297 65.7319C53.7699 65.7319 54.0875 65.7319 54.4277 65.7736C54.4277 65.7736 54.4277 65.7736 54.4504 65.7736C54.4957 65.7736 54.5638 65.7944 54.6092 65.7944C54.7679 65.8152 54.904 65.8569 55.0628 65.8777C55.2216 65.9194 55.3577 65.961 55.5164 66.0027C55.5845 66.0235 55.6752 66.0443 55.7433 66.0652C55.7886 66.086 55.8113 66.086 55.8567 66.1068C56.1289 66.2318 56.4237 66.3567 56.6732 66.5025C56.832 66.6483 56.9454 66.7316 57.0815 66.8149Z" fill="#023059"/>
<path d="M41.4076 70.8977C41.2715 69.3566 40.6591 67.9612 39.593 66.7741C38.595 65.6286 37.1433 64.8164 35.6236 64.4415C34.1266 64.0666 32.4708 64.1083 31.0192 64.6081C29.4314 65.1288 28.0932 66.0868 27.1178 67.3572C25.3033 69.7314 25.326 73.1053 27.1405 75.4796C27.39 75.8128 27.6622 76.1252 27.9798 76.4167C29.0912 77.4581 30.5428 78.2078 32.1079 78.4786C33.741 78.7493 35.3514 78.5619 36.8711 77.9579C39.7745 76.7708 41.6571 73.8134 41.4076 70.8977ZM29.2046 74.5632C29.1592 74.5215 29.1139 74.4382 29.0685 74.3966C28.8644 74.1258 28.6829 73.8551 28.5468 73.5635C28.5241 73.501 28.4788 73.4386 28.4561 73.3761L28.4561 73.3553C28.4107 73.2095 28.3427 73.0845 28.2973 72.9387C28.252 72.7929 28.2066 72.668 28.1839 72.5222C28.1612 72.4389 28.0251 72.0848 28.0705 72.0224C28.0705 72.064 28.0932 72.1057 28.0932 72.1681C28.0932 72.1265 28.0705 72.064 28.0705 72.0224C28.0705 71.9599 28.0478 71.8766 28.0478 71.8141C28.0478 71.6683 28.0251 71.5225 28.0251 71.3976C28.0251 71.2518 28.0251 71.106 28.0478 70.981C28.0478 70.9185 28.0705 70.8352 28.0705 70.7728C28.0705 70.7519 28.0705 70.7519 28.0705 70.7311C28.0705 70.7311 28.0705 70.7103 28.0705 70.6895C28.1385 70.3979 28.1839 70.1271 28.2746 69.8564C28.32 69.7106 28.3654 69.5857 28.4334 69.4399L28.4334 69.419C28.4788 69.3357 28.5241 69.2524 28.5695 69.1483C28.7056 68.8984 28.8417 68.6693 29.0231 68.461C29.0685 68.3985 29.1139 68.3361 29.1592 68.2736C29.1592 68.2736 29.1592 68.2736 29.1592 68.2528C29.1592 68.2528 29.1592 68.2528 29.1592 68.2319C29.2726 68.107 29.4087 67.9612 29.5448 67.8362C29.6582 67.7321 29.7717 67.628 29.9077 67.5238C29.9758 67.4822 30.0212 67.4197 30.0892 67.378C30.0892 67.378 30.1119 67.3572 30.1346 67.3364C30.3614 67.1281 30.7243 66.9615 30.9965 66.8366C31.1326 66.7741 31.2687 66.7116 31.4274 66.6491L31.4501 66.6491C31.5182 66.6283 31.5862 66.6075 31.6769 66.5658C31.9945 66.4617 32.3347 66.3784 32.6523 66.3367C32.675 66.3367 32.8564 66.2951 32.8791 66.2951C32.8337 66.2951 32.7884 66.3159 32.7203 66.3159C32.7657 66.3159 32.8337 66.2951 32.8791 66.2951C33.0379 66.2742 33.1967 66.2742 33.3327 66.2742C33.673 66.2742 33.9905 66.2742 34.3308 66.3159C34.3308 66.3159 34.3308 66.3159 34.3534 66.3159C34.3988 66.3159 34.4442 66.3367 34.5122 66.3367C34.671 66.3575 34.8071 66.3992 34.9659 66.42C35.1246 66.4617 35.2607 66.5033 35.4195 66.545C35.4875 66.5658 35.5783 66.5866 35.6463 66.6075C35.6917 66.6283 35.7144 66.6283 35.7597 66.6491C36.0319 66.7741 36.3268 66.899 36.5763 67.0448C36.7124 67.1281 36.8485 67.2114 36.9846 67.2947C36.9846 67.2947 36.9846 67.2947 37.0072 67.2947C37.0072 67.2947 37.0072 67.2947 37.0299 67.2947C37.1206 67.3572 37.1887 67.4197 37.2794 67.4822C37.5289 67.6904 37.7557 67.8987 37.9599 68.1486C37.9599 68.1486 37.9826 68.1695 37.9826 68.1903C38.0279 68.2319 38.0733 68.3152 38.1187 68.3569C38.2321 68.5027 38.3228 68.6485 38.4135 68.7942C38.5043 68.9192 38.5723 69.0442 38.6404 69.19C38.663 69.2524 38.7084 69.3149 38.7311 69.3774L38.7311 69.3982C38.8445 69.6898 38.9579 69.9814 39.0259 70.2938C39.0486 70.3562 39.162 70.6686 39.1167 70.7103C39.1167 70.7103 39.094 70.4395 39.1167 70.6478C39.1167 70.7103 39.1394 70.7936 39.1394 70.8561C39.162 71.1685 39.162 71.4809 39.1394 71.7724C39.1394 71.8349 39.1167 71.9182 39.1167 71.9807C39.1167 72.0015 39.1167 72.0224 39.1167 72.0432C39.094 72.1681 39.094 72.1473 39.1167 71.9807C39.162 72.0224 39.0486 72.3348 39.0259 72.3972C38.9579 72.7096 38.8445 73.0012 38.7311 73.2928L38.7311 73.3136C38.7084 73.3761 38.663 73.4386 38.6404 73.501C38.5723 73.626 38.5043 73.751 38.4135 73.8759C38.3228 74.0009 38.2548 74.1258 38.164 74.2508C38.1187 74.3133 38.0733 74.3758 38.0279 74.4382C38.0052 74.4591 37.9826 74.4799 37.9599 74.5215C37.7557 74.7506 37.5289 74.9797 37.2794 75.1672C37.2114 75.2088 37.166 75.2713 37.098 75.3129C37.098 75.3129 37.0753 75.3338 37.0526 75.3546C36.9165 75.4587 36.7351 75.5629 36.599 75.6462C36.3268 75.792 36.0319 75.9586 35.737 76.0627C35.7144 76.0627 35.669 76.0835 35.6463 76.0835C35.5556 76.1252 35.4422 76.146 35.3514 76.1877C35.17 76.2293 35.0112 76.2918 34.8298 76.3126C34.739 76.3334 34.3534 76.4584 34.2854 76.4167C34.3308 76.4167 34.3761 76.3959 34.4442 76.3959C34.3988 76.3959 34.3308 76.4167 34.2854 76.4167C34.172 76.4167 34.0813 76.4376 33.9678 76.4376C33.6049 76.4584 33.242 76.4584 32.8791 76.4167C32.8564 76.4167 32.8337 76.4167 32.8111 76.4167C32.675 76.3959 32.6976 76.3959 32.8791 76.4167C32.8564 76.4376 32.6069 76.3751 32.5842 76.3751C32.4028 76.3334 32.2213 76.3126 32.0625 76.2501C31.8811 76.2085 31.7223 76.146 31.5409 76.0835C31.5182 76.0835 31.4955 76.0627 31.4728 76.0627C31.3821 76.0419 31.314 76.0002 31.2233 75.9586C30.8831 75.8128 30.5655 75.6253 30.2707 75.4379C30.2707 75.4379 30.248 75.4171 30.2253 75.4171C30.1346 75.3754 30.0665 75.2921 29.9985 75.2296C29.8624 75.1047 29.7036 74.9797 29.5902 74.8548C29.4768 74.7506 29.3634 74.6257 29.25 74.5215C29.2273 74.584 29.2046 74.5632 29.2046 74.5632Z" fill="#023059"/>
<path d="M26.756 56.8601C26.6199 55.319 26.0074 53.9236 24.9414 52.7365C23.9434 51.591 22.4917 50.7788 20.972 50.4039C19.475 50.029 17.8192 50.0707 16.3676 50.5705C14.7798 51.0912 13.4416 52.0492 12.4662 53.3196C10.6517 55.6938 10.6743 59.0677 12.4889 61.442C12.7384 61.7752 13.0106 62.0876 13.3282 62.3792C14.4396 63.4205 15.8912 64.1702 17.4563 64.441C19.0894 64.7117 20.6998 64.5243 22.2195 63.9203C25.1228 62.7332 27.0055 59.7758 26.756 56.8601ZM14.553 60.5256C14.5076 60.4839 14.4623 60.4006 14.4169 60.359C14.2128 60.0882 14.0313 59.8175 13.8952 59.5259C13.8725 59.4634 13.8272 59.401 13.8045 59.3385L13.8045 59.3177C13.7591 59.1719 13.6911 59.0469 13.6457 58.9011C13.6003 58.7553 13.555 58.6304 13.5323 58.4846C13.5096 58.4013 13.3735 58.0472 13.4189 57.9848C13.4189 58.0264 13.4416 58.0681 13.4416 58.1305C13.4416 58.0889 13.4189 58.0264 13.4189 57.9848C13.4189 57.9223 13.3962 57.839 13.3962 57.7765C13.3962 57.6307 13.3735 57.4849 13.3735 57.36C13.3735 57.2142 13.3735 57.0684 13.3962 56.9434C13.3962 56.881 13.4189 56.7976 13.4189 56.7352C13.4189 56.7143 13.4189 56.7143 13.4189 56.6935C13.4189 56.6935 13.4189 56.6727 13.4189 56.6519C13.4869 56.3603 13.5323 56.0895 13.623 55.8188C13.6684 55.673 13.7137 55.5481 13.7818 55.4023L13.7818 55.3814C13.8272 55.2981 13.8725 55.2148 13.9179 55.1315C14.054 54.8816 14.1901 54.6525 14.3715 54.4443C14.4169 54.3818 14.4623 54.3193 14.5076 54.2568C14.5076 54.2568 14.5076 54.2568 14.5076 54.236C14.5076 54.236 14.5076 54.236 14.5076 54.2152C14.621 54.0902 14.7571 53.9444 14.8932 53.8195C15.0066 53.7153 15.12 53.6112 15.2561 53.5071C15.3242 53.4654 15.3695 53.4029 15.4376 53.3613C15.4376 53.3613 15.4603 53.3404 15.483 53.3196C15.7098 53.1114 16.0727 52.9447 16.3449 52.8198C16.481 52.7573 16.6171 52.6948 16.7758 52.6324L16.7985 52.6324C16.8666 52.6115 16.9346 52.5907 17.0253 52.549C17.3429 52.4449 17.6831 52.3616 18.0007 52.32C18.0233 52.32 18.2048 52.2783 18.2275 52.2783C18.1821 52.2783 18.1368 52.2991 18.0687 52.2991C18.1141 52.2991 18.1821 52.2783 18.2275 52.2783C18.3863 52.2575 18.545 52.2575 18.6811 52.2575C19.0214 52.2575 19.3389 52.2575 19.6791 52.2991C19.6791 52.2991 19.6791 52.2991 19.7018 52.2991C19.7472 52.2991 19.7925 52.32 19.8606 52.32C20.0194 52.3408 20.1555 52.3824 20.3142 52.4033C20.473 52.4449 20.6091 52.4866 20.7679 52.5282C20.8359 52.549 20.9266 52.5699 20.9947 52.5907C21.0401 52.6115 21.0627 52.6115 21.1081 52.6324C21.3803 52.7573 21.6752 52.8823 21.9247 53.0281C22.0608 53.1114 22.1969 53.1947 22.3329 53.278C22.3329 53.278 22.3329 53.278 22.3556 53.278C22.3556 53.278 22.3556 53.278 22.3783 53.278C22.469 53.3404 22.5371 53.4029 22.6278 53.4654C22.8773 53.6737 23.1041 53.8819 23.3083 54.1319C23.3083 54.1319 23.331 54.1527 23.331 54.1735C23.3763 54.2152 23.4217 54.2985 23.467 54.3401C23.5805 54.4859 23.6712 54.6317 23.7619 54.7775C23.8526 54.9024 23.9207 55.0274 23.9887 55.1732C24.0114 55.2357 24.0568 55.2981 24.0795 55.3606L24.0795 55.3814C24.1929 55.673 24.3063 55.9646 24.3743 56.277C24.397 56.3395 24.5104 56.6519 24.4651 56.6935C24.4651 56.6935 24.4424 56.4228 24.4651 56.631C24.4651 56.6935 24.4877 56.7768 24.4877 56.8393C24.5104 57.1517 24.5104 57.4641 24.4877 57.7557C24.4877 57.8181 24.4651 57.9015 24.4651 57.9639C24.4651 57.9848 24.4651 58.0056 24.4651 58.0264C24.4424 58.1514 24.4424 58.1305 24.4651 57.9639C24.5104 58.0056 24.397 58.318 24.3743 58.3805C24.3063 58.6929 24.1929 58.9844 24.0795 59.276L24.0795 59.2968C24.0568 59.3593 24.0114 59.4218 23.9887 59.4843C23.9207 59.6092 23.8526 59.7342 23.7619 59.8591C23.6712 59.9841 23.6031 60.1091 23.5124 60.234C23.467 60.2965 23.4217 60.359 23.3763 60.4215C23.3536 60.4423 23.331 60.4631 23.3083 60.5048C23.1041 60.7339 22.8773 60.963 22.6278 61.1504C22.5598 61.192 22.5144 61.2545 22.4464 61.2962C22.4464 61.2962 22.4237 61.317 22.401 61.3378C22.2649 61.442 22.0834 61.5461 21.9473 61.6294C21.6752 61.7752 21.3803 61.9418 21.0854 62.0459C21.0627 62.0459 21.0174 62.0668 20.9947 62.0668C20.904 62.1084 20.7906 62.1292 20.6998 62.1709C20.5184 62.2125 20.3596 62.275 20.1781 62.2958C20.0874 62.3167 19.7018 62.4416 19.6338 62.4C19.6791 62.4 19.7245 62.3792 19.7925 62.3792C19.7472 62.3792 19.6791 62.4 19.6338 62.4C19.5204 62.4 19.4296 62.4208 19.3162 62.4208C18.9533 62.4416 18.5904 62.4416 18.2275 62.4C18.2048 62.4 18.1821 62.4 18.1594 62.4C18.0233 62.3792 18.046 62.3792 18.2275 62.4C18.2048 62.4208 17.9553 62.3583 17.9326 62.3583C17.7512 62.3167 17.5697 62.2958 17.4109 62.2334C17.2295 62.1917 17.0707 62.1292 16.8892 62.0668C16.8666 62.0668 16.8439 62.0459 16.8212 62.0459C16.7305 62.0251 16.6624 61.9834 16.5717 61.9418C16.2315 61.796 15.9139 61.6086 15.619 61.4211C15.619 61.4211 15.5964 61.4003 15.5737 61.4003C15.483 61.3587 15.4149 61.2753 15.3469 61.2129C15.2108 61.0879 15.052 60.963 14.9386 60.838C14.8252 60.7339 14.7118 60.6089 14.5984 60.5048C14.5757 60.5464 14.553 60.5256 14.553 60.5256Z" fill="#023059"/>
<path d="M54.0409 86.6631C58.2371 86.0383 62.2972 84.872 66.1531 83.2475C70.0091 81.623 73.6155 79.5196 76.8818 77.0412C80.1933 74.5212 83.142 71.5847 85.637 68.3774C88.2001 65.0868 90.2415 61.4838 91.7839 57.6934C93.3943 53.7155 94.3696 49.5502 94.7552 45.3224C95.1862 40.7406 94.8687 36.1379 93.9614 31.6186C93.485 29.286 92.8499 26.9951 92.0788 24.7458C90.3096 19.6433 87.8372 14.6658 84.2988 10.3755C81.577 7.08496 78.1973 4.12759 74.0465 2.39899C70.5308 0.941137 66.6295 0.420475 62.8642 1.33684C58.668 2.35734 55.243 4.98148 52.68 8.12628C50.0715 11.3336 48.7787 15.2073 46.4878 18.602C45.8073 19.6225 45.1042 20.4972 44.3783 21.3095C43.4257 22.3716 42.3823 23.3505 41.2709 24.2668C38.7532 26.3287 35.9633 28.1406 32.8785 29.4526C31.7671 29.9316 30.4515 30.369 29.1586 30.7022C27.9792 30.9938 26.777 31.2229 25.5522 31.4103C25.28 31.452 25.0305 31.4936 24.7583 31.5145C24.6449 31.5353 24.5542 31.5353 24.4408 31.5561C24.4635 31.5561 24.1459 31.5978 24.0779 31.5978C23.5108 31.6602 22.9211 31.7227 22.354 31.806C21.1745 31.9518 19.9951 32.0768 18.8156 32.285C16.2979 32.7224 13.8936 33.493 11.6481 34.6384C9.35718 35.8047 7.15702 37.3042 5.47854 39.1578C2.55256 42.3859 1.14627 46.4679 0.964811 50.6124C0.760671 55.2775 2.09891 59.9426 4.32175 64.1079C6.86215 68.8772 10.6727 72.9592 15.1411 76.3331C18.9971 79.2488 23.2386 81.7272 27.8204 83.5599C32.0619 85.2677 36.5303 86.3923 41.1348 86.9338C45.3763 87.392 49.754 87.2879 54.0409 86.6631ZM82.6884 68.5648C82.643 68.6065 82.6203 68.6273 82.6884 68.5648V68.5648ZM92.2375 47.4676C92.2375 47.3426 92.2375 47.4051 92.2375 47.4676V47.4676ZM41.1575 84.8303C41.0667 84.8095 40.976 84.8095 40.8853 84.7887C40.9306 84.7887 40.7038 84.7678 40.6358 84.7678C40.3636 84.7262 40.0914 84.6845 39.7965 84.6429C39.2522 84.5596 38.7305 84.4763 38.1861 84.3721C37.1201 84.1847 36.054 83.9556 35.0106 83.6849C33.9446 83.4141 32.8785 83.1017 31.8351 82.7685C31.2908 82.6019 30.7691 82.4144 30.2247 82.227C29.9752 82.1437 29.7257 82.0396 29.4989 81.9563C29.4535 81.9354 29.2721 81.873 29.2494 81.8521C29.1133 81.8105 28.9772 81.748 28.8638 81.7063C26.709 80.8525 24.6222 79.832 22.6262 78.7073C21.5601 78.1034 20.5394 77.4786 19.5187 76.8121C19.0197 76.4789 18.5207 76.1457 18.0217 75.7916C17.9991 75.7708 17.9764 75.7708 17.9764 75.75C17.931 75.7083 17.863 75.6667 17.8176 75.6458C17.6815 75.5417 17.5454 75.4584 17.432 75.3543C17.1598 75.1668 16.9103 74.9794 16.6608 74.7711C14.4607 73.105 12.3966 71.2931 10.582 69.2521C10.1057 68.7314 9.83351 68.3774 9.37986 67.8151C8.97159 67.3152 8.60867 66.7946 8.22307 66.2739C7.49725 65.2326 6.81679 64.1288 6.22706 63.0041C6.09096 62.7542 5.95487 62.5043 5.84146 62.2544C5.77341 62.1294 5.72805 62.0045 5.66 61.8795C5.63732 61.817 5.59195 61.7545 5.56927 61.6921C5.56927 61.6712 5.52391 61.5671 5.50123 61.5255C5.25172 60.984 5.0249 60.4425 4.82076 59.901C4.41249 58.818 4.07226 57.735 3.80007 56.6312C3.66398 56.1106 3.55057 55.5691 3.45984 55.0276C3.43715 54.8818 3.41448 54.7568 3.3918 54.6111L3.3918 54.5902C3.3918 54.5277 3.36911 54.4653 3.36911 54.4236C3.32374 54.1529 3.30107 53.8613 3.27839 53.5905C3.18766 52.5492 3.14229 51.4871 3.21033 50.4458C3.23301 49.9251 3.27838 49.4044 3.34643 48.9046C3.34643 48.8421 3.36911 48.8005 3.36911 48.738C3.39179 48.613 3.41447 48.4881 3.43715 48.3631C3.48252 48.1132 3.52788 47.8424 3.59593 47.5925C3.80007 46.6553 4.07225 45.7181 4.43516 44.8226C4.48053 44.6976 4.52589 44.5935 4.57126 44.4685C4.57126 44.4477 4.6393 44.3228 4.66199 44.2603C4.68467 44.2186 4.70735 44.1561 4.70735 44.1561C4.73003 44.1145 4.75271 44.052 4.7754 44.0104C4.82076 43.9062 4.88881 43.7813 4.95685 43.6771C5.18368 43.2398 5.43318 42.8232 5.68268 42.4067C5.93218 42.011 6.20437 41.6153 6.49924 41.2404C6.56728 41.1363 6.65801 41.053 6.72606 40.9489C6.74874 40.9072 6.7941 40.8864 6.81679 40.8447C6.97556 40.6573 7.15702 40.4698 7.33848 40.2824C9.01695 38.533 11.1717 37.1584 13.4173 36.0963C13.4626 36.0755 13.508 36.0546 13.5534 36.0338C14.6648 37.2834 15.7762 38.533 16.9103 39.7617C17.2052 40.0741 17.8176 40.0533 18.1125 39.7617C18.4527 39.4285 18.4073 38.9912 18.1125 38.6579C17.1371 37.5541 16.1391 36.4712 15.1638 35.3674C15.6628 35.1799 16.1618 35.0341 16.6835 34.8883C17.0464 34.7842 17.432 34.7009 17.7949 34.6176C19.5188 36.7003 21.2199 38.7829 22.9437 40.8656C23.2159 41.1988 23.6696 41.3862 24.1005 41.1363C24.4635 40.9489 24.6903 40.4074 24.3954 40.0741C22.8077 38.1373 21.1972 36.2004 19.6095 34.2636C19.7456 34.2427 19.9044 34.2219 20.0404 34.2011C20.2899 34.1594 20.5395 34.1178 20.8116 34.0969C20.9477 34.0761 21.0611 34.0553 21.1972 34.0553C21.2426 34.0553 21.4694 34.0136 21.5375 34.0136C21.6509 33.9928 21.787 33.9928 21.9004 33.972C22.6716 34.9717 23.4428 35.9713 24.2366 36.971C24.4861 37.3042 24.9851 37.4917 25.3934 37.2417C25.7563 37.0335 25.9832 36.5336 25.6883 36.1796C25.0532 35.3674 24.4181 34.5551 23.8057 33.7429C24.781 33.6388 25.7563 33.5138 26.709 33.3472C29.3174 32.9307 31.8351 32.2226 34.2167 31.1812C37.3469 29.8275 40.2048 27.9323 42.7679 25.808C44.8546 24.1002 46.6919 22.1634 48.1889 19.9974C49.3457 18.3104 50.2757 16.5194 51.183 14.7075C52.0676 12.958 53.0202 11.2294 54.2224 9.64662C54.3584 9.45918 54.5172 9.27174 54.6533 9.10513C54.676 9.06348 54.7894 8.93852 54.8121 8.91769C54.9255 8.79273 55.0389 8.66777 55.1296 8.54281C55.5379 8.10546 55.9689 7.6681 56.3998 7.25157C56.7627 6.91835 57.1483 6.58512 57.5566 6.27272C57.7381 6.12694 57.8969 6.00198 58.0783 5.87702C58.1237 5.83537 58.2371 5.77289 58.2598 5.75206C58.3505 5.68958 58.4412 5.6271 58.5093 5.56462C59.2578 5.06479 60.0517 4.62743 60.8909 4.23173C61.095 4.14842 61.2992 4.06511 61.4806 3.98181L61.5033 3.98181C61.526 3.98181 61.5487 3.96098 61.5713 3.96098C61.5713 3.96098 61.5713 3.96098 61.594 3.96098C61.6167 3.96098 61.6167 3.94016 61.6394 3.94016C61.6394 3.94016 61.6167 3.94015 61.6167 3.96098C61.7301 3.91933 61.8435 3.87768 61.9343 3.83602C62.3425 3.69024 62.7508 3.56528 63.1591 3.46114C63.5901 3.35701 64.021 3.25288 64.452 3.1904C64.6334 3.14875 64.8149 3.12792 64.9963 3.10709C65.0417 3.10709 65.0871 3.08627 65.1324 3.08627C65.2458 3.06544 65.3819 3.06544 65.4954 3.04461C66.3573 2.98213 67.2192 2.98214 68.0811 3.06544C68.1718 3.06544 68.2852 3.08627 68.376 3.08627C68.4213 3.08627 68.4667 3.08627 68.4894 3.10709C68.7162 3.14875 68.943 3.16957 69.1698 3.21123C69.6008 3.29453 70.0318 3.37784 70.4627 3.48197C70.8937 3.5861 71.3246 3.71106 71.7556 3.85685C71.9597 3.91933 72.1866 4.00263 72.3907 4.08594C72.4134 4.08594 72.4588 4.10677 72.4814 4.12759C72.5041 4.12759 72.5268 4.14842 72.5495 4.14842C72.6629 4.19007 72.7763 4.23173 72.8897 4.29421C73.7743 4.66908 74.6362 5.10644 75.4528 5.58545C75.8837 5.83537 76.3147 6.10611 76.723 6.39768C76.8137 6.46016 76.9044 6.52264 77.0179 6.60595L77.0405 6.62678C77.0859 6.66843 77.1313 6.68926 77.1766 6.73091C77.4034 6.89752 77.6076 7.04331 77.8117 7.20992C78.651 7.85554 79.4448 8.56364 80.1933 9.29257C80.6016 9.68827 80.9872 10.1048 81.3728 10.5213C81.5543 10.7296 81.7584 10.9379 81.9399 11.1461C82.0306 11.2294 82.0986 11.3336 82.1894 11.4377C82.212 11.4585 82.212 11.4794 82.2347 11.4794C82.3028 11.5627 82.3708 11.646 82.4389 11.7084C84.0266 13.6661 85.4102 15.7696 86.5897 17.9564C87.9506 20.3098 88.9713 22.7048 89.8786 25.3082C90.6725 27.6199 91.3302 29.9525 91.7839 32.3267C91.8973 32.9098 92.0107 33.4721 92.1014 34.0553C92.1241 34.1802 92.1468 34.326 92.1695 34.451C92.1695 34.5135 92.1922 34.576 92.1922 34.6384C92.1922 34.5968 92.1695 34.451 92.1922 34.6593C92.2375 34.9508 92.2829 35.2424 92.3056 35.534C92.4417 36.6378 92.5324 37.7624 92.6004 38.8662C92.7139 41.0322 92.6685 43.219 92.4644 45.3849C92.419 45.9056 92.3509 46.4262 92.2829 46.9261C92.2602 47.051 92.2602 47.176 92.2375 47.2801C92.2375 47.3218 92.2148 47.3843 92.2148 47.4259L92.2148 47.4467C92.1695 47.7175 92.1241 47.9882 92.0788 48.259C91.8973 49.3003 91.6932 50.3208 91.4437 51.3413C90.9673 53.299 90.3322 55.2358 89.561 57.1311C89.3796 57.6101 89.1754 58.0683 88.9713 58.5473C88.9486 58.5681 88.9033 58.7139 88.8806 58.7764C88.8579 58.818 88.7899 58.9846 88.7672 59.0054C88.6538 59.2345 88.5403 59.4845 88.4269 59.7136C87.996 60.6091 87.5197 61.4838 87.0206 62.3585C86.0226 64.0871 84.8885 65.7324 83.6637 67.3361C83.3462 67.7318 83.0286 68.1275 82.7111 68.5023L82.6884 68.5232C82.6657 68.5648 82.643 68.5856 82.5976 68.6273C82.5296 68.7106 82.4389 68.7939 82.3708 68.898C82.212 69.0855 82.0306 69.2937 81.8491 69.4812C81.1914 70.2101 80.5109 70.939 79.7851 71.6263C78.4241 72.98 76.9498 74.2505 75.4074 75.4167C74.9538 74.6462 74.5001 73.8756 74.0465 73.105C73.8424 72.7509 73.2526 72.6052 72.8897 72.8343C72.4814 73.0633 72.368 73.5215 72.5948 73.8964C73.0938 74.7295 73.5702 75.5625 74.0692 76.4164C73.7289 76.6663 73.366 76.8954 73.0258 77.1453C72.8443 77.2703 72.6402 77.3953 72.4587 77.5202C71.3246 75.8541 70.2586 74.1255 69.3059 72.3552C69.1018 71.9804 68.5121 71.8762 68.1492 72.0845C67.7409 72.3136 67.6275 72.7718 67.8543 73.1467C68.8296 74.9377 69.9184 76.6872 71.0751 78.3949C70.871 78.5199 70.6669 78.6449 70.4854 78.749C70.0544 78.9989 69.6235 79.228 69.1925 79.4779C68.6482 78.4782 68.0811 77.4994 67.5367 76.4997C67.3326 76.1457 66.7429 75.9999 66.3799 76.229C65.9717 76.4581 65.8583 76.9163 66.0851 77.2911C66.6295 78.27 67.1738 79.2488 67.7409 80.2277C66.879 80.6442 66.017 81.0399 65.1324 81.4148C64.9056 81.5189 64.6788 81.6022 64.452 81.7063C64.3386 81.748 64.2252 81.7896 64.1344 81.8313C64.0891 81.8521 64.021 81.873 63.9756 81.8938L63.953 81.8938C63.9303 81.8938 63.9303 81.8938 63.9076 81.9146C63.4313 82.102 62.955 82.2687 62.4559 82.4353C61.5033 82.7685 60.5507 83.0601 59.598 83.3308C57.6247 83.8931 55.606 84.3097 53.5646 84.6221C53.3151 84.6637 53.0656 84.6845 52.8161 84.7262C52.7253 84.747 52.6346 84.747 52.5439 84.7678C52.5892 84.7678 52.2717 84.8095 52.2263 84.8095C51.7273 84.872 51.2056 84.9136 50.7066 84.9553C49.6633 85.0386 48.6426 85.1011 47.5992 85.1219C45.3763 85.1635 43.2669 85.0594 41.1575 84.8303Z" fill="#023059"/>
<path d="M61.665 3.89844C61.6197 3.91951 61.597 3.91951 61.5743 3.94057C61.5289 3.96164 61.5289 3.96164 61.665 3.89844Z" fill="#023059"/>
<path d="M71.0529 7.02247C71.257 6.66842 71.1663 6.14776 70.758 5.96032C69.0795 5.23139 67.1289 5.08561 65.3597 5.68958C64.9514 5.83536 64.6112 6.23107 64.7699 6.6476C64.906 7.02247 65.3597 7.33487 65.8133 7.18909C66.1762 7.06413 66.5392 6.98082 66.9021 6.91834C66.9474 6.91834 66.9701 6.91834 66.9701 6.89751C66.9928 6.89751 67.0382 6.89751 67.0608 6.89751C67.1516 6.89751 67.2196 6.87669 67.3103 6.87669C67.5145 6.85586 67.7186 6.85586 67.9228 6.87669C68.5352 6.89751 69.3517 7.08495 69.8734 7.31404C70.3044 7.48066 70.8261 7.41818 71.0529 7.02247Z" fill="#023059"/>
<path d="M21.6962 75.209C21.9003 74.8549 21.8096 74.3551 21.4013 74.1468C21.1065 74.0011 20.8116 73.8344 20.5167 73.647C20.3806 73.5637 20.2445 73.4596 20.0858 73.3763C20.1311 73.3971 20.1765 73.4387 20.1085 73.3971L20.0858 73.3763C20.0858 73.3763 20.0858 73.3763 20.0631 73.3554C20.0631 73.3554 20.0631 73.3554 20.0858 73.3554C20.0631 73.3346 20.0404 73.3138 20.0177 73.293C19.9497 73.2305 19.8816 73.1888 19.8136 73.1263C19.5414 72.9181 19.2919 72.7098 19.0651 72.4807C18.9517 72.3558 18.8383 72.2516 18.7248 72.1267C18.6568 72.0642 18.6114 72.0017 18.5434 71.9392C18.5207 71.9184 18.498 71.8768 18.4753 71.8559C18.4527 71.8351 18.4527 71.8143 18.4527 71.8143C18.3166 71.6685 18.1805 71.5435 17.9763 71.4811C17.7722 71.4394 17.5 71.4602 17.3186 71.5644C16.9783 71.7726 16.7288 72.2933 17.0237 72.6265C17.9763 73.7928 19.1785 74.7716 20.5848 75.4589C20.925 75.6672 21.4694 75.5839 21.6962 75.209Z" fill="#023059"/>
<path d="M82.2347 41.3241C81.3728 40.4286 79.9892 40.0537 78.719 40.3036C78.2881 40.3869 77.9932 40.8868 78.1293 41.2616C78.2881 41.6782 78.719 41.9073 79.1727 41.8031C79.1953 41.8031 79.2407 41.7823 79.2634 41.7823C79.4222 41.7615 79.5809 41.7615 79.7397 41.7823C79.9212 41.8031 80.1026 41.8656 80.2841 41.9281C80.4429 41.9906 80.5789 42.0739 80.7377 42.178C80.8284 42.2613 80.9419 42.3446 81.0326 42.4279C81.3275 42.7403 81.9399 42.7195 82.2347 42.4279C82.5523 42.0947 82.5523 41.6365 82.2347 41.3241Z" fill="#023059"/>
<path d="M70.032 58.3594C70.1681 58.7551 70.6217 59.0259 71.0754 58.9009C71.1207 58.8801 71.1661 58.8801 71.2115 58.8801C71.3022 58.8801 71.4156 58.8801 71.5063 58.8801C71.6198 58.9009 71.7558 58.9217 71.8693 58.9634C71.9827 59.005 72.0734 59.0675 72.1641 59.13C72.2322 59.1925 72.3002 59.255 72.3683 59.3174C72.4136 59.3591 72.4363 59.4216 72.4817 59.4632C72.7085 59.8173 73.2755 59.9631 73.6385 59.734C74.024 59.5049 74.1828 59.0467 73.9333 58.6718C73.2982 57.6097 71.8693 57.089 70.5991 57.4014C70.1908 57.5055 69.8959 57.9637 70.032 58.3594Z" fill="#023059"/>
<path d="M53.1111 68.4613C53.2472 68.8778 53.7008 69.1277 54.1544 69.0027C54.1998 69.0027 54.2225 68.9819 54.2679 68.9819C54.3586 68.9819 54.472 68.9819 54.5627 68.9819C54.6761 69.0027 54.7895 69.0236 54.903 69.0652C55.0164 69.1069 55.1298 69.1693 55.2205 69.2318C55.3112 69.2943 55.402 69.3776 55.47 69.4609C55.5154 69.5234 55.5607 69.6067 55.6061 69.69C55.6288 69.7525 55.6515 69.815 55.6741 69.8775C55.7876 70.2732 56.2866 70.5439 56.7175 70.4189C57.1712 70.294 57.4207 69.8775 57.3073 69.4609C56.9217 68.0447 55.2205 67.1492 53.7008 67.5032C53.2698 67.6074 52.975 68.0655 53.1111 68.4613Z" fill="#023059"/>
<path d="M37.393 70.0646C36.9847 68.8358 35.6465 67.8987 34.2175 67.982C33.9907 68.0028 33.7866 68.0653 33.6051 68.2111C33.4463 68.3568 33.3556 68.5651 33.3556 68.7734C33.3783 69.1691 33.7412 69.5856 34.2175 69.5648C34.3083 69.5648 34.399 69.5648 34.4897 69.5648C34.6258 69.5856 34.7619 69.6273 34.898 69.6689C35.0114 69.7314 35.1248 69.7939 35.2382 69.8563C35.3516 69.9396 35.4424 70.023 35.5331 70.1271C35.6011 70.2104 35.6692 70.3145 35.7145 70.4187C35.7372 70.4603 35.7372 70.4811 35.7599 70.5228C35.896 70.9185 36.3723 71.2101 36.8033 71.0643C37.2342 70.8977 37.5291 70.4811 37.393 70.0646Z" fill="#023059"/>
<path d="M22.6484 57.2974C22.7618 57.11 22.7844 56.9225 22.7391 56.6934C22.4896 55.4022 21.3555 54.3192 20.0172 53.9443C19.5863 53.8194 19.0646 54.0901 18.9739 54.4858C18.8604 54.9024 19.1099 55.3189 19.5636 55.4438C19.6316 55.4647 19.6997 55.4855 19.7677 55.5063C19.9265 55.5688 20.0853 55.6729 20.2441 55.7562C20.4028 55.8604 20.5389 55.9853 20.6523 56.1311C20.7657 56.2769 20.8792 56.4435 20.9472 56.6101C21.0152 56.7559 21.0606 56.9225 21.0833 57.0891C21.1287 57.2766 21.3101 57.464 21.4689 57.5473C21.6503 57.6514 21.9225 57.6931 22.1267 57.6306C22.3535 57.589 22.5349 57.4848 22.6484 57.2974Z" fill="#023059"/>
</svg>
