<svg width="113" height="84" viewBox="0 0 113 84" fill="none" xmlns="http://www.w3.org/2000/svg">
<path d="M112.596 77.439C112.596 76.3096 112.596 75.1533 112.596 74.0239C112.596 69.8558 112.596 65.6878 112.596 61.4928C112.596 53.6944 112.623 45.8961 112.623 38.0709C112.623 29.5734 112.65 21.1028 112.623 12.6053C112.623 10.2389 112.623 7.89937 112.623 5.53297C112.623 4.45734 112.704 3.35481 112.058 2.41364C111.924 2.2254 111.789 2.06406 111.628 1.90271C111.601 1.87582 111.574 1.84893 111.547 1.79515C111.52 1.76826 111.52 1.76826 111.493 1.76826C110.956 1.25733 110.257 0.988422 109.477 0.90775C109.396 0.880859 109.315 0.880859 109.208 0.880859C108.267 0.880859 107.352 0.880859 106.411 0.880859C103.883 0.880859 101.383 0.880859 98.8548 0.880859C95.117 0.880859 91.3523 0.880859 87.6144 0.880859C83.0699 0.880859 78.5253 0.880859 73.9808 0.880859C68.9522 0.880859 63.9505 0.880859 58.9219 0.880859C53.8934 0.880859 48.8648 0.880859 43.8093 0.880859C39.0765 0.880859 34.3437 0.880859 29.584 0.880859C25.6042 0.880859 21.5975 0.880859 17.6176 0.880859C14.7134 0.880859 11.8092 0.880859 8.905 0.880859C7.47978 0.880859 6.05457 0.880859 4.65625 0.880859C4.57557 0.880859 4.4949 0.880859 4.41423 0.880859C3.55372 0.90775 2.77389 1.20355 2.12851 1.76826C1.268 2.54809 1.05288 3.59683 1.02599 4.72625C0.999095 9.29769 0.999095 13.896 0.972204 18.4675C0.945313 28.0406 0.945312 37.5868 0.945312 47.16C0.945312 57.1365 0.972204 67.113 0.999094 77.0895C0.999094 77.7079 0.999094 78.3264 0.999094 78.9449C0.999094 79.5634 0.945313 80.2088 1.10666 80.8273C1.24111 81.4189 1.5638 81.9298 1.96716 82.3601C1.99406 82.387 2.02095 82.4407 2.04784 82.4676C2.07473 82.4945 2.12851 82.5214 2.1554 82.5483C2.47809 82.8441 2.88145 83.0592 3.28481 83.2206C4.33356 83.597 5.65121 83.4088 6.75373 83.4088C8.04449 83.4088 9.33525 83.4088 10.626 83.4088C15.4932 83.4088 20.3605 83.4088 25.2546 83.4088C34.532 83.4088 43.8362 83.4088 53.1135 83.4088C62.0682 83.4088 70.9959 83.4088 79.9506 83.3819C88.9321 83.3819 97.9136 83.355 106.895 83.355C107.944 83.355 109.208 83.5433 110.23 83.1668C111.305 82.7903 112.139 81.9029 112.408 80.7735C112.757 79.7248 112.596 78.5147 112.596 77.439ZM108.32 77.3315C106.438 75.8256 104.529 74.3197 102.646 72.8407C102.351 72.5987 102.055 72.3567 101.732 72.1147C101.705 64.4508 101.705 56.8138 101.732 49.1499C101.732 41.6205 101.759 34.1179 101.759 26.5885C101.759 21.775 101.759 16.9347 101.732 12.1212C102.754 11.2607 103.776 10.3733 104.798 9.51282C106.519 8.06071 108.213 6.58172 109.934 5.12961C109.934 6.17835 109.934 7.25398 109.934 8.30273C109.934 10.5884 109.934 12.9011 109.934 15.1868C109.934 19.4624 109.934 23.7381 109.934 28.0137C109.934 35.7851 109.907 43.5566 109.907 51.3281C109.907 59.3684 109.907 67.4088 109.907 75.4222C109.907 76.471 109.907 77.5197 109.907 78.5953C109.369 78.1651 108.831 77.7348 108.32 77.3315ZM3.76885 79.187C3.74196 78.2458 3.79574 77.2777 3.79574 76.3365C3.79574 75.0995 3.79574 73.8895 3.79574 72.6525C3.79574 67.7046 3.76885 62.7567 3.76885 57.7818C3.74196 48.2356 3.74196 38.6894 3.76885 29.1162C3.76885 24.491 3.76885 19.8927 3.79574 15.2675C3.79574 13.0086 3.79574 10.7498 3.82263 8.49096C3.82263 7.44222 3.82263 6.36659 3.82263 5.31785C4.38734 5.80188 4.97894 6.25903 5.54364 6.74306C7.39911 8.27584 9.25458 9.8355 11.1369 11.3683C11.4327 11.6103 11.7285 11.8523 12.0243 12.0943C11.9706 19.57 11.9437 27.0187 11.9437 34.4675C11.9437 38.528 11.9437 42.5616 11.9437 46.6222C11.8899 46.8104 11.8899 47.0255 11.9437 47.2137C11.9437 49.9566 11.9437 52.7264 11.9437 55.4692C11.9168 55.5768 11.8899 55.7113 11.8899 55.8457C11.8899 55.9533 11.9168 56.0339 11.9437 56.1415C11.9437 56.9751 11.9437 57.8356 11.9437 58.6692C11.9437 63.16 11.9706 67.6777 11.9706 72.1684C10.9487 73.0289 9.92685 73.9163 8.905 74.7768C7.21087 76.229 5.48986 77.708 3.76885 79.187ZM99.043 12.8473C99.0699 20.807 99.0699 28.7666 99.043 36.7263C99.043 38.528 99.043 40.3028 99.043 42.1045C96.4615 41.1633 94.0414 40.007 91.5943 38.5549C90.1691 37.7213 88.8245 36.807 87.5069 35.812C86.9153 35.3549 86.3775 34.9246 85.7321 34.3868C85.1405 33.9028 84.5758 33.365 83.9842 32.854C82.6665 31.7246 81.2682 30.7297 79.4934 30.5414C77.88 30.3801 76.4279 31.1061 75.2178 32.1011C74.1152 32.9885 73.2816 34.1448 72.3942 35.2473C71.4531 36.4305 70.4043 37.5599 69.3287 38.6356C68.253 39.7112 67.0967 40.7062 65.9136 41.6474C65.9136 41.6474 65.8329 41.7011 65.806 41.728C65.7791 41.7549 65.7253 41.7818 65.6984 41.8087C65.564 41.9163 65.4026 42.0238 65.2682 42.1314C64.9455 42.3734 64.6228 42.5885 64.327 42.8305C63.7085 43.2608 63.0631 43.6911 62.4177 44.0944C62.0144 44.3633 61.5841 44.6053 61.1539 44.8743C57.9808 43.207 54.8076 41.5398 51.6345 39.8457C50.0211 38.9852 48.4076 38.1515 46.7942 37.291C46.0143 36.8877 45.2076 36.4843 44.3471 36.2423C43.379 35.9734 42.3841 35.9465 41.3622 36.1078C39.695 36.3768 38.1891 37.2641 36.6563 37.9633C35.9572 38.286 35.2311 38.6087 34.532 38.9045C34.4244 38.9583 34.3168 38.9852 34.2093 39.0389C34.021 39.1196 33.8597 39.1734 33.6714 39.2541C33.3219 39.3885 32.9454 39.5499 32.5958 39.6843C29.5572 40.8675 26.4378 41.9163 23.3185 42.8574C20.4681 43.7179 17.5907 44.4709 14.6865 45.1701C14.6865 38.2053 14.6865 31.2675 14.6865 24.3028C14.6865 20.4843 14.7134 16.6389 14.7134 12.8204C15.0361 12.8204 15.3857 12.8204 15.7084 12.8204C17.8059 12.8204 19.9302 12.8204 22.0277 12.8204C25.1471 12.8204 28.2933 12.8204 31.4126 12.8204C35.2042 12.8204 38.9958 12.8204 42.7874 12.8204C46.9824 12.8204 51.1505 12.8204 55.3455 12.8204C59.5404 12.8204 63.7354 12.8204 67.9304 12.8204C71.8833 12.8204 75.8094 12.8204 79.7623 12.8204C83.0699 12.8204 86.3775 12.8204 89.685 12.8204C92.0783 12.8204 94.4716 12.8204 96.8649 12.8204C97.5909 12.8473 98.317 12.8473 99.043 12.8473ZM81.4027 34.2524C81.4564 34.2793 81.5371 34.333 81.4027 34.2524V34.2524ZM54.7808 48.0743C54.6732 48.128 54.5656 48.1549 54.4581 48.2087C51.6345 49.365 48.7303 50.3331 45.7454 51.086C44.1589 51.4894 42.5454 51.839 40.932 52.1348C40.0984 52.2961 39.2647 52.4306 38.4311 52.565C38.0278 52.6188 37.6244 52.6995 37.1941 52.7533C36.8177 52.807 36.3336 52.8877 36.0916 52.9146C29.3151 53.802 22.4849 54.1247 15.6546 54.3936C15.305 54.3936 14.9823 54.4205 14.6327 54.4205C14.6327 52.2961 14.6327 50.1448 14.6327 48.0205C14.6327 47.9936 14.6327 47.9936 14.6327 47.9667C20.4681 46.5953 26.2227 44.9549 31.8429 42.8574C33.3756 42.2658 34.9084 41.6742 36.4412 41.002C37.1404 40.7062 37.8395 40.3835 38.5387 40.0608C38.8614 39.8994 39.1841 39.765 39.5068 39.6036C39.695 39.523 39.8832 39.4423 40.0715 39.3616C40.0984 39.3347 40.1252 39.3347 40.1521 39.3347C40.179 39.3347 40.179 39.3078 40.2059 39.3078C40.3135 39.2541 40.421 39.2272 40.5555 39.1734C40.9051 39.0389 41.2816 38.9314 41.658 38.8507C41.7656 38.8238 41.8463 38.8238 41.9538 38.7969C41.9807 38.7969 41.9807 38.7969 42.0076 38.7969C42.2227 38.77 42.4379 38.77 42.6799 38.77C42.7606 38.77 42.8412 38.77 42.9219 38.77C42.9488 38.77 42.9757 38.77 43.0026 38.77C43.0295 38.77 43.0295 38.77 43.0563 38.77C43.2446 38.7969 43.4597 38.8507 43.6479 38.9045C43.8093 38.9583 43.9975 39.0121 44.1589 39.0658C44.1858 39.0658 44.2664 39.1196 44.3202 39.1196C44.4009 39.1465 44.4816 39.2003 44.5622 39.2272C46.1488 39.9532 47.6547 40.8406 49.2143 41.6474C52.253 43.2608 55.2917 44.8474 58.3303 46.4608C57.685 46.7835 57.0665 47.1062 56.4211 47.402C56.0715 47.5633 55.7488 47.7247 55.3992 47.8591C55.2379 47.9398 55.0497 48.0205 54.8883 48.0743C54.8076 48.0743 54.7808 48.0743 54.7808 48.0743ZM34.4782 38.9314C34.532 38.9045 34.7202 38.8238 34.4782 38.9314V38.9314ZM14.6865 71.4155C14.6865 69.4256 14.6865 67.4357 14.6596 65.4457C14.7672 65.4188 14.8479 65.3919 14.9554 65.3651C14.9554 65.3651 14.9554 65.3651 14.9285 65.3651C14.9285 65.3651 14.9285 65.3651 14.9554 65.3651C15.1706 65.3113 15.0899 65.3651 15.0092 65.3651C15.1437 65.3651 15.4932 65.3382 15.547 65.3382H15.5739C15.6008 65.3382 15.6008 65.3382 15.6277 65.3382C15.7084 65.3651 15.789 65.3651 15.8966 65.392C16.0042 65.4188 16.1117 65.4726 16.2462 65.4995C16.2462 65.4995 16.2731 65.4995 16.2731 65.5264C16.4344 65.634 16.6227 65.7415 16.784 65.8491C16.8109 65.876 16.8109 65.876 16.8378 65.9029C16.9185 65.9835 16.9991 66.0373 17.0529 66.118C17.0798 66.1449 17.268 66.3062 17.268 66.36C17.1605 66.1987 17.1336 66.1718 17.2143 66.3062C17.2412 66.3331 17.268 66.3869 17.2949 66.4138C17.3487 66.4945 17.4025 66.602 17.4563 66.6827V66.7096C17.4563 66.7365 17.4832 66.7634 17.4832 66.7634C17.6714 67.3012 18.1554 67.7852 18.7739 67.7583C19.3924 67.7315 19.8227 67.355 20.0647 66.7903C20.0647 66.7903 20.0647 66.7634 20.0916 66.7634C20.1454 66.6558 20.1991 66.5751 20.2529 66.4676C20.3067 66.3869 20.3336 66.3062 20.3874 66.2256C20.4143 66.1987 20.4412 66.1449 20.4681 66.118C20.6025 65.9836 20.7101 65.8222 20.8445 65.7146C20.8983 65.6609 20.979 65.5802 21.0597 65.5264C21.0865 65.4995 21.0865 65.4995 21.1134 65.4726C21.2748 65.3651 21.4361 65.2575 21.5975 65.1499C21.6781 65.0962 21.7857 65.0424 21.8933 64.9886C21.8664 64.9886 21.8664 64.9886 21.947 64.9617C21.9739 64.9617 21.9739 64.9617 22.0008 64.9348H22.0277C22.0277 64.9348 22.0277 64.9348 22.0008 64.9348C22.1622 64.881 22.3504 64.8272 22.5118 64.7735C22.5924 64.7466 22.7 64.7197 22.7807 64.7197C22.8076 64.7197 22.8613 64.6928 22.8882 64.6928C23.0765 64.6928 23.2647 64.6659 23.4529 64.6659C23.5336 64.6659 23.6412 64.6659 23.7218 64.6928H23.7487C23.937 64.7197 24.1521 64.7735 24.3403 64.8541C24.3672 64.8541 24.3941 64.881 24.421 64.881C24.5017 64.9348 24.6361 64.9617 24.7168 65.0155C24.8781 65.0962 25.0395 65.2037 25.1739 65.3113C25.2008 65.3382 25.2277 65.3382 25.2546 65.3651C25.3622 65.4457 25.4429 65.5264 25.5235 65.6071C25.658 65.7415 25.7655 65.876 25.9 66.0104C25.9269 66.0373 25.9538 66.0642 25.9538 66.0911C26.0076 66.1718 26.0882 66.2794 26.142 66.36C26.1958 66.4676 26.2765 66.5751 26.3303 66.6827C26.3571 66.7096 26.3571 66.7365 26.384 66.7634C26.384 66.7634 26.384 66.7903 26.4109 66.7903C26.4916 66.9247 26.4109 66.8441 26.384 66.7634C26.4109 66.8709 26.4647 67.0054 26.4916 67.0861C26.5185 67.1936 26.5454 67.3012 26.5723 67.4088C26.5992 67.4894 26.5992 67.597 26.6261 67.6777C26.6261 67.7315 26.6529 67.7852 26.6529 67.839C26.6798 68.081 26.6529 68.3499 26.6261 68.592C26.5185 69.5869 27.8361 70.2861 28.6429 69.7483C28.8042 69.6407 28.9656 69.56 29.1269 69.4525C29.1538 69.4525 29.1807 69.4256 29.1807 69.4256C29.2345 69.3987 29.3151 69.3987 29.3689 69.3718C29.3958 69.3718 29.7454 69.2642 29.8798 69.2373C29.7185 69.2373 29.7992 69.2373 29.8798 69.2373C29.9067 69.2373 29.9067 69.2373 29.9067 69.2373C29.9874 69.2373 30.0681 69.2373 30.1756 69.2104C30.337 69.2104 30.5252 69.2104 30.6866 69.2373C30.6866 69.2373 30.7135 69.2373 30.7403 69.2373C30.821 69.2642 30.9017 69.2642 30.9824 69.2911C31.063 69.318 31.1437 69.3449 31.2244 69.3718C31.2513 69.3718 31.2782 69.3987 31.3319 69.3987C31.3857 69.4256 31.4395 69.4525 31.4664 69.4525C31.5471 69.5062 31.6546 69.56 31.7353 69.6138C31.7891 69.6676 31.8698 69.6945 31.9235 69.7483C32.0311 69.8558 32.1656 69.9634 32.2731 70.0978C32.2731 70.1247 32.3269 70.1516 32.3538 70.1785C32.3807 70.2323 32.4076 70.2861 32.4614 70.313C32.542 70.4474 32.6227 70.5819 32.7034 70.7432C32.7303 70.797 32.7572 70.8508 32.7841 70.9315C32.7841 70.9584 32.8109 71.0121 32.8109 71.0121C32.8378 71.1197 32.8647 71.2273 32.8916 71.3617C27.137 71.3617 21.3554 71.3617 15.6008 71.3617C15.3588 71.4155 15.0092 71.4155 14.6865 71.4155ZM35.7151 71.4424C35.5269 69.802 34.5588 68.2424 33.1605 67.3819C32.0042 66.6558 30.5521 66.4407 29.2076 66.7365C28.8042 65.1499 27.7555 63.7247 26.3571 62.8642C24.421 61.6541 21.8395 61.7886 19.9302 63.0256C19.4731 63.3214 19.0697 63.6709 18.7201 64.0474C17.6445 63.0524 16.1386 62.5146 14.6327 62.7298C14.6327 60.8743 14.6327 58.9919 14.6327 57.1365C20.9521 56.8945 27.2983 56.6255 33.5908 55.9264C40.0715 55.2003 46.5253 54.0171 52.6833 51.8121C58.5186 49.6877 64.085 46.7566 68.8447 42.7499C71.1573 40.8137 73.1203 38.6625 75.0026 36.323C75.4598 35.7583 75.9169 35.1936 76.4279 34.7095C76.643 34.4944 76.8581 34.3062 77.1001 34.091C77.1001 34.091 77.3153 33.9297 77.369 33.9028C77.5304 33.7952 77.6917 33.7146 77.8531 33.6339C77.9337 33.607 77.9875 33.5532 78.0682 33.5263C78.2295 33.4725 78.364 33.4188 78.5253 33.3919C78.606 33.365 78.6867 33.365 78.7674 33.3381C78.9556 33.3381 79.1438 33.3381 79.3321 33.3381C79.359 33.3381 79.3858 33.3381 79.4127 33.3381C79.4934 33.365 79.5472 33.365 79.6279 33.3919C79.7892 33.4188 79.9237 33.4725 80.085 33.5263C80.0312 33.5263 80.3808 33.6608 80.4077 33.6877C80.569 33.7683 80.7304 33.8759 80.8648 33.9566C81.0262 34.0641 81.1606 34.1717 81.322 34.2793C81.3489 34.3062 81.3758 34.3062 81.3758 34.333C81.4565 34.3868 81.5102 34.4406 81.5909 34.5213C81.8867 34.7633 82.1825 35.0322 82.4783 35.3011C83.0968 35.8389 83.6884 36.3767 84.3338 36.8877C85.6514 37.9364 86.9959 38.9583 88.3943 39.8726C91.1909 41.7011 94.1489 43.207 97.2682 44.444C97.833 44.6591 98.4246 44.8742 98.9893 45.0894C98.9893 48.639 98.9893 52.2154 98.9893 55.765C96.1657 55.4692 93.2346 56.9751 91.7287 59.3684C90.7607 58.723 89.6044 58.3734 88.4212 58.4003C86.4312 58.4541 84.6296 59.5835 83.6615 61.3046C83.4195 61.7617 83.2043 62.2726 83.0699 62.7835C81.7253 62.676 80.3001 63.0256 79.2514 63.8054C78.122 64.639 77.3153 65.876 77.0195 67.2205C74.411 67.113 71.722 68.592 70.6732 71.0121C70.5926 71.2004 70.5388 71.3617 70.5119 71.5499C69.4631 71.5499 68.4144 71.5499 67.3388 71.5499C61.8261 71.5499 56.2866 71.5499 50.774 71.5499C45.7723 71.4424 40.7437 71.4424 35.7151 71.4424ZM96.4615 58.6423C96.4346 58.6423 96.4077 58.6692 96.3271 58.6961C96.3271 58.6961 96.3809 58.6692 96.4615 58.6423ZM94.3103 60.2289C94.2834 60.2558 94.2565 60.2827 94.2565 60.3096C94.2834 60.2558 94.3103 60.2289 94.3103 60.2289ZM76.2127 69.802C76.2934 69.802 76.3472 69.7752 76.2127 69.802V69.802ZM76.1858 69.802C76.159 69.802 76.1321 69.802 76.1321 69.802C76.159 69.802 76.159 69.802 76.1858 69.802ZM75.1371 70.1247C75.1371 70.1247 75.164 70.1247 75.164 70.0978C75.2984 70.0441 75.1909 70.0978 75.1371 70.1247ZM75.1102 70.1247H75.0833C75.1102 70.1247 75.1102 70.1247 75.1102 70.1247ZM73.4968 71.3617C73.4699 71.3886 73.4699 71.4155 73.4699 71.4155C73.4968 71.3348 73.5774 71.2004 73.4968 71.3617ZM73.5774 71.281C73.685 71.1735 73.7657 71.0659 73.8732 70.9584C73.9808 70.8508 74.0884 70.7432 74.1959 70.6626C74.2497 70.6357 74.3035 70.5819 74.3573 70.555C74.5993 70.3936 74.8413 70.2592 75.1102 70.1247C75.1909 70.0978 75.2716 70.071 75.3253 70.0441C75.4598 69.9903 75.6211 69.9634 75.7556 69.9096C75.89 69.8827 76.0245 69.8558 76.1858 69.8289C76.2396 69.8289 76.2934 69.8289 76.3472 69.802C76.643 69.7752 76.9388 69.802 77.2346 69.802C77.2884 69.8289 77.369 69.8289 77.4228 69.8289C77.5842 69.8558 77.7455 69.9096 77.9069 69.9634C78.6867 70.2323 79.6816 69.5062 79.601 68.6726C79.601 68.5113 79.5741 68.3231 79.5741 68.1617C79.5741 68.081 79.5741 68.0004 79.601 67.9197C79.6279 67.7583 79.6816 67.597 79.7085 67.4357C79.7354 67.355 79.7623 67.2743 79.7892 67.1936C79.8161 67.1399 79.8161 67.113 79.8161 67.0861C79.8699 66.9785 79.9775 66.8441 80.0312 66.7365C80.085 66.6558 80.1119 66.602 80.1657 66.5214C80.1657 66.4945 80.1926 66.4676 80.2195 66.4407C80.3001 66.3331 80.4346 66.2256 80.5153 66.118C80.569 66.0642 80.6497 66.0104 80.7035 65.9567C80.7304 65.9298 80.7573 65.9029 80.7842 65.9029C80.8648 65.8491 80.838 65.8491 80.7035 65.9567C80.7304 65.876 81.0531 65.7146 81.1338 65.6878C81.1875 65.6609 81.2682 65.634 81.322 65.5802C81.322 65.5802 81.3489 65.5802 81.3489 65.5533H81.3758C81.5371 65.4995 81.6985 65.4457 81.8867 65.392C81.9674 65.3651 82.0211 65.3651 82.1018 65.3382H82.1287C82.2901 65.3382 82.4514 65.3113 82.6127 65.3113C82.6934 65.3113 82.7741 65.3113 82.8817 65.3113C82.8817 65.3113 82.9892 65.3113 83.043 65.3382C83.0968 65.3382 83.1237 65.3651 83.1506 65.3651C83.2312 65.3919 83.3119 65.392 83.3926 65.4188C83.5808 65.4726 83.7691 65.5264 83.9304 65.6071C84.7102 65.9298 85.7052 65.0962 85.6245 64.3163C85.5976 64.1012 85.5976 63.8861 85.6245 63.644C85.6245 63.6172 85.6245 63.5903 85.6245 63.5634C85.6245 63.5634 85.6245 63.5365 85.6245 63.5096C85.6514 63.4289 85.6514 63.3214 85.6783 63.2407C85.7052 63.1062 85.759 62.9987 85.7859 62.8642C85.7859 62.8373 85.8128 62.8104 85.8128 62.7835C85.8665 62.6491 85.8665 62.676 85.7859 62.8373C85.7859 62.676 86.001 62.3802 86.1086 62.2457C86.1354 62.1919 86.2161 62.0575 86.2699 62.0037C86.1623 62.1382 86.1354 62.1651 86.243 62.0575C86.2968 62.0037 86.3237 61.9499 86.3775 61.923C86.485 61.8155 86.7002 61.4928 86.8615 61.4659C86.8077 61.4928 86.7808 61.5197 86.7271 61.5466C86.7808 61.5197 86.8346 61.4659 86.8884 61.439C86.9691 61.3852 87.0766 61.3045 87.1573 61.2508C87.2649 61.197 87.3455 61.1432 87.4531 61.0894C87.48 61.0894 87.48 61.0894 87.5338 61.0625C87.722 61.0087 87.9102 60.955 88.1254 60.9012C88.1523 60.9012 88.206 60.9012 88.2329 60.9012C88.3136 60.9012 88.4212 60.9012 88.5018 60.9012C88.6363 60.9012 88.7439 60.9012 88.8783 60.9281H88.9052C89.1203 60.9819 89.3355 61.0087 89.5237 61.0894C89.6044 61.1163 89.685 61.1432 89.7657 61.1701C89.8195 61.197 89.8464 61.2239 89.9002 61.2239C90.0884 61.3314 90.2766 61.439 90.4649 61.5735C90.4649 61.5735 90.4649 61.5735 90.4918 61.5735C90.5724 61.6541 90.68 61.7348 90.7607 61.8155C90.8145 61.8693 90.8951 61.9499 90.9489 62.0306C90.9489 62.0575 90.9758 62.0575 90.9758 62.0575C91.0027 62.0844 91.0027 62.1113 91.0296 62.1382C91.3523 62.5953 91.8094 62.8642 92.3741 62.7835C92.885 62.7029 93.3691 62.3264 93.5035 61.8155C93.5573 61.6272 93.6111 61.439 93.6918 61.2239C93.6918 61.197 93.7187 61.1701 93.7187 61.1432C93.7456 61.0625 93.7993 60.9819 93.8262 60.9012C93.9338 60.713 94.0145 60.5516 94.1489 60.3903C94.1489 60.3903 94.1758 60.3365 94.2296 60.2827L94.2565 60.2558C94.2834 60.202 94.3372 60.1751 94.364 60.1213C94.6061 59.8524 94.875 59.5835 95.1708 59.3415C95.1977 59.3146 95.2245 59.2877 95.2514 59.2608C95.3321 59.2071 95.3859 59.1533 95.4666 59.1264C95.6279 59.0188 95.8161 58.9113 96.0044 58.8306C96.0851 58.7768 96.1657 58.7499 96.2464 58.723C96.3002 58.6961 96.354 58.6692 96.4077 58.6423C96.4346 58.6423 96.4346 58.6155 96.4615 58.6155C96.6229 58.5617 96.838 58.481 96.8649 58.481C97.0531 58.4272 97.2414 58.3734 97.4027 58.3466C97.4565 58.3197 97.6716 58.3197 97.7254 58.2928C97.9136 58.2659 98.1288 58.2659 98.317 58.2659C98.4246 58.2659 98.801 58.3466 98.9086 58.2928C98.9355 58.2928 98.9624 58.2928 98.9893 58.3197C98.9893 58.481 98.9893 58.6424 98.9893 58.8306C98.9893 63.0256 98.9893 67.1936 99.0162 71.3886C93.9069 71.3886 88.7976 71.3886 83.6884 71.3886C80.2732 71.3886 76.8581 71.3886 73.4699 71.3886C73.4968 71.3886 73.5505 71.3079 73.5774 71.281ZM14.2832 3.56994C17.8865 3.56994 21.4899 3.56994 25.0933 3.56994C29.5303 3.56994 33.9404 3.56994 38.3773 3.56994C43.2715 3.56994 48.1925 3.56994 53.0866 3.56994C58.0614 3.56994 63.0362 3.56994 68.011 3.56994C69.6783 3.56994 71.3455 3.56994 73.0127 3.56994C72.7707 3.75818 72.5287 3.94641 72.2867 4.13465C72.0715 4.29599 71.9102 4.45734 71.8295 4.72625C71.7757 4.96827 71.8026 5.29095 71.9371 5.50608C72.0715 5.72121 72.2867 5.90944 72.5287 5.96323C72.7707 6.01701 73.0934 6.01701 73.3085 5.85566C74.3035 5.10272 75.3253 4.32289 76.3203 3.56994C77.0463 3.56994 77.7993 3.56994 78.5253 3.56994C77.5035 4.51112 76.5085 5.42541 75.4867 6.36659C75.1102 6.71617 75.0833 7.44222 75.4867 7.7918C75.89 8.16827 76.5085 8.16827 76.9119 7.7918C78.4447 6.39348 79.9506 4.99516 81.4833 3.56994C81.6985 3.56994 81.9136 3.56994 82.1287 3.56994C82.6934 3.56994 83.285 3.56994 83.8497 3.56994C82.9623 4.43045 82.1825 5.34474 81.4564 6.36659C81.1606 6.79684 81.3489 7.496 81.806 7.73802C82.3169 8.00693 82.8548 7.84558 83.1775 7.38844C83.3119 7.2002 83.4195 7.01197 83.5539 6.85062C83.5808 6.82373 83.6077 6.76995 83.6346 6.74306C83.6884 6.66239 83.7691 6.58172 83.8228 6.50104C84.0917 6.17835 84.3875 5.82877 84.6833 5.53297C84.9791 5.23717 85.2749 4.94137 85.5976 4.64558C85.759 4.48423 85.9203 4.34978 86.1086 4.21532C86.1892 4.16154 86.2699 4.08087 86.3506 4.02709C86.4044 4.00019 86.4313 3.94641 86.485 3.91952C86.5388 3.89263 86.7002 3.75818 86.485 3.91952C86.6195 3.81196 86.727 3.7044 86.8346 3.56994C89.3355 3.56994 91.8094 3.56994 94.3103 3.56994C97.3758 3.56994 100.441 3.56994 103.48 3.56994C104.851 3.56994 106.196 3.56994 107.567 3.56994C107.11 3.9733 106.626 4.37667 106.169 4.75314C104.341 6.31281 102.485 7.89936 100.656 9.45903C100.388 9.67416 100.119 9.91617 99.8498 10.1313C99.2313 10.1313 98.6128 10.1313 97.9943 10.1313C95.8968 10.1313 93.7724 10.1313 91.675 10.1313C88.5556 10.1313 85.4094 10.1313 82.2901 10.1313C78.4985 10.1313 74.7068 10.1313 70.9152 10.1313C66.7203 10.1313 62.5522 10.1313 58.3572 10.1313C54.1623 10.1313 49.9673 10.1313 45.7723 10.1313C41.8194 10.1313 37.8933 10.1313 33.9404 10.1313C30.6328 10.1313 27.3252 10.1313 24.0176 10.1313C21.6244 10.1313 19.2311 10.1313 16.8378 10.1313C15.8159 10.1313 14.7941 10.1313 13.7722 10.1313C12.7504 9.29769 11.7554 8.46407 10.7336 7.63046C9.09323 6.28591 7.45289 4.91448 5.81255 3.56994C6.21592 3.56994 6.59239 3.56994 6.99575 3.56994C9.4697 3.56994 11.863 3.56994 14.2832 3.56994ZM106.788 80.6659C105.658 80.6659 104.529 80.6659 103.399 80.6659C98.9893 80.6659 94.5523 80.6659 90.1422 80.6659C81.3758 80.6659 72.6363 80.6928 63.8698 80.6928C54.9152 80.6928 45.9874 80.6928 37.0328 80.6928C33.8866 80.6928 30.7672 80.6928 27.621 80.6928C28.0782 80.155 28.5353 79.6441 28.9924 79.1063C29.1807 78.8911 29.2882 78.676 29.2882 78.3802C29.2882 78.1382 29.1807 77.8424 28.9924 77.6542C28.616 77.3046 27.9437 77.2239 27.5672 77.6542C26.7067 78.6491 25.8462 79.6172 25.0126 80.6122C24.9857 80.6391 24.9857 80.6391 24.9588 80.6659C24.1252 80.6659 23.3185 80.6659 22.4849 80.6659C23.4529 79.5096 24.4479 78.3533 25.416 77.197C25.7655 76.7937 25.8462 76.1483 25.416 75.7718C25.0395 75.4222 24.3403 75.3416 23.9908 75.7718C22.6193 77.4121 21.221 79.0525 19.8496 80.6659C18.9622 80.6659 18.0479 80.6659 17.1605 80.6659C17.5907 80.2357 18.0479 79.7785 18.4781 79.3483C18.8546 78.9718 18.8815 78.2995 18.4781 77.9231C18.0748 77.5466 17.4563 77.5197 17.0529 77.9231C16.1386 78.8374 15.2243 79.7517 14.3101 80.6659C12.4008 80.6659 10.4916 80.6659 8.58231 80.6659C7.77558 80.6659 6.94197 80.6659 6.13524 80.6659C6.59239 80.2626 7.07642 79.8592 7.53357 79.4827C9.36214 77.9231 11.1907 76.3365 13.0462 74.7768C13.3151 74.5348 13.584 74.3197 13.8529 74.0777C19.7689 74.0777 25.6849 74.0777 31.6009 74.1046C37.3017 74.1046 43.0295 74.1046 48.7303 74.1046C54.2698 74.1046 59.8093 74.1046 65.3488 74.1046C70.7808 74.1046 76.2396 74.1046 81.6716 74.1046C87.2111 74.1046 92.7506 74.1046 98.2901 74.1046C98.8279 74.1046 99.3926 74.1046 99.9304 74.1046C100.952 74.9113 101.974 75.718 102.996 76.5247C104.744 77.8962 106.465 79.2945 108.213 80.6659C107.729 80.6659 107.272 80.6659 106.788 80.6659Z" fill="#023059"/>
<path d="M22.0019 64.9617C21.975 64.9886 21.9212 64.9886 21.8943 65.0155C21.9212 64.9886 21.975 64.9617 22.0019 64.9617Z" fill="#023059"/>
<path d="M31.1694 22.2055C31.1694 22.1783 31.1694 22.1783 31.1694 22.2055C31.1967 22.2327 31.2239 22.2327 31.2511 22.2327C31.2239 22.2327 31.1967 22.2055 31.1694 22.2055Z" fill="#023059"/>
<path d="M30.3105 21.9363H30.2836C30.2567 21.9363 30.203 21.9363 30.1761 21.9094H30.1492C30.2836 21.9632 30.3105 21.9632 30.3105 21.9363Z" fill="#023059"/>
<path d="M25.6567 27.7986C25.6836 27.8524 25.6836 27.8793 25.6836 27.9061C25.7105 27.8255 25.6836 27.7986 25.6567 27.7986Z" fill="#023059"/>
<path d="M35.4987 22.3935C35.4718 22.3666 35.4449 22.3128 35.4181 22.286C34.6113 21.2372 33.6433 20.3498 32.4332 19.812C31.3306 19.328 30.1206 19.0859 28.9105 19.2473C26.571 19.5431 24.3928 20.9145 23.371 23.0927C22.1071 25.7818 22.5911 28.9549 24.6617 31.1061C25.818 32.3162 27.3508 33.0423 28.9911 33.2305C30.5239 33.3919 32.1912 32.9616 33.4819 32.1011C35.0147 31.0793 36.1441 29.5196 36.4937 27.691C36.8433 25.8893 36.6013 23.8994 35.4987 22.3935ZM33.6164 27.9868V27.9599C33.6164 27.9599 33.6164 27.9599 33.6164 27.9868ZM33.9391 26.8305C33.9391 26.7767 33.9659 26.7229 33.9659 26.6692C33.9659 26.7229 33.9391 26.8036 33.9391 26.8574C33.9391 26.9112 33.9122 26.9918 33.9122 27.0456C33.8853 27.1801 33.8315 27.3414 33.8046 27.4759C33.7508 27.6103 33.7239 27.7717 33.6702 27.9061C33.6433 27.9599 33.6433 27.9868 33.6433 27.9868C33.6164 28.0406 33.5626 28.1213 33.5357 28.175C33.455 28.3095 33.4012 28.4439 33.3206 28.5515C33.2937 28.6053 33.2399 28.6591 33.213 28.7129C33.213 28.7129 33.1861 28.7398 33.1592 28.7935C33.1323 28.8473 33.0786 28.9011 33.0517 28.928C32.9979 28.9818 32.971 29.0356 32.9172 29.0624C32.7828 29.1969 32.6752 29.3313 32.5407 29.4389C32.5138 29.4658 32.487 29.4927 32.4601 29.5196C32.4332 29.5196 32.4332 29.5465 32.4063 29.5734C32.2718 29.6809 32.1374 29.7616 32.0029 29.8423C31.8954 29.9229 31.7878 29.9767 31.6533 30.0305C31.5727 30.0574 31.5189 30.1112 31.4382 30.1381C31.4113 30.1381 31.4113 30.165 31.3844 30.165C31.0886 30.2725 30.8197 30.3532 30.497 30.4339C30.4164 30.4608 30.3088 30.4877 30.2281 30.4877C30.2012 30.4877 30.1743 30.4877 30.1475 30.4877C30.0399 30.4877 29.9592 30.5145 29.8517 30.5145C29.7172 30.5145 29.5559 30.5145 29.4214 30.5145C29.3407 30.5145 29.2601 30.5145 29.1794 30.4877C29.1256 30.4877 29.0718 30.4877 29.0449 30.4877C28.776 30.4608 28.4533 30.3263 28.2382 30.2456C28.1844 30.2187 28.1306 30.1919 28.05 30.1919C27.8348 30.1112 28.0231 30.1919 28.0769 30.2187C27.9693 30.1919 27.7542 30.0574 27.6735 30.0036C27.5659 29.9498 27.4584 29.8692 27.3508 29.8154C27.2701 29.7616 27.1895 29.7078 27.1088 29.654C27.1088 29.654 27.1088 29.654 27.0819 29.6271C26.8668 29.4389 26.6516 29.2507 26.4634 29.0355C26.4096 28.9818 26.3827 28.928 26.329 28.9011C26.329 28.9011 26.329 28.9011 26.3021 28.8742C26.1945 28.7398 26.1138 28.6053 26.0332 28.4708C25.9525 28.3633 25.8987 28.2557 25.8449 28.1481C25.818 28.0675 25.7642 28.0137 25.7374 27.933V27.9061C25.7105 27.8524 25.7105 27.7986 25.7105 27.7986C25.6836 27.691 25.6029 27.5834 25.6029 27.5297C25.5491 27.3683 25.4953 27.1801 25.4684 27.0187C25.4684 26.965 25.4416 26.9112 25.4416 26.8305C25.4416 26.7229 25.4147 26.6154 25.4147 26.5078C25.3878 26.2389 25.3878 25.97 25.4147 25.728C25.4147 25.6742 25.4147 25.6473 25.4147 25.5935C25.4416 25.5128 25.4416 25.4322 25.4684 25.3246C25.5222 25.0826 25.576 24.8406 25.6567 24.6255C25.6567 24.5986 25.6836 24.5717 25.6836 24.5448C25.6836 24.5448 25.7642 24.3565 25.7911 24.3028C25.8987 24.0876 26.0063 23.8994 26.1407 23.7112C26.1407 23.6843 26.1676 23.6574 26.1945 23.6305C26.2214 23.6036 26.329 23.4691 26.3558 23.4423C26.5172 23.2809 26.6785 23.1196 26.8399 22.9582C26.8668 22.9313 27.0012 22.8238 27.0281 22.7969C27.055 22.77 27.0819 22.7431 27.1088 22.7431C27.297 22.6086 27.4853 22.5011 27.7004 22.3935C27.7811 22.3397 27.8886 22.3128 27.9962 22.2591C27.9962 22.2591 27.9962 22.2591 28.0231 22.2591C28.2382 22.1784 28.4533 22.0977 28.6685 22.0439C28.8029 22.017 28.9105 21.9902 29.0449 21.9633H29.0718C29.018 21.9633 28.9911 21.9633 29.0987 21.9633C29.1256 21.9633 29.1794 21.9633 29.2063 21.9364C29.1794 21.9364 29.1525 21.9364 29.1256 21.9633C29.3676 21.9364 29.6096 21.9364 29.8517 21.9364C29.9592 21.9364 30.0399 21.9633 30.1475 21.9633C30.1206 21.9633 30.1206 21.9633 30.0937 21.9364C30.1206 21.9364 30.1474 21.9364 30.2012 21.9633C30.2281 21.9633 30.2281 21.9633 30.255 21.9633C30.3088 21.9633 30.3357 21.9902 30.3626 21.9902C30.6046 22.0439 30.8466 22.0977 31.0886 22.1784C31.1155 22.2053 31.1693 22.2053 31.1962 22.2322C31.1962 22.2322 31.1693 22.2322 31.1693 22.2053C31.1693 22.2053 31.1962 22.2322 31.2231 22.2322C31.3575 22.2859 31.3575 22.286 31.3038 22.2591C31.3844 22.3128 31.492 22.3397 31.5458 22.3666C31.7878 22.5011 32.0029 22.6355 32.2449 22.7969C32.2987 22.8238 32.3525 22.8775 32.3794 22.9044C32.487 23.012 32.6214 23.1196 32.729 23.2271C32.8365 23.3347 32.9172 23.4423 33.0248 23.5498C33.0786 23.6036 33.1323 23.6574 33.1592 23.7112C33.1861 23.7381 33.213 23.7649 33.2399 23.7918C33.4281 24.0339 33.5626 24.2759 33.697 24.5717C33.697 24.5986 33.7239 24.5986 33.7239 24.6255C33.7508 24.6792 33.7508 24.733 33.7777 24.7599C33.8315 24.9213 33.8853 25.0826 33.9122 25.2439C33.9391 25.3515 33.9659 25.486 33.9928 25.5935C33.9928 25.6204 33.9928 25.6473 33.9928 25.6742C33.9928 25.7549 34.0197 25.8355 34.0197 25.9162C34.0197 26.0776 34.0197 26.212 34.0197 26.3734C33.966 26.4809 33.9928 26.7229 33.9391 26.8305Z" fill="#023059"/>
<path d="M30.6063 34.5751C30.4718 34.4407 30.3374 34.36 30.176 34.3062C30.0147 34.2255 29.8533 34.1718 29.6651 34.1986C29.5575 34.2255 29.4231 34.2255 29.3155 34.2524C29.1004 34.3062 28.8853 34.4407 28.7239 34.602C28.6432 34.6827 28.5895 34.7902 28.5088 34.8709C28.3743 35.086 28.3206 35.3012 28.3206 35.5432C28.3206 35.839 28.3206 36.1079 28.3206 36.4037C28.3206 36.5919 28.3474 36.7533 28.4281 36.9146C28.4819 37.076 28.5626 37.2373 28.697 37.3449C28.8315 37.4793 28.9659 37.56 29.1273 37.6138C29.2886 37.6945 29.45 37.7482 29.6382 37.7213C29.7458 37.6945 29.8802 37.6945 29.9878 37.6676C30.2029 37.6138 30.418 37.4793 30.5794 37.318C30.6601 37.2373 30.7138 37.1297 30.7945 37.0491C30.929 36.8339 30.9828 36.6188 30.9828 36.3768C30.9828 36.081 30.9828 35.8121 30.9828 35.5163C30.9828 35.3281 30.9559 35.1667 30.8752 35.0054C30.8214 34.844 30.7407 34.7096 30.6063 34.5751Z" fill="#023059"/>
<path d="M28.4533 17.2843C28.5071 17.4456 28.5878 17.607 28.7222 17.7145C28.8567 17.849 28.9912 17.9297 29.1525 17.9834C29.3138 18.0641 29.4752 18.1179 29.6634 18.091C29.771 18.0641 29.9054 18.0641 30.013 18.0372C30.2281 17.9834 30.4433 17.849 30.6046 17.6876C30.6853 17.607 30.7391 17.4994 30.8197 17.4187C30.9542 17.2036 31.008 16.9885 31.008 16.7465C30.9811 16.4507 30.9811 16.1549 30.9542 15.8591C30.9542 15.6708 30.9273 15.5095 30.8466 15.3481C30.7928 15.1868 30.7122 15.0255 30.5777 14.9179C30.4433 14.7834 30.3088 14.7028 30.1475 14.649C29.9861 14.5683 29.8248 14.5145 29.6365 14.5414C29.529 14.5683 29.3945 14.5683 29.287 14.5952C29.0718 14.649 28.8567 14.7834 28.6954 14.9448C28.6147 15.0255 28.5609 15.133 28.4802 15.2137C28.3458 15.4288 28.292 15.6439 28.292 15.886C28.3189 16.1818 28.3189 16.4776 28.3458 16.7734C28.3189 16.9347 28.3727 17.1229 28.4533 17.2843Z" fill="#023059"/>
<path d="M21.4899 26.6423C21.5706 26.481 21.6243 26.3196 21.5974 26.1314C21.5706 26.0238 21.5705 25.8894 21.5437 25.7818C21.4899 25.5667 21.3554 25.3516 21.1941 25.1902C21.1134 25.1096 21.0058 25.0558 20.9252 24.9751C20.71 24.8407 20.4949 24.7869 20.2529 24.7869C19.9571 24.7869 19.6882 24.7869 19.3924 24.7869C19.2042 24.7869 19.0428 24.8138 18.8815 24.8944C18.7201 24.9482 18.5588 25.0289 18.4512 25.1633C18.3168 25.2978 18.2361 25.4322 18.1823 25.5936C18.1016 25.7549 18.0479 25.9163 18.0747 26.1045C18.1016 26.2121 18.1016 26.3465 18.1285 26.4541C18.1823 26.6692 18.3168 26.8844 18.4781 27.0457C18.5588 27.1264 18.6663 27.1802 18.747 27.2608C18.9621 27.3953 19.1773 27.4491 19.4193 27.4491C19.7151 27.4491 19.984 27.4491 20.2798 27.4491C20.468 27.4491 20.6294 27.4222 20.7907 27.3415C20.9521 27.2877 21.1134 27.207 21.221 27.0726C21.3285 26.965 21.4361 26.8306 21.4899 26.6423Z" fill="#023059"/>
<path d="M40.8789 25.1634C40.7983 25.0827 40.6907 25.0289 40.61 24.9482C40.3949 24.8138 40.1798 24.76 39.9378 24.76C39.642 24.7869 39.3462 24.7869 39.0504 24.8138C38.8621 24.8138 38.7008 24.8407 38.5394 24.9214C38.3781 24.9751 38.2167 25.0558 38.1092 25.1903C37.9747 25.3247 37.8941 25.4592 37.8403 25.6205C37.7596 25.7819 37.7058 25.9432 37.7327 26.1314C37.7596 26.239 37.7596 26.3735 37.7865 26.481C37.8403 26.6961 37.9747 26.9113 38.1361 27.0726C38.2167 27.1533 38.3243 27.2071 38.405 27.2877C38.6201 27.4222 38.8352 27.476 39.0772 27.476C39.373 27.4491 39.6688 27.4491 39.9646 27.4222C40.1529 27.4222 40.3142 27.3953 40.4756 27.3146C40.6369 27.2609 40.7983 27.1802 40.9058 27.0457C41.0403 26.9113 41.1209 26.7768 41.1747 26.6155C41.2554 26.4541 41.3092 26.2928 41.2823 26.1046C41.2554 25.997 41.2554 25.8625 41.2285 25.755C41.1478 25.513 41.0403 25.3247 40.8789 25.1634Z" fill="#023059"/>
<path d="M37.8664 32.4507C37.6512 32.2356 37.463 32.0473 37.2479 31.8322C37.1134 31.6977 36.979 31.6171 36.8176 31.5633C36.6563 31.4826 36.4949 31.4288 36.3067 31.4557C36.1185 31.4557 35.9571 31.4826 35.7958 31.5633C35.6344 31.6171 35.4731 31.6977 35.3655 31.8322C35.2848 31.9129 35.2311 32.0204 35.1504 32.1011C35.0159 32.3162 34.9622 32.5314 34.9622 32.7734C34.989 32.8809 34.989 33.0154 35.0159 33.123C35.0697 33.3381 35.2042 33.5532 35.3655 33.7146C35.5806 33.9297 35.7689 34.1179 35.984 34.333C36.1185 34.4675 36.2529 34.5482 36.4143 34.602C36.5756 34.6826 36.7369 34.7364 36.9252 34.7095C37.1134 34.7095 37.2748 34.6826 37.4361 34.602C37.5975 34.5482 37.7588 34.4675 37.8664 34.333C37.947 34.2524 38.0008 34.1448 38.0815 34.0641C38.2159 33.849 38.2697 33.6339 38.2697 33.3919C38.2428 33.2843 38.2428 33.1499 38.2159 33.0423C38.1622 32.8003 38.0277 32.612 37.8664 32.4507Z" fill="#023059"/>
<path d="M21.4091 19.8388C21.6242 20.0271 21.8662 20.2422 22.0814 20.4304C22.2158 20.5649 22.3503 20.6455 22.5116 20.6993C22.673 20.78 22.8343 20.8338 23.0225 20.8069C23.2108 20.8069 23.3721 20.78 23.5335 20.6993C23.6948 20.6455 23.8562 20.5649 23.9637 20.4304C24.0444 20.3497 24.0982 20.2422 24.1789 20.1615C24.3133 19.9464 24.3671 19.7313 24.3671 19.4892C24.3402 19.3817 24.3402 19.2472 24.3133 19.1397C24.2595 18.9245 24.1251 18.7094 23.9637 18.5481C23.7486 18.3598 23.5066 18.1447 23.2915 17.9565C23.157 17.822 23.0225 17.7413 22.8612 17.6876C22.6999 17.6069 22.5385 17.5531 22.3503 17.58C22.162 17.58 22.0007 17.6069 21.8394 17.6876C21.678 17.7413 21.5167 17.822 21.4091 17.9565C21.3284 18.0371 21.2746 18.1447 21.194 18.2254C21.0595 18.4405 21.0057 18.6556 21.0057 18.8976C21.0326 19.0052 21.0326 19.1397 21.0595 19.2472C21.1402 19.4892 21.2478 19.6775 21.4091 19.8388Z" fill="#023059"/>
<path d="M23.963 31.8323C23.8824 31.7516 23.7748 31.6979 23.6941 31.6172C23.479 31.4827 23.2639 31.429 23.0219 31.429C22.9143 31.4558 22.7799 31.4558 22.6723 31.4827C22.4572 31.5365 22.242 31.671 22.0807 31.8323C21.8656 32.0474 21.6773 32.2357 21.4622 32.4508C21.3277 32.5853 21.2471 32.7197 21.1933 32.8811C21.1126 33.0424 21.0588 33.2037 21.0857 33.392C21.0857 33.5802 21.1126 33.7416 21.1933 33.9029C21.2471 34.0643 21.3277 34.2256 21.4622 34.3332C21.5429 34.4138 21.6504 34.4676 21.7311 34.5483C21.9462 34.6827 22.1614 34.7365 22.4034 34.7365C22.5109 34.7096 22.6454 34.7096 22.753 34.6827C22.9681 34.629 23.1832 34.4945 23.3446 34.3332C23.5597 34.118 23.7479 33.9298 23.963 33.7147C24.0975 33.5802 24.1782 33.4458 24.232 33.2844C24.3126 33.1231 24.3664 32.9617 24.3395 32.7735C24.3395 32.5853 24.3126 32.4239 24.232 32.2626C24.1782 32.1012 24.0975 31.9668 23.963 31.8323Z" fill="#023059"/>
<path d="M35.367 20.4844C35.4477 20.565 35.5552 20.6188 35.6359 20.6995C35.851 20.8339 36.0662 20.8877 36.3082 20.8877C36.4157 20.8608 36.5502 20.8608 36.6577 20.8339C36.8729 20.7802 37.088 20.6457 37.2493 20.4844C37.4376 20.2692 37.6527 20.0272 37.8409 19.8121C37.9754 19.6776 38.0561 19.5432 38.1099 19.3818C38.1905 19.2205 38.2443 19.0591 38.2174 18.8709C38.2174 18.6827 38.1905 18.5213 38.1099 18.36C38.0561 18.1986 37.9754 18.0373 37.8409 17.9297C37.7603 17.8491 37.6527 17.7953 37.572 17.7146C37.3569 17.5802 37.1418 17.5264 36.8998 17.5264C36.7922 17.5533 36.6577 17.5533 36.5502 17.5802C36.3351 17.6339 36.1199 17.7684 35.9586 17.9297C35.7704 18.1449 35.5552 18.3869 35.367 18.602C35.2325 18.7365 35.1519 18.8709 35.0981 19.0323C35.0174 19.1936 34.9636 19.3549 34.9905 19.5432C34.9905 19.7314 35.0174 19.8928 35.0981 20.0541C35.125 20.2155 35.2325 20.3499 35.367 20.4844Z" fill="#023059"/>
<path d="M56.5005 24.1145C56.5005 24.1683 56.5005 24.1952 56.5005 24.2221C56.5005 24.249 56.5274 24.249 56.5005 24.1145Z" fill="#023059"/>
<path d="M55.721 29.0892C55.7479 29.0892 55.8016 29.0892 55.8285 29.1161C55.8285 29.1161 55.8285 29.1161 55.8554 29.1161C55.6134 29.0624 55.6403 29.0892 55.721 29.0892Z" fill="#023059"/>
<path d="M57.0398 23.2271C57.0126 23.2543 56.9854 23.2815 56.9581 23.3087C56.9854 23.3087 57.0126 23.2543 57.0398 23.2271Z" fill="#023059"/>
<path d="M69.814 23.1733C69.4106 22.8775 68.9535 22.6624 68.4694 22.501C68.6039 20.4842 67.5014 18.4136 65.6459 17.4994C64.5703 16.9615 63.3602 16.8002 62.2039 17.1498C61.0476 17.4994 60.0795 18.2254 59.3803 19.1935C59.0845 19.5968 58.8694 20.0271 58.708 20.4573C57.6862 20.2153 56.5568 20.3498 55.6694 20.9145C54.7013 21.533 54.029 22.5817 53.8408 23.7111C53.1685 23.7649 52.4963 23.98 51.9316 24.3834C50.6677 25.2977 50.103 26.9111 50.4795 28.417C51.2055 31.3481 54.6475 31.7246 57.1215 31.9397C60.1064 32.2086 63.1181 32.1817 66.0761 31.8322C67.5551 31.6708 68.9803 31.375 70.1635 30.3801C71.1316 29.5464 71.6694 28.2288 71.7232 26.9649C71.777 25.4321 71.0241 24.0607 69.814 23.1733ZM67.8509 25.1363C67.8778 25.1363 67.8778 25.1364 67.9047 25.1632C68.0929 25.217 67.9047 25.1632 67.8509 25.1363ZM68.3619 25.4321C68.335 25.4053 68.3081 25.4053 68.3081 25.4053C68.3081 25.3784 68.335 25.4053 68.3619 25.4321ZM56.6375 23.7111C56.6375 23.7111 56.6375 23.738 56.6106 23.738C56.6106 23.738 56.6106 23.7111 56.6375 23.7111ZM53.1685 26.9918C53.1954 26.9111 53.2223 26.7767 53.1685 26.9918V26.9918ZM53.061 27.6372C53.0879 27.691 53.0879 27.8254 53.061 27.6372V27.6372ZM68.9535 27.5296C68.9535 27.5834 68.8459 27.9061 68.8997 27.7179C68.9535 27.5296 68.8459 27.8254 68.819 27.8792C68.7652 27.9599 68.7114 28.0674 68.6577 28.1481C68.6577 28.175 68.6308 28.175 68.6308 28.2019C68.6308 28.2019 68.6039 28.2288 68.6039 28.2557C68.5232 28.3364 68.4694 28.417 68.3887 28.4708C68.3619 28.4977 68.335 28.4977 68.3081 28.5246C68.2005 28.5784 68.1198 28.659 68.0123 28.7128C67.9585 28.7397 67.9047 28.7666 67.8778 28.7935C67.9316 28.7666 67.9585 28.7666 67.8509 28.8204C67.8509 28.8204 67.8509 28.8204 67.824 28.8204C67.824 28.8204 67.824 28.8204 67.8509 28.8204C67.6089 28.9011 67.3669 28.9817 67.1249 29.0355C66.9904 29.0624 66.8829 29.0893 66.7484 29.1162C66.6946 29.1162 66.6408 29.1431 66.5871 29.1431C66.5871 29.1431 66.4795 29.17 66.4257 29.17H66.3988C66.3182 29.17 66.2644 29.1969 66.1837 29.1969C66.0224 29.2238 65.8879 29.2238 65.7266 29.2506C65.4039 29.2775 65.0812 29.3044 64.7585 29.3313C64.14 29.3851 63.4946 29.412 62.8492 29.4389C61.6123 29.4927 60.3484 29.4658 59.1114 29.412C58.466 29.3851 57.8475 29.3313 57.2291 29.2775C56.9333 29.2506 56.6106 29.2238 56.3148 29.1969C56.1803 29.17 56.0459 29.17 55.9114 29.1431H55.8845C55.8576 29.1431 55.8576 29.1431 55.8307 29.1431C55.8038 29.1431 55.8038 29.1431 55.777 29.1431C55.7501 29.1431 55.7232 29.1431 55.7232 29.1431C55.266 29.0624 54.8089 28.9817 54.3517 28.8204C54.298 28.7935 54.2442 28.7935 54.1904 28.7666C54.1904 28.7666 54.1904 28.7666 54.1635 28.7397C54.1097 28.7128 54.0559 28.6859 54.0022 28.659C53.8946 28.6053 53.8139 28.5515 53.7332 28.4977C53.7064 28.4708 53.6795 28.4439 53.6257 28.4439C53.545 28.3632 53.4643 28.2826 53.3837 28.2019C53.3568 28.175 53.3299 28.1212 53.3299 28.0943C53.303 28.0406 53.2761 28.0137 53.2492 27.9599C53.2223 27.9061 53.2223 27.9061 53.1954 27.8792C53.1954 27.7985 53.1954 27.691 53.1685 27.6372C53.1685 27.5834 53.1685 27.5565 53.1685 27.5027C53.1685 27.4759 53.1685 27.4221 53.1685 27.3952C53.1148 27.5296 53.1685 27.4759 53.1685 27.3952C53.1685 27.3683 53.1685 27.3683 53.1685 27.3414C53.1954 27.2607 53.2223 27.1532 53.2492 27.0725C53.2761 27.0456 53.303 26.938 53.3299 26.9111C53.3299 26.9111 53.3568 26.8574 53.3837 26.8305C53.3837 26.8305 53.3837 26.8305 53.4106 26.8036C53.4374 26.7767 53.4912 26.7229 53.5181 26.696C53.5181 26.696 53.5181 26.696 53.545 26.6691C53.5988 26.6422 53.6526 26.5616 53.545 26.6691C53.6257 26.6153 53.8408 26.4809 53.8677 26.4809C53.9215 26.4809 53.9753 26.454 54.0022 26.454C54.029 26.454 54.0828 26.4271 54.1366 26.4271C54.2442 26.4271 54.3248 26.4271 54.4324 26.4271C54.4862 26.454 54.5938 26.454 54.6206 26.454C54.6475 26.454 54.7013 26.4809 54.7282 26.4809C54.7282 26.4809 54.7551 26.5078 54.782 26.5078C55.266 26.7498 55.8307 26.7498 56.2879 26.4002C56.6912 26.1044 56.9601 25.4859 56.7719 24.975C56.7181 24.8406 56.6912 24.733 56.6643 24.5985C56.6643 24.5448 56.6643 24.491 56.6643 24.4641C56.6643 24.4103 56.6643 24.3296 56.6643 24.249C56.6643 24.2221 56.6643 24.1952 56.6643 24.1683C56.6643 24.1414 56.6643 24.1145 56.6643 24.1145C56.6643 24.1414 56.6643 24.1414 56.6643 24.1683C56.6643 24.1145 56.6912 24.0607 56.7181 23.98C56.7181 23.98 56.745 23.9263 56.745 23.8725C56.745 23.8725 56.745 23.8456 56.7719 23.8456C56.8257 23.738 56.9064 23.6305 56.9601 23.5229C57.0139 23.4691 57.0408 23.4422 57.0946 23.3884L57.1215 23.3616C57.0946 23.3616 57.0946 23.3616 57.2022 23.2809L57.2291 23.254C57.2291 23.254 57.2291 23.254 57.2291 23.2809C57.2828 23.254 57.3366 23.2271 57.3904 23.2002C57.4173 23.2002 57.4442 23.1733 57.4711 23.1733C57.498 23.1733 57.5249 23.1464 57.5249 23.1464C57.5786 23.1195 57.6324 23.1195 57.7131 23.0926C57.7669 23.0926 57.7938 23.0926 57.8475 23.0926C57.9013 23.0926 57.982 23.0926 58.0358 23.0926C58.0358 23.0926 58.0358 23.0926 58.0627 23.0926C58.0358 23.0926 58.0358 23.0926 58.0089 23.0658C58.0358 23.0658 58.0358 23.0658 58.0627 23.0926C58.1433 23.1195 58.1971 23.0926 58.0627 23.0926C58.1702 23.1195 58.3047 23.1464 58.4123 23.1733H58.4391C58.3316 23.1464 58.466 23.1733 58.5198 23.2002C58.5736 23.2271 58.7349 23.3616 58.8425 23.4153C58.708 23.2809 58.7618 23.3884 58.8425 23.4153C58.8963 23.4691 58.9501 23.5229 59.0038 23.5767C59.3803 24.0069 60.1602 24.0876 60.6442 23.7918C61.182 23.4422 61.3434 22.9044 61.2627 22.2859C61.3165 22.6893 61.2627 22.259 61.2627 22.1784C61.2627 22.1246 61.2358 21.8288 61.2896 21.8019C61.2627 22.017 61.2627 22.0439 61.2896 21.8826C61.2896 21.8288 61.3165 21.7481 61.3165 21.6943C61.3434 21.5868 61.3971 21.4523 61.424 21.3447C61.424 21.3179 61.424 21.3179 61.424 21.3179C61.424 21.291 61.4509 21.2641 61.4509 21.2372C61.5047 21.1296 61.5585 21.0221 61.6391 20.9145C61.6929 20.8338 61.7467 20.7263 61.8274 20.6456C61.8812 20.5918 61.9349 20.538 61.9618 20.5111C62.0425 20.4305 62.1501 20.3229 62.2307 20.2422C62.2576 20.2153 62.2845 20.1884 62.3114 20.1884C62.3114 20.1884 62.3114 20.1884 62.3383 20.1884C62.5265 20.0809 62.6879 19.9733 62.8761 19.8657C62.9299 19.8389 62.9568 19.8389 63.0106 19.812C63.1181 19.7851 63.2526 19.7582 63.3602 19.7313C63.3871 19.7313 63.3871 19.7313 63.3871 19.7313C63.4139 19.7313 63.4408 19.7313 63.4408 19.7313C63.5753 19.7313 63.6829 19.7313 63.8173 19.7313C63.8442 19.7313 63.8711 19.7313 63.8711 19.7313H63.898C64.0055 19.7582 64.14 19.7851 64.2476 19.812C64.3013 19.8389 64.3282 19.8389 64.382 19.8657C64.4896 19.9195 64.5703 19.9733 64.6778 20.0271C64.7316 20.054 64.9736 20.1615 64.9736 20.2153C64.9198 20.1884 64.8929 20.1615 64.8392 20.1078C64.8929 20.1347 64.9198 20.1884 64.9736 20.2153C65.1081 20.3498 65.4039 20.5649 65.4845 20.7531C65.377 20.5918 65.3501 20.5918 65.4308 20.6994C65.4576 20.7531 65.5114 20.8069 65.5383 20.8607C65.5921 20.9683 65.6728 21.0758 65.7266 21.1834C65.7534 21.2103 65.7535 21.2641 65.7803 21.3179C65.8072 21.4254 65.861 21.533 65.8879 21.6405C65.8879 21.6674 65.9417 21.8288 65.9686 21.9363C65.9686 21.9901 65.9686 22.0439 65.9686 22.0708C65.9686 22.1784 65.9686 22.3128 65.9686 22.4204C65.9686 22.4204 65.9686 22.4204 65.9686 22.4473C65.9686 22.4742 65.9686 22.501 65.9417 22.5279C65.9417 22.5279 65.9417 22.5279 65.9417 22.5548C65.9148 22.5548 65.861 22.5817 65.8341 22.5817C65.1618 22.7968 64.6778 23.5229 64.8929 24.249C65.1081 24.9212 65.8341 25.4321 66.5602 25.1901C66.6677 25.1632 66.7753 25.1364 66.856 25.1095C66.8829 25.1095 66.9098 25.1095 66.9098 25.0826C67.0173 25.0826 67.098 25.0826 67.2056 25.0826C67.2593 25.0826 67.2862 25.0826 67.34 25.0826C67.34 25.0826 67.3938 25.0826 67.4476 25.0826C67.5013 25.0826 67.582 25.1095 67.6089 25.1095C67.7165 25.1364 67.824 25.1632 67.9047 25.1901C67.9316 25.1901 67.9585 25.217 67.9854 25.217C68.0392 25.2708 68.2274 25.3246 68.2812 25.3784C68.3619 25.4321 68.4425 25.4859 68.5232 25.5397C68.5501 25.5666 68.6039 25.5935 68.577 25.5935C68.6577 25.6742 68.7383 25.7279 68.7921 25.8086L68.819 25.8355C68.819 25.8624 68.8459 25.8624 68.8459 25.8893C68.8997 25.97 68.9535 26.0775 69.0072 26.1582C69.0072 26.1582 69.0072 26.1582 69.0072 26.1851C69.0341 26.2927 69.0879 26.4002 69.1148 26.5347C69.1148 26.5616 69.1417 26.6153 69.1417 26.6422C69.1148 26.8036 69.1686 27.0456 69.1417 27.2069V27.2338C69.1417 27.2338 69.1417 27.2338 69.1417 27.2607C69.0072 27.2876 68.9803 27.3952 68.9535 27.5296Z" fill="#023059"/>
<path d="M6.24426 35.2474C5.70645 35.2743 5.22241 35.6777 5.22241 36.2693C5.22241 37.4256 5.22241 38.5819 5.22241 39.7382C5.22241 40.276 5.67956 40.76 6.24426 40.76C6.78208 40.7331 7.26611 40.3298 7.26611 39.7382C7.26611 38.5819 7.26611 37.4256 7.26611 36.2693C7.26611 35.7046 6.78208 35.2205 6.24426 35.2474Z" fill="#023059"/>
<path d="M107.621 59.1801C107.352 59.1263 107.083 59.1263 106.841 59.2877C106.599 59.449 106.465 59.6373 106.384 59.8793C105.981 60.928 105.819 62.1112 105.954 63.2137C105.981 63.4826 106.034 63.7247 106.25 63.9398C106.438 64.128 106.707 64.2356 106.976 64.2356C107.244 64.2356 107.513 64.128 107.702 63.9398C107.863 63.7516 108.024 63.4826 107.997 63.2137C107.944 62.7297 107.944 62.2188 107.997 61.7347C108.078 61.2776 108.186 60.8473 108.347 60.4171C108.428 60.1751 108.374 59.8524 108.239 59.6373C108.105 59.4221 107.863 59.2339 107.621 59.1801Z" fill="#023059"/>
</svg>
