<?xml version="1.0" standalone="no"?>
<!DOCTYPE svg PUBLIC "-//W3C//DTD SVG 20010904//EN"
 "http://www.w3.org/TR/2001/REC-SVG-20010904/DTD/svg10.dtd">
<svg version="1.0" xmlns="http://www.w3.org/2000/svg"
 width="512.000000pt" height="512.000000pt" viewBox="0 0 512.000000 512.000000"
 preserveAspectRatio="xMidYMid meet">

<g transform="translate(0.000000,512.000000) scale(0.100000,-0.100000)"
fill="#000000" stroke="none">
<path d="M2815 4581 c-33 -16 -75 -40 -94 -53 l-34 -24 -66 19 c-100 28 -303
34 -471 12 -74 -10 -227 -20 -340 -24 -233 -7 -259 -14 -306 -83 -32 -46 -43
-128 -25 -195 17 -62 70 -134 123 -168 43 -27 47 -33 43 -60 -3 -18 1 -39 9
-50 12 -17 32 -19 307 -20 250 -2 312 -5 414 -23 313 -55 522 -133 849 -316
77 -43 149 -81 161 -86 25 -10 65 12 65 35 0 24 15 25 69 5 62 -24 129 -26
160 -4 28 20 51 72 51 117 0 121 -382 464 -797 715 l-133 80 68 34 c73 36 89
63 56 99 -23 26 -38 24 -109 -10z"/>
<path d="M1708 3773 c-23 -4 -30 -12 -43 -55 -24 -81 -38 -216 -31 -295 33
-365 280 -660 632 -754 111 -30 297 -30 409 0 221 59 410 200 520 388 51 88
95 211 98 274 l2 43 -160 89 c-335 187 -586 272 -907 306 -92 10 -461 13 -520
4z"/>
<path d="M748 3165 c-92 -92 -131 -232 -111 -388 22 -163 82 -263 185 -307 71
-30 166 -25 232 14 121 71 169 223 107 344 -24 47 -55 71 -151 118 -120 58
-190 142 -190 227 0 49 -16 47 -72 -8z"/>
<path d="M1830 2450 c-152 -41 -420 -140 -420 -155 0 -3 23 -46 50 -96 36 -64
119 -274 280 -711 126 -341 230 -622 233 -624 2 -2 176 -3 386 -2 l383 3 -37
48 c-81 106 -135 264 -135 397 0 294 185 494 406 437 32 -9 66 -18 74 -21 12
-5 15 6 15 61 1 149 100 245 303 295 73 18 115 22 267 21 99 0 202 -5 230 -11
27 -6 51 -9 53 -7 8 8 -190 125 -313 185 -149 73 -310 132 -492 181 l-113 30
-90 -31 c-146 -50 -275 -72 -435 -72 -161 -1 -276 16 -422 63 -54 17 -102 33
-108 35 -5 1 -57 -10 -115 -26z"/>
<path d="M1070 2353 c-48 -20 -80 -52 -80 -78 0 -12 22 -96 50 -186 42 -142
88 -251 330 -779 280 -615 304 -660 351 -660 66 0 128 64 114 118 -3 14 -110
307 -236 650 -201 549 -239 642 -310 775 -45 84 -89 158 -97 165 -21 16 -78
14 -122 -5z"/>
<path d="M872 1945 c-13 -19 -36 -62 -50 -97 l-27 -63 -3 -462 -3 -463 301 0
c177 0 300 4 300 9 0 5 -103 236 -229 513 -127 277 -235 524 -242 551 -6 26
-14 47 -18 47 -3 0 -17 -16 -29 -35z"/>
<path d="M3465 1941 c-105 -17 -168 -41 -207 -81 -64 -64 -52 -114 52 -215 69
-67 94 -107 85 -135 -9 -27 -53 -60 -80 -60 -13 0 -102 34 -198 75 -113 48
-189 75 -213 75 -164 0 -232 -308 -116 -524 41 -76 173 -205 266 -259 363
-211 896 -198 1232 30 90 62 186 169 230 259 35 70 39 85 42 175 5 127 -17
206 -87 306 -113 160 -307 278 -550 334 -95 22 -368 34 -456 20z m576 -174
c28 -18 34 -29 34 -57 0 -28 -6 -39 -34 -57 -84 -56 -215 3 -179 81 24 55 121
72 179 33z m-406 -51 c41 -63 -71 -170 -126 -120 -30 27 -24 71 15 110 42 42
87 46 111 10z m670 -116 c33 -31 32 -70 -1 -101 -21 -20 -36 -24 -84 -24 -48
0 -63 4 -84 24 -32 30 -34 71 -3 98 31 29 45 33 100 29 33 -2 55 -10 72 -26z
m90 -214 c18 -8 39 -24 45 -36 41 -77 -90 -143 -177 -90 -106 64 11 176 132
126z m-95 -265 c17 -12 26 -29 28 -54 3 -32 -1 -39 -30 -57 -57 -35 -164 -20
-182 25 -11 30 -6 62 13 79 42 38 123 42 171 7z m-251 -138 c62 -47 24 -122
-67 -131 -86 -8 -146 40 -122 98 24 59 129 77 189 33z m-690 -3 c42 -12 81
-47 81 -73 0 -10 -13 -32 -29 -48 -25 -25 -37 -29 -84 -29 -45 0 -61 5 -86 26
-49 41 -40 86 23 115 48 22 51 22 95 9z m351 -55 c60 -31 64 -91 7 -125 -84
-52 -213 10 -179 85 22 49 114 70 172 40z"/>
</g>
</svg>
