<svg width="40" height="42" viewBox="0 0 40 42" fill="none" xmlns="http://www.w3.org/2000/svg">
<path d="M15.218 13.058C15.207 11.33 14.5449 9.67596 13.3752 8.45401C12.2055 7.23207 10.6222 6.5405 8.96797 6.529C5.21797 6.529 4.50597 4.33873 3.96797 1.30579C-1.03203 7.8348 0.999302 19.587 8.96797 19.587" stroke="#F35AAD" stroke-width="2.1" stroke-linecap="round" stroke-linejoin="round"/>
<path d="M15.4886 32.9933L13.2666 35.3124C12.7978 35.8019 12.1621 36.0769 11.4993 36.0769C10.8365 36.0769 10.2008 35.8019 9.73198 35.3124L6.19664 31.6193C5.72807 31.1295 5.46484 30.4654 5.46484 29.773C5.46484 29.0806 5.72807 28.4165 6.19664 27.9268L8.29998 25.7275M21.1513 12.3024L30.1513 2.90063C31.089 1.92096 32.3609 1.37055 33.6871 1.37048C35.0133 1.37042 36.2852 1.9207 37.223 2.90028C38.1608 3.87986 38.6877 5.20849 38.6877 6.59389C38.6878 7.97929 38.161 9.30798 37.2233 10.2877L27.8133 20.1177M36.5746 10.9688C37.1689 11.4332 37.6647 12.0209 38.0312 12.6951C38.3976 13.3692 38.6267 14.1152 38.704 14.8862C38.7813 15.6573 38.7052 16.4367 38.4804 17.1755C38.2557 17.9144 37.8872 18.5967 37.398 19.1797L32 24.8103M24.0733 9.25067L31.1453 16.6377M8.96798 19.5871L15.218 13.058L34.6146 36.5103C34.99 36.9716 35.1851 37.5637 35.161 38.1687C35.1369 38.7736 34.8954 39.3468 34.4847 39.7739C34.074 40.2011 33.5242 40.4507 32.945 40.4732C32.3658 40.4956 31.7999 40.2891 31.36 39.8949L8.96798 19.5871Z" stroke="#F35AAD" stroke-width="2.1" stroke-linecap="round" stroke-linejoin="round"/>
<path d="M4.42867 37.1593L1.25 40.4799M6.196 31.6179L2.66067 35.3117L6.196 39.0049L9.73133 35.3117L6.196 31.6179Z" stroke="#F35AAD" stroke-width="2.1" stroke-linecap="round" stroke-linejoin="round"/>
</svg>
