<svg width="41" height="42" viewBox="0 0 41 42" fill="none" xmlns="http://www.w3.org/2000/svg">
<path fill-rule="evenodd" clip-rule="evenodd" d="M13.084 23.5045C12.7525 23.5045 12.4345 23.6421 12.2001 23.887C11.9657 24.1318 11.834 24.464 11.834 24.8103V35.2567C11.834 35.603 11.9657 35.9352 12.2001 36.1801C12.4345 36.425 12.7525 36.5625 13.084 36.5625H14.4007C14.7322 36.5625 15.0501 36.7001 15.2845 36.945C15.519 37.1899 15.6507 37.522 15.6507 37.8683C15.6507 38.2147 15.519 38.5468 15.2845 38.7917C15.0501 39.0366 14.7322 39.1741 14.4007 39.1741H13.084C12.0894 39.1741 11.1356 38.7614 10.4323 38.0268C9.72907 37.2921 9.33398 36.2957 9.33398 35.2567V24.8103C9.33398 23.7713 9.72907 22.7749 10.4323 22.0403C11.1356 21.3056 12.0894 20.8929 13.084 20.8929H26.4173C27.4119 20.8929 28.3657 21.3056 29.069 22.0403C29.7722 22.7749 30.1673 23.7713 30.1673 24.8103V34.334C30.1673 34.6803 30.0356 35.0124 29.8012 35.2573C29.5668 35.5022 29.2488 35.6398 28.9173 35.6398C28.5858 35.6398 28.2679 35.5022 28.0334 35.2573C27.799 35.0124 27.6673 34.6803 27.6673 34.334V24.8103C27.6673 24.464 27.5356 24.1318 27.3012 23.887C27.0668 23.6421 26.7488 23.5045 26.4173 23.5045H13.084Z" fill="#F35AAD"/>
<path fill-rule="evenodd" clip-rule="evenodd" d="M27.666 24.8103C27.666 24.4639 27.7977 24.1318 28.0321 23.8869C28.2666 23.642 28.5845 23.5045 28.916 23.5045H33.916C35.5736 23.5045 37.1633 24.1923 38.3354 25.4168C39.5075 26.6412 40.166 28.3019 40.166 30.0335V35.2567C40.166 36.2956 39.7709 37.2921 39.0677 38.0267C38.3644 38.7614 37.4106 39.1741 36.416 39.1741H33.4327C33.1012 39.1741 32.7832 39.0365 32.5488 38.7916C32.3144 38.5468 32.1827 38.2146 32.1827 37.8683C32.1827 37.522 32.3144 37.1898 32.5488 36.945C32.7832 36.7001 33.1012 36.5625 33.4327 36.5625H36.416C36.7475 36.5625 37.0655 36.4249 37.2999 36.18C37.5343 35.9351 37.666 35.603 37.666 35.2567V30.0335C37.666 28.9945 37.2709 27.9981 36.5677 27.2634C35.8644 26.5288 34.9106 26.1161 33.916 26.1161H28.916C28.5845 26.1161 28.2666 25.9785 28.0321 25.7336C27.7977 25.4887 27.666 25.1566 27.666 24.8103Z" fill="#F35AAD"/>
<path fill-rule="evenodd" clip-rule="evenodd" d="M30.3673 35.2567C29.8722 35.2567 29.3975 35.4621 29.0474 35.8278C28.6973 36.1935 28.5007 36.6895 28.5007 37.2067C28.5007 37.7239 28.6973 38.2198 29.0474 38.5855C29.3975 38.9512 29.8722 39.1567 30.3673 39.1567C30.8624 39.1567 31.3372 38.9512 31.6873 38.5855C32.0373 38.2198 32.234 37.7239 32.234 37.2067C32.234 36.6895 32.0373 36.1935 31.6873 35.8278C31.3372 35.4621 30.8624 35.2567 30.3673 35.2567ZM26.0007 37.2067C26.0007 36.6077 26.1136 36.0145 26.333 35.461C26.5525 34.9076 26.8741 34.4047 27.2796 33.9811C27.6851 33.5576 28.1665 33.2216 28.6963 32.9923C29.2261 32.7631 29.7939 32.6451 30.3673 32.6451C30.9408 32.6451 31.5086 32.7631 32.0384 32.9923C32.5682 33.2216 33.0495 33.5576 33.455 33.9811C33.8605 34.4047 34.1821 34.9076 34.4016 35.461C34.621 36.0145 34.734 36.6077 34.734 37.2067C34.734 38.4165 34.2739 39.5768 33.455 40.4322C32.6361 41.2877 31.5254 41.7683 30.3673 41.7683C29.2092 41.7683 28.0985 41.2877 27.2796 40.4322C26.4607 39.5768 26.0007 38.4165 26.0007 37.2067ZM17.4507 35.2567C16.9556 35.2567 16.4808 35.4621 16.1307 35.8278C15.7807 36.1935 15.584 36.6895 15.584 37.2067C15.584 37.7239 15.7807 38.2198 16.1307 38.5855C16.4808 38.9512 16.9556 39.1567 17.4507 39.1567C17.9457 39.1567 18.4205 38.9512 18.7706 38.5855C19.1207 38.2198 19.3173 37.7239 19.3173 37.2067C19.3173 36.6895 19.1207 36.1935 18.7706 35.8278C18.4205 35.4621 17.9457 35.2567 17.4507 35.2567ZM13.084 37.2067C13.084 36.6077 13.1969 36.0145 13.4164 35.461C13.6358 34.9076 13.9575 34.4047 14.363 33.9811C14.7684 33.5576 15.2498 33.2216 15.7796 32.9923C16.3094 32.7631 16.8772 32.6451 17.4507 32.6451C18.0241 32.6451 18.5919 32.7631 19.1217 32.9923C19.6515 33.2216 20.1329 33.5576 20.5384 33.9811C20.9438 34.4047 21.2655 34.9076 21.4849 35.461C21.7044 36.0145 21.8173 36.6077 21.8173 37.2067C21.8173 38.4165 21.3573 39.5768 20.5384 40.4322C19.7194 41.2877 18.6088 41.7683 17.4507 41.7683C16.2925 41.7683 15.1819 41.2877 14.363 40.4322C13.544 39.5768 13.084 38.4165 13.084 37.2067Z" fill="#F35AAD"/>
<path fill-rule="evenodd" clip-rule="evenodd" d="M19.2673 37.8683C19.2673 37.522 19.399 37.1899 19.6334 36.945C19.8679 36.7001 20.1858 36.5625 20.5173 36.5625H27.3173C27.6488 36.5625 27.9668 36.7001 28.2012 36.945C28.4356 37.1899 28.5673 37.522 28.5673 37.8683C28.5673 38.2146 28.4356 38.5468 28.2012 38.7917C27.9668 39.0366 27.6488 39.1741 27.3173 39.1741H20.5173C20.1858 39.1741 19.8679 39.0366 19.6334 38.7917C19.399 38.5468 19.2673 38.2146 19.2673 37.8683ZM4.33398 10.4464C4.00246 10.4464 3.68452 10.584 3.4501 10.8289C3.21568 11.0738 3.08398 11.4059 3.08398 11.7522V30.0335C3.08398 30.3798 3.21568 30.712 3.4501 30.9568C3.68452 31.2017 4.00246 31.3393 4.33398 31.3393H6.83398C7.1655 31.3393 7.48345 31.4769 7.71787 31.7218C7.95229 31.9667 8.08398 32.2988 8.08398 32.6451C8.08398 32.9914 7.95229 33.3236 7.71787 33.5685C7.48345 33.8133 7.1655 33.9509 6.83398 33.9509H4.33398C3.33942 33.9509 2.3856 33.5382 1.68233 32.8035C0.979073 32.0689 0.583984 31.0725 0.583984 30.0335V11.7522C0.583984 10.7133 0.979073 9.71688 1.68233 8.98222C2.3856 8.24757 3.33942 7.83484 4.33398 7.83484H29.334C30.3285 7.83484 31.2824 8.24757 31.9856 8.98222C32.6889 9.71688 33.084 10.7133 33.084 11.7522V16.9755C33.084 17.3218 32.9523 17.6539 32.7179 17.8988C32.4834 18.1437 32.1655 18.2813 31.834 18.2813C31.5025 18.2813 31.1845 18.1437 30.9501 17.8988C30.7157 17.6539 30.584 17.3218 30.584 16.9755V11.7522C30.584 11.4059 30.4523 11.0738 30.2179 10.8289C29.9834 10.584 29.6655 10.4464 29.334 10.4464H4.33398Z" fill="#F35AAD"/>
<path fill-rule="evenodd" clip-rule="evenodd" d="M9.41736 2.73116e-07H24.3757C24.973 0.0208094 25.557 0.190471 26.0788 0.494843C26.6007 0.799215 27.0453 1.22948 27.3757 1.74978L32.0424 9.11625C32.1387 9.25901 32.2067 9.42052 32.2423 9.59121C32.2778 9.76191 32.2802 9.93832 32.2493 10.11C32.2184 10.2817 32.1549 10.4451 32.0625 10.5907C31.97 10.7363 31.8505 10.861 31.7111 10.9575C31.5717 11.0539 31.4152 11.1202 31.2508 11.1523C31.0865 11.1845 30.9176 11.1818 30.7542 11.1446C30.5908 11.1073 30.4363 11.0362 30.2997 10.9354C30.1631 10.8346 30.0473 10.7062 29.959 10.5579L25.2924 3.19313C25.1837 3.02234 25.038 2.8807 24.8672 2.77967C24.6963 2.67864 24.5051 2.62106 24.309 2.61161H9.41736C9.21118 2.61168 9.0082 2.66496 8.82648 2.76671C8.64475 2.86847 8.4899 3.01554 8.37569 3.19487L3.70903 10.5579C3.5216 10.8355 3.23798 11.0259 2.91837 11.0886C2.59876 11.1514 2.26833 11.0815 1.99721 10.8939C1.72609 10.7063 1.53563 10.4157 1.46627 10.0838C1.3969 9.75191 1.45409 9.40483 1.62569 9.11625L6.29236 1.74978C6.63467 1.21148 7.09915 0.770003 7.6444 0.464702C8.18964 0.159402 8.79873 -0.000241018 9.41736 2.73116e-07Z" fill="#F35AAD"/>
<path fill-rule="evenodd" clip-rule="evenodd" d="M16.834 0C17.1655 0 17.4834 0.137575 17.7179 0.382461C17.9523 0.627347 18.084 0.959483 18.084 1.3058V9.14063C18.084 9.48695 17.9523 9.81908 17.7179 10.064C17.4834 10.3089 17.1655 10.4464 16.834 10.4464C16.5025 10.4464 16.1845 10.3089 15.9501 10.064C15.7157 9.81908 15.584 9.48695 15.584 9.14063V1.3058C15.584 0.959483 15.7157 0.627347 15.9501 0.382461C16.1845 0.137575 16.5025 0 16.834 0Z" fill="#F35AAD"/>
</svg>
