<svg width="40" height="42" viewBox="0 0 40 42" fill="none" xmlns="http://www.w3.org/2000/svg">
<path fill-rule="evenodd" clip-rule="evenodd" d="M18.6723 0.0104851C13.805 0.147732 9.01 1.27492 4.55561 3.32897C4.40061 3.4108 4.13895 3.58316 3.97561 3.712C3.26561 4.26915 2.75228 5.11531 2.57561 6.01544C2.50061 6.40544 2.50395 6.06419 2.50395 13.6883C2.50395 21.605 2.49895 21.1158 2.60061 22.2196C3.00909 26.6245 4.67827 30.7987 7.39061 34.1982C7.80728 34.7222 8.12395 35.0826 8.67895 35.6607C9.69895 36.7262 10.6289 37.5306 11.7839 38.3471C12.9623 39.1776 14.2373 39.8932 15.5523 40.4608C15.8756 40.6001 17.7473 41.3505 17.9789 41.4358C18.3739 41.5768 18.7723 41.6743 19.2323 41.7387C19.4589 41.7701 19.5689 41.7753 20.0006 41.7753C20.4339 41.7753 20.5423 41.7701 20.7673 41.7405C21.2289 41.6743 21.6273 41.5768 22.0223 41.4358C22.2556 41.3505 24.1256 40.6001 24.4489 40.4608C28.7731 38.5948 32.3822 35.2825 34.7106 31.0433C36.206 28.3123 37.1254 25.2789 37.4073 22.1465C37.4989 21.114 37.4939 21.5789 37.5006 13.8642C37.5056 8.72977 37.5006 6.69098 37.4889 6.51165C37.4455 5.86062 37.241 5.23251 36.8956 4.68874C36.5527 4.13385 36.0793 3.68008 35.5206 3.37075C35.2389 3.21406 33.8939 2.64299 33.0806 2.33656C29.8427 1.11165 26.4586 0.358802 23.0239 0.0992798C22.0639 0.0278959 21.6673 0.0139673 20.2339 0.0104851C19.4673 0.007003 18.7673 0.007003 18.6739 0.0104851H18.6723ZM19.1289 2.61687C14.8956 2.6987 10.8406 3.53267 6.95228 5.12053C6.26228 5.40084 5.65895 5.67419 5.53728 5.75776C5.31707 5.91801 5.15223 6.14821 5.06728 6.41415L5.01728 6.5604L5.01228 13.6222C5.00728 21.2429 5.00561 21.0043 5.08895 21.9375C5.35934 24.8525 6.25423 27.6665 7.70728 30.1711C9.79709 33.7543 12.9384 36.537 16.6639 38.1051C17.1223 38.2966 18.7056 38.9321 18.8573 38.9844C19.4723 39.1933 20.2073 39.2264 20.8489 39.0679C21.0939 39.0087 21.1856 38.9739 22.1373 38.5926C23.2673 38.14 23.5756 38.0094 24.0273 37.7987C27.0204 36.3918 29.6039 34.1825 31.5153 31.3953C33.4268 28.608 34.5982 25.342 34.9106 21.9288C34.9939 21.0061 34.9939 21.2411 34.9939 13.6814C34.9923 6.82852 34.9906 6.64049 34.9606 6.51861C34.8982 6.2375 34.7452 5.98733 34.5273 5.80999C34.3973 5.70553 34.3223 5.66549 33.8489 5.4583C29.9872 3.7651 25.8656 2.81091 21.6806 2.64124C20.8302 2.61964 19.9796 2.61151 19.1289 2.61687ZM19.5289 7.84879C18.1435 7.96193 16.8333 8.55253 15.8041 9.52786C14.7748 10.5032 14.0847 11.808 13.8423 13.2374C13.7689 13.6762 13.7589 13.8677 13.7489 14.9036L13.7406 15.8925L13.6106 15.9448C12.5106 16.3992 11.6639 17.4073 11.3689 18.6121C11.2473 19.1031 11.2573 18.7131 11.2573 23.501C11.2573 27.549 11.2573 27.798 11.2856 27.9791C11.3889 28.6703 11.6306 29.2622 12.0373 29.8263C12.1623 30.0004 12.5323 30.3852 12.6973 30.5141C13.2339 30.9389 13.8039 31.1931 14.4523 31.301C14.6223 31.3289 14.9189 31.3306 20.0006 31.3306C25.0873 31.3306 25.3773 31.3306 25.5506 31.301C26.3493 31.1744 27.088 30.7833 27.6581 30.1853C28.2281 29.5873 28.5994 28.814 28.7173 27.9791C28.7423 27.798 28.7439 27.549 28.7439 23.501C28.7439 19.4391 28.7439 19.2023 28.7156 19.0212C28.6186 18.3413 28.353 17.6998 27.9451 17.1604C27.5372 16.621 27.0013 16.2025 26.3906 15.9465L26.2606 15.8943L26.2523 14.9036C26.2439 13.8659 26.2323 13.6744 26.1589 13.2374C25.9406 11.9442 25.3547 10.7496 24.4775 9.80903C23.6003 8.86845 22.4724 8.22545 21.2406 7.9637C20.8651 7.87902 20.4814 7.84046 20.0973 7.84879C19.9079 7.84491 19.7184 7.84491 19.5289 7.84879ZM19.6573 10.4639C18.9081 10.5405 18.1975 10.8477 17.6156 11.3466C16.9123 11.9629 16.4656 12.7725 16.3006 13.7319C16.2706 13.9147 16.2673 14.0035 16.2606 14.7957L16.2539 15.661H23.7473L23.7406 14.7957C23.7356 14.0035 23.7323 13.9147 23.7006 13.7301C23.6142 13.1957 23.4235 12.6855 23.1402 12.2314C22.8569 11.7773 22.4871 11.389 22.0539 11.0907C21.8121 10.9324 21.5565 10.7983 21.2906 10.6902C21.043 10.5993 20.7881 10.5317 20.5289 10.4883C20.2397 10.4529 19.9479 10.4447 19.6573 10.4639ZM14.7806 18.3022C14.6506 18.3282 14.5252 18.3752 14.4089 18.4415C14.3033 18.4987 14.2085 18.5753 14.1289 18.6678C13.9831 18.8073 13.8741 18.9835 13.8123 19.1797L13.7689 19.3137L13.7639 23.4505C13.7589 28.087 13.7506 27.7109 13.8806 27.9878C14 28.2507 14.2016 28.4632 14.4523 28.5902C14.5273 28.6302 14.6473 28.6772 14.7156 28.6946C14.8356 28.7225 15.0539 28.7242 20.0006 28.7242C24.9473 28.7242 25.1673 28.7225 25.2856 28.6929C25.3764 28.667 25.4646 28.632 25.5489 28.5884C25.7993 28.4619 26.001 28.2501 26.1206 27.9878C26.2589 27.6953 26.2456 28.1009 26.2539 23.6508C26.2556 20.9834 26.2539 19.6341 26.2406 19.5018C26.236 19.3445 26.2012 19.1897 26.1382 19.0467C26.0752 18.9038 25.9854 18.7755 25.8739 18.6695C25.7315 18.5114 25.5515 18.3955 25.3523 18.3335L25.2406 18.2935L20.0489 18.2917C17.1939 18.2917 14.8223 18.2952 14.7823 18.3022H14.7806ZM19.7439 21.612C19.2788 21.6781 18.8542 21.924 18.5543 22.3013C18.2543 22.6786 18.1008 23.1596 18.1239 23.6495C18.1471 24.1393 18.3453 24.6022 18.6794 24.9467C19.0135 25.2913 19.4592 25.4923 19.9283 25.5102C20.3975 25.5281 20.856 25.3614 21.2132 25.0432C21.5704 24.725 21.8004 24.2784 21.8576 23.7917C21.9149 23.3049 21.7953 22.8134 21.5224 22.4143C21.2495 22.0153 20.8433 21.7376 20.3839 21.6363C20.1723 21.6013 19.9574 21.5931 19.7439 21.612Z" fill="#F35AAD"/>
</svg>
