<svg width="70" height="94" viewBox="0 0 70 94" fill="none" xmlns="http://www.w3.org/2000/svg">
<path d="M21.8064 55.4102C21.8513 55.455 21.8737 55.4774 21.8064 55.4102V55.4102Z" fill="#023059"/>
<path d="M64.2221 82.5961C64.1997 82.5737 64.1773 82.5512 64.1773 82.5288C64.1548 82.5288 64.1773 82.5512 64.2221 82.5961Z" fill="#023059"/>
<path d="M67.4072 83.3362C65.4109 79.9492 62.4276 77.2351 59.063 75.2164C57.0443 73.9827 54.8685 72.9957 52.6479 72.1882C52.6703 72.0312 52.6703 71.8742 52.6703 71.6948C52.603 70.7302 52.1768 69.8555 51.6161 69.0704C51.0104 68.2404 50.3151 67.5002 49.53 66.8497C48.7001 66.1768 47.8253 65.5263 46.8383 65.0777C46.1206 64.7637 45.2458 64.4497 44.4607 64.674C44.4158 64.4945 44.3485 64.3151 44.3037 64.1132C44.2588 63.9113 44.214 63.7095 44.1691 63.5076C44.1467 63.4179 44.1467 63.3281 44.1242 63.2384C44.1242 63.1711 44.0121 62.8122 44.1018 63.0814C44.0569 62.9244 44.0569 62.7225 44.0345 62.5431C44.685 62.2515 45.3355 61.9374 45.9411 61.601C47.8701 60.5243 49.6422 59.1112 51.1002 57.4289C52.7376 55.5671 53.9937 53.4362 54.9358 51.1707C57.8966 51.2156 60.7229 49.5109 62.136 46.9089C63.594 44.2397 63.5716 40.4265 61.1939 38.2956C62.1809 37.5329 62.5622 36.2095 62.7192 35.0207C63.0781 32.2169 62.8314 29.2785 62.2482 26.5419C61.665 23.7381 60.6332 21.0016 59.2425 18.4894C58.5471 17.2332 57.7396 16.0444 56.8424 14.9005C54.5769 11.9845 51.7058 9.53954 48.4533 7.76752C48.4982 7.74509 48.5206 7.72266 48.5655 7.72266C48.7449 7.63294 48.9244 7.54322 49.1038 7.4535C49.6646 7.18433 50.2478 6.82544 50.6515 6.33197C51.1002 5.81606 51.3918 5.16557 51.3245 4.44779C51.2347 3.68515 50.8758 2.96737 50.3151 2.42904C49.373 1.50938 47.9599 0.881328 46.6589 0.881328C45.3355 0.858897 44.1467 1.64397 43.4962 2.78793C43.0476 3.59543 42.8233 4.51509 42.7111 5.43474C40.1316 4.69453 37.4848 4.31321 34.7931 4.26835C30.9799 4.20106 27.0994 4.80668 23.5105 6.08523C20.2356 7.25162 17.0729 8.95635 14.5607 11.3789C11.8914 13.9135 10.0297 17.3678 10.1194 21.1137C10.1419 22.4596 10.4559 23.783 11.0391 24.9942C11.398 25.7344 11.9139 26.4074 12.5195 26.9906C12.4074 27.9326 12.4746 28.8972 12.5644 29.8392C12.6317 30.5122 12.7438 31.1627 12.8784 31.8131C12.9906 32.2842 13.1027 32.8225 13.3494 33.2711C13.4616 33.473 13.6186 33.63 13.798 33.7646C13.9999 34.8188 14.2242 35.8731 14.5158 36.9049C13.5289 36.9049 12.5419 37.174 11.6896 37.7124C10.2989 38.6096 9.35679 40.1125 9.08762 41.7499C8.54929 44.9126 10.0297 48.0753 12.6765 49.8698C13.9102 50.6997 15.4131 51.1707 16.8935 51.1932C17.6337 53.0774 18.5758 54.8942 19.8095 56.5092C21.245 58.4158 22.9722 60.0533 24.9909 61.3094C25.5293 61.6458 26.1125 61.9599 26.6956 62.2515C26.6732 62.5206 26.6508 62.8122 26.6059 63.0814V63.1038C26.6059 63.1711 26.5835 63.2384 26.5835 63.2833C26.5611 63.3954 26.5611 63.4852 26.5386 63.5749C26.4938 63.8216 26.4489 64.0684 26.4041 64.3151C26.3816 64.4721 26.3368 64.6291 26.2919 64.7861C25.5965 64.4272 24.7442 64.5618 24.0488 64.8534C23.1516 65.1899 22.3441 65.6834 21.5815 66.2666C20.7515 66.8946 19.9889 67.5675 19.316 68.375C18.6879 69.1377 18.0823 69.99 17.8356 70.9546C17.701 71.4256 17.701 71.9191 17.7683 72.3677C13.9551 73.8257 10.3213 75.822 7.33804 78.6258C4.75852 81.0483 2.76219 84.0765 1.73038 87.441C1.21448 89.1458 0.945312 90.9402 0.945312 92.7347C0.945312 93.3403 1.46122 93.8562 2.06684 93.8562C6.2838 93.8562 10.4783 93.8562 14.6953 93.8562C18.9571 93.8562 23.1965 93.8562 27.4583 93.8562C31.7874 93.8562 36.1389 93.8562 40.468 93.8562C44.8869 93.8562 49.2833 93.8562 53.7021 93.8562C58.1882 93.8562 62.6743 93.8562 67.1605 93.8562C67.7212 93.8562 68.282 93.8562 68.8203 93.8562C69.426 93.8562 69.9419 93.3403 69.9419 92.7347C70.0092 89.4374 69.0895 86.1849 67.4072 83.3362ZM47.2421 67.904C47.3318 67.9713 47.3991 68.0161 47.4888 68.0834C47.5561 68.1283 47.8926 68.4199 47.601 68.1732C48.2963 68.7788 48.9917 69.362 49.5749 70.0798C49.5973 70.1022 49.5973 70.1246 49.6197 70.147C49.687 70.2368 49.7319 70.3041 49.7992 70.3938C49.9113 70.5732 50.0235 70.7527 50.1356 70.9321C50.1805 70.9994 50.2029 71.0667 50.2254 71.134C50.2254 71.134 50.2478 71.1564 50.2478 71.1789C50.2478 71.2013 50.2702 71.2237 50.2702 71.2461C50.2702 71.2686 50.2926 71.291 50.2926 71.3134C50.2926 71.291 50.2702 71.291 50.2702 71.291C50.3151 71.4256 50.3599 71.5826 50.4048 71.7396C50.4048 71.7396 50.4048 71.7396 50.4048 71.7621C50.4048 71.8069 50.4048 71.8742 50.4048 71.9191C50.4048 71.9415 50.4048 71.9415 50.4048 71.9639C50.4048 71.9415 50.4048 71.9415 50.4272 71.9191C50.4272 71.9415 50.4048 71.9639 50.4048 71.9864C50.4272 71.9191 50.4272 71.9864 50.4048 72.0312C50.4048 72.1209 50.3824 72.1434 50.3824 72.0985C50.3824 72.1209 50.3599 72.1434 50.3599 72.1882C50.3599 72.1658 50.3824 72.1434 50.3824 72.1209C50.3599 72.1658 50.3375 72.2107 50.3151 72.2555C50.2927 72.3004 50.2702 72.3452 50.2254 72.3677C50.2029 72.3901 50.2029 72.4125 50.1805 72.4125C50.1805 72.4125 50.1805 72.4125 50.2029 72.3901C50.1805 72.4125 50.1805 72.4125 50.1581 72.435C50.1356 72.4574 50.1356 72.4574 50.1132 72.4798L50.0908 72.5023C49.9786 72.6368 49.8665 72.749 49.7319 72.8836C49.6197 72.9957 49.5076 73.1079 49.373 73.1976C49.3057 73.2425 49.2384 73.3098 49.1711 73.3546C49.1487 73.3771 49.1038 73.3995 49.0814 73.4219C48.3412 73.9603 47.5785 74.4313 46.771 74.8126C46.5467 74.9248 46.3 75.0369 46.0533 75.1491C46.0084 75.1715 45.9411 75.1939 45.8962 75.2164C45.7617 75.2612 45.6271 75.3285 45.4925 75.3734C44.9542 75.5752 44.4158 75.7771 43.8551 75.9341C43.1822 76.136 42.5092 76.293 41.8139 76.4276C41.4774 76.4949 41.1185 76.5398 40.7821 76.6071C40.7596 76.6071 40.7596 76.6071 40.7372 76.6071C40.7372 76.6071 40.7372 76.6071 40.7148 76.6071C40.6251 76.6071 40.5353 76.6295 40.4456 76.6295C40.2662 76.6519 40.0867 76.6744 39.9073 76.6744C39.8848 76.6744 39.8624 76.6744 39.8176 76.6744C40.7821 75.8893 41.612 74.9248 42.3074 73.8705C43.5186 71.9864 44.2364 69.8779 44.9093 67.747C44.999 67.4329 45.1112 67.1413 45.2009 66.8497C45.2458 66.8722 45.3131 66.8722 45.3579 66.8946C45.4252 66.917 45.4925 66.9395 45.5598 66.9619C45.6047 66.9843 45.6495 67.0068 45.6944 67.0292C45.6719 67.0068 45.6271 67.0068 45.5822 66.9619C45.9187 67.1413 46.2776 67.2984 46.614 67.5002C46.8832 67.6572 47.0626 67.7694 47.2421 67.904ZM41.455 85.1307C41.4774 85.3326 41.4999 85.512 41.4999 85.7139C41.4999 85.7587 41.4999 85.7812 41.4999 85.826C41.3877 85.826 41.2531 85.826 41.141 85.8036C41.0737 85.8036 40.984 85.7812 40.9167 85.7812H40.8942C40.5802 85.7363 40.2886 85.669 39.9746 85.5569C39.84 85.512 39.7054 85.4672 39.5708 85.4223C39.5708 85.4223 39.5484 85.4223 39.5484 85.3999C39.5035 85.355 39.3914 85.3326 39.3465 85.3101C39.0773 85.1756 38.8306 85.041 38.6063 84.884C38.539 84.8391 38.4717 84.7942 38.4044 84.7494C38.382 84.7494 38.382 84.7269 38.3596 84.7045C38.2698 84.6148 38.1577 84.5475 38.068 84.4578C37.8437 84.2559 37.6418 84.0316 37.4623 83.8073C37.4175 83.7624 37.3726 83.6951 37.3502 83.6503C37.2605 83.5157 37.1707 83.4035 37.1035 83.269C37.0137 83.1119 36.924 82.9549 36.8343 82.7979C36.7894 82.7306 36.767 82.6409 36.7221 82.5736C36.7221 82.5736 36.7221 82.5512 36.6997 82.5512C36.6997 82.5512 36.6997 82.5512 36.6997 82.5287C36.5651 82.1923 36.453 81.8334 36.3632 81.4745C36.4305 80.6446 36.3857 79.8146 36.2735 78.9847C36.5651 79.0071 36.8567 79.0296 37.1707 79.052C37.3053 79.0969 37.4623 79.1417 37.5969 79.209C37.6194 79.209 37.6194 79.2314 37.6418 79.2314C37.7315 79.2763 37.8212 79.3212 37.911 79.366C38.225 79.523 38.539 79.7249 38.8306 79.9492L38.853 79.9716C38.9203 80.0165 38.9876 80.0838 39.0549 80.1287C39.1895 80.2408 39.3017 80.353 39.4362 80.4876C39.5484 80.5997 39.6605 80.7343 39.7727 80.8689C39.8176 80.9362 39.8624 80.981 39.9073 81.0483C39.9297 81.0708 39.9521 81.1156 39.9746 81.138C40.1764 81.4296 40.3559 81.7212 40.5353 82.0353C40.6251 82.1923 40.6923 82.3269 40.7596 82.4839C40.8045 82.5512 40.8269 82.6409 40.8718 82.7082C40.8718 82.7306 40.8942 82.7755 40.8942 82.7755C41.141 83.426 41.3204 84.0989 41.4326 84.7942C41.4326 84.8391 41.4326 84.884 41.455 84.9512C41.455 84.9512 41.4774 84.9737 41.4774 85.0185C41.4774 85.041 41.4774 85.0634 41.4774 85.0858V85.1083C41.4774 85.1083 41.4774 85.1083 41.4774 85.0858C41.4326 85.0634 41.4326 85.1083 41.455 85.1307ZM39.5035 85.3999C39.4811 85.3999 39.4587 85.3774 39.4362 85.3774C39.3017 85.3326 39.4587 85.3774 39.5035 85.3999ZM34.0305 81.7885C33.9856 82.0128 33.9632 82.2596 33.8959 82.4839C33.7837 82.9549 33.6491 83.426 33.4697 83.897C33.4473 83.9419 33.4248 83.9867 33.4248 84.0316C33.38 84.1213 33.3351 84.2335 33.2903 84.3232C33.1781 84.5475 33.0659 84.7718 32.9538 84.9737C32.8641 85.1531 32.7519 85.3101 32.6398 85.4896C32.5725 85.5793 32.5052 85.669 32.4379 85.7812C32.4155 85.826 32.3706 85.8709 32.3257 85.9158C32.2584 86.0055 32.3033 85.9831 32.3257 85.9158C32.236 86.0728 32.0341 86.2522 31.922 86.3868C31.765 86.5662 31.608 86.7233 31.4509 86.8803C31.3164 87.0149 31.1593 87.1494 31.0023 87.284C30.935 87.3513 30.8453 87.4186 30.778 87.4859C30.778 87.4859 30.778 87.4859 30.7556 87.5083C30.7107 87.5532 30.6659 87.5756 30.621 87.5981C30.2621 87.8672 29.8584 88.114 29.477 88.3158C29.4546 87.8224 29.4322 87.3289 29.4546 86.813C29.4546 86.5438 29.477 86.2747 29.4995 86.0055C29.4995 85.8933 29.5219 85.7812 29.5219 85.6466C29.5219 85.5793 29.5443 85.512 29.5443 85.4447C29.5443 85.4223 29.5668 85.355 29.5668 85.3326C29.6341 84.8391 29.7462 84.368 29.8808 83.897C29.9481 83.6503 30.0154 83.426 30.1051 83.1792C30.15 83.0671 30.1948 82.9774 30.2173 82.8652C30.2397 82.8203 30.2621 82.753 30.2845 82.7082C30.464 82.3269 30.6659 81.9455 30.9126 81.5867C30.9575 81.4969 31.0248 81.4296 31.0696 81.3399C31.092 81.2951 31.1369 81.2502 31.1593 81.2053C31.2042 81.1605 31.2491 81.0707 31.1593 81.2053C31.2715 81.0483 31.4285 80.8689 31.5631 80.7343C31.6977 80.5773 31.8547 80.4427 32.0117 80.3081C32.079 80.2408 32.1463 80.1735 32.236 80.1287C32.2809 80.0838 32.3257 80.0614 32.3482 80.0389C32.55 79.9044 32.7519 79.7698 32.9538 79.6352C33.0884 79.5455 33.2678 79.4333 33.4473 79.366C33.4697 79.366 33.4921 79.366 33.5146 79.3436C33.5818 79.3212 33.6491 79.2987 33.694 79.2763C33.7837 79.2539 33.8734 79.209 33.9632 79.1866C33.9632 79.2314 33.9856 79.2763 33.9856 79.3212C33.9856 79.366 34.008 79.5006 34.008 79.523C34.008 79.6128 34.0305 79.7249 34.0305 79.8146C34.0753 80.3081 34.0753 80.8016 34.0529 81.2951C34.0529 81.4072 34.0305 81.5194 34.0305 81.6315C34.0529 81.654 33.9856 82.0577 34.0305 81.7885ZM40.7821 82.5512C40.7821 82.5512 40.8045 82.596 40.8269 82.6409C40.8045 82.6185 40.7821 82.5512 40.7821 82.5512ZM45.1785 66.8722C45.2009 66.8722 45.2009 66.8722 45.1785 66.8722V66.8722ZM53.4105 36.5909C53.2984 36.6133 53.1638 36.6133 53.0516 36.6357C52.2441 36.7254 51.4366 36.703 50.6291 36.6133C50.6067 36.6133 50.5618 36.6133 50.5394 36.5909C50.4497 36.5684 50.3824 36.5684 50.2926 36.546C50.1132 36.5011 49.9113 36.4787 49.7319 36.4114C49.4179 36.3217 49.1038 36.232 48.7898 36.0974C48.7674 36.0974 48.7449 36.075 48.7449 36.075C48.6776 36.0525 48.6104 36.0077 48.5431 35.9852C48.3861 35.9179 48.2515 35.8506 48.1169 35.7609C48.072 35.7385 48.0047 35.6936 47.9599 35.6712C49.7543 35.6488 51.5263 35.6039 53.2984 35.4918C53.3881 35.4918 53.5002 35.4693 53.59 35.4693C53.747 35.559 53.8815 35.6712 54.0386 35.7609C54.1731 35.8506 54.3077 35.9628 54.4423 36.0525C54.4872 36.0974 54.532 36.1198 54.5769 36.1647C54.5993 36.1871 54.6218 36.2095 54.6666 36.232L54.689 36.2544C54.7115 36.2768 54.7115 36.2768 54.7339 36.2993C54.5769 36.3441 54.4199 36.3666 54.2853 36.4114C54.061 36.4563 53.8143 36.5011 53.59 36.546C53.5227 36.5684 53.4778 36.5909 53.4105 36.5909ZM18.7776 35.9404C18.5982 36.0077 18.4412 36.075 18.2617 36.1422C17.9701 36.2544 17.6561 36.3441 17.3645 36.4114C17.2299 36.4563 17.0729 36.4787 16.9383 36.5011C16.871 36.5236 16.8262 36.5236 16.7589 36.5236C16.5794 35.8731 16.4224 35.2002 16.2654 34.5497C17.0505 34.6843 17.8356 34.774 18.6206 34.8637C19.2487 34.931 19.8767 34.9983 20.5048 35.0431C20.0338 35.3123 19.5627 35.559 19.0917 35.7834C19.002 35.8282 18.9347 35.8506 18.8449 35.8955C18.8001 35.9179 18.8001 35.9179 18.7776 35.9404ZM24.6096 33.0917C23.0619 33.002 21.5142 32.9122 19.9665 32.7777C19.316 32.7104 18.6879 32.6431 18.0374 32.5758C17.9253 32.5533 17.8131 32.5533 17.701 32.5309C17.6337 32.5309 17.5664 32.5085 17.4991 32.5085C17.2524 32.4636 17.0056 32.4412 16.7589 32.3963C16.3551 32.329 15.9514 32.2393 15.5701 32.1272C15.4579 32.1047 15.3682 32.0599 15.256 32.0374C15.1887 31.8356 15.1215 31.6113 15.0766 31.387C15.0093 31.1178 14.9644 30.8486 14.9196 30.5795C14.8971 30.4449 14.8747 30.3103 14.8523 30.1981C14.8523 30.1757 14.8523 30.1533 14.8523 30.1308C14.8299 30.0411 14.8299 29.9514 14.8299 29.8617C14.785 29.4131 14.7401 28.942 14.7401 28.471C16.8935 29.4355 19.3608 29.5476 21.6712 29.6149C26.4489 29.772 31.2491 29.7047 36.0268 30.1084C36.6324 30.1533 37.238 30.2206 37.8661 30.2879C38.1801 30.3327 38.4717 30.3551 38.7858 30.4C38.8082 30.4 38.9203 30.4224 38.9876 30.4224C39.1895 30.4449 39.3689 30.4673 39.5484 30.5122C40.7821 30.6916 42.0158 30.9159 43.2494 31.1851C44.4607 31.4542 45.6719 31.7907 46.8608 32.1945C47.444 32.3963 48.0047 32.5982 48.5655 32.8225C48.7001 32.8674 48.8571 32.9347 48.9917 33.002H49.0141C49.0814 33.0244 49.1487 33.0693 49.216 33.0917C49.4851 33.2038 49.7319 33.316 50.0011 33.4506C48.8795 33.473 47.758 33.4954 46.6365 33.4954C43.0251 33.5403 39.4138 33.5179 35.8249 33.473C32.0566 33.4057 28.3331 33.2936 24.6096 33.0917ZM59.4443 36.703C59.4668 36.703 59.5116 36.703 59.5341 36.703C59.4892 36.703 59.4443 36.703 59.4443 36.703ZM60.0724 36.3441C60.0724 36.3217 60.0948 36.3217 60.0948 36.2993C60.0948 36.2993 60.0724 36.3217 60.0724 36.3441ZM57.291 39.1704H57.3134C57.4256 39.1479 57.3583 39.1704 57.291 39.1704ZM55.7881 48.9277C55.833 48.9277 55.9003 48.9053 55.9003 48.9053C55.9003 48.9277 55.833 48.9277 55.7881 48.9277ZM60.9023 43.6789C60.9023 43.7238 60.8799 43.8135 60.8799 43.8808C60.8799 43.9032 60.8799 43.9032 60.8799 43.9257C60.835 44.2397 60.7453 44.5313 60.6556 44.8229C60.6107 44.9799 60.5434 45.1145 60.4986 45.2715C60.4986 45.2715 60.4986 45.2715 60.4986 45.2939C60.4537 45.3837 60.4313 45.4509 60.3864 45.5407C60.2518 45.8098 60.0948 46.1014 59.9154 46.3482C59.8481 46.4603 59.7584 46.5725 59.6686 46.6846C59.6014 46.7519 59.5565 46.8416 59.4892 46.9089C59.2873 47.1332 59.063 47.3575 58.8163 47.5819C58.7714 47.6267 58.7041 47.6716 58.6593 47.7164C58.6368 47.7389 58.592 47.7613 58.5695 47.7837C58.4798 47.8735 58.6593 47.7164 58.6593 47.7164C58.6368 47.8062 58.3228 47.9632 58.2331 48.008C57.9415 48.2099 57.6275 48.3669 57.3134 48.5239C57.291 48.5239 57.291 48.5464 57.2686 48.5464C57.2686 48.5464 57.2461 48.5464 57.2237 48.5688C57.134 48.5912 57.0667 48.6361 56.977 48.6585C56.82 48.7258 56.6405 48.7707 56.4835 48.8155C56.3041 48.8604 56.1246 48.9053 55.9227 48.9277C55.8779 48.9277 55.8554 48.9501 55.8106 48.9501C55.7882 48.9501 55.7881 48.9501 55.7657 48.9501C56.5956 46.2809 57.0218 43.4995 57.2013 40.7181C57.2237 40.2246 57.2461 39.7311 57.2686 39.2152C57.3807 39.2152 57.5377 39.1928 57.6499 39.1928C57.762 39.1928 57.9639 39.2377 58.0761 39.2152H58.0985C58.1658 39.2377 58.2331 39.2377 58.3004 39.2601C58.435 39.305 58.592 39.3274 58.7266 39.3947C58.749 39.3947 58.7938 39.4171 58.8163 39.4395C58.8611 39.462 58.8836 39.4844 58.9284 39.4844C59.063 39.5517 59.22 39.6414 59.3546 39.7311C59.3995 39.7536 59.4219 39.776 59.4668 39.7984C59.4892 39.8209 59.5116 39.8433 59.5341 39.8433C59.6686 39.9554 59.7808 40.0676 59.893 40.1798C59.9378 40.2246 59.9827 40.2919 60.0275 40.3368C60.0275 40.3368 60.0275 40.3368 60.05 40.3592C60.1397 40.4938 60.2518 40.6284 60.3191 40.7854C60.3864 40.92 60.4761 41.0545 60.5434 41.1891C60.5434 41.2116 60.5659 41.2116 60.5659 41.234V41.2564C60.5883 41.3461 60.6332 41.4359 60.6556 41.5256C60.7005 41.6826 60.7453 41.8396 60.7902 41.9966C60.8126 42.0864 60.835 42.1536 60.835 42.2434C60.835 42.2658 60.8575 42.4004 60.8575 42.4228C60.8575 42.4452 60.8575 42.4677 60.8575 42.4677C60.8575 42.5574 60.8799 42.6471 60.8799 42.7144C60.8799 42.8714 60.9023 43.0284 60.8799 43.1855C60.9248 43.3649 60.9248 43.5219 60.9023 43.6789ZM48.7449 5.09828C48.7674 5.07585 48.7898 5.05342 48.8122 5.03099C48.7898 5.07585 48.7449 5.09828 48.7449 5.09828ZM46.1879 3.21411C46.2327 3.19168 46.2551 3.16925 46.1879 3.21411V3.21411ZM44.9093 5.95065C44.9093 5.90578 44.9093 5.86092 44.9317 5.81606C44.9542 5.70391 44.9766 5.56932 44.999 5.45717C45.0439 5.23287 45.0887 5.00856 45.156 4.78425C45.1785 4.6721 45.2233 4.58238 45.2458 4.47023C45.2682 4.40293 45.2906 4.33564 45.3131 4.26835C45.3131 4.26835 45.3131 4.29078 45.2906 4.29078L45.3131 4.26835C45.3355 4.22349 45.3579 4.20106 45.3579 4.17863C45.4252 4.04404 45.4925 3.88703 45.5598 3.77488C45.5822 3.73001 45.6271 3.68515 45.6495 3.64029C45.7168 3.573 45.7841 3.50571 45.829 3.43842C45.8065 3.43842 45.8065 3.46085 45.7841 3.46085C45.8065 3.43842 45.829 3.41599 45.8738 3.39356C45.8738 3.39356 45.8738 3.39356 45.8962 3.39356C45.9635 3.34869 46.0533 3.30383 46.1206 3.25897C46.1654 3.25897 46.2551 3.21411 46.3 3.19168C46.3449 3.16925 46.3897 3.16925 46.4346 3.14682H46.457C46.5467 3.14682 46.6589 3.12439 46.7486 3.12439C46.7935 3.12439 46.8383 3.12439 46.8832 3.12439C47.1299 3.19168 47.3991 3.23654 47.6458 3.32626C47.6458 3.32626 47.6907 3.34869 47.7356 3.37112C47.7804 3.39356 47.8253 3.41599 47.8253 3.41599C47.9374 3.46085 48.0496 3.52814 48.1393 3.573C48.2515 3.64029 48.3412 3.68515 48.4309 3.75245C48.4533 3.77488 48.6104 3.84217 48.6104 3.88703C48.6776 3.95432 48.7674 4.02161 48.8347 4.11133L48.8571 4.13377C48.8571 4.13377 48.8795 4.13377 48.902 4.17863C48.9244 4.20106 48.9244 4.20106 48.9244 4.20106H48.902C48.9468 4.26835 48.9917 4.35807 49.0365 4.44779C49.0141 4.3805 49.0365 4.3805 49.059 4.47023V4.49266C49.059 4.51509 49.059 4.53752 49.0814 4.55995C49.0814 4.58238 49.0814 4.58238 49.0814 4.60481V4.62724C49.0814 4.62724 49.0814 4.62724 49.0814 4.64967V4.6721C49.0814 4.69453 49.0814 4.73939 49.0814 4.73939C49.0814 4.71696 49.0814 4.69453 49.0814 4.6721C49.059 4.76182 49.0141 4.73939 49.0814 4.64967C49.0365 4.69453 49.0141 4.76182 48.9917 4.80668C48.9468 4.85155 48.9244 4.87398 48.8795 4.91884C48.8795 4.91884 48.8347 4.9637 48.8122 4.98613C48.7898 5.00856 48.7449 5.03099 48.7225 5.05342C48.6104 5.12071 48.4982 5.21043 48.386 5.27773C48.1169 5.43474 47.8253 5.54689 47.5561 5.70391C47.0851 5.95064 46.6813 6.2871 46.3673 6.69085C45.8738 6.48898 45.4028 6.2871 44.9093 6.10766C44.8869 6.0628 44.8869 6.01794 44.9093 5.95065ZM12.4074 21.8988C12.4074 21.8764 12.4074 21.8539 12.4074 21.8539C12.3849 21.7194 12.3849 21.5848 12.3849 21.4502C12.3625 21.1586 12.3625 20.8446 12.3849 20.553C12.3849 20.2614 12.4298 19.9473 12.4522 19.6557C12.4522 19.6109 12.4522 19.5885 12.4522 19.566C12.4522 19.5212 12.4746 19.4987 12.4746 19.4539C12.4971 19.2969 12.5419 19.1398 12.5644 18.9604C12.6765 18.3996 12.856 17.8613 13.0578 17.3454C13.0803 17.2781 13.1027 17.2332 13.1251 17.1659C13.1251 17.1435 13.1476 17.1435 13.1476 17.1211C13.2149 16.9641 13.3046 16.8071 13.3719 16.65C13.5289 16.336 13.6859 16.0444 13.8653 15.7528C14.0448 15.4612 14.2467 15.1696 14.4485 14.878C14.4934 14.8107 14.5383 14.7434 14.5831 14.6762C14.7177 14.5191 14.8299 14.3621 14.942 14.2275C15.4131 13.6668 15.9065 13.1509 16.4449 12.6798C16.7365 12.4331 17.0056 12.1639 17.3197 11.9396C17.3869 11.8948 17.4318 11.8499 17.4991 11.805C17.4991 11.805 17.4767 11.805 17.4767 11.8275C17.4991 11.805 17.544 11.7826 17.5664 11.7602C17.5664 11.7602 17.5664 11.7602 17.5888 11.7602L17.6113 11.7377C17.7683 11.6256 17.9253 11.5134 18.0823 11.3789C19.4281 10.4143 20.8637 9.60683 22.3665 8.95635C22.4563 8.91148 22.5236 8.88905 22.6133 8.84419C22.6357 8.84419 22.6581 8.82176 22.6806 8.82176H22.703C22.7254 8.79933 22.7703 8.79933 22.7927 8.7769C22.7703 8.7769 22.7479 8.79933 22.7254 8.79933C22.9273 8.70961 23.1292 8.64232 23.3311 8.5526C23.7348 8.39558 24.161 8.23857 24.5647 8.10398C25.3947 7.83482 26.2246 7.58808 27.077 7.3862C27.9742 7.1619 28.849 6.98245 29.7686 6.84787C29.8808 6.82544 29.9929 6.80301 30.1051 6.80301C30.1275 6.80301 30.1724 6.80301 30.1948 6.78058C30.1948 6.78058 30.1948 6.78058 30.2173 6.78058C30.2397 6.78058 30.2621 6.78058 30.2845 6.78058H30.2621C30.4864 6.75815 30.7107 6.73572 30.935 6.69085C31.4061 6.64599 31.8547 6.60113 32.3257 6.5787C34.2099 6.46655 36.1165 6.51141 38.0007 6.73572C38.1128 6.75815 38.225 6.75815 38.3147 6.78058C37.9334 6.73572 38.3371 6.78058 38.4044 6.80301C38.6512 6.84787 38.8979 6.8703 39.1446 6.91516C39.6157 7.00488 40.0867 7.09461 40.5578 7.20676C41.4999 7.40863 42.4195 7.6778 43.3392 7.99183C43.8102 8.14884 44.2588 8.30586 44.7299 8.50773C44.842 8.5526 44.9317 8.59746 45.0439 8.64232C45.1112 8.66475 45.1785 8.68718 45.2233 8.70961C45.2009 8.70961 45.2009 8.70961 45.1785 8.68718H45.2009C45.4252 8.7769 45.6495 8.88906 45.8738 9.00121C46.771 9.42739 47.6683 9.89843 48.5206 10.4143C48.9468 10.6835 49.373 10.9527 49.7992 11.2443C50.0011 11.3789 50.1805 11.5134 50.3599 11.648C50.4048 11.6704 50.4272 11.6929 50.4721 11.7153C50.0011 12.0742 49.5524 12.4107 49.0814 12.7695C48.902 12.9041 48.7674 13.0387 48.7001 13.263C48.6552 13.4649 48.6777 13.7341 48.7898 13.9135C48.902 14.093 49.0814 14.25 49.2833 14.2948C49.4851 14.3397 49.7543 14.3397 49.9338 14.2051C50.5618 13.7341 51.1899 13.263 51.7955 12.792C52.1544 13.106 52.4909 13.42 52.8273 13.7565C51.4815 14.721 50.1132 15.6855 48.7674 16.6725C48.4085 16.9192 48.2066 17.4127 48.4758 17.8164C48.7001 18.1753 49.2384 18.3996 49.6197 18.108C51.0777 17.0538 52.5357 16.022 54.0161 14.9677C54.3302 15.3266 54.6442 15.6855 54.9582 16.0668C54.1731 16.7398 53.3881 17.3903 52.5806 18.0632C52.4236 18.1978 52.3338 18.4669 52.3338 18.6688C52.3338 18.8707 52.4236 19.1174 52.5806 19.2744C52.7376 19.4314 52.9619 19.5212 53.1862 19.5212C53.4105 19.5212 53.6124 19.4314 53.7918 19.2744C54.5096 18.6688 55.2498 18.0407 55.9676 17.4351C56.1022 17.637 56.2592 17.8389 56.3938 18.0407C56.7751 18.6239 57.1116 19.2071 57.448 19.8128C57.7845 20.4184 58.0761 21.024 58.3677 21.6521C58.435 21.7867 58.5023 21.9437 58.5471 22.0783C58.5471 22.1007 58.6144 22.2353 58.6144 22.2577C58.6368 22.3026 58.6593 22.3698 58.6817 22.4147C58.8163 22.7287 58.9284 23.0428 59.0406 23.3792C59.5116 24.6802 59.8705 26.0036 60.1397 27.3494C60.207 27.6635 60.2518 27.9551 60.3191 28.2691C60.3416 28.4485 60.364 28.6056 60.4089 28.785C60.4313 28.8523 60.4313 28.942 60.4313 29.0093C60.3864 28.7177 60.4537 29.1215 60.4537 29.1663C60.5434 29.8392 60.5883 30.5346 60.6107 31.2075C60.6332 31.8804 60.6332 32.5533 60.6107 33.2263C60.6107 33.5627 60.5883 33.8768 60.5659 34.2132C60.5659 34.3702 60.5434 34.5048 60.521 34.6618C60.521 34.7291 60.4986 34.8188 60.4986 34.8861C60.4537 35.1777 60.3864 35.4469 60.3191 35.7161C60.2967 35.7834 60.2743 35.8282 60.2518 35.8955C60.2294 35.9404 60.2294 35.9628 60.2294 35.9852C60.1846 36.075 60.0948 36.2095 60.05 36.2768C60.0275 36.2993 60.0275 36.3217 60.0051 36.3441C60.0051 36.3666 59.9827 36.3666 59.9827 36.3666C59.9602 36.389 59.9378 36.4114 59.9378 36.4114C59.8929 36.4563 59.8481 36.5011 59.8257 36.5236C59.7808 36.546 59.7359 36.5684 59.6911 36.5909C59.6911 36.5909 59.6686 36.5909 59.6686 36.6133C59.6686 36.6133 59.6686 36.6133 59.6462 36.6133C59.6238 36.6133 59.5565 36.6357 59.5116 36.6581C59.4668 36.6581 59.4219 36.6581 59.377 36.6581C59.3322 36.6581 59.2649 36.6581 59.1976 36.6581C59.1752 36.6581 59.1527 36.6357 59.1303 36.6357C58.9957 36.6133 58.8611 36.5684 58.7266 36.5236C58.7041 36.5236 58.7041 36.5011 58.7041 36.5011C58.6144 36.4563 58.5471 36.4114 58.4574 36.3666C58.3004 36.2768 58.1434 36.1647 57.9864 36.075C57.8742 36.0077 57.762 35.9179 57.6499 35.8282C57.605 35.8058 57.5377 35.7385 57.5153 35.7385C57.448 35.6712 57.3807 35.6263 57.291 35.559C57.0443 35.3572 56.7975 35.1329 56.5508 34.931C55.9227 34.4151 55.2498 33.9216 54.5769 33.4506C54.5096 33.3833 54.4199 33.316 54.3077 33.2711C53.9937 33.0693 53.6797 32.8674 53.3656 32.6655C49.1263 30.1308 44.2588 28.8523 39.4138 28.1794C34.6137 27.5289 29.7686 27.4616 24.9236 27.3719C23.8245 27.3494 22.703 27.327 21.6039 27.3046C20.9983 27.2822 20.4151 27.2597 19.8095 27.2149C19.5179 27.1924 19.2263 27.17 18.9347 27.1476C18.7552 27.1251 18.5758 27.1027 18.3963 27.0803C18.3963 27.0803 18.3963 27.0803 18.3739 27.0803C18.2617 27.0578 18.172 27.0578 18.0599 27.0354C17.4318 26.9233 16.8038 26.7887 16.1981 26.5868C16.0635 26.5419 15.929 26.4971 15.7944 26.4298C15.7719 26.4298 15.6822 26.4074 15.6598 26.3849C15.6822 26.3849 15.7047 26.4074 15.7495 26.4074C15.7047 26.3849 15.6374 26.3625 15.5925 26.3401C15.2785 26.2055 14.9869 26.026 14.6953 25.8466C14.628 25.8017 14.5831 25.7793 14.5158 25.7344C14.4261 25.6223 14.314 25.5101 14.1794 25.4428C13.9551 25.241 13.7308 25.0167 13.5289 24.7699C13.5065 24.7475 13.5065 24.7475 13.484 24.7251C13.4616 24.6802 13.4167 24.6353 13.3943 24.5905C13.327 24.4783 13.2597 24.3662 13.17 24.254C13.0354 24.0521 12.8784 23.8054 12.7887 23.5587C12.7887 23.5362 12.7662 23.4914 12.7662 23.4689C12.7438 23.4017 12.7214 23.3119 12.6765 23.2446C12.6317 23.1101 12.5868 22.9979 12.5644 22.8633C12.4746 22.5717 12.4298 22.3026 12.3625 22.011C12.4298 22.0334 12.4074 21.9661 12.4074 21.8988ZM14.0448 39.1704C14.0672 39.1704 14.0896 39.1704 14.1121 39.1479C14.2691 39.1255 14.1121 39.1704 14.0448 39.1704ZM15.0317 48.5688C14.9869 48.5464 14.8074 48.4791 14.8523 48.5015C14.8299 48.4791 14.8074 48.4791 14.785 48.4791C14.628 48.4118 14.471 48.3221 14.3364 48.2548C14.0672 48.0978 13.8205 47.9183 13.5513 47.7389L13.5289 47.7164C13.484 47.6716 13.4167 47.6267 13.3719 47.5819C13.2373 47.4697 13.1251 47.3575 12.9906 47.2454C12.8784 47.1332 12.7887 47.0435 12.699 46.9314C12.6541 46.8641 12.5868 46.7968 12.5419 46.7295C12.5195 46.7071 12.5195 46.6846 12.4971 46.6846C12.3176 46.4379 12.1606 46.1912 12.0036 45.922C11.9363 45.7874 11.8466 45.6528 11.7793 45.5182C11.7569 45.4509 11.712 45.3837 11.6896 45.3164C11.6896 45.3164 11.6896 45.2939 11.6671 45.2939C11.5774 45.0023 11.4653 44.7107 11.3755 44.4191C11.3307 44.2621 11.3083 44.1275 11.2858 43.9705C11.2858 43.9257 11.2858 43.8359 11.2634 43.7687C11.2634 43.7462 11.2634 43.7462 11.2634 43.7238C11.241 43.4098 11.2185 43.0733 11.241 42.7593C11.241 42.6471 11.3083 42.4452 11.2858 42.3555C11.3083 42.2658 11.3307 42.1536 11.3531 42.0639C11.398 41.9069 11.4204 41.7499 11.4877 41.5929C11.5101 41.5256 11.5326 41.4359 11.5774 41.3686C11.5774 41.3686 11.5998 41.3461 11.5998 41.3237C11.5998 41.3461 11.5774 41.3461 11.6223 41.2789C11.6223 41.2789 11.6223 41.2564 11.6447 41.2564V41.234C11.6447 41.234 11.6447 41.234 11.6447 41.2564C11.7793 40.9648 11.9363 40.6957 12.1158 40.4489C12.1606 40.4041 12.2055 40.3368 12.2503 40.2919C12.3625 40.1798 12.4746 40.0452 12.6092 39.933C12.6317 39.9106 12.6541 39.8882 12.6765 39.8882C12.7438 39.8433 12.7887 39.7984 12.856 39.7536C12.9905 39.6638 13.1251 39.5966 13.2821 39.5068C13.3046 39.4844 13.327 39.4844 13.3494 39.462C13.4167 39.4395 13.484 39.4171 13.5513 39.3947C13.7083 39.3498 13.8653 39.305 14.0224 39.2825C14.0448 39.2825 14.0672 39.2825 14.0672 39.2825C14.1345 39.2825 14.2242 39.2601 14.2915 39.2601C14.471 39.2601 14.628 39.2601 14.8074 39.2601C14.8747 42.535 15.2336 45.8323 16.1533 48.9726C16.086 48.9501 16.0187 48.9501 15.9738 48.9277C15.6374 48.7707 15.3233 48.681 15.0317 48.5688ZM24.9012 58.5056L24.8788 58.4831C24.8563 58.4607 24.8115 58.4383 24.789 58.4158C24.6769 58.3261 24.5872 58.2588 24.475 58.1691C24.2731 57.9897 24.0713 57.8102 23.8694 57.6308C23.4656 57.2495 23.0619 56.8681 22.6806 56.4419C22.4787 56.2401 22.2993 56.0158 22.1198 55.7915C22.0301 55.6793 21.9404 55.5896 21.8506 55.4774C21.8058 55.4326 21.7833 55.3653 21.7385 55.3204C21.7833 55.3653 21.8058 55.3877 21.8282 55.4101C21.8058 55.3653 21.7609 55.3204 21.7385 55.298C21.3796 54.8045 21.0207 54.311 20.7067 53.7727C20.3702 53.2344 20.0786 52.6736 19.787 52.1128C19.63 51.8212 19.4954 51.5072 19.3608 51.1932C19.3384 51.1259 19.2936 51.0362 19.2711 50.9689C19.2711 50.9689 19.2711 50.9689 19.2711 50.9464C19.2038 50.767 19.1365 50.61 19.0692 50.4305C19.002 50.2735 18.9571 50.1165 18.8898 49.9595C18.8674 49.7576 18.8001 49.5557 18.6879 49.3987C18.329 48.3221 18.0374 47.223 17.7907 46.1014C17.701 45.6977 17.6337 45.2939 17.5664 44.8902C17.544 44.6883 17.4991 44.4864 17.4767 44.307C17.4542 44.1948 17.4542 44.0827 17.4318 43.993C17.4318 43.9481 17.4318 43.9257 17.4094 43.8808C17.4094 43.8584 17.4094 43.8584 17.4094 43.8359C17.3869 43.7014 17.4094 43.7911 17.4094 43.8584C17.3869 43.4322 17.2972 42.9836 17.2524 42.5574C17.2075 42.0864 17.1626 41.6377 17.1402 41.1667C17.0954 40.3592 17.0729 39.5741 17.0505 38.7666C18.1272 38.6096 19.159 38.2283 20.1235 37.7797C21.5366 37.1292 22.8376 36.2768 24.0488 35.3123C27.3686 35.5142 30.6883 35.6039 34.008 35.6712C37.4399 35.7385 40.8718 35.7609 44.3037 35.7609C45.3131 36.703 46.4346 37.5554 47.7131 38.0937C49.3057 38.7666 51.0104 39.0358 52.7152 38.9236C53.5002 38.8563 54.2853 38.7442 55.0479 38.5872C55.0255 40.1798 54.9134 41.7948 54.7115 43.3649C54.7115 43.4098 54.7115 43.4322 54.689 43.4771C54.6666 43.5668 54.6666 43.6565 54.6442 43.7462C54.6218 43.9705 54.5769 44.1948 54.532 44.4191C54.4647 44.8229 54.3974 45.2266 54.3077 45.6304C54.1507 46.3706 53.9713 47.1332 53.747 47.851C53.5451 48.5464 53.3208 49.2417 53.0516 49.9146C52.9843 50.0716 52.9395 50.2287 52.8722 50.3632C52.8497 50.4081 52.7376 50.6773 52.8273 50.4978C52.8946 50.3184 52.7824 50.61 52.76 50.6549C52.6254 50.9689 52.4908 51.2605 52.3338 51.5745C51.7955 52.6736 51.1674 53.7503 50.4272 54.7372C50.3375 54.8494 50.2478 54.9615 50.1805 55.0737C50.1805 55.0737 50.1805 55.0737 50.1805 55.0961C50.1356 55.1634 50.0908 55.2083 50.0459 55.2756C49.8665 55.4999 49.687 55.7242 49.4851 55.926C49.1263 56.3522 48.7225 56.7335 48.3188 57.1373C47.9374 57.4962 47.5337 57.8551 47.1299 58.1691C47.0851 58.1915 47.0626 58.2364 47.0178 58.2588C46.9056 58.3485 46.7935 58.4158 46.6813 58.5056C46.4794 58.6626 46.2551 58.7972 46.0533 58.9542C45.2458 59.4925 44.371 59.9636 43.4962 60.3897C43.384 60.4346 43.2943 60.4795 43.1822 60.5243C43.1373 60.5467 43.0924 60.5692 43.0251 60.5916C42.8233 60.6813 42.6214 60.7486 42.3971 60.8383C41.9709 60.9954 41.5671 61.1299 41.141 61.2645C40.3335 61.5113 39.5035 61.7131 38.6736 61.8477C38.4717 61.8926 38.2698 61.915 38.068 61.9374C38.0455 61.9374 38.0231 61.9374 38.0231 61.9374C37.9334 61.9374 37.8437 61.9599 37.7539 61.9599C37.3951 62.0047 37.0362 62.0272 36.6548 62.0496C35.9371 62.0945 35.2193 62.0945 34.5239 62.0496C34.1202 62.0272 33.7389 61.9823 33.3351 61.9374C33.3127 61.9374 33.2902 61.9374 33.2678 61.9374C33.1781 61.915 33.0884 61.915 32.9986 61.8926C32.7968 61.8702 32.5949 61.8253 32.393 61.7804C31.5182 61.6234 30.6659 61.3991 29.8359 61.1075C29.4097 60.9729 28.9836 60.7935 28.5574 60.6365C28.5125 60.614 28.4677 60.5916 28.4228 60.5692C28.3555 60.5243 28.2658 60.4795 28.1985 60.457C28.1536 60.4346 28.1312 60.4122 28.0863 60.4122C27.862 60.3 27.6377 60.2103 27.4359 60.0757C26.5386 59.6495 25.6863 59.1112 24.9012 58.5056ZM30.5537 63.687C32.2136 64.1132 33.9632 64.3375 35.6903 64.3375C37.3278 64.3375 38.9876 64.1132 40.5802 63.7319C41.0288 63.6197 41.4774 63.5076 41.926 63.3506C42.1055 64.5618 42.4419 65.7506 42.913 66.917C42.6662 67.7021 42.4195 68.4872 42.1503 69.2498C42.0606 69.4966 41.9709 69.7433 41.8812 69.99C41.8363 70.1022 41.7915 70.2368 41.7242 70.3489C41.7017 70.4162 41.6569 70.4835 41.6344 70.5508C41.3877 71.0891 41.141 71.6275 40.8269 72.1209C40.6699 72.3901 40.5129 72.6368 40.3559 72.8836C40.2662 73.0182 40.1764 73.1303 40.0867 73.2649C40.0419 73.3322 39.997 73.3995 39.9521 73.4444C39.9521 73.4668 39.9297 73.4668 39.9297 73.4892C39.526 73.9603 39.1222 74.4313 38.6512 74.8575C38.539 74.9696 38.4044 75.0593 38.2698 75.1715C38.2474 75.1939 38.225 75.2164 38.2026 75.2388C38.1353 75.2837 38.0455 75.3509 37.9782 75.3958C37.6642 75.5977 37.3502 75.7996 37.0362 75.9566C36.8567 76.0463 36.6997 76.1136 36.5203 76.2033C36.8343 76.0463 36.5203 76.2033 36.4305 76.2257C36.3408 76.2706 36.2511 76.293 36.1614 76.3155C35.8698 76.4276 35.5557 76.4949 35.2417 76.5622C34.9725 76.4949 34.7034 76.4276 34.4566 76.3603C34.2996 76.3155 34.1426 76.2482 33.9856 76.2033C33.9632 76.1809 33.9183 76.1809 33.8959 76.1584C33.8286 76.136 33.7613 76.0912 33.694 76.0687C33.38 75.9341 33.0884 75.7547 32.7968 75.5753C32.6622 75.4855 32.55 75.4182 32.4155 75.3285C32.3482 75.2837 32.2809 75.2388 32.2136 75.1939C32.1911 75.1715 32.1912 75.1715 32.1687 75.1491C31.6752 74.7453 31.2266 74.3191 30.8229 73.8481C30.7332 73.7359 30.6434 73.6238 30.5537 73.5116C30.4864 73.4443 30.4416 73.3546 30.3743 73.2873C30.1948 73.0406 30.0378 72.7939 29.8808 72.5247C29.5668 72.0088 29.2976 71.4929 29.0284 70.9546C28.9611 70.8424 28.9163 70.7078 28.8714 70.5957C28.849 70.5284 28.8041 70.4611 28.7817 70.3938V70.3714C28.692 70.1246 28.5798 69.8779 28.4901 69.6087C28.2434 68.9807 28.0415 68.3302 27.8396 67.6797C27.862 67.6348 27.8845 67.6124 27.8845 67.5675C28.4004 66.1544 28.7593 64.6515 28.9387 63.1487C29.4322 63.3506 29.9929 63.53 30.5537 63.687ZM20.1683 71.1789C20.1908 71.1564 20.1908 71.134 20.1908 71.1116C20.2132 71.0443 20.2581 70.977 20.3029 70.9097C20.3926 70.7302 20.5048 70.5508 20.617 70.3938C20.6842 70.3041 20.7291 70.2143 20.7964 70.147C20.774 70.1695 20.774 70.1919 20.7515 70.2143C20.774 70.1919 20.7964 70.1695 20.8188 70.1246C20.8413 70.1022 20.8637 70.0798 20.8637 70.0573C20.9983 69.8779 21.1553 69.7209 21.2899 69.5639C21.6039 69.2274 21.9404 68.9134 22.2768 68.5993C22.3665 68.5096 22.4787 68.4423 22.5684 68.3526C22.6133 68.3077 22.6581 68.2629 22.7254 68.2404C22.7254 68.2404 22.7479 68.2404 22.7479 68.218C22.9497 68.0834 23.1292 67.9264 23.3311 67.7918C23.6899 67.5451 24.0937 67.3208 24.475 67.1189C24.4975 67.0965 24.5872 67.0741 24.6545 67.0516C24.7218 67.0292 24.8115 66.9843 24.8339 66.9843C24.9461 66.9395 25.0358 66.917 25.1479 66.8946C25.2152 67.0965 25.305 67.3208 25.3722 67.5227C25.6638 68.4199 25.933 69.2947 26.247 70.1695C27.1443 72.5471 28.3779 74.9248 30.3518 76.5846C30.3967 76.6295 30.4416 76.6519 30.5089 76.6968C30.3518 76.6744 30.1724 76.6744 30.0154 76.6519C29.8808 76.6295 29.7462 76.6295 29.6341 76.6071C29.5892 76.6071 29.5443 76.5846 29.5219 76.5846C29.4322 76.5622 29.3425 76.5622 29.2527 76.5398C28.6247 76.45 28.0191 76.3155 27.4134 76.1584C26.8302 76.0239 26.2695 75.8444 25.7087 75.6425C25.462 75.5528 25.1928 75.4631 24.9461 75.3734C24.8115 75.3285 24.6993 75.2837 24.5647 75.2164C24.5423 75.1939 24.3404 75.1042 24.4974 75.1939C24.6545 75.2837 24.4077 75.1491 24.3629 75.1266C23.4881 74.7453 22.6133 74.2743 21.8282 73.7359C21.6936 73.6462 21.5366 73.5341 21.402 73.4219L21.4245 73.4444C21.402 73.4219 21.402 73.4219 21.3796 73.3995C21.3796 73.3995 21.3796 73.3995 21.3572 73.3995L21.3347 73.3771C21.3123 73.3771 21.3123 73.3546 21.2899 73.3546C21.2002 73.2873 21.1329 73.22 21.0431 73.1527C20.7964 72.9284 20.5497 72.7041 20.3254 72.4574L20.3029 72.435C20.2805 72.4125 20.2805 72.4125 20.2581 72.3901C20.2356 72.3677 20.2132 72.3452 20.1908 72.3228C20.2132 72.3452 20.2132 72.3452 20.2356 72.3677C20.1683 72.278 20.1011 72.1658 20.0562 72.0536C20.0562 72.0761 20.0786 72.0985 20.0786 72.1209C20.0786 72.0985 20.0562 72.0536 20.0562 72.0312C20.0562 72.0312 20.0562 72.0312 20.0562 72.0088C20.0562 71.9864 20.0338 71.9639 20.0338 71.9639C20.0338 71.9415 20.0338 71.9415 20.0338 71.9191C20.0338 71.8966 20.0338 71.8966 20.0338 71.8742C20.0338 71.8069 20.0338 71.762 20.0338 71.6948V71.6723C20.0562 71.5153 20.1011 71.3807 20.1683 71.2237L20.1459 71.2461C20.1683 71.2237 20.1683 71.2013 20.1683 71.2013C20.1683 71.2013 20.1683 71.2013 20.1683 71.1789ZM55.4068 91.6356C51.0104 91.6356 46.614 91.6356 42.2176 91.6356C37.8661 91.6356 33.5146 91.6356 29.163 91.6356C25.1928 91.6356 21.2226 91.6356 17.2524 91.6356C17.701 90.9851 18.172 90.3346 18.6206 89.6617C18.8674 89.3028 18.6879 88.7196 18.329 88.5177C17.9029 88.2934 17.4542 88.428 17.1851 88.8093C16.5346 89.7514 15.8841 90.6935 15.2112 91.6131C14.7401 91.6131 14.2467 91.6131 13.7756 91.6131C14.7626 90.043 15.7495 88.4504 16.7365 86.8803C16.9832 86.499 16.8262 85.9606 16.4449 85.7363C16.0411 85.512 15.5252 85.6466 15.3009 86.0279C14.1345 87.8897 12.9905 89.7514 11.8242 91.6131C11.3531 91.6131 10.8821 91.6131 10.411 91.6131C10.9269 90.7832 11.4428 89.9533 11.9812 89.1009C12.2055 88.7196 12.0709 88.1588 11.6896 87.9569C11.2858 87.7326 10.7923 87.8672 10.5456 88.2486C9.85026 89.3701 9.15491 90.4916 8.45956 91.6131C6.88942 91.6131 5.31928 91.6131 3.74914 91.6131C3.61455 91.6131 3.5024 91.6131 3.36782 91.6131C3.39025 91.2542 3.43511 90.9178 3.45754 90.5589C3.45754 90.5365 3.45754 90.514 3.45754 90.4916C3.47997 90.4019 3.47997 90.3346 3.5024 90.2449C3.52483 90.043 3.56969 89.8411 3.61456 89.6617C3.68185 89.3028 3.77157 88.9439 3.86129 88.585C4.06317 87.8448 4.3099 87.1494 4.57907 86.4317C4.6015 86.4092 4.6015 86.3644 4.62393 86.3419C4.66879 86.2522 4.69122 86.1849 4.73609 86.0952C4.82581 85.8933 4.91553 85.7139 5.00525 85.512C5.1847 85.1531 5.36414 84.8167 5.56602 84.4802C5.76789 84.1213 5.9922 83.7849 6.21651 83.426C6.32866 83.269 6.44081 83.1119 6.55296 82.9325C6.59783 82.8652 6.66512 82.7755 6.70998 82.7082C6.73241 82.6633 6.77727 82.6185 6.7997 82.5736C6.82213 82.5512 6.93428 82.4166 6.88942 82.4614C6.93428 82.4166 6.97915 82.3493 7.00158 82.3269C7.06887 82.2596 7.11373 82.1698 7.18102 82.1026C7.3156 81.9231 7.47262 81.7661 7.6072 81.6091C7.8988 81.2726 8.21283 80.9362 8.52686 80.6221C9.17734 79.9717 9.87269 79.3436 10.6129 78.7828C10.6353 78.7828 10.6578 78.738 10.7026 78.7155L10.7251 78.6931C10.8148 78.6258 10.9269 78.5361 11.0167 78.4688C11.2185 78.3118 11.4204 78.1772 11.6223 78.0202C12.0485 77.7286 12.4746 77.437 12.9233 77.1678C13.9551 76.5398 15.0093 75.979 16.086 75.4631C16.3776 75.3285 16.6692 75.1939 16.9832 75.0593C17.0505 75.0369 17.1178 74.9921 17.1851 74.9696C17.2075 74.9696 17.3197 74.9248 17.3645 74.9023C17.4094 74.8799 17.4767 74.8575 17.4767 74.8575C17.5664 74.8126 17.6561 74.7902 17.7458 74.7453C18.172 74.5659 18.6206 74.4089 19.0468 74.2518C19.2711 74.4762 19.5179 74.678 19.7422 74.8799C21.4917 76.293 23.5554 77.2576 25.6863 77.908C27.1891 78.3791 28.7368 78.6931 30.307 78.8277C29.9705 79.1642 29.6565 79.523 29.3649 79.9044C28.0415 81.6764 27.4583 83.8746 27.3237 86.0503C27.234 87.3065 27.3013 88.585 27.4359 89.8411C27.4807 90.2 27.5704 90.4916 27.8845 90.7159C28.1536 90.9178 28.535 91.0299 28.8714 90.9178C30.778 90.2897 32.5276 89.1458 33.8286 87.5981C34.5464 86.7457 35.1296 85.8036 35.5333 84.7942C35.78 85.1307 36.0492 85.4672 36.3408 85.7588C37.3502 86.7681 38.6512 87.4635 40.0419 87.7551C40.8942 87.9345 41.7915 87.9794 42.6662 87.9121C43.2943 87.8448 43.7429 87.441 43.7878 86.7906C43.9672 83.9419 43.07 80.8016 41.0288 78.738C42.0382 78.6034 43.0476 78.4015 44.0345 78.1548C46.1879 77.5716 48.3636 76.6968 50.1805 75.3734C50.674 75.0145 51.2347 74.5883 51.7058 74.0724C53.6797 74.7678 55.4068 75.508 57.3134 76.6071C58.2107 77.123 59.0854 77.6837 59.9378 78.2894C60.0948 78.4015 60.2518 78.5361 60.4089 78.6482C60.4089 78.6482 60.5659 78.7604 60.6107 78.8053C60.7229 78.895 60.835 78.9847 60.9472 79.0969C61.3061 79.3885 61.665 79.7025 62.0014 80.0165C62.6519 80.6221 63.28 81.2726 63.8632 81.968C63.9977 82.125 64.1099 82.282 64.2445 82.439C64.2445 82.439 64.2445 82.439 64.2445 82.4614C64.2445 82.4614 64.2669 82.5063 64.2893 82.5287C64.3118 82.5512 64.3118 82.5736 64.3342 82.5736C64.3118 82.5512 64.3118 82.5512 64.3118 82.5287C64.3791 82.6185 64.4464 82.7082 64.5137 82.8203C64.7604 83.1568 65.0071 83.5157 65.2314 83.8746C65.6576 84.5475 66.0614 85.2653 66.3978 86.0055C66.4427 86.0728 66.5324 86.4092 66.5997 86.4765C66.5548 86.4317 66.5324 86.2971 66.5997 86.4317C66.5997 86.4541 66.6221 86.4765 66.6221 86.499C66.6221 86.5214 66.6446 86.5438 66.6446 86.5663C66.6894 86.656 66.7343 86.7681 66.7567 86.8578C66.8913 87.2167 67.0259 87.5981 67.138 87.9569C67.3848 88.7645 67.5642 89.5719 67.6988 90.4019C67.6988 90.4467 67.7212 90.4916 67.7212 90.5365C67.7212 90.6262 67.7437 90.6935 67.7437 90.7832C67.7661 91.0075 67.7885 91.2094 67.811 91.4337C67.811 91.4786 67.811 91.5234 67.811 91.5683C63.6164 91.6356 59.5116 91.6356 55.4068 91.6356Z" fill="#023059"/>
<path d="M27.5476 45.3611C28.9351 45.3611 30.0599 44.2364 30.0599 42.8489C30.0599 41.4614 28.9351 40.3367 27.5476 40.3367C26.1602 40.3367 25.0354 41.4614 25.0354 42.8489C25.0354 44.2364 26.1602 45.3611 27.5476 45.3611Z" fill="#023059"/>
<path d="M43.676 45.3611C45.0635 45.3611 46.1883 44.2364 46.1883 42.8489C46.1883 41.4614 45.0635 40.3367 43.676 40.3367C42.2886 40.3367 41.1638 41.4614 41.1638 42.8489C41.1638 44.2364 42.2886 45.3611 43.676 45.3611Z" fill="#023059"/>
<path d="M11.6003 41.1892C11.6003 41.2116 11.5779 41.2341 11.5779 41.2789C11.5779 41.2565 11.6003 41.2116 11.6003 41.1892Z" fill="#023059"/>
<path d="M14.6062 14.6537C14.6735 14.5639 14.7856 14.4518 14.6062 14.6537V14.6537Z" fill="#023059"/>
<path d="M45.1789 8.64227C44.9546 8.55255 45.1116 8.61984 45.1789 8.64227V8.64227Z" fill="#023059"/>
<path d="M22.7257 8.77686H22.7032C22.6808 8.77686 22.6584 8.79929 22.636 8.79929C22.636 8.79929 22.636 8.79929 22.6135 8.79929C22.5687 8.84415 22.5911 8.82172 22.7257 8.77686Z" fill="#023059"/>
<path d="M30.2396 6.75806C30.2172 6.75806 30.2172 6.75806 30.2172 6.75806C30.2172 6.75806 30.2172 6.75806 30.1948 6.75806C30.105 6.78049 29.948 6.80292 30.2396 6.75806Z" fill="#023059"/>
<path d="M17.5887 11.7153C17.5663 11.7153 17.5663 11.7377 17.5439 11.7377C17.5214 11.7601 17.499 11.7601 17.4766 11.7826C17.6784 11.6704 17.6336 11.6704 17.5887 11.7153Z" fill="#023059"/>
<path d="M48.9247 4.24597C48.9247 4.22354 48.9247 4.22354 48.9247 4.24597C48.9023 4.20111 48.8799 4.17868 48.8574 4.15625C48.8574 4.17868 48.9023 4.22354 48.9247 4.24597Z" fill="#023059"/>
<path d="M49.082 4.53754C49.082 4.51511 49.0596 4.51511 49.0596 4.49268C49.0596 4.49268 49.082 4.51511 49.082 4.53754Z" fill="#023059"/>
<path d="M45.874 3.39346C45.8515 3.41589 45.8515 3.41589 45.8291 3.41589C45.8291 3.41589 45.8291 3.41589 45.8291 3.43832C45.9637 3.37103 45.9413 3.3486 45.874 3.39346Z" fill="#023059"/>
<path d="M45.3351 4.15625C45.3127 4.17868 45.2903 4.22355 45.2903 4.24598C45.2903 4.24598 45.2903 4.24598 45.2903 4.26841C45.3576 4.15625 45.3576 4.13382 45.3351 4.15625Z" fill="#023059"/>
<path d="M20.8859 70.0574C20.8634 70.0798 20.841 70.1023 20.8186 70.1247C20.8186 70.1247 20.8186 70.1471 20.7961 70.1471C20.8859 70.0574 20.8859 70.035 20.8859 70.0574Z" fill="#023059"/>
<path d="M20.0112 71.9414C20.0112 71.9638 20.0112 71.9863 20.0337 72.0087C20.0337 72.0311 20.0337 72.0311 20.0561 72.0536C20.0561 72.0536 20.0561 72.076 20.0785 72.076C20.0337 72.0087 20.0112 71.9638 20.0112 71.9414Z" fill="#023059"/>
<path d="M21.3125 73.422C21.3349 73.422 21.3349 73.4445 21.3574 73.4669C21.3574 73.4669 21.3798 73.4669 21.3798 73.4893C21.2003 73.2874 21.2452 73.3547 21.3125 73.422Z" fill="#023059"/>
<path d="M20.2133 71.1116C20.2133 71.1116 20.2133 71.134 20.1909 71.134C20.1684 71.1564 20.1684 71.1789 20.146 71.2237V71.2461C20.2357 71.134 20.2357 71.0891 20.2133 71.1116Z" fill="#023059"/>
<path d="M20.2354 72.3901C20.2354 72.4126 20.2578 72.4126 20.2578 72.4126C20.2802 72.435 20.2802 72.435 20.3026 72.4574C20.3475 72.5247 20.3924 72.5472 20.2354 72.3901Z" fill="#023059"/>
<path d="M45.7839 67.0515C45.8512 67.0964 45.8737 67.1188 45.7839 67.0515V67.0515Z" fill="#023059"/>
<path d="M50.1356 72.4574C50.158 72.435 50.158 72.435 50.1804 72.4126L50.2028 72.3901C50.0458 72.5472 50.0907 72.5247 50.1356 72.4574Z" fill="#023059"/>
<path d="M50.3821 72.0762C50.4045 72.0537 50.4045 72.0537 50.4045 72.0313C50.4045 72.0089 50.4269 71.9865 50.4269 71.9865C50.4269 71.964 50.4269 71.9416 50.4269 71.9416C50.4269 71.9416 50.4269 71.9416 50.4269 71.9192V71.8967C50.4045 71.964 50.4045 72.0089 50.3821 72.0313C50.4045 72.0537 50.3821 72.0537 50.3821 72.0762Z" fill="#023059"/>
<path d="M50.2926 71.2461V71.2237C50.2926 71.2012 50.2702 71.1788 50.2702 71.1564C50.2702 71.134 50.2478 71.134 50.2478 71.1115C50.2254 71.0891 50.2254 71.1564 50.2926 71.2461Z" fill="#023059"/>
<path d="M41.4102 84.884C41.3878 84.8616 41.3878 84.884 41.4327 85.0186C41.4102 84.9738 41.4102 84.9289 41.4102 84.884Z" fill="#023059"/>
<path d="M61.7317 82.7306C61.5522 82.596 61.3728 82.4839 61.126 82.4839C60.9242 82.4839 60.6774 82.5736 60.5204 82.7306C60.3634 82.8876 60.2737 83.1119 60.2737 83.3362C60.2737 83.5381 60.341 83.7849 60.5204 83.9419C60.9242 84.2559 61.2831 84.6148 61.5971 85.0185C61.8438 85.3326 62.0457 85.6915 62.2251 86.0504C62.3149 86.2298 62.5392 86.3868 62.7186 86.4317C62.9205 86.4765 63.1897 86.4541 63.3691 86.342C63.5486 86.2298 63.7056 86.0504 63.7504 85.8485C63.7953 85.6242 63.7729 85.4223 63.6607 85.198C63.2345 84.2335 62.5616 83.3811 61.7317 82.7306Z" fill="#023059"/>
<path d="M30.2169 69.0703C30.6431 69.2946 31.1141 69.16 31.3609 68.7787C31.8319 68.0385 32.1011 67.1861 32.1235 66.3113C32.1459 65.8627 31.7198 65.459 31.2712 65.459C30.8001 65.4814 30.4412 65.8179 30.4188 66.3113C30.4188 66.4235 30.3964 66.5132 30.3964 66.6254C30.3515 66.8945 30.2842 67.1413 30.1945 67.388C30.1048 67.5675 30.015 67.7693 29.9029 67.9264C29.7907 68.1058 29.7683 68.375 29.8132 68.5768C29.8805 68.7563 30.0375 68.9806 30.2169 69.0703Z" fill="#023059"/>
<path d="M15.7939 20.0146C15.7939 20.0819 15.8388 20.1717 15.7939 20.0146V20.0146Z" fill="#023059"/>
<path d="M15.592 23.0204C15.9284 23.312 16.4668 23.3793 16.7808 23.0204C17.0724 22.7064 17.1397 22.1456 16.7808 21.8316C16.6686 21.7418 16.5789 21.6297 16.4668 21.54C16.4219 21.4951 16.3995 21.4502 16.3546 21.4054C16.3322 21.383 16.3098 21.3605 16.3098 21.3381C16.22 21.2259 16.1527 21.0914 16.0854 20.9568C16.063 20.8895 16.0406 20.8446 15.9957 20.7773C15.9957 20.7549 15.9733 20.71 15.9733 20.6876C15.9284 20.553 15.8836 20.4184 15.8611 20.2614C15.8387 20.1941 15.8387 20.1268 15.8163 20.0595C15.8163 20.0371 15.8163 19.9923 15.7939 19.9698C15.7939 19.9923 15.7939 19.9923 15.7939 20.0147C15.7714 19.8801 15.7714 19.7231 15.7714 19.5885C15.7714 19.5212 15.7714 19.4539 15.7939 19.3866C15.7939 19.3866 15.7939 19.3642 15.7939 19.3193V19.2969C15.8387 19.0726 15.8387 18.8483 15.7041 18.6464C15.592 18.467 15.4125 18.31 15.2107 18.2651C14.8069 18.1754 14.2461 18.3997 14.1788 18.8483C13.9321 20.3736 14.4032 21.9886 15.592 23.0204ZM16.0182 20.7998C16.0182 20.8222 16.0406 20.8895 16.0182 20.7998V20.7998Z" fill="#023059"/>
</svg>
