<svg width="110" height="110" viewBox="0 0 110 110" fill="none" xmlns="http://www.w3.org/2000/svg">
<g clip-path="url(#clip0_1_1907)">
<path d="M0.945312 13.1433V71.7308H5.03281V89.4433H11.9251C12.6064 95.5586 17.8116 100.343 24.1078 100.343C30.4041 100.343 35.6092 95.5586 36.2905 89.4433H69.1501C69.8314 95.5586 75.0366 100.343 81.3328 100.343C87.6291 100.343 92.8342 95.5586 93.5155 89.4433H107.22C108.711 89.4433 109.945 88.2085 109.945 86.7183V81.2683C109.945 80.305 109.349 79.5971 108.583 79.1128V60.2134L99.6095 36.9604C98.1937 33.2881 94.6491 30.8558 90.716 30.8558H64.9828V13.1433H0.945312ZM3.67031 15.8683H62.2578V69.0058C61.5074 69.0058 60.8953 69.6179 60.8953 70.3683C60.8953 71.1187 61.5074 71.7308 62.2578 71.7308V86.7183H36.2905C35.6092 80.603 30.4041 75.8183 24.1078 75.8183C17.8116 75.8183 12.6064 80.603 11.9251 86.7183H7.75781V71.7308C8.50825 71.7308 9.12031 71.1187 9.12031 70.3683C9.12031 69.6179 8.50825 69.0058 7.75781 69.0058H3.67031V15.8683ZM48.8297 31.3667L28.8127 50.6706L18.6578 40.2549L15.7306 43.1077L28.7222 56.4293L51.6665 34.31L48.8297 31.3667ZM64.9828 33.5808H84.0578V52.6558C84.0578 55.6522 86.5114 58.1058 89.5078 58.1058H91.4079C92.3233 58.1058 93.1695 58.5582 93.6751 59.3193L93.9732 59.7664C94.9844 61.2832 96.6875 62.1933 98.5078 62.1933H105.858V64.9183H103.133C100.136 64.9183 97.6828 67.3719 97.6828 70.3683V71.7308H97.9596C98.5823 74.0566 100.621 75.8183 103.133 75.8183H105.858V78.5433C105.107 78.5433 104.495 79.1554 104.495 79.9058C104.495 80.6562 105.107 81.2683 105.858 81.2683H107.22V86.7183H93.5155C92.8342 80.603 87.6291 75.8183 81.3328 75.8183C75.0366 75.8183 69.8314 80.603 69.1501 86.7183H64.9828V33.5808ZM86.7828 33.5808H90.716C93.5314 33.5808 96.0542 35.3105 97.0654 37.9397L105.373 59.4683H98.5078C97.5923 59.4683 96.7461 59.0159 96.2405 58.2548L95.9371 57.8078C94.9312 56.2909 93.2281 55.3808 91.4079 55.3808H89.5078C87.9856 55.3808 86.7828 54.178 86.7828 52.6558V33.5808ZM73.1578 37.6683C70.9171 37.6683 69.0703 39.5151 69.0703 41.7558V54.0183C69.0703 56.259 70.9171 58.1058 73.1578 58.1058H75.8828C78.1235 58.1058 79.9703 56.259 79.9703 54.0183V41.7558C79.9703 39.5151 78.1235 37.6683 75.8828 37.6683H73.1578ZM73.1578 40.3933H75.8828C76.6545 40.3933 77.2453 40.9841 77.2453 41.7558V54.0183C77.2453 54.79 76.6545 55.3808 75.8828 55.3808H73.1578C72.3861 55.3808 71.7953 54.79 71.7953 54.0183V41.7558C71.7953 40.9841 72.3861 40.3933 73.1578 40.3933ZM103.133 67.6433H105.858V73.0933H103.133C101.611 73.0933 100.408 71.8905 100.408 70.3683C100.408 68.8461 101.611 67.6433 103.133 67.6433ZM13.2078 69.0058C12.4574 69.0058 11.8453 69.6179 11.8453 70.3683C11.8453 71.1187 12.4574 71.7308 13.2078 71.7308C13.9583 71.7308 14.5703 71.1187 14.5703 70.3683C14.5703 69.6179 13.9583 69.0058 13.2078 69.0058ZM18.6578 69.0058C17.9074 69.0058 17.2953 69.6179 17.2953 70.3683C17.2953 71.1187 17.9074 71.7308 18.6578 71.7308C19.4083 71.7308 20.0203 71.1187 20.0203 70.3683C20.0203 69.6179 19.4083 69.0058 18.6578 69.0058ZM24.1078 69.0058C23.3574 69.0058 22.7453 69.6179 22.7453 70.3683C22.7453 71.1187 23.3574 71.7308 24.1078 71.7308C24.8582 71.7308 25.4703 71.1187 25.4703 70.3683C25.4703 69.6179 24.8582 69.0058 24.1078 69.0058ZM29.5578 69.0058C28.8074 69.0058 28.1953 69.6179 28.1953 70.3683C28.1953 71.1187 28.8074 71.7308 29.5578 71.7308C30.3083 71.7308 30.9203 71.1187 30.9203 70.3683C30.9203 69.6179 30.3083 69.0058 29.5578 69.0058ZM35.0078 69.0058C34.2574 69.0058 33.6453 69.6179 33.6453 70.3683C33.6453 71.1187 34.2574 71.7308 35.0078 71.7308C35.7583 71.7308 36.3703 71.1187 36.3703 70.3683C36.3703 69.6179 35.7583 69.0058 35.0078 69.0058ZM40.4578 69.0058C39.7074 69.0058 39.0953 69.6179 39.0953 70.3683C39.0953 71.1187 39.7074 71.7308 40.4578 71.7308C41.2082 71.7308 41.8203 71.1187 41.8203 70.3683C41.8203 69.6179 41.2082 69.0058 40.4578 69.0058ZM45.9078 69.0058C45.1574 69.0058 44.5453 69.6179 44.5453 70.3683C44.5453 71.1187 45.1574 71.7308 45.9078 71.7308C46.6582 71.7308 47.2703 71.1187 47.2703 70.3683C47.2703 69.6179 46.6582 69.0058 45.9078 69.0058ZM51.3578 69.0058C50.6074 69.0058 49.9953 69.6179 49.9953 70.3683C49.9953 71.1187 50.6074 71.7308 51.3578 71.7308C52.1082 71.7308 52.7203 71.1187 52.7203 70.3683C52.7203 69.6179 52.1082 69.0058 51.3578 69.0058ZM56.8078 69.0058C56.0574 69.0058 55.4453 69.6179 55.4453 70.3683C55.4453 71.1187 56.0574 71.7308 56.8078 71.7308C57.5583 71.7308 58.1703 71.1187 58.1703 70.3683C58.1703 69.6179 57.5583 69.0058 56.8078 69.0058ZM24.1078 78.5433C29.3928 78.5433 33.6453 82.7958 33.6453 88.0808C33.6453 93.3658 29.3928 97.6183 24.1078 97.6183C18.8228 97.6183 14.5703 93.3658 14.5703 88.0808C14.5703 82.7958 18.8228 78.5433 24.1078 78.5433ZM81.3328 78.5433C86.6178 78.5433 90.8703 82.7958 90.8703 88.0808C90.8703 93.3658 86.6178 97.6183 81.3328 97.6183C76.0478 97.6183 71.7953 93.3658 71.7953 88.0808C71.7953 82.7958 76.0478 78.5433 81.3328 78.5433ZM94.9578 78.5433C94.2074 78.5433 93.5953 79.1554 93.5953 79.9058C93.5953 80.6562 94.2074 81.2683 94.9578 81.2683C95.7083 81.2683 96.3203 80.6562 96.3203 79.9058C96.3203 79.1554 95.7083 78.5433 94.9578 78.5433ZM100.408 78.5433C99.6574 78.5433 99.0453 79.1554 99.0453 79.9058C99.0453 80.6562 99.6574 81.2683 100.408 81.2683C101.158 81.2683 101.77 80.6562 101.77 79.9058C101.77 79.1554 101.158 78.5433 100.408 78.5433ZM24.1078 83.9933C21.8671 83.9933 20.0203 85.8401 20.0203 88.0808C20.0203 90.3215 21.8671 92.1683 24.1078 92.1683C26.3485 92.1683 28.1953 90.3215 28.1953 88.0808C28.1953 85.8401 26.3485 83.9933 24.1078 83.9933ZM81.3328 83.9933C79.0921 83.9933 77.2453 85.8401 77.2453 88.0808C77.2453 90.3215 79.0921 92.1683 81.3328 92.1683C83.5735 92.1683 85.4203 90.3215 85.4203 88.0808C85.4203 85.8401 83.5735 83.9933 81.3328 83.9933ZM24.1078 86.7183C24.8742 86.7183 25.4703 87.3144 25.4703 88.0808C25.4703 88.8472 24.8742 89.4433 24.1078 89.4433C23.3414 89.4433 22.7453 88.8472 22.7453 88.0808C22.7453 87.3144 23.3414 86.7183 24.1078 86.7183ZM81.3328 86.7183C82.0992 86.7183 82.6953 87.3144 82.6953 88.0808C82.6953 88.8472 82.0992 89.4433 81.3328 89.4433C80.5664 89.4433 79.9703 88.8472 79.9703 88.0808C79.9703 87.3144 80.5664 86.7183 81.3328 86.7183Z" fill="#023059"/>
<path d="M51.5775 25.5175C49.2038 23.6251 46.1875 22.6936 43.1414 22.9122C40.0953 23.1308 37.2479 24.4831 35.1779 26.6943L33.446 28.4507L31.7141 26.6943C29.6442 24.4831 26.7971 23.1309 23.7512 22.9123C20.7053 22.6937 17.6891 23.6252 15.3156 25.5175C14.0203 26.6192 12.9662 27.9688 12.2174 29.4843C11.4685 30.9997 11.0405 32.6493 10.9595 34.3328C10.8784 36.0162 11.146 37.6983 11.7459 39.2767C12.3458 40.8551 13.2655 42.2969 14.4491 43.5143L31.4519 60.8008C31.7091 61.0655 32.018 61.2762 32.3602 61.4202C32.7023 61.5641 33.0705 61.6384 33.4426 61.6384C33.8147 61.6384 34.1829 61.5641 34.525 61.4202C34.8672 61.2762 35.1762 61.0655 35.4333 60.8008L52.4384 43.5143C53.6225 42.2979 54.5428 40.8569 55.1432 39.2791C55.7437 37.7013 56.0119 36.0197 55.9313 34.3366C55.8508 32.6536 55.4233 31.0042 54.6748 29.489C53.9263 27.9738 52.8725 26.6245 51.5775 25.523V25.5175Z" fill="#F35AAD"/>
</g>
<defs>
<clipPath id="clip0_1_1907">
<rect width="109" height="109" fill="white" transform="translate(0.945312 0.880859)"/>
</clipPath>
</defs>
</svg>
