<svg width="22" height="40" viewBox="0 0 22 40" fill="none" xmlns="http://www.w3.org/2000/svg">
<path fill-rule="evenodd" clip-rule="evenodd" d="M17.1895 20.0115L0.909496 36.9641C0.583179 37.262 0.41897 37.6262 0.41897 38.0578C0.41897 38.4893 0.582129 38.8683 0.909496 39.1946C1.05149 39.3397 1.22169 39.4541 1.40961 39.5309C1.59753 39.6076 1.79918 39.6451 2.00213 39.6409C2.43371 39.6409 2.79792 39.4925 3.09476 39.1946L20.9811 21.1262C21.1392 20.9872 21.265 20.8153 21.3497 20.6225C21.4344 20.4298 21.476 20.2209 21.4716 20.0104C21.4716 19.5651 21.3084 19.1936 20.9811 18.8957L3.09476 0.827243C2.95277 0.682181 2.78256 0.567741 2.59464 0.490981C2.40673 0.41422 2.20508 0.376766 2.00213 0.380928C1.57055 0.380928 1.20739 0.529349 0.909496 0.827243C0.583179 1.12409 0.41897 1.49672 0.41897 1.94303C0.41897 2.3883 0.582129 2.75988 0.909496 3.05777L17.1895 20.0115Z" fill="#023059"/>
</svg>
