<svg width="18" height="12" viewBox="0 0 18 12" fill="none" xmlns="http://www.w3.org/2000/svg">
<path fill-rule="evenodd" clip-rule="evenodd" d="M12.408 10.8666C12.6276 11.0863 12.9838 11.0863 13.2035 10.8666L17.6457 6.42438C17.7513 6.31885 17.8105 6.17575 17.8105 6.02658C17.8105 5.8774 17.7513 5.7343 17.6457 5.62885L13.2035 1.18654C12.9838 0.966873 12.6276 0.966873 12.408 1.18654C12.1883 1.40621 12.1883 1.76237 12.408 1.98204L15.8901 5.46408H0.748047C0.437387 5.46408 0.185547 5.71593 0.185547 6.02658C0.185547 6.33723 0.437387 6.58908 0.748047 6.58908H15.8901L12.408 10.0712C12.1883 10.2908 12.1883 10.647 12.408 10.8666Z" fill="#034C8C" stroke="#034C8C" stroke-width="0.5625"/>
</svg>
