<svg width="14" height="20" viewBox="0 0 14 20" fill="none" xmlns="http://www.w3.org/2000/svg">
<path d="M4.8182 19.0324H9.18154C10.3672 19.0309 11.5039 18.5592 12.3424 17.7208C13.1808 16.8824 13.6525 15.7457 13.654 14.5599V6.92245C13.6517 6.72066 13.5705 6.52779 13.4279 6.38502C13.2853 6.24225 13.0925 6.16088 12.8907 6.15828H10.8182V4.84995C10.8182 2.71161 9.09487 0.988281 6.99987 0.988281C4.90487 0.988281 3.18154 2.71245 3.18154 4.84995V6.15828H1.10904C0.907251 6.16088 0.714473 6.24225 0.571855 6.38502C0.429238 6.52779 0.348078 6.72066 0.345703 6.92245V14.5583C0.347026 15.7441 0.818633 16.881 1.65708 17.7197C2.49552 18.5583 3.63235 19.0301 4.8182 19.0316V19.0324ZM4.27237 4.82911C4.27237 3.30161 5.49487 2.05828 6.99987 2.05828C8.50487 2.05828 9.72737 3.30161 9.72737 4.82911V6.13745H4.27237V4.82911ZM1.43654 7.24995H3.18154V10.5658H4.2732V7.24995H9.72737V10.5666H10.8182V7.24995H12.5632V14.5591C12.5632 16.4141 11.0365 17.9416 9.18154 17.9416H4.8182C2.9632 17.9416 1.43654 16.4141 1.43654 14.5591V7.25078V7.24995Z" fill="#F579BD"/>
</svg>
