<svg width="210" height="118" viewBox="0 0 210 118" fill="none" xmlns="http://www.w3.org/2000/svg">
<g filter="url(#filter0_d_1_2730)">
<rect x="15.5" y="11.5" width="179" height="87" stroke="#023059" shape-rendering="crispEdges"/>
<rect x="15.5" y="11.5" width="179" height="87" stroke="#5CD3CB" shape-rendering="crispEdges"/>
<path d="M73.0246 51V40.0909H76.9131C77.7618 40.0909 78.4649 40.2454 79.0224 40.5543C79.58 40.8633 79.9972 41.2859 80.2742 41.8221C80.5512 42.3548 80.6897 42.9549 80.6897 43.6225C80.6897 44.2937 80.5494 44.8974 80.2689 45.4336C79.9919 45.9663 79.5729 46.3888 79.0118 46.7013C78.4542 47.0103 77.7529 47.1648 76.9077 47.1648H74.2337V45.7692H76.7586C77.2948 45.7692 77.7298 45.6768 78.0636 45.4922C78.3974 45.304 78.6425 45.0483 78.7987 44.7251C78.955 44.402 79.0331 44.0344 79.0331 43.6225C79.0331 43.2106 78.955 42.8448 78.7987 42.5252C78.6425 42.2056 78.3957 41.9553 78.0583 41.7741C77.7245 41.593 77.2842 41.5025 76.7373 41.5025H74.6705V51H73.0246ZM82.6193 51V40.0909H86.5078C87.353 40.0909 88.0543 40.2365 88.6118 40.5277C89.1729 40.8189 89.5919 41.2219 89.8689 41.7369C90.1459 42.2482 90.2844 42.8395 90.2844 43.5107C90.2844 44.1783 90.1441 44.766 89.8636 45.2738C89.5866 45.7781 89.1676 46.1705 88.6065 46.451C88.049 46.7315 87.3476 46.8718 86.5025 46.8718H83.5568V45.4549H86.3533C86.886 45.4549 87.3192 45.3786 87.653 45.2259C87.9904 45.0732 88.2372 44.8512 88.3934 44.56C88.5497 44.2688 88.6278 43.919 88.6278 43.5107C88.6278 43.0987 88.5479 42.7418 88.3881 42.44C88.2319 42.1381 87.9851 41.9073 87.6477 41.7475C87.3139 41.5842 86.8753 41.5025 86.332 41.5025H84.2652V51H82.6193ZM88.0046 46.0781L90.6999 51H88.8249L86.1829 46.0781H88.0046ZM92.2873 51V40.0909H99.1267V41.5078H93.9332V44.8317H98.7699V46.2433H93.9332V49.5831H99.1907V51H92.2873ZM102.279 40.0909L105.315 48.9759H105.438L108.474 40.0909H110.253L106.327 51H104.425L100.5 40.0909H102.279ZM113.474 40.0909V51H111.828V40.0909H113.474ZM115.871 51V40.0909H122.711V41.5078H117.517V44.8317H122.354V46.2433H117.517V49.5831H122.775V51H115.871ZM127.045 51L124.02 40.0909H125.751L127.876 48.5391H127.978L130.188 40.0909H131.903L134.114 48.5444H134.215L136.335 40.0909H138.072L135.041 51H133.384L131.088 42.8288H131.003L128.707 51H127.045ZM51.2916 58.0909V69H49.6457V58.0909H51.2916ZM62.4937 58.0909V69H60.9809L55.4358 60.9993H55.3346V69H53.6886V58.0909H55.2121L60.7625 66.1023H60.8637V58.0909H62.4937ZM68.0228 58.0909H69.8925L72.7422 63.0501H72.8594L75.7092 58.0909H77.5789L73.6212 64.7173V69H71.9805V64.7173L68.0228 58.0909ZM88.0525 63.5455C88.0525 64.7102 87.8395 65.7116 87.4133 66.5497C86.9872 67.3842 86.403 68.027 85.6608 68.478C84.9222 68.9254 84.0824 69.1491 83.1413 69.1491C82.1967 69.1491 81.3533 68.9254 80.6111 68.478C79.8725 68.027 79.2901 67.3825 78.864 66.5444C78.4378 65.7063 78.2248 64.7067 78.2248 63.5455C78.2248 62.3807 78.4378 61.381 78.864 60.5465C79.2901 59.7085 79.8725 59.0657 80.6111 58.6183C81.3533 58.1673 82.1967 57.9418 83.1413 57.9418C84.0824 57.9418 84.9222 58.1673 85.6608 58.6183C86.403 59.0657 86.9872 59.7085 87.4133 60.5465C87.8395 61.381 88.0525 62.3807 88.0525 63.5455ZM86.4226 63.5455C86.4226 62.6577 86.2787 61.9102 85.9911 61.3029C85.707 60.6921 85.3164 60.2305 84.8192 59.918C84.3256 59.6019 83.7663 59.4439 83.1413 59.4439C82.5128 59.4439 81.9517 59.6019 81.4581 59.918C80.9645 60.2305 80.5738 60.6921 80.2862 61.3029C80.0021 61.9102 79.8601 62.6577 79.8601 63.5455C79.8601 64.4332 80.0021 65.1825 80.2862 65.7933C80.5738 66.4006 80.9645 66.8622 81.4581 67.1783C81.9517 67.4908 82.5128 67.647 83.1413 67.647C83.7663 67.647 84.3256 67.4908 84.8192 67.1783C85.3164 66.8622 85.707 66.4006 85.9911 65.7933C86.2787 65.1825 86.4226 64.4332 86.4226 63.5455ZM97.1199 58.0909H98.7712V65.266C98.7712 66.0295 98.5919 66.706 98.2332 67.2955C97.8745 67.8814 97.3703 68.343 96.7204 68.6804C96.0705 69.0142 95.3088 69.1811 94.4353 69.1811C93.5652 69.1811 92.8053 69.0142 92.1554 68.6804C91.5056 68.343 91.0013 67.8814 90.6426 67.2955C90.284 66.706 90.1046 66.0295 90.1046 65.266V58.0909H91.7506V65.1328C91.7506 65.6264 91.8589 66.065 92.0755 66.4485C92.2957 66.832 92.6064 67.1339 93.0077 67.354C93.409 67.5707 93.8848 67.679 94.4353 67.679C94.9892 67.679 95.4669 67.5707 95.8681 67.354C96.273 67.1339 96.5819 66.832 96.795 66.4485C97.0116 66.065 97.1199 65.6264 97.1199 65.1328V58.0909ZM101.164 69V58.0909H105.053C105.898 58.0909 106.599 58.2365 107.157 58.5277C107.718 58.8189 108.137 59.2219 108.414 59.7369C108.691 60.2482 108.829 60.8395 108.829 61.5107C108.829 62.1783 108.689 62.766 108.409 63.2738C108.132 63.7781 107.713 64.1705 107.151 64.451C106.594 64.7315 105.893 64.8718 105.047 64.8718H102.102V63.4549H104.898C105.431 63.4549 105.864 63.3786 106.198 63.2259C106.535 63.0732 106.782 62.8512 106.938 62.56C107.095 62.2688 107.173 61.919 107.173 61.5107C107.173 61.0987 107.093 60.7418 106.933 60.44C106.777 60.1381 106.53 59.9073 106.193 59.7475C105.859 59.5842 105.42 59.5025 104.877 59.5025H102.81V69H101.164ZM106.55 64.0781L109.245 69H107.37L104.728 64.0781H106.55ZM120.752 60.9567C120.695 60.4524 120.461 60.0618 120.049 59.7848C119.637 59.5043 119.118 59.364 118.493 59.364C118.046 59.364 117.659 59.435 117.332 59.5771C117.005 59.7156 116.751 59.9073 116.57 60.1523C116.393 60.3938 116.304 60.669 116.304 60.978C116.304 61.2372 116.364 61.4609 116.485 61.6491C116.609 61.8374 116.771 61.9954 116.97 62.1232C117.172 62.2475 117.389 62.3523 117.62 62.4375C117.851 62.5192 118.072 62.5866 118.286 62.6399L119.351 62.9169C119.699 63.0021 120.056 63.1175 120.422 63.2631C120.787 63.4087 121.126 63.6005 121.439 63.8384C121.751 64.0763 122.004 64.3711 122.195 64.7227C122.391 65.0742 122.488 65.495 122.488 65.9851C122.488 66.603 122.329 67.1516 122.009 67.631C121.693 68.1104 121.233 68.4886 120.629 68.7656C120.029 69.0426 119.303 69.1811 118.451 69.1811C117.634 69.1811 116.927 69.0515 116.331 68.7923C115.734 68.533 115.267 68.1655 114.93 67.6896C114.592 67.2102 114.406 66.642 114.37 65.9851H116.022C116.054 66.3793 116.182 66.7077 116.405 66.9705C116.633 67.2298 116.922 67.4233 117.273 67.5511C117.629 67.6754 118.017 67.7376 118.44 67.7376C118.905 67.7376 119.319 67.6648 119.681 67.5192C120.047 67.37 120.335 67.1641 120.544 66.9013C120.754 66.6349 120.858 66.3242 120.858 65.9691C120.858 65.646 120.766 65.3814 120.581 65.1754C120.4 64.9695 120.153 64.799 119.841 64.6641C119.532 64.5291 119.182 64.4102 118.792 64.3072L117.503 63.9556C116.629 63.7177 115.936 63.3679 115.425 62.9062C114.917 62.4446 114.663 61.8338 114.663 61.0739C114.663 60.4453 114.834 59.8967 115.175 59.4279C115.516 58.9592 115.977 58.5952 116.56 58.3359C117.142 58.0732 117.799 57.9418 118.531 57.9418C119.269 57.9418 119.921 58.0714 120.485 58.3306C121.054 58.5898 121.501 58.9467 121.828 59.4013C122.155 59.8523 122.325 60.3707 122.339 60.9567H120.752ZM124.455 69V58.0909H128.344C129.192 58.0909 129.896 58.2454 130.453 58.5543C131.011 58.8633 131.428 59.2859 131.705 59.8221C131.982 60.3548 132.12 60.9549 132.12 61.6225C132.12 62.2937 131.98 62.8974 131.7 63.4336C131.423 63.9663 131.004 64.3888 130.442 64.7013C129.885 65.0103 129.184 65.1648 128.338 65.1648H125.664V63.7692H128.189C128.725 63.7692 129.16 63.6768 129.494 63.4922C129.828 63.304 130.073 63.0483 130.229 62.7251C130.386 62.402 130.464 62.0344 130.464 61.6225C130.464 61.2106 130.386 60.8448 130.229 60.5252C130.073 60.2056 129.826 59.9553 129.489 59.7741C129.155 59.593 128.715 59.5025 128.168 59.5025H126.101V69H124.455ZM133.814 69H132.067L135.993 58.0909H137.894L141.82 69H140.073L136.989 60.0724H136.904L133.814 69ZM134.107 64.728H139.775V66.1129H134.107V64.728ZM151.944 61.6385H150.282C150.218 61.2834 150.099 60.9709 149.925 60.701C149.751 60.4311 149.538 60.2021 149.286 60.0138C149.034 59.8256 148.751 59.6836 148.439 59.5877C148.13 59.4918 147.801 59.4439 147.453 59.4439C146.825 59.4439 146.262 59.6019 145.765 59.918C145.271 60.234 144.88 60.6974 144.593 61.3082C144.309 61.919 144.167 62.6648 144.167 63.5455C144.167 64.4332 144.309 65.1825 144.593 65.7933C144.88 66.4041 145.273 66.8658 145.77 67.1783C146.267 67.4908 146.826 67.647 147.448 67.647C147.792 67.647 148.119 67.6009 148.428 67.5085C148.741 67.4126 149.023 67.2724 149.275 67.0877C149.527 66.9031 149.74 66.6776 149.914 66.4112C150.092 66.1413 150.214 65.8324 150.282 65.4844L151.944 65.4897C151.855 66.0259 151.683 66.5195 151.427 66.9705C151.175 67.418 150.85 67.805 150.452 68.1317C150.058 68.4549 149.607 68.7053 149.099 68.8828C148.591 69.0604 148.037 69.1491 147.437 69.1491C146.493 69.1491 145.651 68.9254 144.912 68.478C144.174 68.027 143.591 67.3825 143.165 66.5444C142.743 65.7063 142.531 64.7067 142.531 63.5455C142.531 62.3807 142.744 61.381 143.171 60.5465C143.597 59.7085 144.179 59.0657 144.918 58.6183C145.656 58.1673 146.496 57.9418 147.437 57.9418C148.016 57.9418 148.556 58.0252 149.057 58.1921C149.561 58.3555 150.014 58.5969 150.415 58.9165C150.816 59.2326 151.148 59.6197 151.411 60.0778C151.674 60.5323 151.851 61.0526 151.944 61.6385ZM153.913 69V58.0909H160.753V59.5078H155.559V62.8317H160.396V64.2433H155.559V67.5831H160.817V69H153.913Z" fill="white"/>
<mask id="path-4-inside-1_1_2730" fill="white">
<path d="M145 11H195V99H145V11Z"/>
</mask>
<path d="M145 12H195V10H145V12ZM195 98H145V100H195V98Z" fill="#F35AAD" mask="url(#path-4-inside-1_1_2730)"/>
<mask id="path-6-inside-2_1_2730" fill="white">
<path d="M15 11H65V99H15V11Z"/>
</mask>
<path d="M15 12H65V10H15V12ZM65 98H15V100H65V98Z" fill="#F35AAD" mask="url(#path-6-inside-2_1_2730)"/>
<mask id="path-8-inside-3_1_2730" fill="white">
<path d="M15 81H195V99H15V81Z"/>
</mask>
<path d="M194 81V99H196V81H194ZM16 99V81H14V99H16Z" fill="#F35AAD" mask="url(#path-8-inside-3_1_2730)"/>
<mask id="path-10-inside-4_1_2730" fill="white">
<path d="M15 11H195V29H15V11Z"/>
</mask>
<path d="M194 11V29H196V11H194ZM16 29V11H14V29H16Z" fill="#F35AAD" mask="url(#path-10-inside-4_1_2730)"/>
</g>
<defs>
<filter id="filter0_d_1_2730" x="0" y="0" width="210" height="118" filterUnits="userSpaceOnUse" color-interpolation-filters="sRGB">
<feFlood flood-opacity="0" result="BackgroundImageFix"/>
<feColorMatrix in="SourceAlpha" type="matrix" values="0 0 0 0 0 0 0 0 0 0 0 0 0 0 0 0 0 0 127 0" result="hardAlpha"/>
<feOffset dy="4"/>
<feGaussianBlur stdDeviation="7.5"/>
<feComposite in2="hardAlpha" operator="out"/>
<feColorMatrix type="matrix" values="0 0 0 0 1 0 0 0 0 1 0 0 0 0 1 0 0 0 1 0"/>
<feBlend mode="normal" in2="BackgroundImageFix" result="effect1_dropShadow_1_2730"/>
<feBlend mode="normal" in="SourceGraphic" in2="effect1_dropShadow_1_2730" result="shape"/>
</filter>
</defs>
</svg>
