<svg width="17" height="16" viewBox="0 0 17 16" fill="none" xmlns="http://www.w3.org/2000/svg">
<g clip-path="url(#clip0_1_2560)">
<path d="M9.05306 0.500012C7.80666 0.498214 6.58254 0.830287 5.50765 1.46177C4.43277 2.09326 3.54631 3.00115 2.94028 4.09122C2.33425 5.18129 2.03072 6.41383 2.06119 7.66093C2.09167 8.908 2.45504 10.1242 3.11359 11.1833L1.06006 15.5L5.37229 13.444C6.29193 14.0165 7.33186 14.3675 8.41013 14.4691C9.48833 14.5708 10.5755 14.4205 11.5858 14.03C12.5961 13.6395 13.5019 13.0195 14.2321 12.2188C14.9621 11.4181 15.4965 10.4587 15.7929 9.4162C16.0894 8.3736 16.1399 7.2764 15.9405 6.21094C15.741 5.14551 15.2971 4.14099 14.6437 3.27655C13.9902 2.41211 13.1451 1.71136 12.1749 1.22954C11.2048 0.747714 10.1361 0.49798 9.05306 0.500012Z" stroke="#023059" stroke-linecap="round" stroke-linejoin="round"/>
<path d="M9.06006 10.5C8.92199 10.5 8.81006 10.3881 8.81006 10.25C8.81006 10.1119 8.92199 10 9.06006 10" stroke="#023059"/>
<path d="M9.06006 10.5C9.19813 10.5 9.31006 10.3881 9.31006 10.25C9.31006 10.1119 9.19813 10 9.06006 10" stroke="#023059"/>
<path d="M7.06006 6.5C7.06006 6.10444 7.17736 5.71776 7.39713 5.38886C7.61686 5.05996 7.92926 4.80362 8.29466 4.65224C8.66013 4.50087 9.06226 4.46126 9.45026 4.53843C9.83819 4.6156 10.1946 4.80608 10.4743 5.08579C10.754 5.36549 10.9445 5.72186 11.0217 6.10982C11.0988 6.49778 11.0592 6.89993 10.9078 7.2654C10.7565 7.6308 10.5001 7.9432 10.1712 8.16293C9.84233 8.38273 9.45559 8.5 9.06006 8.5" stroke="#023059" stroke-linecap="round" stroke-linejoin="round"/>
</g>
<defs>
<clipPath id="clip0_1_2560">
<rect width="16" height="16" fill="white" transform="translate(0.560059)"/>
</clipPath>
</defs>
</svg>
