<svg width="22" height="19" viewBox="0 0 22 19" fill="none" xmlns="http://www.w3.org/2000/svg">
<path d="M10.9994 1.35714C16.5936 1.35714 20.6238 4.94509 20.6238 8.82143C20.6238 10.3949 19.9578 11.8156 18.9052 13.0625C18.6817 13.3297 18.5442 13.6902 18.5872 14.0761C18.7204 15.2212 19.077 16.3027 19.6914 17.3121C19.7129 17.3502 19.7387 17.3884 19.7602 17.4223C19.2833 17.2993 18.8063 17.1254 18.3552 16.9346C17.6248 16.6208 16.9373 16.2263 16.2756 15.7725C15.9104 15.5223 15.4421 15.4545 15.021 15.5944C13.7062 16.0355 12.3743 16.2857 10.9994 16.2857C5.40516 16.2857 1.37492 12.6978 1.37492 8.82143C1.37492 4.94509 5.40516 1.35714 10.9994 1.35714ZM21.9987 8.82143C21.9987 3.95268 17.0791 0 10.9994 0C4.91964 0 0 3.95268 0 8.82143C0 13.6902 4.91964 17.6429 10.9994 17.6429C12.5461 17.6429 14.0285 17.3587 15.4593 16.8837C15.4679 16.8795 15.4807 16.8837 15.4893 16.8879C16.2155 17.3842 16.9803 17.8252 17.8052 18.1815C18.8364 18.6225 20.0781 19 21.3113 19C21.5905 19 21.8398 18.8346 21.9472 18.5844C22.0546 18.3342 21.9944 18.0415 21.8011 17.8464C21.4531 17.4987 21.148 17.0746 20.8687 16.6165C20.366 15.7853 20.0652 14.8946 19.9535 13.9404C19.9535 13.9404 19.9578 13.9362 19.9578 13.9319C21.1566 12.5154 21.9987 10.7978 21.9987 8.82143Z" fill="#666666"/>
</svg>
