<svg width="78" height="75" viewBox="0 0 78 75" fill="none" xmlns="http://www.w3.org/2000/svg">
<path d="M42.6468 0L43.1532 0.0503694L44.0143 0.251847L45.0273 0.604432L45.5338 0.957018L46.0403 1.51108L46.4455 2.06514L46.8507 2.56884L47.1545 3.02216L47.5091 3.52586L47.8636 4.23103L48.4208 5.13768L48.7753 5.69174L49.2818 6.59839L49.5351 7.20282L50.0922 8.10947L50.4468 8.66353L50.852 9.46944L51.1558 10.1746L51.4091 10.779L51.8143 11.6353L52.0675 12.2398L52.6247 13.3983L53.1818 14.6575L53.3844 15.2116L53.6883 15.6649L53.9416 16.1686L54.1948 17.0248L54.5494 17.73L54.9039 18.7374L55.1571 19.2915L55.5623 20.7018L55.8662 21.5077L56.1701 22.767L56.5753 24.681L56.7779 25.6884L57.1325 28.1061L57.2338 28.912L57.2844 29.4661V30.1713L57.4364 31.0275L57.5377 31.1786L57.8416 31.3298H58.2468L58.9558 31.5312L59.7662 31.8838L60.9312 32.2364L61.7922 32.5386L62.5013 32.8912L63.0078 33.3949L63.2104 33.7979L63.4636 34.8052L63.413 35.3089L63.1597 36.1148L63.1091 36.3163L63.9701 36.8704L65.0844 37.5252L65.7935 37.9785L66.6545 38.4318L67.0597 38.7341L67.8195 39.1874L68.4779 39.5903L69.1364 39.9429L69.6935 40.2955L70.3013 40.6985L70.7065 41.1014L71.0104 41.6051L71.213 42.411L71.1117 43.0658L70.9597 43.5191L70.5546 44.0228L69.9974 44.6273L69.4909 44.9295L68.6299 45.131L67.8701 44.9295L67.2117 44.5265L66.6545 44.1739L66.2494 43.8717L64.9831 43.1666L64.6286 42.9147L63.7169 42.5118L62.9571 42.1592L63.0078 42.5621V43.2673L62.7545 44.2747L62.4 44.7784L62.0455 45.0806L61.4883 45.2821L61.2857 45.3324H60.8805L60.1208 45.1813L59.6649 44.9799L59.9182 45.3828L60.374 46.3398L60.7286 47.5487L60.9312 48.405L61.5896 50.1175L61.7922 50.8731L61.9442 51.7293L62.4 53.593L62.6532 55.4567L62.8052 56.5144L63.0078 57.5218V57.7737L63.8688 57.9752L64.1221 57.9248L64.6286 57.5218L65.1857 57.1692L65.9961 56.9678H66.3507L67.1104 57.1692L67.6675 57.4715L68.0727 57.7737V57.8744L68.3766 57.824L68.8831 57.6729L69.2883 57.4211H69.4403V56.4137L69.339 55.7085V55.0537L69.6429 53.996L69.9468 53.5426L70.3013 53.1901L70.6558 52.7871L71.1623 52.4345L71.7195 52.233L72.226 52.1323L73.1377 52.3338L73.6948 52.636L74.2013 53.0893L74.5558 53.5426L74.961 54.4997L75.2649 55.5574L75.3156 56.2122L76.1766 56.4137L76.8351 56.6655L77.3416 57.0181L77.6961 57.4211L77.8987 57.8744L78 58.3277V58.7811L77.7974 59.5366L77.5442 59.9396L77.6455 60.3425L77.5948 60.7958L77.3922 61.4506L76.9364 62.0551L76.5312 62.3069L75.8221 62.5084H75.4675L74.6571 62.3069L74.6065 66.3868L74.5052 67.4446V68.4016L75.0117 68.5023L75.4675 68.8046L75.7714 69.1572L75.974 69.7112L76.0753 70.3156L75.9234 70.9201L75.6195 71.4741L75.4169 71.726L74.8597 72.0786L74.3026 72.2801L73.8468 72.3808H73.087L72.226 72.1793L71.6182 71.8771L70.7065 71.1719L70.352 70.769L69.9468 70.0638L69.6935 69.2075L69.5922 68.6535L69.4403 67.1927V64.6743L69.339 63.9187L69.2883 62.9617L69.1364 63.6165L68.9844 64.4224L68.9338 66.0846L68.7312 68.6031L68.5286 69.4594L68.174 70.1645L67.7182 70.6682L67.2117 70.9705L66.6545 71.1719L66.1987 71.2727H65.8948L65.6922 71.1719L65.6416 71.5749L65.439 71.9778L65.1351 72.3304L64.7299 72.5823L63.9701 72.7837L63.5649 72.7334L62.9065 72.5319L62.4507 72.2297L62.0961 71.6756L61.9442 71.0712L61.8429 70.6179L61.539 69.812L61.2351 69.0564L60.8805 67.8979L60.3234 65.7824L60.0195 64.9261L59.6649 64.1202L59.4117 63.7173L59.2091 63.818L58.7026 64.4728L58.3987 64.775H58.2974V65.2787L58.1455 66.2861V67.8475L58.0442 68.7038L57.7909 69.8623L57.487 70.6179L57.1325 71.2727L56.626 71.9275L56.2208 72.2297L55.6636 72.4815L55.2078 72.8845L54.7519 73.086L54.3468 73.1867H53.9416L53.3338 73.0356L52.7766 72.683L52.6247 72.4815V72.3808L51.9662 72.5823L51.4597 72.6326L51.0545 72.5823L50.2442 72.7837H49.839L49.2818 72.8341L48.7753 72.8845L47.9143 73.0356L46.5468 73.1363L45.8883 73.2371H45.4325L44.6221 73.3378L42.9 73.4385L42.1909 73.5393H41.8364L40.9753 73.6904L38.8481 73.9422L37.6831 74.1437L36.3156 74.4459L34.8974 74.6474L34.1883 74.6978L32.7195 74.8993L31.7065 75L31.4532 74.9496L31.1494 75H29.5286L28.8195 74.9496H28.2623L27.3 74.8489L24.8182 74.3452L23.6026 74.1437L22.7416 73.7911L22.1844 73.5393L21.4753 73.3378L21.0195 73.1867L20.4623 72.8341L19.9052 72.6326L19.3481 72.2297L18.1831 71.6756L17.5247 71.2727L16.9675 70.8697L16.2584 70.4668L15.6 69.9127L15.0429 69.4594L14.6883 69.0564L13.9792 68.3512L13.6247 67.9483L13.2195 67.5957L12.4597 66.7898L11.9532 66.0342L11.5987 65.6313L11.2442 65.0772L10.8896 64.6239L10.4844 63.7173L10.0286 62.9617L9.42078 62.0047L9.01558 60.9973L8.1039 58.2774L7.85065 57.4211L7.5974 56.3633L7.29351 54.8522V52.8878L7.24286 52.5856L7.29351 50.9234L7.54675 49.4124L7.85065 48.2035L8.05325 47.0954L8.30649 46.088L8.66104 45.4332L9.26883 44.3251L9.67403 43.5191L10.1299 42.9147L10.6364 42.1088L11.0922 41.5044L11.7506 40.9503L12.0039 40.6985L12.5104 40.3459L12.9156 40.0437L13.2701 39.7414L13.7766 39.54L14.739 39.3385H16.1571L16.613 39.3889L17.2714 39.4392L18.2844 39.6407L19.5 40.0437L20.4117 40.4466L21.374 41.1014L21.8805 41.454L22.4377 41.8066L23.1468 42.411L23.6532 42.8643L24.0078 43.2169L24.5143 43.8717L24.9195 44.3754L25.274 44.8791L25.8818 46.2391L26.1857 46.8939L26.4896 48.2539L26.5909 48.8583L26.6416 49.5635V50.722L26.4896 51.9308L26.1351 53.3915L25.6792 54.4997L25.1727 55.4567L24.5649 56.313L24.0078 56.9678L23.6532 57.3203L23.0455 57.7737L22.3364 58.1263L21.4753 58.4285L20.9688 58.5292L20.7662 58.4788L20.2597 58.5796L19.4494 58.3781L19.0948 58.1766L18.639 58.0255L17.8286 57.6226L17.0182 57.0181L16.5623 56.5648V56.4641L16.3597 56.3633L16.0052 55.91L15.5494 55.1545L15.2961 54.7515L14.6883 52.9886V53.4923L14.7896 54.8522V55.6582L14.8403 56.4641L15.2455 57.9248L15.6 59.1336L16.0052 60.1914L16.3091 60.7455L16.8156 61.501L17.1701 62.0047L17.6766 62.6091L17.9805 63.0625L18.3857 63.4654L18.7403 63.8684L19.1961 64.3721L19.5 64.7246L19.9052 65.0772L20.5636 65.5809L21.4753 66.0846L22.1844 66.5379L23.2481 67.0416L24.261 67.4446L24.6156 67.5957L26.439 68.2001L27.4013 68.4016L28.2117 68.6031L28.6675 68.7542H29.174L29.8325 68.9557L30.4909 68.9053L30.6935 68.9557L30.7948 68.9053L31.4532 68.9557L31.6558 69.006L31.2 68.049L31.0481 67.7468L30.7442 66.2861L30.1364 64.3217L29.5286 62.1054L29.174 60.6951L29.0221 59.7381L28.7688 58.4285L28.6169 57.3707L28.5156 55.91L28.4649 55.4567L28.5156 55.2552L28.6169 53.4419L28.9714 52.1323L29.326 51.1249L29.8325 50.4197L30.2883 49.916L30.8961 49.4627L31.3013 49.2612L32.1117 49.0598L32.7701 49.0094H33.2766L34.4922 49.3116L34.9481 49.5131L34.7455 48.405L34.4416 46.5917L34.1883 45.685L34.1377 45.5843L32.1117 45.2317L31.2 45.0302L30.2377 44.6273L29.7312 44.4258L27.6039 43.368L26.6922 42.8643L25.8818 42.411L25.0714 41.8569L24.1597 41.2021L23.2987 40.6481L22.7922 40.2451L22.539 39.9933V39.8925L22.3364 39.7918L21.6779 39.1874L20.9688 38.4822L20.5636 37.9785L20.2091 37.6259L19.8039 37.1222L19.2974 36.4171L18.8922 35.9134L18.2338 34.8052L17.8286 33.949L17.7779 33.6971L14.6883 33.6467L14.0299 33.5964L13.6247 33.6467L11.9532 33.7475L10.9403 33.7979L10.3831 33.8482L9.92727 33.8986L9.31948 33.9993H8.91429L8.76234 34.0497L7.85065 34.1504L7.24286 34.3015L6.38182 34.4023L5.16623 34.7045L3.14026 35.3593L2.17792 35.5608L1.62078 35.5104L1.01299 35.2586L0.557143 34.8556L0.202597 34.2512L0 33.4453V32.9919L0.253247 32.0349L0.75974 31.3298L1.21558 31.0275L1.62078 30.8764L2.38052 30.6246L2.93766 30.4231L3.5961 30.2216L4.15325 30.0201L4.81169 29.869L7.04026 29.315L8.86364 28.8113L10.8896 28.4587L11.3455 28.358L11.1935 28.2069L9.82597 27.7535L9.11688 27.4009L8.81299 27.1491L8.55974 26.7461L8.35714 26.0913L8.25584 25.638V25.1343L8.45844 24.3284L8.76234 23.8751L9.21818 23.4721L9.62338 23.2707L10.0792 23.1699H10.5857L11.4468 23.3714L12.3078 23.6736L13.8779 23.9758L14.3338 24.0766L15.3468 24.2277L16.4104 24.6306L17.474 24.9832L17.5247 24.4795L17.9299 22.5655L18.6896 19.9966L19.1455 18.7878L19.7026 17.176L19.9052 16.7226L20.3104 15.6649L21.0195 14.1538L21.6779 12.7938L22.1338 12.0383L22.539 11.1316L22.9442 10.6279L23.2987 10.0739L23.7039 9.3687L23.9065 9.06649L24.5649 8.21021L24.9195 7.80725L25.5273 7.25319L26.287 6.7495L27.0468 6.49765L27.3 6.44728H28.313L29.1234 6.69913L29.9338 7.20282L30.2883 7.55541L30.6935 8.21021L31.0481 9.01612L31.2507 9.82203L31.3519 10.7287L31.3013 11.6353L31.0987 13.1464L30.7442 15.6145L30.6935 16.5212L30.8455 17.9315L30.8961 18.5359L31.8584 18.3848H32.6182L32.8714 18.3345H33.4286L33.7831 18.2841H37.5312L39.2026 18.4352L40.6714 18.7374L41.8364 19.0396V18.5863L41.9377 18.3345L41.8364 17.8811V15.816L41.7857 15.5138L41.8364 15.0101L41.7857 14.456L41.4818 13.0457L41.2286 12.1894L40.9247 10.4768L40.6208 9.31833L40.3675 7.85762L40.013 6.19543L39.7597 5.08731L39.6078 3.87844V2.97179L39.7597 2.16588L40.013 1.51108L40.3675 1.00739L40.8234 0.554063L41.2286 0.302216L41.887 0.100739L42.6468 0ZM54.0935 39.9429L53.4857 40.7488L53.2325 41.0007V41.1014H53.1312L52.6753 41.6555L52.4727 41.9073L51.7636 42.4614L51.5104 42.7132V42.814L51.3078 42.9147L50.7507 43.2673L50.1935 43.6702L49.7883 44.0228L49.1299 44.4258L48.4208 44.8287L47.661 45.1813L46.3948 45.685L45.0273 46.0376L45.1286 46.3398L45.6857 47.4983L45.9896 48.002L47.0532 50.1175L47.2558 50.722L48.1675 52.8375L48.7753 54.3989L49.1299 55.5574L49.4338 56.4137L49.7883 57.5218L50.0416 58.3781L50.3961 59.3351L50.7507 60.6951L51.0039 61.2995L51.2571 62.2062L51.5104 62.7602L52.2701 62.861L53.1818 63.1632L53.0299 62.5084L52.9286 61.6017V60.7455L53.1818 59.8892L53.3338 59.587L53.2831 59.1336L53.1818 58.7307V58.3781L53.3844 57.6226L53.739 57.0685L54.0935 56.7663L54.4987 53.8952L54.5494 53.5426V51.3264L54.8532 50.0672L55.1571 49.2612L55.2584 49.0094V48.6568L55.3091 48.405L55.2078 47.9013L55.1571 47.2465L55.1065 47.045V46.6924L55.3091 45.8361L55.613 45.3324L55.8662 45.0806L56.1195 44.8791L56.3727 44.5769L56.8792 44.2747L57.7403 44.0732L58.1961 44.1236L58.652 44.2243L59.1584 44.5265L59.0571 44.3251L58.8039 44.1236L58.1455 43.2673L57.6896 42.7636L57.2844 42.4614L56.7779 42.0081L56.5247 41.8066L56.2714 41.5547L56.0182 41.2525L55.461 40.8496L54.9545 40.4466L54.1948 39.9429H54.0935Z" fill="#023059"/>
<path d="M42.6468 0L43.1532 0.0503694L44.0143 0.251847L45.0273 0.604432L45.5338 0.957018L46.0403 1.51108L46.4455 2.06514L46.8507 2.56884L47.1545 3.02216L47.5091 3.52586L47.8636 4.23103L48.4208 5.13768L48.7753 5.69174L49.2818 6.59839L49.5351 7.20282L50.0922 8.10947L50.4468 8.66353L50.852 9.46944L51.1558 10.1746L51.4091 10.779L51.8143 11.6353L52.0675 12.2398L52.6247 13.3983L53.1818 14.6575L53.3844 15.2116L53.6883 15.6649L53.9416 16.1686L54.1948 17.0248L54.5494 17.73L54.9039 18.7374L55.1571 19.2915L55.5623 20.7018L55.8662 21.5077L56.1701 22.767L56.5753 24.681L56.7779 25.6884L57.1325 28.1061L57.2338 28.912L57.2844 29.4661V30.1713L57.4364 31.0275L57.5377 31.1786L57.8416 31.3298H58.2468L58.9558 31.5312L59.7662 31.8838L60.9312 32.2364L61.7922 32.5386L62.5013 32.8912L63.0078 33.3949L63.2104 33.7979L63.4636 34.8052L63.413 35.3089L63.1597 36.1148L63.1091 36.3163L63.9701 36.8704L65.0844 37.5252L65.7935 37.9785L66.6545 38.4318L67.0597 38.7341L67.8195 39.1874L68.4779 39.5903L69.1364 39.9429L69.6935 40.2955L70.3013 40.6985L70.7065 41.1014L71.0104 41.6051L71.213 42.411L71.1117 43.0658L70.9597 43.5191L70.5546 44.0228L69.9974 44.6273L69.4909 44.9295L68.6299 45.131L67.8701 44.9295L67.2117 44.5265L66.6545 44.1739L66.2494 43.8717L64.9831 43.1666L64.6286 42.9147L63.7169 42.5118L62.9571 42.1592L63.0078 42.5621V43.2673L62.7545 44.2747L62.4 44.7784L62.0455 45.0806L61.4883 45.2821L61.2857 45.3324H60.8805L60.1208 45.1813L59.6649 44.9799L59.9182 45.3828L60.374 46.3398L60.7286 47.5487L60.9312 48.405L61.5896 50.1175L61.7922 50.8731L61.9442 51.7293L62.4 53.593L62.6532 55.4567L62.8052 56.5144L63.0078 57.5218V57.7737L63.8688 57.9752L64.1221 57.9248L64.6286 57.5218L65.1857 57.1692L65.9961 56.9678H66.3507L67.1104 57.1692L67.6675 57.4715L68.0727 57.7737V57.8744L68.3766 57.824L68.8831 57.6729L69.2883 57.4211H69.4403V56.4137L69.339 55.7085V55.0537L69.6429 53.996L69.9468 53.5426L70.3013 53.1901L70.6558 52.7871L71.1623 52.4345L71.7195 52.233L72.226 52.1323L73.1377 52.3338L73.6948 52.636L74.2013 53.0893L74.5558 53.5426L74.961 54.4997L75.2649 55.5574L75.3156 56.2122L76.1766 56.4137L76.8351 56.6655L77.3416 57.0181L77.6961 57.4211L77.8987 57.8744L78 58.3277V58.7811L77.7974 59.5366L77.5442 59.9396L77.6455 60.3425L77.5948 60.7958L77.3922 61.4506L76.9364 62.0551L76.5312 62.3069L75.8221 62.5084H75.4675L74.6571 62.3069L74.6065 66.3868L74.5052 67.4446V68.4016L75.0117 68.5023L75.4675 68.8046L75.7714 69.1572L75.974 69.7112L76.0753 70.3156L75.9234 70.9201L75.6195 71.4741L75.4169 71.726L74.8597 72.0786L74.3026 72.2801L73.8468 72.3808H73.087L72.226 72.1793L71.6182 71.8771L70.7065 71.1719L70.352 70.769L69.9468 70.0638L69.6935 69.2075L69.5922 68.6535L69.4403 67.1927V64.6743L69.339 63.9187L69.2883 62.9617L69.1364 63.6165L68.9844 64.4224L68.9338 66.0846L68.7312 68.6031L68.5286 69.4594L68.174 70.1645L67.7182 70.6682L67.2117 70.9705L66.6545 71.1719L66.1987 71.2727H65.8948L65.6922 71.1719L65.6416 71.5749L65.439 71.9778L65.1351 72.3304L64.7299 72.5823L63.9701 72.7837L63.5649 72.7334L62.9065 72.5319L62.4507 72.2297L62.0961 71.6756L61.9442 71.0712L61.8429 70.6179L61.539 69.812L61.2351 69.0564L60.8805 67.8979L60.3234 65.7824L60.0195 64.9261L59.6649 64.1202L59.4117 63.7173L59.2091 63.818L58.7026 64.4728L58.3987 64.775H58.2974V65.2787L58.1455 66.2861V67.8475L58.0442 68.7038L57.7909 69.8623L57.487 70.6179L57.1325 71.2727L56.626 71.9275L56.2208 72.2297L55.6636 72.4815L55.2078 72.8845L54.7519 73.086L54.3468 73.1867H53.9416L53.3338 73.0356L52.7766 72.683L52.6247 72.4815V72.3808L51.9662 72.5823L51.4597 72.6326L51.0545 72.5823L50.2442 72.7837H49.839L49.2818 72.8341L48.7753 72.8845L47.9143 73.0356L46.5468 73.1363L45.8883 73.2371H45.4325L44.6221 73.3378L42.9 73.4385L42.1909 73.5393H41.8364L40.9753 73.6904L38.8481 73.9422L37.6831 74.1437L36.3156 74.4459L34.8974 74.6474L34.1883 74.6978L32.7195 74.8993L31.7065 75L31.4532 74.9496L31.1494 75H29.5286L28.8195 74.9496H28.2623L27.3 74.8489L24.8182 74.3452L23.6026 74.1437L22.7416 73.7911L22.1844 73.5393L21.4753 73.3378L21.0195 73.1867L20.4623 72.8341L19.9052 72.6326L19.3481 72.2297L18.1831 71.6756L17.5247 71.2727L16.9675 70.8697L16.2584 70.4668L15.6 69.9127L15.0429 69.4594L14.6883 69.0564L13.9792 68.3512L13.6247 67.9483L13.2195 67.5957L12.4597 66.7898L11.9532 66.0342L11.5987 65.6313L11.2442 65.0772L10.8896 64.6239L10.4844 63.7173L10.0286 62.9617L9.42078 62.0047L9.01558 60.9973L8.1039 58.2774L7.85065 57.4211L7.5974 56.3633L7.29351 54.8522V52.8878L7.24286 52.5856L7.29351 50.9234L7.54675 49.4124L7.85065 48.2035L8.05325 47.0954L8.30649 46.088L8.66104 45.4332L9.26883 44.3251L9.67403 43.5191L10.1299 42.9147L10.6364 42.1088L11.0922 41.5044L11.7506 40.9503L12.0039 40.6985L12.5104 40.3459L12.9156 40.0437L13.2701 39.7414L13.7766 39.54L14.739 39.3385H16.1571L16.613 39.3889L17.2714 39.4392L18.2844 39.6407L19.5 40.0437L20.4117 40.4466L21.374 41.1014L21.8805 41.454L22.4377 41.8066L23.1468 42.411L23.6532 42.8643L24.0078 43.2169L24.5143 43.8717L24.9195 44.3754L25.274 44.8791L25.8818 46.2391L26.1857 46.8939L26.4896 48.2539L26.5909 48.8583L26.6416 49.5635V50.722L26.4896 51.9308L26.1351 53.3915L25.6792 54.4997L25.1727 55.4567L24.5649 56.313L24.0078 56.9678L23.6532 57.3203L23.0455 57.7737L22.3364 58.1263L21.4753 58.4285L20.9688 58.5292L20.7662 58.4788L20.2597 58.5796L19.4494 58.3781L19.0948 58.1766L18.639 58.0255L17.8286 57.6226L17.0182 57.0181L16.5623 56.5648V56.4641L16.3597 56.3633L16.0052 55.91L15.5494 55.1545L15.2961 54.7515L14.6883 52.9886V53.4923L14.7896 54.8522V55.6582L14.8403 56.4641L15.2455 57.9248L15.6 59.1336L16.0052 60.1914L16.3091 60.7455L16.8156 61.501L17.1701 62.0047L17.6766 62.6091L17.9805 63.0625L18.3857 63.4654L18.7403 63.8684L19.1961 64.3721L19.5 64.7246L19.9052 65.0772L20.5636 65.5809L21.4753 66.0846L22.1844 66.5379L23.2481 67.0416L24.261 67.4446L24.6156 67.5957L26.439 68.2001L27.4013 68.4016L28.2117 68.6031L28.6675 68.7542H29.174L29.8325 68.9557L30.4909 68.9053L30.6935 68.9557L30.7948 68.9053L31.4532 68.9557L31.6558 69.006L31.2 68.049L31.0481 67.7468L30.7442 66.2861L30.1364 64.3217L29.5286 62.1054L29.174 60.6951L29.0221 59.7381L28.7688 58.4285L28.6169 57.3707L28.5156 55.91L28.4649 55.4567L28.5156 55.2552L28.6169 53.4419L28.9714 52.1323L29.326 51.1249L29.8325 50.4197L30.2883 49.916L30.8961 49.4627L31.3013 49.2612L32.1117 49.0598L32.7701 49.0094H33.2766L34.4922 49.3116L34.9481 49.5131L34.7455 48.405L34.4416 46.5917L34.1883 45.685L34.1377 45.5843L32.1117 45.2317L31.2 45.0302L30.2377 44.6273L29.7312 44.4258L27.6039 43.368L26.6922 42.8643L25.8818 42.411L25.0714 41.8569L24.1597 41.2021L23.2987 40.6481L22.7922 40.2451L22.539 39.9933V39.8925L22.3364 39.7918L21.6779 39.1874L20.9688 38.4822L20.5636 37.9785L20.2091 37.6259L19.8039 37.1222L19.2974 36.4171L18.8922 35.9134L18.2338 34.8052L17.8286 33.949L17.7779 33.6971L14.6883 33.6467L14.0299 33.5964L13.6247 33.6467L11.9532 33.7475L10.9403 33.7979L10.3831 33.8482L9.92727 33.8986L9.31948 33.9993H8.91429L8.76234 34.0497L7.85065 34.1504L7.24286 34.3015L6.38182 34.4023L5.16623 34.7045L3.14026 35.3593L2.17792 35.5608L1.62078 35.5104L1.01299 35.2586L0.557143 34.8556L0.202597 34.2512L0 33.4453V32.9919L0.253247 32.0349L0.75974 31.3298L1.21558 31.0275L1.62078 30.8764L2.38052 30.6246L2.93766 30.4231L3.5961 30.2216L4.15325 30.0201L4.81169 29.869L7.04026 29.315L8.86364 28.8113L10.8896 28.4587L11.3455 28.358L11.1935 28.2069L9.82597 27.7535L9.11688 27.4009L8.81299 27.1491L8.55974 26.7461L8.35714 26.0913L8.25584 25.638V25.1343L8.45844 24.3284L8.76234 23.8751L9.21818 23.4721L9.62338 23.2707L10.0792 23.1699H10.5857L11.4468 23.3714L12.3078 23.6736L13.8779 23.9758L14.3338 24.0766L15.3468 24.2277L16.4104 24.6306L17.474 24.9832L17.5247 24.4795L17.9299 22.5655L18.6896 19.9966L19.1455 18.7878L19.7026 17.176L19.9052 16.7226L20.3104 15.6649L21.0195 14.1538L21.6779 12.7938L22.1338 12.0383L22.539 11.1316L22.9442 10.6279L23.2987 10.0739L23.7039 9.3687L23.9065 9.06649L24.5649 8.21021L24.9195 7.80725L25.5273 7.25319L26.287 6.7495L27.0468 6.49765L27.3 6.44728H28.313L29.1234 6.69913L29.9338 7.20282L30.2883 7.55541L30.6935 8.21021L31.0481 9.01612L31.2507 9.82203L31.3519 10.7287L31.3013 11.6353L31.0987 13.1464L30.7442 15.6145L30.6935 16.5212L30.8455 17.9315L30.8961 18.5359L31.8584 18.3848H32.6182L32.8714 18.3345H33.4286L33.7831 18.2841H37.5312L39.2026 18.4352L40.6714 18.7374L41.8364 19.0396V18.5863L41.9377 18.3345L41.8364 17.8811V15.816L41.7857 15.5138L41.8364 15.0101L41.7857 14.456L41.4818 13.0457L41.2286 12.1894L40.9247 10.4768L40.6208 9.31833L40.3675 7.85762L40.013 6.19543L39.7597 5.08731L39.6078 3.87844V2.97179L39.7597 2.16588L40.013 1.51108L40.3675 1.00739L40.8234 0.554063L41.2286 0.302216L41.887 0.100739L42.6468 0ZM42.5961 1.41034L41.9883 1.51108L41.5831 1.76293L41.2792 2.11551L41.0766 2.66958L41.026 2.92142V3.82807L41.1779 5.03694L41.5325 6.44728L41.8364 7.95836L41.9377 8.56279L42.1403 9.57018L42.3429 10.2754L42.5455 11.5346L42.7987 12.542L42.9506 12.9449L43.1026 14.0027L43.2039 14.3553L43.2545 15.1108L43.2039 15.6649L43.3052 16.2693L43.2545 16.8737L43.3052 17.2767L43.2545 17.8308L43.3052 17.9819V18.5359L43.2545 18.8381L43.3052 18.9893V20.047L43.2545 20.9033L41.4312 20.3492L40.5701 20.1477L40.0636 20.047L39.6078 19.8959L39 19.7952L38.0883 19.7448L37.4299 19.6944H37.2779L35.5052 19.6441L34.7961 19.6944H33.6818L32.1117 19.7952H31.6558L31.1494 19.9463H30.4403L30.1364 19.8959L29.7818 20.0974L29.7312 19.4426L29.4779 18.2337L29.326 17.176V15.413L29.4779 14.456L29.7312 12.7435L29.8831 11.585L29.9338 11.2827V10.6783L29.7312 9.57018L29.5286 9.01612L29.174 8.46206L28.7688 8.10947L28.313 7.85762L27.6545 7.80725L27.1481 7.90799L26.7429 8.10947L26.287 8.46206L25.7299 8.96575L25.3247 9.57018L24.9195 10.0739L24.6156 10.6783L23.9571 11.6353L23.7039 11.9375L23.2481 12.9449L22.7922 13.7005L22.3364 14.6575L21.7792 15.816L21.2727 17.0248L20.9688 17.8308L20.7662 18.3848L20.2091 19.9463L19.8545 20.9033L19.6013 21.8603L19.2974 22.8677L18.8922 24.681L18.7403 25.6884L18.639 26.7965V27.0987L17.9299 26.6958L16.5623 26.1417L14.739 25.5373L13.8779 25.3862L12.561 25.1343L11.5987 24.9328L10.9909 24.681L10.7377 24.6306H10.0286L9.82597 24.7314L9.67403 25.0839V25.638L9.82597 26.1417L9.97792 26.2928L10.5857 26.5447L11.5987 26.8469L12.1558 27.1491L12.6623 27.3002L14.2831 28.1061L14.8403 28.358L15.5494 28.7105L15.2961 28.8113L14.4857 28.9624L14.0299 29.1135L12.8649 29.315L11.9532 29.5668L11.2948 29.8187L10.7883 29.9194L10.3325 29.9698L9.57273 30.1209L8.86364 30.272L7.95195 30.4735L7.34416 30.7253L6.07792 30.9772L5.41948 31.1786L4.96364 31.3298L4.50779 31.3801L3.54545 31.7327L2.12727 32.186L1.77273 32.3371L1.51948 32.6394L1.41818 32.9919V33.4956L1.62078 33.8986L1.82338 34.1001H2.32987L3.14026 33.8986L4.35584 33.4956L5.57143 33.143L6.68571 32.9416L7.14156 32.8912L7.64805 32.7401H8.0026L8.81299 32.589H9.37013L9.67403 32.4882L10.5857 32.3875H11.2442L11.4974 32.3371H12.3584L13.0169 32.2364L13.1688 32.186L13.3714 32.2364L14.1818 32.186L14.9922 32.2364H16.5623L17.2714 32.2868L17.474 32.3371L18.4364 32.3875L18.6896 32.4379L19.0442 33.143L19.3481 33.8986L19.8039 34.7045L20.3104 35.4097L20.8169 36.0645L21.1714 36.5682L21.8805 37.3237L22.2857 37.8274L22.539 38.0792L22.7922 38.2807L23.2987 38.7844L23.7039 39.137L23.9571 39.3889L24.4636 39.7414L25.2234 40.2451L25.9325 40.7488L26.6922 41.2525L27.8065 41.8569L28.4143 42.2095L29.2247 42.6125L30.2377 43.0658L30.4403 43.2169L31.2507 43.5191L31.8078 43.7206L32.4156 43.8717L33.1247 43.9725L33.6818 44.1236L34.5935 44.2243L34.7961 44.1739H35.3026L35.6571 45.685L35.961 46.7931V47.2968L36.0623 47.5487L36.3156 49.0598L36.5688 50.9234L36.6701 52.4849V53.1397L36.2143 52.3338L35.8597 51.8805L35.3026 51.276L34.7455 50.9234L34.0364 50.6212L33.5805 50.5205L32.9727 50.3694L32.8208 50.4197L32.1117 50.4701L31.6052 50.6716L31.0987 51.1249L30.7442 51.5279L30.5416 51.9308L30.187 52.9886L30.0351 53.593L29.9338 55.2552V55.91L30.0351 57.1692L30.1364 58.0759L30.339 59.2344L30.6935 60.8966L30.8455 61.6017L31.2507 63.0121L31.6558 64.5232L32.061 65.7824L32.3143 66.7394V67.092L32.4156 67.3942L32.7701 67.9987L33.1247 68.9557L33.6312 70.1645L32.9727 70.2653L31.5039 70.366H29.7818L29.2247 70.2149L28.4143 70.1645L27.8065 69.9127L27.3507 69.8623L26.7935 69.6608H26.439L25.426 69.3083L25.2234 69.2579L24.9195 69.2075L24.413 68.9557H24.0584L23.4506 68.6031L22.6403 68.3009L21.8299 67.9483L21.2727 67.6461L20.4623 67.1424L19.6519 66.689L19.1455 66.2357L18.7403 65.8831L18.2338 65.4298L17.626 64.775L17.2714 64.3217L17.0182 64.0698L16.613 63.6165L16.3091 63.1632L16.0558 62.861L15.6 62.3069L15.3468 61.8032L14.8909 61.1484L14.3844 59.9396L13.9286 58.4285L13.726 57.824L13.5234 57.0181L13.3714 56.3633L13.3208 53.9456L13.2195 53.039V52.3841L13.3208 51.4775L13.6247 50.5205L13.8779 49.8657L14.1818 49.0598L14.5364 48.7072L14.739 48.405L15.0429 48.2035H15.4481L16.1571 48.3546L16.2078 48.405V48.9087L15.9545 50.1679L15.9039 51.8301L15.8532 52.0316L16.0558 52.6864L16.3597 53.5426L16.613 54.2982L16.8662 54.4997L17.2208 55.2048L17.474 55.4063L17.6766 55.6078L17.8286 55.8596L18.5377 56.4137L19.3481 56.8167L19.8545 56.9678L20.2597 57.1692L20.8675 57.0685H21.2221L22.1844 56.6655L22.9948 56.0107L23.5519 55.3559L24.1091 54.4493L24.5649 53.4923L24.9195 52.636L25.1221 51.5782L25.2234 50.319V49.7146L25.1727 48.9087L24.9195 47.5487L24.6662 46.9443L24.3623 46.3398L24.2104 45.9872L23.9571 45.4332L23.5013 44.8791L22.9948 44.2243L22.4377 43.6199L21.8805 43.1666L21.374 42.7636L20.9182 42.5118L20.1078 41.9577L19.8039 41.7562L19.6519 41.6051L19.0442 41.4036L18.639 41.2021L18.2844 41.1014L17.3221 40.8496L16.613 40.7992L15.9545 40.7488H14.6377L14.4857 40.8496L14.0299 40.8999L13.8273 41.1014L13.726 41.3029L13.1182 41.6051L12.8649 41.8569L12.3078 42.3606L12.0039 42.6125L11.4974 43.368L10.9909 44.1739L10.7883 44.4258L9.87662 46.2391L9.67403 46.4909L9.42078 47.3976L9.16753 48.7072L8.86364 49.916L8.71169 50.9234L8.66104 52.6864L8.71169 53.1901V54.8522L8.81299 55.0537L8.86364 55.5574L9.11688 56.6152L9.21818 56.9678L9.26883 57.4211L9.57273 58.1263L9.92727 59.3855L10.2818 60.3929L10.7377 61.4506L11.2442 62.2565L11.8013 63.2136L12.0039 63.5662L12.1052 63.9187L12.3584 64.221L12.6623 64.6239L12.8143 64.8758L13.1688 65.2787L13.5234 65.8328L13.8779 66.135L14.1818 66.5883L14.7896 67.1424L15.2455 67.6461L15.4481 67.6964L15.5494 67.9483L16.3091 68.7038L16.9169 69.1572L17.1195 69.3586L17.7779 69.7112L18.3857 70.1645L18.7403 70.3156L18.9429 70.5171L19.5506 70.769L20.1584 71.0712L20.7156 71.4238L21.526 71.8267L21.9818 72.0282L23.0455 72.3808L23.9065 72.7837L24.6662 72.8845L26.1351 73.1867L27.4013 73.4385L28.2117 73.5393H29.0221L29.5286 73.5897H31.2507L31.5039 73.5393L31.8078 73.5897L32.4156 73.4889H32.7195L32.8714 73.3882L33.3779 73.4385L33.8338 73.3378L34.1377 73.2874L34.8974 73.2371L35.4545 73.1363L35.5558 73.086H36.113L36.8727 72.8845L37.3792 72.7837L38.4429 72.5823L38.7974 72.5319L38.9494 72.4815H39.3039L40.5195 72.3304L41.1779 72.2801L41.6844 72.1289L42.1403 72.0786L42.3935 72.1289L42.6974 72.0282H43.4065L43.8623 71.9778L45.1286 71.8771L45.5338 71.8267L46.1922 71.7764L46.2935 71.726H47.0532L47.813 71.6253L48.7753 71.4741L49.0792 71.3734L49.2312 71.4238H49.5857L50.0416 71.3734H50.3961L50.5481 71.2727L50.852 71.2223H51.5104L51.6623 71.2727L51.9156 71.1216L52.5234 70.769L52.7766 70.6179L53.2831 69.6105L53.3338 68.7038L53.4857 67.7468L53.587 67.3942L53.739 67.3439L53.5364 67.9987L53.3844 69.0564V69.7112L53.587 70.5171L53.6883 70.7186L53.6377 70.9705L53.587 71.2727L53.6883 71.5749L53.8909 71.7764L54.2455 71.8267L54.5494 71.6253L54.6507 71.4741V71.2727L55.5117 71.0712L55.8156 70.7186L56.3727 69.8623L56.5753 69.4594L56.626 69.3083L56.7273 68.049V66.3868L56.7779 65.732L56.8792 65.3291L56.9805 64.3217L57.0312 64.0698L57.5377 63.6669L57.8922 63.3143L58.1455 62.9114L58.5507 62.5084L58.8039 62.1558L59.3104 61.9543L59.5636 61.904H59.9688L60.2221 62.1558L60.4247 62.7099L61.0325 63.7173L61.3364 64.5232L61.6909 65.5306L62.1468 67.2935L62.4507 68.3512L63.0078 69.7616L63.261 70.3156L63.3623 70.4668H63.5143L63.3117 70.8697L63.413 71.1719L63.5649 71.323L64.0208 71.3734L64.274 71.2223L64.3753 71.0712V70.769L64.1727 70.4668L64.274 70.2149L64.3247 70.1142V69.5601L63.9701 68.2505L63.7675 67.495L63.5649 66.4372L63.1091 64.8254L62.7545 63.3143L62.4507 62.2565L62.4 61.6017L63.3117 61.0981L63.6156 60.7455L63.7169 60.5944L64.0208 60.4432L64.1727 60.141V59.8388L64.0714 59.6373L63.3117 59.2344L62.8558 59.1336L61.9948 59.0833L61.8429 58.9322L61.7416 58.4788L61.6403 57.7233L61.3364 56.2122L61.1844 55.0034L60.9818 53.5426L60.4247 51.3264L60.374 50.8227L59.8169 49.3116L59.5636 48.6568L59.2597 47.3976L58.9558 46.5413L58.5507 45.7858L58.1455 45.4835L58.0442 45.4332H57.6896L57.2844 45.5843L56.8286 46.088L56.5753 46.2895L56.474 46.642V47.045L56.5247 47.4983L56.626 48.1531L56.6766 49.0094L56.3727 49.8657L56.1195 50.4701L55.9169 51.276L55.8662 53.8449L55.6636 55.2552L55.461 56.867L55.4104 57.824L55.461 57.9248L55.2584 57.824L54.9039 57.8744L54.6507 58.0759L54.5494 58.3277V58.7307L54.7013 59.0329L54.9545 59.1336L54.6507 59.8892L54.2961 60.7455V61.6521L54.3974 62.5588L54.6507 63.5662V64.0698L54.6 64.9261L54.3974 66.0846L54.1948 66.4372L53.7896 66.2357L53.587 65.7824L53.2831 65.2787L52.8779 64.5232L52.4221 64.3721L52.0169 64.1706L51.6117 64.1202L50.8013 64.3721L50.4468 64.5735L50.1935 63.2136L49.839 62.2062L49.687 61.6521L49.3831 60.8462L48.9779 59.3855L48.674 58.5796L48.2688 57.1692L48.0156 56.5144L47.8636 56.1619L47.661 55.3056L47.1545 53.996L46.952 53.4923L46.5468 52.5353L46.2935 51.9308L45.939 51.1753L45.6857 50.4197L45.0273 49.1605L44.6221 48.3546L44.4701 48.2035L44.1662 47.448L43.6597 46.4909L42.9 44.9799L44.1662 44.8287L44.4195 44.728L45.787 44.4762L46.4455 44.2243L47.2052 43.9221L47.5091 43.7206L48.0156 43.5191L48.2688 43.3177L48.8766 43.0154L49.3831 42.5621L50.0416 42.1088L50.4974 41.8066L50.8013 41.454L51.4597 40.9503L51.8649 40.497L52.574 39.6911L53.0299 39.137L53.4857 38.5326L53.6883 38.2304L53.8403 38.1296L54.6507 38.5829L55.1571 38.9355L56.0688 39.5903L56.5247 39.9429L57.0818 40.3459L57.2338 40.5977L57.487 40.6985L57.5883 40.9503L57.6896 41.051L57.9429 41.1518L58.3481 41.6051L58.652 41.7058V41.8066L58.9052 42.0584L59.4623 42.7132L59.8169 43.1666L60.2727 43.6702L60.6273 43.8717L60.8805 43.9221H61.2857L61.4883 43.6702L61.539 43.4688V42.4614L61.2857 42.0081L61.0325 41.7562L60.374 41.051L60.1208 40.5977L59.2597 39.7414L58.8039 39.1874L58.4494 38.8348L59.2091 39.0866L59.4117 39.1874L59.8675 39.2881L60.2221 39.4896L61.3364 39.8925L61.8429 40.094L62.6532 40.497L63.2104 40.6985L63.5143 40.8999L63.9701 41.051L65.5909 41.8569L65.9961 42.1088L67.4649 42.9651L67.8195 43.2673L68.174 43.4184L68.4779 43.6702L68.7312 43.7206L69.0857 43.5695L69.5922 43.0154L69.7948 42.6125V42.3103L69.5416 41.9073L69.1364 41.6051L68.1234 41.0007L67.313 40.5473L66.5532 40.0437L66.1481 39.8422L65.5909 39.4392L64.7805 39.0363L64.1221 38.5829L63.413 38.18L62.6532 37.6763L62.2987 37.4748L61.8429 37.223L61.539 37.0215L61.0831 36.82L60.2727 36.4171L59.4623 35.9637L58.4494 35.4097H58.3481V35.3089H58.8545L59.6649 35.4097L59.9182 35.5104L60.526 35.8126L61.0325 35.9134L61.387 35.9637L61.6909 35.8126L61.8935 35.5608L62.0455 35.0067L61.9442 34.4023L61.7416 34.1001L61.4377 33.8986L60.4247 33.546L60.0701 33.3949L59.361 33.2438L59.0571 33.0927L58.652 33.0423L58.3987 32.7905L58.0442 32.7401L57.8922 32.7905H57.487L56.9299 32.4379L56.7779 32.3875L56.5753 32.4882L56.0688 32.3875V31.7327L56.0182 31.1283L55.9675 30.6749L55.8662 30.272L55.8156 28.6602L55.613 27.4513L55.5623 27.3002L55.461 26.3936L55.2584 25.1847L55.0052 24.1269L54.7013 22.6662L54.4987 21.8603L54.2455 21.2559L54.1442 21.0544L54.0429 20.5507L53.7896 19.6441L53.587 19.3418L53.1818 18.133L52.8273 17.4278L52.574 16.5715L52.2195 15.9671L51.9156 15.5138L51.8143 15.0101L51.3584 14.1034L51.1558 13.5494L50.8013 12.9449L50.5481 12.2398L50.1429 11.4338L49.5351 9.97314L49.0792 9.16723L48.7247 8.56279L48.5221 8.31095L47.7623 6.7495L47.5091 6.39691L47.3571 6.04432L47.1039 5.74211L46.5468 4.73472L46.3442 4.43251L46.1416 4.02955L45.6351 3.32438L45.1792 2.77032L44.8247 2.31699L44.5208 1.91404L43.1532 1.46071L42.9506 1.41034H42.5961ZM54.0935 39.9429L53.4857 40.7488L53.2325 41.0007V41.1014H53.1312L52.6753 41.6555L52.4727 41.9073L51.7636 42.4614L51.5104 42.7132V42.814L51.3078 42.9147L50.7507 43.2673L50.1935 43.6702L49.7883 44.0228L49.1299 44.4258L48.4208 44.8287L47.661 45.1813L46.3948 45.685L45.0273 46.0376L45.1286 46.3398L45.6857 47.4983L45.9896 48.002L47.0532 50.1175L47.2558 50.722L48.1675 52.8375L48.7753 54.3989L49.1299 55.5574L49.4338 56.4137L49.7883 57.5218L50.0416 58.3781L50.3961 59.3351L50.7507 60.6951L51.0039 61.2995L51.2571 62.2062L51.5104 62.7602L52.2701 62.861L53.1818 63.1632L53.0299 62.5084L52.9286 61.6017V60.7455L53.1818 59.8892L53.3338 59.587L53.2831 59.1336L53.1818 58.7307V58.3781L53.3844 57.6226L53.739 57.0685L54.0935 56.7663L54.4987 53.8952L54.5494 53.5426V51.3264L54.8532 50.0672L55.1571 49.2612L55.2584 49.0094V48.6568L55.3091 48.405L55.2078 47.9013L55.1571 47.2465L55.1065 47.045V46.6924L55.3091 45.8361L55.613 45.3324L55.8662 45.0806L56.1195 44.8791L56.3727 44.5769L56.8792 44.2747L57.7403 44.0732L58.1961 44.1236L58.652 44.2243L59.1584 44.5265L59.0571 44.3251L58.8039 44.1236L58.1455 43.2673L57.6896 42.7636L57.2844 42.4614L56.7779 42.0081L56.5247 41.8066L56.2714 41.5547L56.0182 41.2525L55.461 40.8496L54.9545 40.4466L54.1948 39.9429H54.0935Z" fill="#023059"/>
<path d="M42.5961 1.4104H42.9507L44.2676 1.81336L44.5715 1.96446L44.926 2.41779L45.3819 3.02222L45.6857 3.37481L46.1416 4.02961L46.4961 4.68441L46.8 5.1881L47.2052 5.89328L47.4585 6.19549L47.6104 6.54808L47.9143 7.05177L48.5728 8.41174L48.9273 8.86507L49.1299 9.26802L49.6364 10.1747L50.1935 11.5346L50.5481 12.2398L50.852 13.0457L51.2572 13.7509L51.4598 14.305L51.865 15.1109L51.9663 15.6146L52.4728 16.3701L52.726 17.0249L52.9286 17.6797L53.2831 18.3849L53.587 19.3419L53.8403 19.7449L54.0935 20.7019L54.1948 21.1552L54.4481 21.7093L54.6507 22.3641L54.9039 23.6233L55.2078 24.9833L55.3598 25.6884L55.4611 26.3936L55.5624 27.3003L55.6637 27.7032L55.8156 28.6602L55.8663 30.2721L55.9676 30.7254L56.0182 31.1283L56.0689 31.7328V32.3876L56.5754 32.4883L56.8286 32.3876L57.4364 32.7402L57.487 32.7905H57.8922L58.2468 32.7402L58.5507 32.8913L58.652 33.0424L59.1585 33.1431L59.7156 33.3446L60.2221 33.4453L60.678 33.6468L61.539 33.949L61.8429 34.2009L61.9948 34.5535L62.0455 35.0068L61.8935 35.5608L61.6403 35.8631L61.387 35.9638L61.0325 35.9134L60.526 35.8127L59.9182 35.5105L59.665 35.4097L58.8546 35.309H58.3481V35.4097L58.6013 35.5105L59.665 36.0645L60.3741 36.4675L61.2351 36.9208L61.7416 37.1223L61.9948 37.3238L62.6026 37.626L63.1598 38.0289L64.2741 38.6837L65.0338 39.1874L65.8442 39.5904L66.3 39.943L66.8065 40.1948L67.313 40.5474L68.4273 41.1518L68.9338 41.5044L69.339 41.7563L69.6429 42.0081L69.7948 42.3103L69.7442 42.7637L69.4403 43.1666L69.0857 43.5696L68.7312 43.7207L68.3767 43.6199L68.0221 43.3177L67.6676 43.1666L67.3637 42.9148L65.8948 42.0585L65.3377 41.7059L64.1221 41.1518L63.7169 40.9504L63.3117 40.7993L63.1091 40.6481L62.552 40.4467L61.7416 40.0437L60.0702 39.4393L59.7663 39.2378L59.2598 39.1371L58.7533 38.9356L58.4494 38.8348L58.9559 39.3385L59.4117 39.8926L60.1208 40.5978L60.4247 41.1015L60.7793 41.4541L61.1338 41.9074L61.387 42.1592L61.539 42.4614V43.4688L61.387 43.8214L61.2857 43.9222H60.8806L60.4247 43.771L60.1208 43.5192L59.7663 43.1162L59.1078 42.3103L58.7533 41.857L58.652 41.8066V41.7059L58.3481 41.6052L57.8922 41.1015L57.639 41.0007L57.487 40.7993V40.6985L57.2338 40.5978L57.0819 40.3459L56.5247 39.943L56.0182 39.54L55.3091 39.0363L54.5494 38.5326L53.8403 38.1297L53.587 38.3312L53.2325 38.8852L52.6247 39.5904L52.2702 40.0437L51.9156 40.3963L51.5104 40.9L50.9026 41.4037L50.6494 41.6052L50.3961 41.9074L49.6364 42.3607L49.0286 42.9148L48.4208 43.2674L48.0663 43.4688L47.2559 43.8718L46.6481 44.1236L45.9896 44.4258L44.7741 44.6777L44.3182 44.7784L43.7611 44.8792L42.9 44.9799L43.4065 45.9369L43.6091 46.4406L44.0143 47.1458L44.3182 47.8006L44.5208 48.3043L44.7234 48.5058L44.9767 49.1102L45.5844 50.2183L45.787 50.6717L46.0403 51.4272L46.4961 52.3842L46.9013 53.3916L47.1039 53.7946L47.4585 54.8019L47.7117 55.5071L47.9143 56.313L48.1676 56.8671L48.7754 58.8819L49.0286 59.5367L49.4844 61.1485L49.7883 61.9544L49.9403 62.5588L50.1935 63.2136L50.4468 64.5736L51.0546 64.2714L51.6624 64.1203L52.1689 64.221L52.4728 64.4225L52.878 64.5232L53.2831 65.2788L53.587 65.7825L53.7896 66.2358L54.1948 66.4373L54.3974 66.0847L54.6 64.9262L54.6507 63.5662L54.3974 62.5588L54.2961 61.6522V60.7455L54.7013 59.7381L54.9546 59.1337L54.7013 59.033L54.5494 58.7308V58.3278L54.7013 58.0256L55.0052 57.8241H55.2585L55.4611 57.9248L55.4104 57.6226L55.5117 56.4138L55.7143 54.953L55.8663 53.8449L55.9169 51.2761L56.1702 50.3191L56.4741 49.6139L56.6767 49.0095L56.626 48.1532L56.5247 47.448L56.4741 46.6421L56.626 46.2391L57.0819 45.8362L57.3351 45.534L57.6896 45.4332H58.0442L58.5 45.7355L58.7026 46.088L59.0572 46.7932L59.3611 47.7502L59.6143 48.808L60.0702 50.0168L60.4247 51.0242L60.4754 51.5279L60.9818 53.5427L61.2857 55.6582L61.387 56.4641L61.6909 57.9752L61.7922 58.7811L61.9442 59.033L61.9948 59.0833L62.8559 59.1337L63.3117 59.2344L64.0715 59.6374L64.1728 59.8389L64.1221 60.2922L63.8689 60.5441L63.6663 60.6448L63.4637 60.947L63.2104 61.1485L62.4 61.6018L62.4507 62.2566L62.8052 63.5158L63.2611 65.3795L63.6156 66.6387L63.8689 67.898L64.1728 68.9557L64.3247 69.5602V70.1142L64.1728 70.3661L64.3754 70.769V71.0713L64.1728 71.3231L63.7169 71.3735L63.4637 71.2727L63.3117 70.9705L63.413 70.6179L63.5143 70.4668L63.3117 70.4165L63.1091 70.0135L62.552 68.6031L62.2481 67.6965L61.9442 66.4876L61.5896 65.178L61.3364 64.5232L61.0325 63.7173L60.3741 62.6092L60.1715 62.0551L59.9689 61.904H59.5637L58.9052 62.1055L58.652 62.3573L58.1961 62.861L58.0442 63.0121L57.8416 63.3647L57.3857 63.8181L57.0312 64.0699L56.9299 64.624L56.8793 65.3291L56.778 65.7321L56.7273 66.3869V68.0491L56.626 69.3083L56.4234 69.7617L56.0182 70.4165L55.613 70.9705L55.3598 71.1216L54.6507 71.2727L54.6 71.5749L54.3468 71.7764L54.0429 71.8268L53.739 71.6757L53.6377 71.5246L53.587 71.1216L53.6883 70.8698L53.6377 70.6179L53.4857 70.1646L53.3844 69.7113V69.0565L53.5364 67.9987L53.739 67.3439L53.587 67.3943L53.4351 67.9483L53.3338 68.7039L53.2831 69.6105L52.7767 70.6179L52.2195 70.9705L51.9156 71.1216L51.6624 71.2727L51.5104 71.2224H50.852L50.4468 71.3231L50.3455 71.3735H49.7377L49.5857 71.4238H49.2312L48.978 71.3735L48.5728 71.5246L47.813 71.6253L46.9013 71.7261H46.2935L45.8883 71.8268H45.3312L44.6728 71.9275L43.5585 71.9779L43.3052 72.0283H42.6974L42.3935 72.129L41.887 72.0786L41.3299 72.2297L41.178 72.2801L40.013 72.3809L39.3039 72.4816H38.8987L38.6455 72.5823L38.0883 72.6327L37.278 72.8342L36.7208 72.9349L36.0624 73.086H35.5559L35.0494 73.2371H34.5429L34.1377 73.2875L33.226 73.4386L32.8715 73.3882L32.7195 73.489H32.3143L31.8078 73.5897L31.4533 73.5394L31.1494 73.5897H29.2247L28.8702 73.5394H28.2117L27.4013 73.4386L25.9325 73.1364L24.6663 72.8845L23.9065 72.7838L22.7922 72.2801L21.678 71.9275L20.8676 71.4742L20.4624 71.2727L19.9052 70.9201L19.2468 70.6179L18.8416 70.4668L18.6896 70.2653L18.2338 70.0639L17.7273 69.6609L17.0182 69.3083L16.765 69.0565L16.1065 68.5024L15.5494 67.9483L15.4481 67.6965L15.1948 67.5958L14.6377 66.9913L14.0806 66.4876L13.7767 66.0343L13.4728 65.7825L13.0169 65.0773L12.713 64.7751L12.5611 64.4729L12.3585 64.221L12.0546 63.8181L11.9533 63.5158L11.4974 62.6596L11.1935 62.1559L10.6364 61.2492L10.0793 59.8389L9.826 59.0833L9.52211 57.9752L9.26886 57.4212L9.16756 56.7663L8.91432 55.8093L8.81302 55.2553L8.76237 55.0034L8.71172 54.8523V52.8879L8.66107 52.5857L8.71172 50.9235L8.91432 49.7146L9.21821 48.5058L9.47146 47.1962L9.67406 46.491L9.97795 46.0377L10.5351 44.9295L10.8896 44.2747L11.2948 43.7207L11.8013 42.9148L12.1559 42.4614L12.865 41.857L13.1182 41.6052L13.7767 41.2526L13.9286 41.0007L14.0299 40.9L14.4857 40.8496L14.6377 40.7489H16.2078L16.613 40.7993L17.3728 40.8496L18.2844 41.1015L18.639 41.2022L19.1455 41.4541L19.652 41.6052L20.0065 41.9074L20.5637 42.26L20.9689 42.5622L21.3741 42.7637L21.9312 43.217L22.6403 43.8214L23.0961 44.3251L23.5013 44.8792L24.0078 45.4836L24.2104 45.9873L24.3624 46.3399L24.7676 47.1962L24.9195 47.5488L25.1728 48.9087L25.2234 50.0168V50.5709L25.1221 51.5783L24.8689 52.7872L24.3624 53.9457L23.9065 54.8019L23.5013 55.4064L22.8935 56.1115L22.1844 56.6656L21.2221 57.0686H20.7156L20.2598 57.1693L19.6013 56.8671L19.1455 56.716L18.3857 56.313L17.7273 55.759L17.5754 55.4567L17.2715 55.2553L17.0182 54.8523L16.8156 54.4494L16.5624 54.1975L16.3598 53.5427L15.9039 52.2835L15.8533 51.9813L15.9039 51.8301L15.9546 50.168L16.2078 48.9087V48.405L16.1572 48.3547L15.4481 48.2036H15.0429L14.6883 48.4554L14.3844 48.8584L14.1818 49.0598L13.878 49.8657L13.6247 50.5205L13.3208 51.4776L13.2195 52.3842V53.039L13.3208 53.9457L13.3715 56.3634L13.5741 57.1693L13.878 58.3278L14.0299 58.7308L14.3338 59.8389L14.9416 61.2492L15.2455 61.6522L15.5494 62.1559L15.752 62.5085L16.0559 62.861L16.5117 63.4151L16.8156 63.8684L17.1702 64.2714L17.4234 64.5232L17.778 64.9262L18.5377 65.7321L19.0442 66.1854L19.6013 66.6387L20.0065 66.8906L20.8169 67.3439L20.9689 67.495L21.3741 67.6965L21.8299 67.9483L23.1468 68.5024L23.6026 68.7039L24.0585 68.9557H24.413L25.0208 69.2579H25.3754L25.9831 69.5098L26.5403 69.6609L26.9455 69.7113L27.5026 69.9128H27.8572L28.4143 70.1646L29.2247 70.215L29.8325 70.3661H31.6559L32.9728 70.2653L33.6312 70.1646L33.0234 68.7039L32.6689 67.7972L32.365 67.3439L32.3143 66.9913L32.2637 66.5884L32.0104 65.6314L31.4533 63.8181L31.0481 62.2566L30.7442 61.1989L30.6429 60.6952L30.2377 58.7308L29.9844 56.716L29.9338 55.9101V55.0538L30.0351 53.5931L30.339 52.485L30.6429 51.679L30.9974 51.2257L31.4533 50.7724L31.9091 50.5205L32.1117 50.4702L32.8208 50.4198L33.0741 50.3694L33.7325 50.5709L34.1377 50.6717L34.9481 51.0242L35.4546 51.4272L36.0117 52.0316L36.6195 53.039L36.6702 53.1398V52.485L36.5689 50.9235L36.3156 49.0598L36.0624 47.5488L35.9611 47.2969V46.7428L35.6065 45.4836L35.3026 44.174H34.7961L34.5429 44.2244L33.6819 44.1236L33.1247 43.9725L32.4156 43.8718L31.4533 43.6199L30.7442 43.3177L30.2883 43.1162L28.1611 42.0585L27.0468 41.4541L26.1351 40.9L25.5273 40.4467L24.3117 39.6408L23.7546 39.2378L23.4507 38.8852L23.0455 38.5326L22.7922 38.2808L22.4883 38.0289L22.2351 37.7771L21.678 37.1223L21.0702 36.4675L20.7663 36.0142L20.3104 35.4097L19.9052 34.8557L19.5 34.1505L19.1961 33.5461L18.8922 32.7905L18.6896 32.4379L17.8286 32.3372H17.3221L17.2715 32.2868L16.4611 32.2365H14.6883L13.7767 32.1861L13.2195 32.2365L13.1182 32.1861L13.0169 32.2365L12.3078 32.3372H11.4468L10.9403 32.3876L10.1299 32.4379L9.52211 32.5387L9.37016 32.589H8.81302L7.95198 32.7402L7.44549 32.7905L6.88834 32.9416L6.0273 33.0424L5.01432 33.2942L3.90003 33.6468L2.83639 33.9994L2.3299 34.1001H1.82341L1.51951 33.7475L1.41821 33.4957V32.992L1.57016 32.589L1.82341 32.2868L4.40652 31.4305L4.50782 31.3802L5.11562 31.2794L5.92601 31.0276L6.73639 30.8261L7.34419 30.7254L7.95198 30.4735L9.21821 30.1713L10.0793 30.0202L10.5857 29.9195L10.9403 29.8691L11.4468 29.7684L12.0546 29.5165L13.1182 29.2647L14.0299 29.1136L14.6883 28.9121L15.4481 28.761L15.5494 28.7106L14.8403 28.358L12.713 27.3506L12.4091 27.1995L11.9533 27.0484L11.4468 26.7966L10.4338 26.4944L9.87665 26.2425L9.72471 25.8899L9.67406 25.6381V25.084L9.826 24.7314L10.0286 24.6307H10.7377L11.2948 24.7818L11.5987 24.9329L12.5611 25.1344L14.1312 25.4366L14.739 25.5373L16.5624 26.1418L17.6767 26.5951L18.1831 26.8469L18.639 27.0988L18.6896 26.444L18.7909 25.3359L18.9429 24.4796L19.3481 22.6663L19.9559 20.6515L20.513 19.0901L20.9182 17.9316L21.7286 15.9168L22.2351 14.859L22.5896 14.1035L23.0455 13.2472L23.4 12.6428L23.7546 11.8369L24.1091 11.4339L24.6663 10.5776L25.0208 9.92282L25.4767 9.36876L25.8312 8.86507L26.439 8.31101L26.8948 8.00879L27.3 7.85768L27.9078 7.80731L28.4143 7.90805L28.9208 8.21027L29.326 8.66359L29.6806 9.36876L29.8325 10.0236L29.9338 10.6784V11.3332L29.8325 11.8369L29.7312 12.7435L29.478 14.4561L29.326 15.4131V17.176L29.5286 18.4352L29.7819 19.7449V20.0974L30.1364 19.896L30.6429 19.9463H31.2L31.6559 19.7952H32.213L33.7831 19.6945H35.1507L35.5559 19.6441L37.278 19.6945H37.4299L38.5948 19.7952H39.0507L39.7091 19.9463L40.0637 20.0471L40.8234 20.1982L42.0896 20.5508L43.2546 20.9033L43.3052 20.0471V18.9893L43.2546 18.7375L43.3052 18.536V17.9819L43.2546 17.6293L43.3052 17.0753L43.2546 16.622L43.3052 16.219L43.2039 15.5138L43.2546 15.1109L43.2039 14.3553L43.1026 14.0027L42.9507 12.945L42.6974 12.1894L42.5455 11.5346L42.3429 10.2754L42.0896 9.36876L41.9377 8.56285L41.8364 7.95842L41.4312 5.99401L41.2286 5.28884L41.0767 4.28146L41.026 3.82813V2.92148L41.178 2.31705L41.4818 1.86372L41.7857 1.61188L42.1403 1.46077L42.5961 1.4104ZM42.2922 1.96446L41.8364 2.16594L41.5831 2.51853L41.4818 2.87111L41.4312 3.62665L41.6338 5.1881L41.887 5.99401L42.1403 7.40436L42.4442 8.1599H42.3429L42.4948 9.21765L42.5961 9.4695L42.6974 9.87246L42.7987 10.3762L42.8494 10.9302L43.0013 11.2828L43.052 11.9376L43.4065 12.8946L43.6091 14.2546L43.7104 14.6072V15.5642L43.7611 15.8664V16.6723L43.7104 16.8738L43.7611 17.176L43.7104 17.7301L43.7611 17.9316V19.896L43.6598 20.9537L43.5078 21.407H43.1533L41.9377 21.0545L41.2793 20.853L40.9754 20.8026L40.1143 20.5508L40.013 20.6011L39.2026 20.3493L38.3922 20.2989L37.3286 20.1982H35.4039L35.0494 20.2485H34.9481L34.4416 20.1982L33.1247 20.2485L32.3143 20.2989L32.1624 20.3997L31.8585 20.2989L31.6052 20.3493L31.352 20.45H30.6935L30.6429 20.5004H30.3896L30.187 20.45L30.0857 20.5508L29.5793 20.6011L29.478 20.5508L29.3767 20.2989V19.8456L29.1741 18.9893L28.9715 17.7301L28.8702 16.9745V15.5642L29.0728 14.2546L29.1741 13.3479L29.2754 12.7939L29.3767 11.8872L29.478 11.3835L29.5286 10.7287L29.4273 10.5273V10.1747L29.3767 10.1243L29.2754 9.51987L28.9715 8.96581L28.6676 8.61322L28.1611 8.36137H27.4013L26.8948 8.61322L26.1857 9.21765L25.8818 9.57024L25.3754 10.2754L25.1728 10.6784L24.8182 11.1821L24.3624 11.8872L24.0585 12.2398L24.0078 12.4917L23.5013 13.4487L23.1974 13.9524L22.7922 14.7583L22.5896 15.2116L21.9312 16.5716L21.3741 18.0827L20.7663 19.7449L20.2598 21.2056L19.7026 23.1196L19.2974 24.9833L19.1455 25.9907V26.4944L19.0948 26.9477V27.3506L18.9429 27.5521V27.7536L18.6896 27.6528L18.2338 27.4514L17.4234 27.0484L16.4104 26.6455L15.2455 26.2425L14.6377 26.041L13.726 25.8899L12.5611 25.6381L11.7 25.487L10.9403 25.2351L10.5857 25.1344L10.1806 25.084L10.1299 25.1344V25.6884L10.3325 25.8899L11.0416 26.1418L11.852 26.3936L12.3078 26.6455L12.865 26.7966L12.9156 26.7462L13.0676 26.998L13.878 27.3506L14.739 27.7536L14.8909 27.8543L15.2455 27.9551L15.5494 28.1565L16.1572 28.4588L16.3091 28.6099L16.6637 28.761L16.765 29.0128L15.8026 29.2143L14.9416 29.4158L14.4857 29.5165L13.5234 29.7684L12.9156 29.8187L12.6624 29.9195L12.0546 30.0706L11.3961 30.3224L10.8896 30.4232L10.1806 30.5239L9.87665 30.6246L9.21821 30.675L9.01562 30.7757L8.35717 30.9269L8.20523 30.9772L7.90133 31.0276L7.64808 31.1787L7.34419 31.2794L6.38185 31.4305L5.41951 31.7328L4.91302 31.8839L4.45717 31.9342L3.69743 32.2365L2.88704 32.4883L2.3299 32.6898L1.97536 32.7905L1.82341 33.0927L1.87406 33.4957L1.97536 33.5964H2.27925L2.88704 33.4453L3.14029 33.2942L3.24159 33.3446L4.20393 32.992L5.52081 32.6394L5.57146 32.589L6.6351 32.3876L6.78704 32.3372L7.34419 32.2868L7.95198 32.1861L9.01562 32.035L9.16756 32.0854L9.47146 31.9846L10.0286 31.9342L10.4338 31.8839L11.1429 31.7831V31.8839L11.5481 31.8335H11.8013L11.852 31.7831H12.4091L12.9663 31.7328L13.2195 31.5817V31.6824H15.0429L15.4481 31.7328L15.8533 31.6824L17.1702 31.7328L17.3221 31.6824L17.4741 31.7831H17.8286L18.3351 31.8335L18.6896 31.8839H18.9935L19.1455 32.1357L19.2974 32.589L19.652 33.4957L20.1585 34.4023L20.513 34.906L20.9182 35.4097L21.2221 35.8127L21.4247 36.1149L21.8806 36.669L22.2351 37.0215L22.5896 37.4245L23.1974 38.0289L23.6026 38.3815L23.8559 38.6334L24.413 39.0867L24.9195 39.4393L25.5273 39.8422L26.439 40.497L27.4013 41.1015H27.5533V41.0007H27.6546L27.7052 41.2526L28.2624 41.5548L28.7689 41.8066L29.326 42.0585L29.5793 42.26H29.7312V42.1592H29.8325L29.8831 42.3607L30.5922 42.7133L30.8455 42.7637L31.4026 43.0659L32.5676 43.3681L33.0741 43.4688L33.4286 43.5192L33.9857 43.6199L34.7455 43.6703L35.2013 43.6199L35.5559 43.7207L35.7585 43.9725L35.8091 44.4258L36.0624 45.4332L36.2143 45.8866L36.3156 46.4406L36.3663 46.5414V47.0954L36.5182 47.2969V47.6999L36.6195 48.3547L36.6702 48.6569L36.7715 48.9591L36.7208 49.1102L36.8221 49.362L36.8728 50.1176L36.9741 50.6717L37.0754 51.9309L37.0247 52.1827L37.126 52.5353L37.1767 54.6005V55.1042L36.4169 53.5931L35.9611 52.7872L35.5559 52.2331L34.9481 51.6287L34.4416 51.3265L34.1883 51.2761L34.1377 51.3265L33.9351 51.125L33.5299 51.0746L33.0741 50.9235L32.6182 50.9739H32.213L31.6052 51.2761L31.2 51.679L30.9468 52.082L30.5922 53.1398L30.4403 53.6938V54.0464L30.3896 54.1975L30.339 55.7086L30.4403 57.0686L30.5922 58.1263L30.7948 59.3352L31.0481 60.5944L31.2 60.8966L31.1494 61.0981L31.4533 62.0551L31.5546 62.5085L31.6559 62.7603L31.7572 63.264L31.9598 64.0195L32.1117 64.4729L32.2637 64.9766L32.4156 65.4299L32.6182 66.0847L32.7195 66.4876L32.8208 66.6891V67.0417L32.9728 67.2432L33.0234 67.495L33.226 67.9987L33.378 68.452L33.6312 68.9557L33.8338 69.4594L34.1377 70.1646L34.1883 70.4165L34.0364 70.5676V70.6683L33.4793 70.7187L33.3273 70.769L31.7065 70.8698L31.6052 70.9201L31.2 70.8698H29.6299L29.478 70.8194L29.1741 70.769L29.1234 70.7187H28.6676L28.2117 70.6683L27.8572 70.4668H27.4013L26.7935 70.215L26.6416 70.1646L26.439 70.215L26.1351 70.0639L25.4767 69.8624L25.1728 69.7617L25.0208 69.812L24.413 69.5098H24.0585L23.2481 69.1068L22.0831 68.6031L21.3741 68.3009L21.0702 68.1498L21.0195 68.0491L20.7156 67.9987L20.4117 67.7469L20.2091 67.6965V67.5958L19.8039 67.3439L19.5 67.2432L19.3987 67.0921H19.2974L19.2468 66.941L18.6896 66.4876L17.9806 65.8832L17.4741 65.2788L17.2208 65.0269L16.7143 64.4729L16.4104 64.1203L16.2078 63.8684L16.0559 63.5662L15.8026 63.3144L15.4481 62.861L15.1948 62.6092L15.1442 62.3573L14.8403 61.8537L14.5364 61.4003L14.3338 61.0477L14.0806 60.3929L13.7767 59.4863L13.5741 58.7308L13.3715 58.1263L13.2195 57.8745V57.4715L12.9663 56.6656L12.9156 56.0612V54.399L12.8143 53.7442L12.7637 52.7872V52.0316L12.865 51.8301L12.9156 51.2257L13.2195 50.2183L13.5741 49.4124L13.8273 48.7576L14.4351 48.0524L14.8909 47.6495L15.752 47.6999L16.3598 47.9013L16.5624 48.1028L16.6637 48.405V48.9591L16.3598 50.3191V52.082L16.4611 52.5353L16.6637 53.039L16.8156 53.442L17.0689 54.0464L17.2715 54.1471L17.3728 54.5501L17.5247 54.6005L17.626 54.8523L18.0312 55.2553L18.1325 55.5071H18.3351L18.4364 55.7086L19.0948 56.1115L19.5 56.313L19.9052 56.3634L20.0065 56.4641H20.2598L20.3104 56.5649L20.4624 56.5145L20.7663 56.5649L20.9182 56.5145H21.2221L21.678 56.313L22.1844 56.0612L22.7922 55.5071L23.4 54.7516L23.7546 54.1471L24.2611 53.0894L24.5143 52.4346L24.7676 50.9235L24.8182 50.4702V49.765L24.7169 48.6569L24.4637 47.5488L23.6533 45.8362L23.1468 45.1814L22.6909 44.577L21.8299 43.7207L21.0195 43.1162L20.4117 42.7637L19.9052 42.4111L19.5507 42.2096H19.4494L19.3987 42.0585L19.0948 42.0081L18.6896 41.8066L18.4364 41.7059L18.1325 41.6052L17.7273 41.4541L16.8663 41.3533L16.6637 41.3029L16.5117 41.3533L16.2585 41.3029H14.6377L14.4857 41.4541L14.2325 41.4037L14.1818 41.6555L13.9286 41.7563L13.3208 42.1089L12.865 42.5622L12.4598 42.9148L12.1052 43.2674L11.5481 44.174L11.1935 44.6777L10.9403 45.1814V45.3829H10.839L10.1806 46.6421L9.97795 47.1458L9.77536 47.9013L9.62341 48.808L9.31951 50.0168L9.26886 50.168L9.31951 50.3694L9.11691 51.2761L9.16756 51.4776L9.11691 51.7798V52.2835L9.16756 53.0894L9.11691 53.4923L9.16756 53.7442L9.11691 54.0464V54.6005L9.21821 54.7012L9.31951 55.4567L9.42081 56.0612L10.1299 58.4789L10.4338 59.5367L10.9909 60.8966L11.2948 61.4507L12.3078 63.1633L12.4091 63.3647L12.4598 63.6166L12.9156 64.1203L13.2195 64.624L13.4728 64.8758L13.878 65.5306L14.2831 65.8832L14.4857 66.1854L15.1442 66.7899L15.4987 67.1928L15.8026 67.4447L16.1572 67.8476L16.4104 68.1498L16.9169 68.5528L17.2208 68.7543L17.5247 69.0061L18.0312 69.2579H18.1325L18.2338 69.4594L18.5377 69.6609L18.8922 69.812L19.2468 70.0639L20.2091 70.5172L20.665 70.769L20.8676 70.9201L21.2221 71.0713L21.8299 71.4238L22.539 71.6757L22.7922 71.7261L23.6026 72.0786L24.0585 72.2801L25.0208 72.4312L25.426 72.532L26.1351 72.6327L27.5533 72.9349L27.9078 72.9853L28.8195 73.0357H29.4273L29.7312 73.086H30.5922L31.0987 73.0357H32.1117L32.213 72.9853L32.6689 72.9349L32.9728 72.8342L33.3273 72.8845L33.6819 72.8342L33.7831 72.7838L34.4922 72.7334L34.7961 72.6831L34.9987 72.7334L35.5052 72.532H36.2143L36.9234 72.3305L37.2273 72.2801L38.139 72.0786L38.7974 71.9779H39.2026L39.2533 71.9275L39.8104 71.8268L40.7221 71.7764L40.9247 71.7261H41.2286L41.5831 71.6253L41.7351 71.5749H42.4442L42.5455 71.5246L43.2546 71.4742L44.1663 71.4238H44.5208L45.1286 71.3231L45.5338 71.2727L45.787 71.3231L46.2935 71.172H47.2052L47.4585 71.1216L47.9143 71.0713L48.3195 71.0209L48.4715 70.9705L48.9273 70.8698L49.1299 70.8194L49.3325 70.9201L49.6364 70.8698L50.3455 70.8194V70.6683H51.1559L51.4091 70.6179H51.6117L52.1182 70.4165L52.4728 70.1646L52.7767 69.6105L52.9286 69.3083L52.7767 69.2076L52.878 69.0061V68.5024L52.9286 68.2002L52.9793 67.8476L53.1312 67.4447L53.0806 66.8402L53.1819 66.7395V66.4373L53.0806 66.2358H53.2325V66.135H53.0806V65.7825L53.0299 65.6817H52.9286V65.581L52.8273 65.5306L52.726 65.2284L52.6247 65.0269L52.3208 64.9262L51.9663 64.6743H51.5104L50.9533 64.8758L50.5987 65.0773L50.2948 65.178L50.0416 64.6743L49.9403 64.3218L49.839 63.7677L49.6364 63.0121L49.2819 61.8033L49.0793 61.35L48.826 60.4937L48.7247 60.0907L48.4715 59.2848L48.0663 58.0256L47.4078 56.0612L47.2052 55.3056L47.0026 54.8523L46.8 54.2982L46.6481 53.8449L46.3948 53.2909L45.8883 52.082L45.5844 51.4272L45.3819 50.9739L45.2806 50.6717L44.7234 49.5132L44.4195 49.0095L44.1156 48.4554L43.913 48.0021L43.5078 47.1458L43.1026 46.4406L42.5455 45.2821L42.1909 44.577L42.1403 44.4258L43.6598 44.3755L44.1156 44.3251L44.3182 44.174H44.7234L45.8377 43.9222L46.3442 43.7207L46.6481 43.5696L47.0026 43.4185L47.4078 43.1666L47.813 43.0659L48.0156 42.8644L48.5221 42.6629L48.8767 42.4111L49.1299 42.1592L49.687 41.7059L50.1429 41.4541L50.6494 40.9504L51.2065 40.5474L51.7637 39.8422L52.0169 39.5904V39.4897L52.2195 39.3889L52.6247 38.8852L53.0806 38.2808L53.4351 37.7267L53.4857 37.626L53.9416 37.5756L54.6 37.9786L55.1572 38.3312L55.7143 38.7341L56.2208 39.0867L56.626 39.3889L57.1325 39.7919L57.487 40.0437L57.8922 40.5474L58.0948 40.5978L58.5 41.0511L58.5507 41.1518H58.7533L59.2091 41.7059L59.6143 42.1592L60.1715 42.8644L60.6273 43.3177L60.7286 43.3681H61.0325L61.1338 43.0155V42.6629L60.9312 42.3607L60.2221 41.6052L59.665 40.9L59.3104 40.4467L59.0572 40.1948L58.9559 40.0437H58.8546L58.7533 39.8422L58.2974 39.3385L57.7909 38.8348L57.3857 38.2304L57.2844 38.1297L57.2338 37.9282H57.6896L58.1455 38.18L58.6013 38.3312L59.4624 38.6334L60.0195 38.7845L60.4247 39.0363L61.4377 39.3889L61.5896 39.4393L61.7416 39.3385L61.8429 39.54L62.0961 39.6408L62.4 39.8422L63.0078 40.0941L63.413 40.2452L63.565 40.3963L63.8182 40.4467L64.2741 40.6481L65.7935 41.4037L66.0468 41.6052L66.5533 41.857L67.6676 42.5118L67.9208 42.4111L67.8702 42.6629L68.1234 42.814L68.5793 43.0659L68.7819 43.1666L69.187 42.7133L69.339 42.5118L69.2883 42.3607L68.9845 42.4614L69.0351 42.1089L68.6299 41.9074L67.9715 41.5044L67.2117 41.0511L66.6546 40.6985L66.4013 40.5474L65.9455 40.2956L65.6922 40.1445L65.5403 39.9933L64.7299 39.5904L64.1728 39.2378L63.6663 38.8852L63.1598 38.583L62.2481 38.0289L61.4377 37.5756L60.5767 37.1223L60.2221 36.9712L60.0195 36.8201H59.8169L59.6143 36.6186L59.0572 36.3164L57.6896 35.6112L56.9806 35.309L56.5247 35.1579V34.8557L56.9806 34.8053L57.3351 34.7549H57.8416L58.2468 34.7046V34.5535H58.3481L58.3987 34.7549L59.2091 34.8053L60.0195 34.9564L60.3234 35.1579L60.6273 35.309L60.8806 35.2586L61.2351 35.4601L61.4377 35.3594L61.5896 35.0068V34.6542L61.3364 34.4527L60.8299 34.2009H60.5767L60.0702 33.949H59.7663L59.4624 33.7979L58.8039 33.5964H58.3987L58.2974 33.5461L58.1961 33.2942H58.0948L58.0442 33.4957L57.8416 33.4453L57.7909 33.3446H57.1325V33.1935L56.8793 33.1431L56.778 33.0424L56.7273 33.1935L56.1195 32.992L55.5624 32.8913V32.4379L55.6637 32.1861L55.613 31.7328L55.5624 31.5313L55.613 31.2794L55.5117 30.675L55.4104 30.3728V29.2647L55.3598 28.9121L55.2585 27.804L55.1572 27.3003L55.0559 26.6455L54.9039 25.6381L54.8533 25.2351H54.752L54.7013 24.5803L54.6 24.3285L54.5494 23.9759L54.3468 23.2203L54.2961 22.8678L54.1948 22.6663V22.3641L54.0429 21.9107L53.9416 21.6589L53.739 21.2056L53.6883 20.853L53.5364 20.6515V20.2989L53.4857 20.2485L53.4351 19.896L53.1819 19.493L52.9286 18.6367L52.4221 17.6293L52.3208 17.176L51.865 16.2694L51.6624 16.0679L51.5104 15.6649L51.4598 15.3123L51.2572 14.9598L51.1052 14.5568L50.7 13.6502L50.3455 12.945L49.9403 11.988L49.7377 11.9376L49.687 11.585L49.3831 10.7791L49.1806 10.2754L48.8767 9.82209L48.826 9.57024L48.5728 9.31839L48.5221 9.11692L48.4715 9.01618H48.3702L48.2689 8.76433L47.8637 8.05916L47.6104 7.40436L47.1039 6.59845L46.9013 6.24586L46.4961 5.59106L45.939 4.63404L45.5844 4.07998L45.2299 3.57628L44.6728 2.92148L44.2169 2.31705L43.8117 2.21631L43.0013 1.96446H42.2922Z" fill="#FDFEFD"/>
<path d="M34.239 25.9905L34.4416 26.0912L34.9481 26.4438L35.404 26.8971L35.5559 27.4008L35.6066 28.0556V29.063L35.5559 30.0704L35.252 31.38L35.1001 31.7326L34.8468 32.5385L34.391 33.3948L34.0871 33.9488L33.7325 34.5029L33.226 35.1577L32.7195 35.6614L32.0611 36.1651L31.6053 36.5177L31.1494 36.8199L30.9468 37.0214H30.5923L30.339 37.1725L29.9845 37.2732L29.6299 37.3236L29.2247 37.2732L28.7689 37.3236L28.7182 37.1725L28.5156 37.2228L28.2624 37.0214L28.0092 37.0717L27.452 36.6688L26.8442 36.3666L26.1858 35.7118L25.8819 35.3088L25.5273 34.7548L25.1221 33.697L24.8689 32.5889L24.9195 31.4807L25.2234 30.6748L25.578 30.1711L26.1351 29.5667L26.3377 29.3149L26.9455 28.8615L27.3001 28.5593L28.0092 28.1564L28.6676 27.703L29.326 27.3001L30.2884 26.9475L31.8079 26.5445L32.2131 26.4942L33.2767 26.192L33.6312 26.1416L34.239 25.9905Z" fill="#FEFFFE"/>
<path d="M72.1247 53.5427L72.5805 53.5931L73.0363 53.8953L73.3402 54.2479L73.5935 54.802L73.8467 55.5575L73.8974 55.8093V56.2627L73.6948 57.5219L73.6441 57.6226L74.2013 57.5723H74.8597L75.6195 57.673L76.3286 57.9752L76.5818 58.2774V58.8315L76.3286 59.1841L75.9234 59.3856L75.2649 59.587L74.4039 59.6878L74.1 59.7885H73.6948L73.5935 59.8893L73.5428 60.8463L73.2896 62.4581L73.2389 63.0122L73.1883 66.538L73.1376 66.941V68.6032L73.2896 69.3083L73.4922 69.6106L73.5935 69.6609L74.2519 69.7113L74.5052 69.812L74.6571 70.0639V70.3661L74.4545 70.6683L74.2013 70.8698L73.8974 70.9705H72.9857L72.4792 70.7691L71.6688 70.1646L71.3649 69.7617L71.1117 69.2076L71.0104 68.8046L70.9091 67.6965L70.8584 67.3439L70.8078 64.4729L70.7571 64.1707L70.7065 62.6596L70.8078 61.4507V60.1411L70.4026 60.4433L70.1493 60.5441L69.2376 60.6448L68.9844 60.7959L68.6805 61.2492L68.4273 61.4507L67.9714 62.1559L67.8701 62.6596V63.0625L67.6675 64.3218L67.5662 64.7751L67.5156 66.538L67.4143 67.4447L67.313 68.7039L67.1104 69.258L66.7558 69.6609L66.2493 69.8624H65.8441L65.5402 69.6609L65.287 69.1572L65.135 68.6032V64.7751L65.1857 64.1203V63.3648L65.0844 61.8537L64.7805 61.0478L64.6792 60.5441V59.9396L64.8311 59.2345L65.2363 58.7811L65.8948 58.3782H66.4013L66.9078 58.63L67.161 58.8819L67.3636 59.3352L67.4143 59.8893L67.6169 59.7885L68.3766 59.2345L69.187 59.033L69.5415 58.9826L69.8961 58.6804L70.5039 58.5797L70.8078 58.4789L70.8584 57.3204L70.8078 56.0612L70.7571 55.759V55.0034L70.9091 54.5501L71.3143 54.1472L71.6688 53.7442L72.1247 53.5427Z" fill="#FEFFFE"/>
<path d="M40.5702 26.3936L41.026 26.4439L41.1273 26.7965L41.2793 26.7461L41.3806 26.595L41.8364 26.6454L41.9884 26.595L42.4948 26.8469L42.6468 26.998L42.7987 26.9476L43.5585 27.1995L44.065 27.3002L44.8754 27.6528L45.3312 27.9046L45.939 28.1565L46.5974 28.5594L46.9013 28.7609L47.3572 29.1135L48.4715 29.869L48.826 30.2216L49.2312 30.5742L49.5858 31.0779L49.7884 31.3801L50.0416 31.632L50.4974 32.6394L50.6494 33.2438L50.5987 33.8482L50.4468 34.4527L50.0922 35.3089L49.6364 35.9637L49.3325 36.3667L48.5221 36.7696L47.965 37.0215L47.3572 37.1726L46.9013 37.2733H46.5974L46.3442 37.223L46.0909 37.3237L45.8377 37.223L45.6351 37.1726L45.078 37.0215L44.5715 36.8704L44.065 36.5682L43.5585 36.2156L43.2039 36.0141L42.5455 35.3593L41.8364 34.5534L41.2793 33.6467L41.026 33.2942L40.7221 32.6897L40.4182 32.2868L40.2156 31.8334L39.8611 31.229L39.7091 30.6246V29.869L39.6078 29.6676L39.5572 29.315L39.4559 29.1639V28.5594L39.2026 28.6098L39.3039 28.3076L39.3546 27.8039V27.5017L39.4559 27.1491L39.8104 26.6958L40.1143 26.4943L40.5702 26.3936Z" fill="#FEFFFE"/>
<path d="M39.8611 53.7944H40.165L40.4689 53.9455L40.5702 54.147L40.5195 54.6003L40.2156 55.0033L39.7598 55.507L39.3546 56.0107L38.6455 57.0181L38.0377 57.9247L37.4299 58.9321L37.0754 59.4358L36.9234 59.738L36.9741 59.9899L37.4806 60.8461L37.987 61.5513L38.3416 62.1054L38.6455 62.7098L38.8987 63.3142L39.152 63.8179L39.4052 64.4727L39.8611 65.2283L40.013 65.5305L40.1143 64.8757L40.165 64.0698L40.4182 62.8609L40.6715 62.2061L40.9754 61.8032L41.3299 61.5009L41.7351 61.4002L42.1403 61.5513L42.3935 61.8535L42.4948 62.1557L42.5455 62.5083L42.8494 62.6594L42.9507 62.9113L43.2039 63.012L43.6091 63.4654L43.913 63.9187L44.2676 64.8253L44.3689 65.4298L44.3182 66.286L44.0143 67.3942L43.6091 68.049L43.2546 68.3512L42.4442 68.603H41.9377L41.3299 68.3512L40.9754 68.049L40.4689 67.2431L40.4182 67.1423H40.013L39.7598 67.0416L38.6961 65.6312L38.1896 64.7246L37.8351 64.1705L37.3793 63.2639L36.8221 62.6091L36.2143 61.9543L36.1637 62.3069L36.0117 64.5231L35.9611 65.5809V69.2075L35.8091 69.4593L35.4039 69.5097L35.1507 69.4089L35.0494 69.3082L34.8974 68.8045L34.6948 68.1497L34.5429 67.1927L34.5935 65.732L34.6442 65.3794L34.5935 64.775V64.2713L34.4922 63.3142L34.3909 62.0046L34.3403 61.9039V60.6447L34.239 58.8817V57.421L34.1377 56.6655V55.8092L34.3403 55.3055L34.6948 54.9026L35.1507 54.7515L35.5052 54.8018L36.0117 55.104L36.265 55.4063L36.5182 56.0107L36.5689 56.3633L36.5182 57.421L36.3663 57.9751L36.8221 57.3203L37.3286 56.6655L37.7844 56.0611L38.3922 55.3559L38.7468 54.9529L39.0507 54.55L39.4559 54.0463L39.8611 53.7944Z" fill="#FEFFFE"/>
<path d="M45.5844 58.2271L46.0402 58.2774L46.4454 58.63L46.6986 59.1337L46.9012 59.8892L46.8506 60.544L46.7999 60.947L47.0025 60.8966L47.7623 60.9974L48.2181 61.1988L48.4714 61.4003L48.522 61.5514V61.904L48.3194 62.2062L47.9142 62.4077L47.7116 62.4581H48.0662L48.2688 62.7099L48.3194 62.9618L48.1675 63.3144L47.8129 63.4655L47.4584 63.3647L47.3064 63.2136L47.2558 62.8107L47.3571 62.5588L46.6986 62.6092L46.5973 63.8181L46.4961 64.8758L46.4454 67.1424V68.5528L46.5973 69.0061L47.0532 69.1068L47.3064 69.3083L47.3571 69.6609L47.0532 70.0135L46.5973 70.1646L46.0909 70.1142L45.6857 69.9127L45.1792 69.4594L44.9259 68.9557L44.8246 68.5024L44.7233 67.5454V65.7321L44.6727 65.4802L44.622 64.3217L44.6727 63.7677V62.9618L44.4701 63.0625L44.0649 63.0121L43.8116 62.7603L43.761 62.3573L43.9129 61.9544L44.2168 61.7025L44.3688 61.6522H44.7233V60.2922L44.6727 59.8892V59.2848L44.8753 58.8315L45.3818 58.3278L45.5844 58.2271Z" fill="#FEFFFE"/>
<path d="M57.9934 52.082H58.0947L58.348 53.1902L58.5506 54.5501V55.1042L58.8038 55.759V56.5649L59.1077 57.6227L59.209 58.2271L59.4116 58.9323L59.361 59.1337H59.2597L59.0571 58.63L58.3986 58.4789L57.8415 58.1264L57.4363 57.8241L57.4869 57.119L57.4363 56.7664L57.4869 56.6656L57.5882 54.7516L57.6895 54.2983L57.7908 53.039L57.9428 52.1828L57.9934 52.082Z" fill="#023059"/>
<path d="M42.1909 63.6165H42.2922L42.4441 64.0194L42.8493 64.7246L43.0012 65.1275L43.0519 65.7823L42.9506 66.3868L42.748 66.7394L42.4948 66.8401L42.1402 66.5379L41.9376 66.0846L41.887 65.7823V65.2786L41.9883 64.4727L42.1402 64.0194L42.1909 63.6165Z" fill="#023059"/>
<path d="M75.4168 59.8892H75.7713L76.0752 60.0403L76.2272 60.2921V60.6447L75.9739 61.0477L75.8726 61.098H75.3661L75.0622 60.8965L74.9609 60.5943L75.0116 60.1914L75.2648 59.9395L75.4168 59.8892Z" fill="#FEFFFE"/>
<path d="M39.9118 68.2505L40.2663 68.3009L40.5196 68.6031V69.0564L40.3676 69.3082L40.165 69.409L39.7598 69.3586L39.5066 69.0564V68.6534L39.6585 68.4016L39.9118 68.2505Z" fill="#FEFFFE"/>
<path d="M53.6376 66.689L53.8908 66.7393L53.8402 66.9408L53.5869 66.8904L53.6376 66.689Z" fill="#023059"/>
</svg>
