<svg width="22" height="20" viewBox="0 0 22 20" fill="none" xmlns="http://www.w3.org/2000/svg">
<path d="M9.28125 5.50087C8.70977 5.50087 8.25 5.0411 8.25 4.46962V4.12587V3.43837V1.37587L1.375 7.56337L8.25 13.7509V11.6884V11.0009V10.6571C8.25 10.0856 8.70977 9.62587 9.28125 9.62587H9.625H13.75C16.7879 9.62587 19.25 12.088 19.25 15.1259C19.25 15.4825 19.2199 15.8177 19.1641 16.1227C19.9418 15.113 20.625 13.6692 20.625 11.6884C20.625 8.27235 17.8535 5.50087 14.4375 5.50087H9.625H9.28125ZM9.625 11.6884V12.3759V13.7509C9.625 14.2923 9.30703 14.7864 8.80859 15.0056C8.31016 15.2247 7.73438 15.1345 7.33047 14.7735L0.455469 8.58602C0.167578 8.32391 0 7.95438 0 7.56337C0 7.17235 0.163282 6.80282 0.455469 6.54071L7.33047 0.353209C7.73438 -0.0120249 8.31445 -0.102259 8.80859 0.121178C9.30273 0.344616 9.625 0.834459 9.625 1.37587V2.75087V3.43837V4.12587H11H14.4375C18.6141 4.12587 22 7.5118 22 11.6884C22 16.5567 18.498 18.7309 17.6945 19.1692C17.5871 19.2294 17.4668 19.2509 17.3465 19.2509C16.8781 19.2509 16.5 18.8684 16.5 18.4044C16.5 18.0821 16.6848 17.7856 16.9211 17.5665C17.325 17.1841 17.875 16.4321 17.875 15.1259C17.875 12.8485 16.0273 11.0009 13.75 11.0009H11H9.625V11.6884Z" fill="#666666"/>
</svg>
