<svg width="26" height="17" viewBox="0 0 26 17" fill="none" xmlns="http://www.w3.org/2000/svg">
<path d="M16.0408 8.47792C16.0408 10.0255 15.7171 11.4039 15.0698 12.613C14.4225 13.822 13.4998 14.767 12.3019 15.4478C11.104 16.1286 9.73123 16.469 8.18361 16.469C7.07498 16.469 6.01471 16.2532 5.00281 15.8217C3.9909 15.3901 3.12037 14.8098 2.3912 14.0806C1.66203 13.3514 1.08168 12.4809 0.650129 11.469C0.218581 10.4571 0.00280762 9.39682 0.00280762 8.28819C0.00280762 7.17956 0.218581 6.11929 0.650129 5.10739C1.08168 4.09548 1.66203 3.22495 2.3912 2.49578C3.12037 1.76661 3.9909 1.18626 5.00281 0.754709C6.01471 0.323162 7.07498 0.107388 8.18361 0.107388C10.3116 0.107388 12.1382 0.821673 13.6635 2.25025L11.4425 4.38194C10.572 3.54117 9.48569 3.12078 8.18361 3.12078C7.26843 3.12078 6.42208 3.35144 5.64455 3.81275C4.86702 4.27405 4.25132 4.90091 3.79745 5.69333C3.34358 6.48574 3.11665 7.35069 3.11665 8.28819C3.11665 9.22569 3.34358 10.0906 3.79745 10.8831C4.25132 11.6755 4.86702 12.3023 5.64455 12.7636C6.42208 13.2249 7.26843 13.4556 8.18361 13.4556C8.80117 13.4556 9.36851 13.37 9.88562 13.1989C10.4027 13.0278 10.8287 12.8139 11.1635 12.5572C11.4983 12.3005 11.7904 12.0084 12.0396 11.681C12.2889 11.3537 12.4712 11.0449 12.5865 10.7547C12.7018 10.4645 12.7818 10.1892 12.8265 9.92882H8.18361V7.11632H15.9068C15.9961 7.58507 16.0408 8.03893 16.0408 8.47792ZM25.7171 7.11632V9.46007H23.3845V11.7927H21.0408V9.46007H18.7082V7.11632H21.0408V4.78373H23.3845V7.11632H25.7171Z" fill="#023059"/>
</svg>
