<svg width="85" height="89" viewBox="0 0 85 89" fill="none" xmlns="http://www.w3.org/2000/svg">
<path d="M55.8384 0.638916H57.0574L57.2918 0.784784L59.0734 0.833406L59.3078 0.979274H59.6828L59.8704 1.07652V1.17376H59.9641L60.2923 1.70861L60.5736 2.09759L60.7612 2.38933L61.1362 2.87555L61.4175 3.31315L61.7457 3.848L61.8864 4.04249L62.027 4.48009L62.4021 5.25805L62.7772 6.08464L62.9647 6.42499L63.1991 6.57086L63.2929 7.00846L63.7617 7.93229L64.2306 9.09923L64.6994 10.0231L64.8869 10.2662L65.0276 10.7038L65.262 11.0441L65.4026 11.4817L65.8715 12.6487L65.9652 13.0377L66.2466 13.767L66.5747 14.4963L66.7154 15.0312L66.8092 15.2743L66.9498 15.7119L67.4655 16.8302L67.4186 17.0733L67.5593 17.3164L67.9344 18.1916L68.075 18.5806L68.1219 18.921L68.2157 19.2613L68.497 19.6989L68.8251 20.3797L68.9189 20.9631L69.0127 21.2062L69.1065 21.7411L69.4346 22.4218L69.6222 22.9566L69.7159 23.4915L69.9972 24.2208L70.1379 24.4639L70.1848 24.8529L70.2317 25.485L70.3254 25.5823L70.4192 26.4088L70.7005 26.9437L70.7943 27.6244L70.888 27.7216L70.9349 28.0134L70.7943 28.2079H70.888L70.9349 28.4024L70.9818 29.2289L71.0756 29.3262L71.1693 30.4445L71.2631 30.6876L71.1225 30.9307L71.2631 30.9794L71.31 31.1738V31.6114L71.3569 31.9518L71.4506 32.0004L71.4975 32.2922L71.3569 32.438L71.4506 32.6811L71.4975 32.827L71.5444 34.7719L71.5913 35.015L71.5444 35.0636V35.404L71.6382 35.4526L71.6851 35.5985V36.182L71.6382 36.8141L71.5444 36.9113V37.9324L71.6851 38.1269L71.6382 38.5158L71.5444 38.5645V38.7103L71.6851 38.8076V39.2938L71.4975 39.3424L71.5444 39.4883L71.6851 39.5855V40.2663L71.5444 40.3635V40.4607L71.8726 40.558L71.9195 40.6552H72.1539L72.2945 40.5094L72.6227 40.558L73.0447 40.8497L73.3729 41.1415V41.2387H73.8886L74.2168 41.0928L74.6387 41.3359L74.92 41.6277L75.342 41.6763L75.8108 41.9194V42.0167L76.139 42.1139L76.2796 42.2112L76.7954 42.2598L77.1704 42.4543L78.3425 42.9891L78.6238 43.135L78.8582 43.3781L78.9989 43.5726V44.1561L79.1395 44.2047L79.1864 44.545L79.0458 44.6423L78.952 44.934L78.7645 45.323L78.4832 45.4202L78.3425 45.5661H77.9675L77.6393 45.4689L77.0767 45.323L76.6078 45.1285L76.4203 44.9826V44.8854L76.1859 44.7882L75.9046 44.6423L75.4357 44.545L75.1544 44.4478L74.2168 44.3992L74.0292 44.2533L73.8417 44.2047L73.9823 44.3505L74.9669 44.934L75.6233 45.2744L75.9983 45.5661L76.6078 45.9551L77.0767 46.2954L77.6861 46.6358L77.8737 46.7817V46.8789L78.3894 46.9762L78.8582 47.4138L79.5615 47.8027L80.0303 48.2403L80.4054 48.4835L80.8274 48.8238L81.4368 49.1642L81.8588 49.5532L82.2339 49.7963L82.6089 50.088L83.3122 50.477L83.5466 50.6228L83.9217 50.9632L84.2499 51.2063L84.4843 51.3522L84.7187 51.5467L84.9531 51.6439L85 51.6925V52.5191L84.9531 52.9567L84.8594 53.2485L84.8125 54.7071L84.578 54.6099L84.2967 54.3668L84.0623 54.2209L83.7341 53.9778L83.1715 53.6861L82.6558 53.1998L82.3276 53.054L81.4368 52.5677L80.968 52.2274L80.6398 52.0815L80.3116 51.9843L80.0772 51.8384L79.8428 51.6439L79.5146 51.4981L78.4832 50.9632L78.155 50.6715L77.8268 50.5256L77.4986 50.4284L76.6078 49.9908L76.1859 49.7963L75.7639 49.5532L75.4826 49.4559L74.9669 49.2614L74.6387 49.0669L74.123 48.7752L73.9355 48.7266L74.3105 49.1156L74.6387 49.6018L74.9669 49.9908L75.4826 50.5742L75.6233 50.7687L75.7639 51.0118L75.8577 51.2063H75.9515L76.1859 51.5467L76.3265 51.7898L76.7016 52.276L76.8891 52.5677L77.3111 53.054L77.4986 53.2971L77.6861 53.7833V54.075L77.5455 54.1237L77.5924 54.464L77.5455 54.5126L77.4986 54.9989L77.1236 55.4365L77.0298 55.4851H76.6078L76.5141 55.2906H76.0921L75.7639 54.9989L75.342 54.464L74.9669 53.9292L74.6856 53.5402L74.123 52.8109L73.9823 52.5677L73.7479 52.3246L73.3729 52.0815L73.2791 51.8384L72.904 51.4494L72.6696 51.3522L72.4352 51.1091L72.3883 50.866L72.107 50.7687L71.9663 50.477L71.7788 50.2825L71.5444 50.1852L70.8411 49.4559L70.4661 49.1156L70.2317 49.0183L69.7628 48.5807L69.4815 48.4348L68.7783 47.7541L68.497 47.6083L68.2157 47.3651L67.7937 47.3165L67.7468 47.4624L67.3718 47.8027L65.8246 49.4073L65.4495 49.6504L65.1682 49.8935L64.9338 50.1366L64.6056 50.4284L64.1368 50.7687L63.7617 50.9632L63.2929 51.2549L63.0116 51.5467L62.6834 51.6925L62.4959 51.7898L62.2146 51.8384L61.9801 52.0329L61.3238 52.4219L60.7612 52.7622L59.8704 53.1512L59.4484 53.3457L59.0734 53.3943L58.6514 53.5888L58.3232 53.7347L57.8544 53.7833L57.3855 53.9292L57.0574 54.0264L56.5885 54.1237L55.4164 54.1723L55.3227 54.3182H55.0882L54.8538 54.1237L54.7601 54.3182H52.791L52.8847 54.5613L53.4473 55.7768L53.6349 56.3117L54.1975 57.5759L54.385 58.1107L54.5256 58.5483L54.7601 58.8887L55.0882 59.7153L55.6509 61.0281L55.8853 61.417L55.979 62.0491L56.2135 62.8271L56.5416 63.5564L56.6823 63.9454L56.8698 64.5775L57.0574 65.0637L57.1511 65.3555L57.3855 65.8903L57.4793 66.4738L57.62 66.8141L57.8075 67.4462L57.9013 67.8838L57.995 68.2242L58.0419 69.0022L58.3232 69.5856L58.4639 70.2177L58.5576 70.5581L58.6045 70.9957L58.6983 71.1902L58.8389 71.9195L59.0265 72.6002L59.1202 72.8433L59.214 73.1837L59.3078 73.4754L59.3547 74.1075L59.4484 74.302L59.5422 75.2258L59.8235 75.8093L59.9641 76.8304L60.1517 77.4138L60.3392 77.9001L60.2923 78.0459V78.3863L60.433 78.6294V79.6019L60.9956 79.5532V79.456L61.0894 79.4074L61.9333 79.3587V79.2615L62.1208 79.3101L62.1677 79.3587L62.7772 79.4074L63.1053 79.7477H63.4335L63.6211 79.845L63.8086 80.1367L63.9961 80.5743V80.9147L64.1837 81.0119L64.5587 81.6926L64.6056 82.1302L64.5119 82.6651L64.4181 82.8109L64.1368 84.0265L64.043 84.1724L63.9961 84.8045L63.7617 85.4852V85.9714L63.3867 86.7494L63.1053 87.187L62.7772 87.576L62.4021 87.6732L61.7926 87.9649L61.5582 88.0622L61.3707 88.1594L61.1362 88.1108L60.9487 87.9163V88.1108L60.5736 88.1594L48.4308 88.208L48.2901 88.3539L47.8213 88.3053L47.6806 88.208L47.3525 88.1594L46.8836 88.2567L46.743 88.3539H46.0397L45.8053 88.2567L45.4771 88.1594H45.1489L44.8676 88.0135L41.6327 87.9649V88.0622L41.3513 88.1108L41.1638 88.1594L41.1169 88.208H40.8356L40.695 88.1108V87.9649H39.8042L39.7573 88.1108L39.3822 88.0622H39.0541L38.8196 88.0135V88.1108H38.7259L38.679 88.0135L31.1307 87.9649L30.615 87.9163L30.5212 87.8191L29.9117 87.7218L28.5052 87.2842L27.0518 86.8466L26.4424 86.6521L25.4578 86.3604L23.7231 85.7769L22.6448 85.3879L21.754 84.9503L21.2852 84.6586L21.1445 84.5127L20.8163 84.3669L20.3475 84.0751L20.2068 83.9293L19.9255 83.7834L19.6442 83.5403L19.316 83.3944L18.5659 83.0054L18.2377 82.8109L18.144 82.5192H17.7689L17.2532 81.9844L17.0188 81.7899L16.7374 81.644L16.4093 81.4009L16.1748 81.255L15.5185 80.5743L15.3778 80.4771V80.3798L15.1903 80.2826L14.6277 79.6991L14.2526 79.2129L14.2057 79.067L13.9713 78.9698L13.7369 78.678L13.5962 78.4349L13.3149 78.1432V78.0459L13.1743 77.9973L12.8461 77.6083L12.471 77.2194L12.2366 76.8304L11.7209 76.2469L11.3927 75.5662L10.9708 75.08L10.877 74.6424V74.5451L10.6426 74.4965L10.2675 73.9616L10.1737 73.8158L10.08 73.2323L9.32984 71.6764L9.09542 71.2388L8.861 70.8984L8.48594 70.1205L8.39217 69.537L8.11087 68.9535L8.0171 68.3701L7.92333 68.2242L7.7358 67.4462L7.68891 66.6197L7.54826 66.3279L7.45449 65.8417L7.36073 65.6958L7.26696 65.3555L7.22008 65.2096L7.31384 65.161V64.8206L7.17319 64.772L7.07943 64.0427L6.98566 63.9454L6.93878 62.2922L6.79812 62.2436V61.3684L6.93878 60.8822L6.98566 60.2015L7.12631 60.007L7.07943 59.7639L6.98566 59.6666V59.2777L7.07943 59.1318L7.12631 58.84L7.17319 57.6245L7.26696 57.3814L7.31384 57.3328L7.40761 56.7979L7.50138 56.5548L7.59515 56.1172L7.97021 54.9502L8.20463 54.464L8.34528 53.9778L8.43905 53.7347L8.48594 53.2971L8.861 52.4219L9.09542 51.8384L9.56426 51.3522L9.75179 51.0604L9.89244 50.8173L10.2206 50.2825L10.6895 49.7476L10.7832 49.5045L11.0176 49.2128L11.299 48.9697L11.6271 48.5807L11.7209 48.3376L12.0491 47.9972L12.3304 47.6569L12.7055 47.3165L12.9399 47.122L13.2212 46.9275L13.7369 46.5872L14.1589 46.2954L14.3933 46.1496L14.7683 46.101L14.9559 45.9065H15.0496L15.1434 45.712L15.2841 45.5661L16.128 45.5175L16.3155 45.4202L16.4561 45.5175L17.6751 45.5661L17.8158 45.6147L17.9095 45.5661H18.1908L18.4253 45.712L19.316 45.7606L19.3629 45.9065H19.738L20.1131 46.0037L20.3006 46.101L20.6757 46.1982L21.0507 46.3927V46.4899L21.5196 46.5386L21.8946 46.7817L22.6917 47.1706L22.9261 47.3651V47.4624L23.1136 47.5596L23.6762 47.9486V48.0459L23.8638 48.1431L24.2857 48.4348L24.8014 48.7752L25.4578 49.4559L25.9266 49.8449L26.2548 50.1366L26.4424 50.4284L26.9581 51.0118L27.38 51.7898L27.8958 52.3733L27.9895 52.5677L28.0833 52.9081L28.3646 53.5402L28.4584 53.8806L28.7397 54.6099L28.8803 54.9502L28.9272 55.242L28.9741 56.0686L29.1147 56.3603V58.1593L29.0678 58.4024L28.9741 58.4511L28.9272 59.3749L28.6928 60.4932L28.5052 60.9308L28.4115 61.1739L28.3177 61.6602L28.0364 62.0005L27.9426 62.2436L27.5207 63.0702L26.9581 63.8482L26.6299 64.2371L26.4892 64.383L26.2548 64.772L25.9735 64.8206L25.8798 65.0151L25.5047 65.4041L24.989 65.7931L24.3795 66.1334L23.8638 66.2793L23.6293 66.3765L23.1605 66.4252L23.1136 66.5224L22.8792 66.571H22.5041L22.2697 66.5224L22.0822 66.571H21.6602L21.1914 66.2793L20.8163 66.0848L20.7694 66.0362L20.3944 65.9876L20.0193 65.6472L19.6911 65.5013L19.316 65.2582L18.6597 64.5775L18.519 64.2858L18.3784 64.1399V64.0427L18.2377 63.994L17.8627 63.5078L17.5345 62.8271L17.3001 62.5354L17.1125 62.1464L17.0188 61.5629L16.925 61.417L16.8312 60.7363L16.5499 60.0556V59.4721L16.6437 59.3263L16.7374 58.0135L16.7843 57.6245L16.8312 57.3814L16.9719 56.8951L17.2063 56.4089L17.3469 55.6796L17.4407 55.5337V55.1447L17.1594 55.0475L17.0656 55.0961L16.503 54.7558H15.9404L15.4716 54.9989L15.0028 55.4365L14.9559 55.4851H14.7215L14.6277 55.7282L14.5339 55.8741L14.4402 56.2144L14.2526 56.6034L14.0651 56.8465L13.9713 56.8951L13.8307 57.2355L13.69 57.7704L13.5025 58.0135H13.4087L13.3149 58.4024L13.2212 58.6942L13.1274 59.3749L13.0336 59.4235L12.9868 62.4381L12.8461 62.6326L12.9399 62.8757L12.893 63.1188L12.8461 63.3133V65.4527L12.9399 65.5986L13.0336 66.5224L13.1274 66.6197L13.2212 67.3004L13.3149 67.3976L13.4087 68.2728L13.5494 68.6132L13.5962 69.0508L13.7369 69.2939L13.9244 69.8287L13.9713 70.2177L14.112 70.5095L14.2057 70.8012L14.6277 71.4819L15.0965 72.503L15.5185 72.9892L15.7998 73.4754L15.9404 73.6213L16.0811 73.913L16.3624 74.3506L16.5499 74.5937V74.691L16.6906 74.7396L17.1125 75.2745L17.2532 75.5176L17.9095 76.2469L18.0502 76.4414L18.1908 76.6845L18.2377 76.8304L18.4253 76.9276L19.2223 77.7542L19.5974 77.9973L20.0193 78.4349L21.0507 79.067L21.3789 79.4074L22.3635 80.0395L23.2543 80.5257L24.3326 81.0605L24.7546 81.2064L24.989 81.4009L25.2234 81.6926L25.8798 81.7412L26.2548 81.9844L26.4892 82.1788V82.2761L26.7705 82.3247L26.8174 82.1788L27.0518 82.2275L27.3331 82.422L28.1771 82.7623V82.8596L29.021 82.9082L29.1147 82.9568V83.0541L29.3491 83.1513L29.7711 83.3458L29.9586 83.443H30.0524L30.0993 83.2972L30.2399 83.3458V83.443L30.4744 83.4917L30.9901 83.7348V83.832L31.9277 83.8806L32.4903 84.1238V84.221L34.3188 84.2696L34.5532 84.3182L35.1627 84.4155L37.8351 84.4641L37.5538 83.832L36.9443 81.9357L36.8974 81.5954L36.4286 80.6229V79.9908L36.3817 79.456L36.3348 79.067L36.241 78.9212L36.1473 78.2404L36.0535 78.1432L35.9597 77.4625L35.866 77.3652L35.7722 76.7331L35.6784 76.5873L35.5847 75.7607L35.4909 75.6148L35.444 74.9341L35.3502 74.691L35.3034 74.6424L35.2096 73.9616L35.1158 73.7185L35.0689 73.1837L35.0221 72.9892L35.0689 72.9406V72.6488L34.9283 72.4057L34.8814 71.2874L34.7876 71.1902V70.9957H34.8814L34.7408 70.6553L34.6939 69.537L34.6001 69.4398L34.5532 69.2453V65.7444L34.6939 65.5013L34.7408 64.383L34.8814 64.0427L34.9283 63.4106L35.2096 62.8271L35.3502 62.3409L35.7253 61.5143L35.9597 61.1253L36.4755 60.5418L36.7099 60.3473L37.0381 60.1529L37.2725 59.9584L37.6944 59.8611L37.7882 59.7639H38.7259V59.8611L38.9134 59.7639H39.2885L39.5698 59.9097L39.9917 60.007L40.4137 60.1529L41.2107 60.5418L41.6795 60.8336L42.0546 61.1253L42.2421 61.3198L42.5703 61.7088L42.9923 62.2436L43.2736 62.8271L43.5549 63.2161L43.8362 63.7995L43.9299 63.8482L43.8831 62.973L43.7424 62.7299V62.3409L43.8831 62.195V61.5629L43.7893 61.5143L43.8362 61.2712H43.9299L43.7893 60.2015L43.7424 59.9584V59.229L43.8362 59.0345L43.7424 58.9373L43.6486 57.9648V57.6731L43.6955 57.4786L43.6018 57.2355L43.5549 57.1869L43.4611 56.4575L43.4142 56.4089V56.1172L43.508 55.8255L43.4611 55.3392L43.3673 55.0961L43.2736 54.3668L43.1798 54.2209L43.086 53.4916L42.9923 52.8595L42.9454 52.4219L42.0546 52.3733L41.6327 52.276L40.8356 52.1301L40.3199 51.887L39.5698 51.6925L38.8665 51.4981L38.257 51.3036L37.7882 51.1577L37.46 50.866L37.1318 50.7201L37.0849 50.6715L36.663 50.5742L36.3348 50.2825L36.0066 50.1366L35.6315 49.9421L35.1627 49.6504L35.0221 49.5045L34.6939 49.3587L34.3188 49.1642L33.85 48.8724L33.7093 48.7266L33.428 48.5807L33.1467 48.3376L32.7716 48.1431L32.2559 47.8027L31.8809 47.5596L31.1776 47.0248L30.6619 46.5872L30.4275 46.4413L29.8649 45.9065L29.4898 45.6633L29.1616 45.4202L28.9272 45.2744L28.5521 44.934L28.2708 44.5937L27.9895 44.3505L27.6613 43.9616L26.8643 43.135L26.7705 42.8919L26.5361 42.7946L26.3955 42.5029L26.1142 42.1625L26.0204 41.9194L25.786 41.8222L25.6453 41.5304L25.1765 40.9956L24.989 40.6552L24.8952 40.3635L24.6139 39.9745L24.4732 39.7314L24.0513 39.1966L23.77 38.759L23.4418 38.0782L23.3012 37.7379L23.1136 37.4462L23.0199 37.0085L22.9261 36.7654L22.8792 36.3278L22.551 35.8902L22.4573 35.6957L22.0822 35.5013L21.4258 35.4526L21.0507 35.3068V35.404L20.8632 35.3554L20.1131 35.2095L20.0193 35.1123L19.0347 35.0636L18.6128 34.9664L18.4721 34.9178L18.4253 35.015L18.0033 34.9178L17.2063 34.8692L16.7843 34.7719L16.7374 34.7233L13.7369 34.6747H13.5494H13.1743L13.0805 34.5774L12.8461 34.626L12.7992 34.6747H12.471L12.3773 34.5288H10.4082L10.2675 34.6747H9.84556L9.70491 34.5288H9.47049L9.32984 34.6747H8.90789L8.81412 34.4802H8.67347L8.62659 34.626L8.34528 34.6747L8.25152 34.4802L7.97021 34.5288L7.87645 34.6747H7.17319L7.12631 34.8205L6.98566 34.7719V34.6747L6.23552 34.7233H6.04799H5.34473L5.1572 34.8205L4.21953 34.9178L3.98511 35.015L3.32874 35.1123L3.18809 35.2095L2.39106 35.3068L2.06288 35.4526L1.59404 35.5013L1.45339 35.6471L1.17209 35.5499L1.12521 35.5013H0.890789L0.703254 35.6471H0.328185L0.0468836 35.404L0 35.2581V34.3343L0.0468836 33.6536L0.234418 33.3619L0.51572 33.1187L1.54716 33.0701L1.59404 32.9243L2.2973 32.8756L2.34418 32.7298L2.48483 32.7784L2.5786 32.8756L2.8599 32.7298L3.4225 32.6325L3.51627 32.5353L3.93822 32.4867L4.12576 32.3894L4.21953 32.4867L4.8759 32.438L5.11031 32.4867L5.1572 32.3408L5.76669 32.2922L6.18864 32.1463L7.31384 32.0977L7.7358 32.0491L7.97021 31.9518L8.43905 31.8546L8.53282 31.7573L9.51737 31.7087L9.84556 31.6114L10.0331 31.5628L11.7209 31.5142L12.0022 31.417L12.2366 31.5142H12.6117L12.6586 31.3683H12.9868H13.1743L13.7369 31.3197L13.7838 31.1738L14.8621 31.1252L14.909 30.9794L16.7374 30.9307H16.925L16.9719 30.7849L17.6751 30.7362H17.8627H18.8003L18.7066 30.4445L18.0971 30.2014L17.2532 29.7152L16.4561 29.2776L16.1748 29.1317L15.8935 28.8886L15.4247 28.6941L15.0496 28.4024L14.9559 28.3051L14.5339 28.2079L14.112 27.9648L13.8307 27.7216L13.4087 27.6244L13.0805 27.4785L12.3773 27.1868L11.6271 26.7978L11.4865 26.652L11.4396 26.3116L11.4865 25.2419L11.7209 24.9502L12.0491 24.7557H12.3304L12.471 24.8529L13.2212 24.9502L13.9244 25.3391L14.2057 25.485L14.6746 25.5823V25.6795L15.4247 25.7767L15.6122 25.874L16.925 26.2144L17.4407 26.3602L17.5814 26.4575L18.0971 26.5061L18.6597 26.7978L18.7066 26.8464L19.1754 26.9437L19.5974 27.1868L19.6442 27.2354L20.0193 27.284L20.2537 27.4785L21.2383 27.9161L22.0822 28.4024L22.3635 28.5482L22.7854 28.84L23.0667 28.9858L23.1136 28.451L23.2543 27.9648L23.3012 27.3327L23.4418 26.9437L23.5356 26.4575L23.77 25.7281L24.0044 25.1447L24.5201 23.5401L24.7546 23.0053L24.8952 22.5677L25.2703 21.7897L25.4109 21.3035L25.6453 21.0117L25.786 20.5255L26.2079 19.6989L26.4424 19.3586L26.8174 18.532L26.9112 18.1916L27.1925 17.754L27.5207 17.2192L27.7551 16.6357L28.1302 15.955L28.4584 15.4202L28.7397 14.9826L29.0678 14.4963L29.3491 14.0587L30.0524 12.8432L30.7088 12.0652L31.037 11.4817L31.3183 11.0441L31.4589 10.7524L31.7402 10.5093L32.0215 10.3148L32.1622 10.0231L32.4903 9.6827L32.7716 9.34234H32.8654L32.9592 9.14785L33.3343 8.61301L33.7093 8.1754H33.8031L33.8969 7.98091H33.9906L34.0844 7.78642H34.1782L34.225 7.64056L34.6001 7.3002L35.4909 6.66811L36.0535 6.32775L36.1941 6.27913H37.7882L38.2101 6.52224L38.7259 6.8626L38.9603 7.05709L39.4291 7.98091L39.6167 8.46714L39.6635 9.19648L39.8042 9.39097L39.7104 9.58546L39.6635 9.77995L39.8042 10.0231L39.7573 10.3634L39.6635 10.412L39.6167 11.1414L39.5698 11.3359L39.476 11.3845L39.4291 12.1138L39.2885 12.3569L39.1947 12.8432L39.1009 12.9404L39.0541 13.5239L39.0072 13.6697L38.9134 13.7184L38.8665 14.2532L38.7259 14.4963L38.679 15.0312L38.5383 15.3229L38.4446 15.8091L38.3508 15.955L38.3039 16.7816L38.1633 17.3651V17.9971L38.257 18.143L38.2101 18.6292L38.3039 18.7751V19.0668L38.1633 19.2127L38.3039 19.3586V20.4283L38.4914 20.5255L38.5383 21.7897H38.679L38.7259 21.6438H39.4291L39.476 21.7411L39.6635 21.6438H40.0386L40.1793 21.7897H40.5074L40.6012 21.6438H42.0546L42.1015 21.7897H42.3359L42.5703 21.6925L43.0392 21.7897L45.0083 21.8383L45.0552 21.9842L46.8836 22.0328L47.118 22.0814H47.3056L47.3525 22.1301H47.8213L47.9151 22.1787L48.6183 22.2273L49.0403 22.3732L49.8842 22.4218L49.931 22.5677H50.353L50.8687 22.6649L51.0563 22.7622L51.3844 22.8108L51.947 22.9566L52.369 23.0539L52.791 23.297L52.8378 23.3456L53.3067 23.4429L53.4942 23.5401L53.8693 23.6374L54.2443 23.7832L55.6977 24.3667L56.1197 24.5126V23.686L56.2603 23.5401L56.3072 22.8108L56.3541 22.6163L56.3072 22.4704L56.3541 22.2273L56.3072 22.1787V21.7411L56.4479 21.5466L56.4948 20.1852L56.6354 19.942V19.7476L56.4948 19.6017L56.5416 19.31L56.6354 19.1641L56.6823 17.6082L56.7761 17.4137L56.6823 17.2192L56.8229 16.8788V16.5385L56.6823 16.344L56.6354 15.2257L56.5416 14.8367L56.6354 14.7881L56.5885 14.4477L56.4948 14.3505L56.3541 13.8642L56.3072 13.8156L56.2603 13.0863L56.2135 12.6973L56.1666 12.5028L56.1197 12.4542L56.0728 11.0441L55.9322 10.8496L55.8853 9.87719L55.7446 9.6827L55.6977 7.83505H55.604L55.5571 7.7378L55.5102 6.42499L55.4164 5.89015L55.2758 5.30668L55.182 5.16081L55.1351 2.77831L55.0882 2.38933L55.2289 1.80586L55.3695 1.36825L55.6509 0.882029L55.8384 0.638916ZM42.289 30.3959L42.1953 30.5418L41.3513 30.5904L41.3045 30.7362L39.6635 30.7849L39.0072 30.9307L38.3977 30.9794L38.0695 31.1252L37.6475 31.1738L37.3194 31.3197L36.9912 31.417L36.7568 31.5142L36.4755 31.6114L35.2096 32.2435L34.6939 32.4867L34.4126 32.5839L33.9906 32.8756L33.3811 33.216L32.6779 33.7508V33.8481L32.4903 33.9453L32.1153 34.2857L31.9277 34.4802L31.6933 34.8205L31.4589 35.2581L31.3651 35.404L31.2245 36.182L31.1776 36.2792V36.7654L31.3183 37.0085L31.3651 37.981L31.5996 38.5645L31.6933 38.759L31.7402 39.2452L32.0215 39.5855L32.3497 40.2663L32.5841 40.558H32.6779V40.6552L33.0061 40.8983L33.1936 41.0928L33.8031 41.4332L33.9906 41.5304L34.0844 41.7249H34.1782L34.225 41.8708L34.8345 41.9194L35.0689 42.1139L35.1627 42.2598L36.0535 42.3084V42.4056L36.1473 42.4543H36.7568L36.9443 42.3084L37.0849 42.4056L37.5538 42.2112L37.6944 42.1139L37.7413 42.2112L37.9288 42.1625L38.6321 41.8222L39.4291 41.3846L39.8511 41.0928L40.4606 40.7039L40.8356 40.4121L41.1169 40.2176L41.3513 40.0231V39.9259L41.5389 39.8287L41.8671 39.4397L42.0077 39.1479L42.4297 38.6617L42.5703 38.37L42.9923 37.8838L43.1329 37.592L43.3673 37.3003L43.5549 36.8627L43.6018 36.3278L43.9299 35.9389L44.1175 35.5013L44.1644 35.015L44.305 34.7719L44.3519 34.2371L44.4926 33.8967L44.5394 32.3894L44.6801 32.2435V32.0004L44.5394 31.7573H44.6332L44.4926 31.2711L43.9768 30.6876L43.6486 30.4931H43.508V30.3959H43.3673L43.3205 30.4931L43.1798 30.5418V30.4445L42.8516 30.3959L42.8047 30.5418H42.4766L42.3828 30.3959H42.289ZM51.8533 31.5628L51.8064 31.7087L51.1969 31.7573L51.0094 32.0004L50.8687 32.2435L50.8218 32.6811L50.6812 32.8756V33.3132L50.775 33.4591L50.8218 33.8481L50.7281 34.0426L50.8687 34.0912V34.8205L51.0094 35.1123V35.404L50.8687 35.4526V36.182L51.0094 36.4251L51.0563 36.7654L51.2907 37.3489L51.7595 38.2727L51.9939 38.6617L52.1346 38.9534L52.2283 39.2938L52.5097 39.7314L52.8847 40.4607L53.0723 40.8011L53.4004 41.2873L53.8224 41.7249L54.1506 42.1139L54.4319 42.4543L54.5725 42.6001L54.6663 42.7946L55.3227 43.135L55.6509 43.4753H55.7446L55.7915 43.6212L56.0259 43.8157L56.3072 43.8643V43.9616L56.7761 44.0588H56.8698V44.1561L57.3855 44.3019L57.5262 44.3992L57.9481 44.4964L58.1826 44.545L58.2295 44.4478H58.5576L58.6045 44.5937H59.8235L60.011 44.4964L60.1986 44.545L60.2923 44.4478L60.7143 44.3992L60.9018 44.2533L61.4175 44.2047L61.652 44.0588L61.8864 43.9616L62.449 43.4267L62.7772 43.0377L63.0116 42.7946L63.4335 41.9194L63.5273 41.4818L63.6211 41.3846L63.7617 41.0442L63.8086 40.8011L63.7617 40.7039H63.668L63.6211 40.2176L63.4804 39.8773L63.3867 39.3424L63.2929 39.2452L63.1991 39.0021L62.9647 38.9048L62.6365 38.2241L62.3552 37.8351L62.1208 37.4462L61.8395 37.3489L61.6988 37.0572L61.5113 36.8141L61.2769 36.6196L60.9487 36.4251L60.5267 36.0361L60.2454 35.8902L59.7297 35.404L59.2609 35.1123L58.8858 34.8692L58.7452 34.8205L58.6514 34.5288L58.1826 34.3343L57.8075 34.1884L57.5731 33.9453L57.1511 33.7508L56.6354 33.4105L56.4948 33.3132L56.0728 33.1674L55.8384 33.0701L55.4164 33.0215L54.8538 32.7298L54.1037 32.6325L54.0099 32.3894L53.7286 32.2435L53.588 32.1463H52.9785L52.8847 32.2922H52.5565L52.5097 32.1463L52.2283 32.0491L52.0877 31.7087H51.9939L51.947 31.5628H51.8533ZM84.4843 53.9292L84.5312 54.075L84.578 53.9292H84.4843ZM60.2923 87.7218L60.1986 87.7704V87.9163L60.6205 87.9649L60.5736 87.7704L60.2923 87.7218Z" fill="#023059" fill-opacity="0.25"/>
</svg>
