<svg width="22" height="16" viewBox="0 0 22 16" fill="none" xmlns="http://www.w3.org/2000/svg">
<path d="M21.5831 5.2832C21.6212 5.25456 21.6668 5.23682 21.7147 5.23197C21.7627 5.22713 21.811 5.23538 21.8544 5.25579C21.8978 5.27621 21.9344 5.30797 21.9601 5.34749C21.9858 5.38702 21.9996 5.43273 22 5.47947V14C22 14.5304 21.7827 15.0391 21.3959 15.4142C21.0091 15.7893 20.4845 16 19.9375 16H2.0625C1.51549 16 0.990886 15.7893 0.604092 15.4142C0.217299 15.0391 2.72104e-07 14.5304 2.72104e-07 14V5.48373C-7.00566e-05 5.43682 0.0134939 5.39084 0.039137 5.35107C0.0647801 5.31129 0.101464 5.27932 0.144983 5.25883C0.188502 5.23834 0.237094 5.23017 0.285188 5.23523C0.333282 5.24029 0.378931 5.2584 0.4169 5.28747C1.3794 6.0128 2.6554 6.93333 7.0389 10.0213C7.9453 10.6613 9.4754 12.0128 10.9989 12.0043C12.5334 12.0171 14.0932 10.6379 14.9644 10.0213C19.349 6.93333 20.6206 6.00854 21.5831 5.2832ZM11 10.6667C11.9966 10.6837 13.4321 9.4496 14.1537 8.94187C19.8561 4.92907 20.2895 4.5792 21.604 3.57974C21.7276 3.48628 21.8275 3.36668 21.8961 3.23006C21.9648 3.09345 22.0003 2.94343 22 2.79146V2C22 1.46957 21.7827 0.960856 21.3959 0.585783C21.0091 0.21071 20.4845 0 19.9375 0H2.0625C1.51549 0 0.990886 0.21071 0.604092 0.585783C0.217299 0.960856 2.72104e-07 1.46957 2.72104e-07 2V2.79146C0.000157452 2.94309 0.0357765 3.09271 0.104177 3.22906C0.172578 3.36541 0.271979 3.48495 0.3949 3.57867C1.7149 4.57494 2.1439 4.92907 7.8452 8.9408C8.5679 9.4496 10.0034 10.6837 11 10.6667Z" fill="#F35AAD"/>
</svg>
