<svg width="18" height="18" viewBox="0 0 18 18" fill="none" xmlns="http://www.w3.org/2000/svg">
<path d="M10.6001 11.0202C10.6001 11.0202 10.7396 10.8807 11.0186 10.6017C11.2976 10.3226 11.4371 9.7888 11.4371 9.0001C11.4371 8.21141 11.1581 7.53805 10.6001 6.98002C10.042 6.42198 9.36866 6.14296 8.57997 6.14296C7.79128 6.14296 7.11792 6.42198 6.55988 6.98002C6.00185 7.53805 5.72283 8.21141 5.72283 9.0001C5.72283 9.7888 6.00185 10.4622 6.55988 11.0202C7.11792 11.5782 7.79128 11.8572 8.57997 11.8572C9.36866 11.8572 10.042 11.5782 10.6001 11.0202ZM11.6938 5.88627C11.6938 5.88627 11.9077 6.10018 12.3356 6.52801C12.7634 6.95583 12.9773 7.77987 12.9773 9.0001C12.9773 10.2203 12.5495 11.2583 11.6938 12.1139C10.8382 12.9696 9.80021 13.3974 8.57997 13.3974C7.35974 13.3974 6.32179 12.9696 5.46613 12.1139C4.61048 11.2583 4.18265 10.2203 4.18265 9.0001C4.18265 7.77987 4.61048 6.74192 5.46613 5.88627C6.32179 5.03061 7.35974 4.60278 8.57997 4.60278C9.80021 4.60278 10.8382 5.03061 11.6938 5.88627ZM13.8813 3.69877C13.8813 3.69877 13.9315 3.74899 14.032 3.84944C14.1324 3.94988 14.1827 4.14147 14.1827 4.42421C14.1827 4.70695 14.0822 4.94877 13.8813 5.14966C13.6804 5.35055 13.4386 5.451 13.1559 5.451C12.8731 5.451 12.6313 5.35055 12.4304 5.14966C12.2295 4.94877 12.1291 4.70695 12.1291 4.42421C12.1291 4.14147 12.2295 3.89966 12.4304 3.69877C12.6313 3.49787 12.8731 3.39743 13.1559 3.39743C13.4386 3.39743 13.6804 3.49787 13.8813 3.69877ZM9.43377 1.96327C9.43377 1.96327 9.30449 1.9642 9.04593 1.96607C8.78738 1.96793 8.63206 1.96886 8.57997 1.96886C8.52789 1.96886 8.24329 1.967 7.72618 1.96327C7.20907 1.95955 6.81658 1.95955 6.54872 1.96327C6.28087 1.967 5.92186 1.97816 5.47171 1.99676C5.02157 2.01536 4.63838 2.05256 4.32216 2.10836C4.00594 2.16417 3.73994 2.23299 3.52417 2.31484C3.15215 2.46365 2.82476 2.67942 2.54203 2.96216C2.25929 3.2449 2.04351 3.57228 1.89471 3.9443C1.81286 4.16008 1.74404 4.42607 1.68823 4.74229C1.63243 5.05851 1.59523 5.4417 1.57663 5.89185C1.55802 6.342 1.54686 6.701 1.54314 6.96885C1.53942 7.23671 1.53942 7.6292 1.54314 8.14631C1.54686 8.66342 1.54872 8.94802 1.54872 9.0001C1.54872 9.05219 1.54686 9.33679 1.54314 9.8539C1.53942 10.371 1.53942 10.7635 1.54314 11.0314C1.54686 11.2992 1.55802 11.6582 1.57663 12.1084C1.59523 12.5585 1.63243 12.9417 1.68823 13.2579C1.74404 13.5741 1.81286 13.8401 1.89471 14.0559C2.04351 14.4279 2.25929 14.7553 2.54203 15.0381C2.82476 15.3208 3.15215 15.5366 3.52417 15.6854C3.73994 15.7672 4.00594 15.836 4.32216 15.8918C4.63838 15.9476 5.02157 15.9849 5.47171 16.0035C5.92186 16.0221 6.28087 16.0332 6.54872 16.0369C6.81658 16.0407 7.20907 16.0407 7.72618 16.0369C8.24329 16.0332 8.52789 16.0314 8.57997 16.0314C8.63206 16.0314 8.91665 16.0332 9.43377 16.0369C9.95088 16.0407 10.3434 16.0407 10.6112 16.0369C10.8791 16.0332 11.2381 16.0221 11.6882 16.0035C12.1384 15.9849 12.5216 15.9476 12.8378 15.8918C13.154 15.836 13.42 15.7672 13.6358 15.6854C14.0078 15.5366 14.3352 15.3208 14.6179 15.0381C14.9007 14.7553 15.1164 14.4279 15.2652 14.0559C15.3471 13.8401 15.4159 13.5741 15.4717 13.2579C15.5275 12.9417 15.5647 12.5585 15.5833 12.1084C15.6019 11.6582 15.6131 11.2992 15.6168 11.0314C15.6205 10.7635 15.6205 10.371 15.6168 9.8539C15.6131 9.33679 15.6112 9.05219 15.6112 9.0001C15.6112 8.94802 15.6131 8.66342 15.6168 8.14631C15.6205 7.6292 15.6205 7.23671 15.6168 6.96885C15.6131 6.701 15.6019 6.342 15.5833 5.89185C15.5647 5.4417 15.5275 5.05851 15.4717 4.74229C15.4159 4.42607 15.3471 4.16008 15.2652 3.9443C15.1164 3.57228 14.9007 3.2449 14.6179 2.96216C14.3352 2.67942 14.0078 2.46365 13.6358 2.31484C13.42 2.23299 13.154 2.16417 12.8378 2.10836C12.5216 2.05256 12.1384 2.01536 11.6882 1.99676C11.2381 1.97816 10.8791 1.967 10.6112 1.96327C10.3434 1.95955 9.95088 1.95955 9.43377 1.96327ZM17.0956 5.46216C17.1328 6.11692 17.1514 7.29624 17.1514 9.0001C17.1514 10.704 17.1328 11.8833 17.0956 12.5381C17.0212 14.0857 16.5599 15.2836 15.7117 16.1318C14.8635 16.98 13.6655 17.4413 12.1179 17.5157C11.4632 17.5529 10.2838 17.5715 8.57997 17.5715C6.8761 17.5715 5.69679 17.5529 5.04203 17.5157C3.49441 17.4413 2.29649 16.98 1.44828 16.1318C0.600063 15.2836 0.138753 14.0857 0.0643485 12.5381C0.0271461 11.8833 0.00854492 10.704 0.00854492 9.0001C0.00854492 7.29624 0.0271461 6.11692 0.0643485 5.46216C0.138753 3.91454 0.600063 2.71662 1.44828 1.86841C2.29649 1.0202 3.49441 0.558886 5.04203 0.48448C5.69679 0.447279 6.8761 0.428677 8.57997 0.428677C10.2838 0.428677 11.4632 0.447279 12.1179 0.48448C13.6655 0.558886 14.8635 1.0202 15.7117 1.86841C16.5599 2.71662 17.0212 3.91454 17.0956 5.46216Z" fill="#023059"/>
</svg>
