<svg width="22" height="28" viewBox="0 0 22 28" fill="none" xmlns="http://www.w3.org/2000/svg">
<path d="M9.86878 27.4349C1.54548 15.9163 0 14.7333 0 10.4998C0 7.7151 1.15893 5.04443 3.22183 3.07533C5.28473 1.10623 8.08262 0 11 0C13.9174 0 16.7153 1.10623 18.7782 3.07533C20.8411 5.04443 22 7.7151 22 10.4998C22 14.7333 20.4545 15.915 12.1312 27.4349C12.0046 27.6092 11.8357 27.7517 11.6388 27.8502C11.4419 27.9486 11.2229 28 11.0007 28C10.7784 28 10.5595 27.9486 10.3626 27.8502C10.1657 27.7517 9.99672 27.6092 9.87014 27.4349H9.86878ZM10.9993 14.8748C11.9059 14.8751 12.7922 14.6187 13.5461 14.1381C14.3 13.6575 14.8877 12.9744 15.2348 12.175C15.5819 11.3756 15.6729 10.4959 15.4962 9.64711C15.3195 8.79836 14.8831 8.01869 14.2421 7.40671C13.6012 6.79473 12.7845 6.37792 11.8954 6.209C11.0062 6.04009 10.0846 6.12665 9.24701 6.45775C8.40942 6.78884 7.69351 7.34959 7.18983 8.06908C6.68614 8.78857 6.41729 9.63448 6.41729 10.4998C6.41729 11.6599 6.89999 12.7725 7.75925 13.5929C8.61851 14.4134 9.78397 14.8745 10.9993 14.8748Z" fill="#F35AAD"/>
</svg>
