<svg width="22" height="22" viewBox="0 0 22 22" fill="none" xmlns="http://www.w3.org/2000/svg">
<path d="M21.3725 15.5461L16.5593 13.4836C16.3538 13.396 16.1254 13.3776 15.9084 13.431C15.6915 13.4844 15.4978 13.6067 15.3563 13.7797L13.2254 16.3835C9.8806 14.8065 7.18884 12.1146 5.61184 8.76968L8.2156 6.63864C8.38898 6.49754 8.51167 6.30377 8.56509 6.0867C8.61851 5.86962 8.59975 5.64105 8.51165 5.43559L6.44919 0.622251C6.35241 0.401017 6.18156 0.220427 5.96603 0.111549C5.7505 0.00267085 5.50377 -0.0276886 5.26828 0.0256935L0.798693 1.05641C0.571565 1.10909 0.368973 1.23714 0.223935 1.4197C0.0788969 1.60226 -3.62271e-05 1.82856 1.22456e-07 2.06172C-0.000290075 4.68014 0.51521 7.27296 1.51706 9.69211C2.51891 12.1113 3.98748 14.3094 5.83891 16.1609C7.69033 18.0124 9.88834 19.481 12.3074 20.4829C14.7265 21.4848 17.3192 22.0003 19.9375 22C20.1706 22 20.3969 21.9211 20.5795 21.7761C20.762 21.631 20.8901 21.4284 20.9428 21.2013L21.9745 16.7326C22.0278 16.4957 21.9969 16.2476 21.887 16.031C21.7771 15.8145 21.5952 15.643 21.3725 15.5461Z" fill="#F35AAD"/>
</svg>
