<svg width="20" height="20" viewBox="0 0 20 20" fill="none" xmlns="http://www.w3.org/2000/svg">
<path d="M9.95797 0.831078C11.2266 0.831078 12.4383 1.07908 13.593 1.57508C14.7476 2.07108 15.7436 2.73774 16.581 3.57508C17.4183 4.41241 18.085 5.40841 18.581 6.56308C19.077 7.71774 19.325 8.92941 19.325 10.1981C19.325 11.8894 18.9063 13.4547 18.069 14.8941C17.2316 16.3334 16.0933 17.4717 14.654 18.3091C13.2146 19.1464 11.6493 19.5651 9.95797 19.5651C9.0313 19.5651 8.14497 19.4431 7.29897 19.1991C7.7703 18.4344 8.0873 17.7594 8.24997 17.1741L8.90897 14.6131C9.07163 14.9217 9.37263 15.1941 9.81197 15.4301C10.2513 15.6661 10.7146 15.7841 11.202 15.7841C12.178 15.7841 13.052 15.5034 13.824 14.9421C14.596 14.3807 15.1936 13.6124 15.617 12.6371C16.0403 11.6617 16.2516 10.5641 16.251 9.34408C16.251 7.89674 15.694 6.64041 14.58 5.57508C13.466 4.50974 12.047 3.97708 10.323 3.97708C9.26563 3.97708 8.29797 4.15608 7.41997 4.51408C6.54197 4.87208 5.83463 5.33974 5.29797 5.91708C4.7613 6.49441 4.35063 7.12041 4.06597 7.79508C3.7813 8.46974 3.63897 9.14874 3.63897 9.83208C3.63897 10.6774 3.79763 11.4174 4.11497 12.0521C4.4323 12.6867 4.90797 13.1341 5.54197 13.3941C5.65597 13.4427 5.75363 13.4467 5.83497 13.4061C5.9163 13.3654 5.9733 13.2881 6.00597 13.1741C6.11997 12.7674 6.18497 12.5154 6.20097 12.4181C6.2663 12.2394 6.22563 12.0687 6.07897 11.9061C5.6563 11.4347 5.44497 10.8247 5.44497 10.0761C5.44497 8.84008 5.87197 7.77908 6.72597 6.89308C7.57997 6.00708 8.69797 5.56408 10.08 5.56408C11.3 5.56408 12.2513 5.89741 12.934 6.56408C13.6166 7.23074 13.9583 8.10074 13.959 9.17408C13.959 10.0687 13.837 10.8941 13.593 11.6501C13.349 12.4061 12.9993 13.0117 12.544 13.4671C12.0886 13.9224 11.5683 14.1501 10.983 14.1501C10.495 14.1501 10.0966 13.9711 9.78797 13.6131C9.4793 13.2551 9.38163 12.8321 9.49497 12.3441C9.5603 12.1161 9.64563 11.8234 9.75097 11.4661C9.8563 11.1087 9.94563 10.8037 10.019 10.5511C10.0923 10.2984 10.1613 10.0261 10.226 9.73408C10.2906 9.44208 10.3233 9.19808 10.324 9.00208C10.324 8.59541 10.2183 8.26208 10.007 8.00208C9.79563 7.74208 9.48663 7.61208 9.07997 7.61208C8.57597 7.61208 8.15297 7.84374 7.81097 8.30708C7.46897 8.77041 7.2983 9.35174 7.29897 10.0511C7.29897 10.3111 7.3193 10.5631 7.35997 10.8071C7.40063 11.0511 7.4453 11.2301 7.49397 11.3441L7.56697 11.5151C6.9003 14.4097 6.49363 16.1091 6.34697 16.6131C6.21697 17.2311 6.1683 17.9547 6.20097 18.7841C4.52563 18.0361 3.17163 16.8894 2.13897 15.3441C1.1063 13.7987 0.589966 12.0831 0.589966 10.1971C0.589966 7.61108 1.50463 5.40341 3.33397 3.57408C5.1633 1.74474 7.37097 0.830078 9.95697 0.830078L9.95797 0.831078Z" fill="#022479"/>
</svg>
