<svg width="20" height="21" viewBox="0 0 20 21" fill="none" xmlns="http://www.w3.org/2000/svg">
<path d="M10 2.20947C12.6289 2.20947 12.9375 2.22119 13.9766 2.26807C14.9375 2.31104 15.457 2.47119 15.8047 2.60791C16.2656 2.7876 16.5938 2.99854 16.9375 3.34229C17.2812 3.68604 17.4961 4.01416 17.6719 4.4751C17.8047 4.82275 17.9688 5.34229 18.0117 6.30322C18.0586 7.34229 18.0703 7.65088 18.0703 10.2798C18.0703 12.9087 18.0586 13.2173 18.0117 14.2563C17.9688 15.2173 17.8086 15.7368 17.6719 16.0845C17.4922 16.5454 17.2812 16.8735 16.9375 17.2173C16.5938 17.561 16.2656 17.7759 15.8047 17.9517C15.457 18.0845 14.9375 18.2485 13.9766 18.2915C12.9375 18.3384 12.6289 18.3501 10 18.3501C7.37109 18.3501 7.0625 18.3384 6.02344 18.2915C5.0625 18.2485 4.54297 18.0884 4.19531 17.9517C3.73438 17.772 3.40625 17.561 3.0625 17.2173C2.71875 16.8735 2.50391 16.5454 2.32812 16.0845C2.19531 15.7368 2.03125 15.2173 1.98828 14.2563C1.94141 13.2173 1.92969 12.9087 1.92969 10.2798C1.92969 7.65088 1.94141 7.34229 1.98828 6.30322C2.03125 5.34229 2.19141 4.82275 2.32812 4.4751C2.50781 4.01416 2.71875 3.68604 3.0625 3.34229C3.40625 2.99854 3.73438 2.78369 4.19531 2.60791C4.54297 2.4751 5.0625 2.31104 6.02344 2.26807C7.0625 2.21729 7.37109 2.20947 10 2.20947ZM10 0.436035C7.32812 0.436035 6.99219 0.447754 5.94141 0.494629C4.89453 0.541504 4.17969 0.709473 3.55469 0.95166C2.90625 1.20166 2.35938 1.5415 1.8125 2.08838C1.26563 2.63525 0.929687 3.18604 0.675781 3.83057C0.433594 4.45557 0.265625 5.17041 0.21875 6.22119C0.171875 7.26807 0.160156 7.604 0.160156 10.2759C0.160156 12.9478 0.171875 13.2837 0.21875 14.3345C0.265625 15.3813 0.433594 16.0962 0.675781 16.7251C0.925781 17.3735 1.26563 17.9204 1.8125 18.4673C2.35938 19.0142 2.91016 19.3501 3.55469 19.604C4.17969 19.8462 4.89453 20.0142 5.94531 20.061C6.99609 20.1079 7.32812 20.1196 10.0039 20.1196C12.6797 20.1196 13.0117 20.1079 14.0625 20.061C15.1094 20.0142 15.8242 19.8462 16.4531 19.604C17.1016 19.354 17.6484 19.0142 18.1953 18.4673C18.7422 17.9204 19.0781 17.3696 19.332 16.7251C19.5742 16.1001 19.7422 15.3853 19.7891 14.3345C19.8359 13.2837 19.8477 12.9517 19.8477 10.2759C19.8477 7.6001 19.8359 7.26807 19.7891 6.21729C19.7422 5.17041 19.5742 4.45557 19.332 3.82666C19.082 3.17822 18.7422 2.63135 18.1953 2.08447C17.6484 1.5376 17.0977 1.20166 16.4531 0.947754C15.8281 0.705566 15.1133 0.537598 14.0625 0.490723C13.0078 0.447754 12.6719 0.436035 10 0.436035Z" fill="#022479"/>
</svg>
